<svg width="114" height="137" viewBox="0 0 114 137" fill="none" xmlns="http://www.w3.org/2000/svg"><path d="M16.604 65.985h22.66v-7.7H8.904l-2.09 42.79h8.03v-1.76c.77-5.61 3.96-8.25 8.69-8.25 6.16 0 9.02 4.18 9.02 11.11v14.96c0 6.93-2.86 11.11-9.02 11.11s-9.02-4.18-9.02-11.11v-5.72h-8.03v5.17c0 11.77 5.5 19.47 17.27 19.47s17.38-7.7 17.38-19.47v-15.07c0-11-4.4-18.26-14.3-18.26-5.17 0-9.02 2.2-11.44 6.38l1.21-23.65zm37.148 16.72v10.67h8.25v-10.67h-8.25zm0 41.91v10.67h8.25v-10.67h-8.25zm38.64-67.1c-12.21 0-17.71 7.59-17.71 19.8v39.27c0 11.77 5.83 19.47 17.71 19.47 11.771 0 17.601-7.7 17.601-19.47v-11.66c0-11.11-4.4-18.26-14.3-18.26-6.16 0-10.34 2.97-12.43 8.25v-17.27c0-8.25 2.86-12.43 9.35-12.43 6.27 0 9.13 4.07 9.13 11v1.98h8.03v-1.43c0-11.77-5.5-19.25-17.38-19.25zm0 36.96c6.16 0 9.131 4.18 9.131 11.11v11.55c0 6.93-2.97 11.11-9.13 11.11-6.27 0-9.13-4.18-9.13-11.11v-11.55c0-6.93 2.86-11.11 9.13-11.11zM40.29 8.66C35.416 1.046 28.773.286 28.773.286s1.118 1.025 1.62 1.528c.307.302.614.627.921.943 2.597 2.752 4.302 5.308 5.368 8.041.993 2.54 1.251 4.88.79 7.152a9.562 9.562 0 01-1.02 2.79l-9.8-9.972 4.64-4.52h-7.247c-.35.028-.676.18-.922.424-1.438 1.254-2.824 2.478-3.995 3.511-.633.561-1.266 1.128-1.877 1.673l-1.312 1.173 4.222 4.234.587-.543a13.2 13.2 0 00.307-.283l.673-.66c.642-.627 1.306-1.272 1.951-1.923 1.973 2.21 3.95 4.42 5.93 6.63l2.425 2.713 1.036 1.17.018.02-.037.025a9.515 9.515 0 01-4.778 1.594c-1.936.087-3.49-.374-4.747-1.404-.615-.5-1.196-1.064-1.764-1.61-.29-.277-.578-.554-.873-.829a5.57 5.57 0 01-.307-.301c-.615-.603-.94-.603-1.657-.211-.104.057-.227.124-.384.202-.33.208-.718.305-1.109.277a1.21 1.21 0 00-1.045.256 1.181 1.181 0 00-.34 1.028c0 .112 0 .184-.274.437a6.88 6.88 0 01-2.25 1.426 6.46 6.46 0 00-3.03 2.369c-.614.858-.654 1.808-.116 2.525.304.382.73.655 1.21.774.479.119.985.078 1.438-.117 1.024-.422 2.305-1.082 3.162-2.471.523-.8 1.102-1.564 1.734-2.285a.487.487 0 01.365-.169.932.932 0 01.66.242c.22.205.437.41.652.617.83.834 1.732 1.595 2.698 2.273 2.293 1.5 4.649 2.251 7.068 2.251a13.437 13.437 0 006.044-1.534c.507-.253.987-.554 1.454-.844l.187-.117 1.76 1.953 3.962-3.566-.449-.464-.513-.536c-.384-.404-.75-.784-1.128-1.16a13.636 13.636 0 002.182-5.63c.5-3.665-.363-7.273-2.572-10.726zm62.324 16.48L112 18.027l-3.268-.67 1.614-6.15-5.524 1.212-.381-3.01-4.544 4.35 1.318-9.917-3.697 1.59L95.001.286l-2.519 5.148-3.694-1.591 1.315 9.917-4.541-4.35-.384 3.01-5.521-1.213 1.615 6.151-3.272.67 9.386 7.113-1.699 3.598 8.943-2.73-.335 4.277h1.41l-.332-4.277 8.94 2.73-1.699-3.598z" fill="#D73B3B"/></svg>