<svg width="538" height="524" viewBox="0 0 538 524" fill="none" xmlns="http://www.w3.org/2000/svg"><g clip-path="url(#clip0_109_1315)" fill="#D73B3B"><path d="M496.992 155.144c2.21 1.872 5.342 5.352 9.95 15.738l9.716 22.324c1.849 4.336 3.472 8.673 1.468 7.959-.059-.021-5.871-2.411-12.089-16.32l-2.558-5.874a72.318 72.318 0 013.136 2.127l2.667 6.125c2.776 6.241 4.81 7.683 5.774 7.988.319-.359.529-.593-1.048-4.278l-9.93-22.812c-2.168-4.889-4.08-7.604-5.694-8.068l-.222.129c-.105.527-.193.982 1.19 4.228l2.022 4.646a70.239 70.239 0 00-3.137-2.126l-1.916-4.404c-3.636-8.632-1.85-8.794-.462-8.122.401.209.78.457 1.133.74zm-14.186-8.774c2.86 1.546 6.709 4.625 11.296 14.786l9.716 22.323c1.996 4.738 3.724 9.964-.658 8.277-2.675-1.032-7.867-4.316-12.58-14.728l-2.558-5.878c1.306.518 2.583 1.052 3.833 1.604l2.667 6.125c3.547 7.909 6.772 7.52 6.998 7.002.323-.764-.75-3.305-1.102-4.14l-9.93-22.812c-3.64-8.131-6.676-7.683-6.961-7.069-.373.802.709 3.363 1.065 4.207l2.021 4.646a96.059 96.059 0 00-3.832-1.605l-1.917-4.403c-3.879-9.33-.91-9.43 1.208-8.661.23.083.532.217.755.326m-17.172-6.531c3.153 1.078 7.883 3.689 12.504 13.842l9.716 22.323c1.204 2.904 4.873 11.732-3.539 8.586-4.851-1.817-8.919-6.238-12.089-13.148l-2.558-5.875c1.505.343 2.994.707 4.453 1.091l2.667 6.121c3.665 8.097 7.594 6.952 7.884 6.3.444-.998-.483-3.208-.927-4.274l-9.93-22.812c-3.711-8.21-7.506-7.103-7.858-6.363-.482 1.024.453 3.263.901 4.337l2.022 4.646a134.497 134.497 0 00-4.458-1.091l-1.916-4.403c-4.29-10.445.759-9.965 3.128-9.28zm-6.533 18.551l-7.129-16.42a171.523 171.523 0 00-3.535-.576c-2.738-.314-3.136.957-1.514 4.855l2.516 5.736c1.741 3.823 3.376 5.306 6.483 5.879 1.078.167 2.151.342 3.212.526m-13.032-22.407c2.876.44 5.686.94 8.428 1.5l19.239 44.2c-1.607-.332-3.239-.64-4.894-.924l-7.409-17.021c-1.06-.184-2.13-.359-3.212-.526-6.613-1.254-10.706-4.755-14.123-12.138l-2.252-5.18c-1.116-2.733-4.512-11.055 4.223-9.911zm-56.971-1.805c7.1-.271 12.064 3.129 15.625 10.7l9.715 22.323c6.198 15.459-10.864 11.832-12.999 10.93-5.451-2.294-7.724-7.132-8.701-9.192l-2.558-5.874c2.03-.23 4.047-.418 6.047-.627l2.667 6.125c3.673 7.939 9.682 5.235 10.307 3.589.537-1.408-.247-3.342-.667-4.362l-9.925-22.82c-3.661-7.905-9.678-5.268-10.312-3.639-.549 1.42.244 3.367.671 4.412l2.021 4.642c-2.004.192-4.02.401-6.046.626l-1.917-4.403c-3.807-9.564 1.204-12.037 6.072-12.43zm-26.447 3.121c7.51-.856 12.672 2.256 16.245 9.798l9.724 22.323c6.005 15.112-11.02 13.754-15.096 11.924-4.826-2.164-6.906-6.526-7.791-8.39l-2.558-5.874c2.122-.389 4.235-.764 6.34-1.115l2.663 6.125c3.682 7.9 10.064 4.637 10.769 2.886.599-1.508-.176-3.43-.596-4.462l-9.93-22.812c-3.677-7.892-10.064-4.679-10.772-2.924-.612 1.521.176 3.468.599 4.516l2.022 4.642c-2.1.357-4.212.728-6.336 1.116l-1.921-4.404c-3.774-9.585 1.526-12.534 6.646-13.332M335 142.551c7.833-1.441 13.15 1.391 16.731 8.904l9.708 22.344c6.004 15.216-11.67 15.02-15.88 13.419-4.953-1.884-7.037-6.237-7.93-8.097l-2.558-5.874a383.318 383.318 0 016.584-1.604l2.662 6.121c3.682 7.871 10.366 4.048 11.121 2.197.65-1.604-.122-3.53-.541-4.562l-9.93-22.812c-3.698-7.897-10.382-4.095-11.137-2.244-.654 1.609.105 3.489.558 4.596l2.021 4.642a536.321 536.321 0 00-6.58 1.604l-1.916-4.403c-3.774-9.61 1.765-13.04 7.078-14.227m-13.951 28.202l-7.149-16.42c-1.636.457-3.274.922-4.915 1.396-3.774 1.211-4.529 3.033-2.935 6.964l2.516 5.737c1.774 3.794 3.803 4.696 8.03 3.589 1.493-.432 2.984-.85 4.474-1.254m-14.421-20.434c3.97-1.148 7.922-2.24 11.855-3.276l19.239 44.203a407.512 407.512 0 00-6.936 1.877l-7.409-17.022c-1.488.412-2.979.83-4.475 1.254-8.881 2.297-13.934.246-17.448-7.103l-2.256-5.181c-1.879-4.784-3.153-11.519 7.43-14.778m-71.248 25.863c8.269-3.397 13.796-1.513 17.394 5.924l9.716 22.323c5.933 15.267-12.639 20.61-19.109 17.698-3.481-1.562-5.07-4.842-5.833-6.417l-2.558-5.874a545.947 545.947 0 016.814-3.23l2.667 6.121c3.682 7.8 10.727 2.089 11.553-.117.712-1.914-.059-3.852-.474-4.893l-9.93-22.812c-3.728-7.875-10.768-2.143-11.586.076-.7 1.913.054 3.806.507 4.938l2.021 4.642a567.635 567.635 0 00-6.814 3.229l-1.916-4.403c-3.774-9.702 2.03-14.711 7.548-17.205zm-29.328 14.339c8.013-3.865 13.632-2.185 17.192 5.13l9.716 22.324c5.871 15.182-12.227 21.725-18.45 18.997-3.355-1.454-4.923-4.734-5.682-6.309l-2.575-5.882a448.238 448.238 0 016.437-3.539l2.663 6.121c3.648 7.729 10.437 1.612 11.221-.656.683-1.998-.088-3.936-.503-4.981l-9.93-22.812c-3.665-7.733-10.542-1.608-11.276.631-.654 1.977.105 3.873.558 5.014l2.021 4.642a488.114 488.114 0 00-6.432 3.539l-1.887-4.421c-3.774-9.722 1.677-15.041 6.948-17.819m-27.496 15.521c7.393-4.123 12.698-2.578 16.224 4.73l9.716 22.323c5.942 15.233-10.819 22.298-16.714 19.708-3.154-1.383-4.726-4.663-5.485-6.234l-2.554-5.891c1.94-1.253 3.905-2.5 5.896-3.739l2.663 6.125c3.74 7.938 9.699 1.002 10.286-.418.914-2.227 0-4.479-.42-5.561l-9.929-22.812c-3.774-7.976-9.8-.999-10.358.418-.872 2.197.046 4.487.487 5.586l2.021 4.641a496.758 496.758 0 00-5.896 3.74l-1.916-4.404c-3.816-9.735 1.144-15.27 5.975-18.203m-11.251 35.738l-7.128-16.419c-1.376.935-2.74 1.877-4.093 2.824-3.053 2.277-3.564 4.487-1.95 8.448l2.516 5.736c1.778 3.811 3.468 4.291 6.97 1.981a368.48 368.48 0 013.723-2.57m-13.595-19.006a472.336 472.336 0 0110.014-6.801l19.243 44.203a442.24 442.24 0 00-5.925 3.974l-7.41-17.022c-1.258.836-2.495 1.709-3.723 2.57-7.255 4.758-11.444 3.76-14.941-3.61l-2.252-5.181c-2.096-5.248-3.401-12.049 4.994-18.133zm-50.072 41.095c4.952-4.596 9.033-3.288 12.475 4.011l9.716 22.323c5.774 14.41-4.579 22.737-9.133 21.233-2.868-.948-4.545-4.529-5.451-6.451l-2.558-5.874a317.482 317.482 0 013.774-4.053l2.667 6.125c3.715 8.064 7.128.23 7.128.142.978-2.669-.18-5.502-.675-6.71l-9.929-22.812c-3.699-7.988-7.209-.23-7.238-.138-.918 2.603.218 5.373.767 6.706l2.021 4.646a240.141 240.141 0 00-3.774 4.049l-1.916-4.404c-3.17-7.851-2.461-14.172 2.097-18.801m-15.771 17.543c4.139-4.621 7.812-3.318 11.23 3.994l9.715 22.323c5.871 14.469-2.839 22.758-6.935 21.225-2.55-.953-4.215-4.538-5.108-6.464l-2.558-5.874a232.66 232.66 0 013.074-4.024l2.663 6.125c3.509 7.671 6.025.94 6.13.648 1.023-2.82-.243-5.891-.784-7.203l-9.93-22.812c-3.56-7.746-6.201-.719-6.227-.643-.96 2.74.285 5.753.88 7.198l2.026 4.646a194.164 194.164 0 00-3.073 4.024l-1.917-4.404c-3.208-7.863-2.935-14.176.814-18.759zm-12.71 17.402c3.27-4.596 6.512-3.25 9.909 4.078l9.716 22.323c5.799 14.205-1.112 22.607-4.613 21.057-2.218-.973-3.866-4.566-4.751-6.497l-2.558-5.874a156.116 156.116 0 012.327-3.952l2.667 6.125c2.768 6.087 4.403 3.342 5.137 1.186.985-2.924-.39-6.246-.973-7.662l-9.934-22.812c-2.6-5.699-4.294-3.464-5.074-1.621-1.258 2.924.214 6.421.914 8.097l2.022 4.641a167.165 167.165 0 00-2.328 3.953l-1.916-4.404c-3.254-7.884-3.434-14.155-.541-18.638m1.623 36.408l-7.129-16.42a106.78 106.78 0 00-1.371 2.862c-.948 2.26-.692 4.475.99 8.452l2.516 5.737c1.706 3.789 2.625 4.27 3.774 1.976.402-.869.822-1.738 1.258-2.607m-10.878-18.968a124.958 124.958 0 013.485-6.949l19.243 44.2a105.06 105.06 0 00-2.097 4.086l-7.41-17.021a110.71 110.71 0 00-1.257 2.607c-2.386 4.696-4.512 3.701-7.854-3.664l-2.252-5.181c-2.223-5.31-4.437-12.162-1.845-18.078m-8.731 37.969c-.05-1.792.105-1.851.625-2.051 1.166.539 2.55 3.229 4.273 7.102l9.72 22.324c5.967 14.021 4.906 19.528 4.89 19.574l-.281.125c-.625-.581-1.12-1.04-3.833-7.207l-2.558-5.875a54.947 54.947 0 01-.482-3.342l2.667 6.125c1.43 3.251 1.677 3.518 2.033 3.86.168-.25.84-1.888-2.381-9.408l-9.922-22.817c-1.404-3.183-1.732-3.472-2.096-3.81a4.54 4.54 0 01-.235.146c-.18 1.671.6 4.341 2.696 9.213l2.021 4.646c.126 1.114.287 2.228.483 3.342l-1.917-4.404c-2.31-5.364-5.41-13.018-5.678-17.547m11.016 33.361a58.421 58.421 0 01-.319-.748l-2.02-4.646c-2.324-5.344-3.452-7.959-3.687-8.999.42.518.42.518 11.809 26.71 2.382 5.523 3.266 8.046 3.58 9.058-.23-.418-.23-.418-4.44-10.082l.319.748 6.789 15.596c-3.883-11.255-3.883-11.255-16.933-41.233-2.096-4.758-2.889-6.325-3.619-7.286.025.601.14 1.195.34 1.763.7 1.864.793 2.089 2.03 4.993l6.151 14.126zm355.237-243.741c2.864 3.844 3.774 5.063 6.872 9.25 3.101.108 6.144.276 9.129.501l-4.889 5.239a3803.42 3803.42 0 016.831 9.317c-2.977-1.809-6.961-4.178-9.959-5.966l-5.234 5.603c-.341-3.064-.684-6.128-1.031-9.192-3.074-1.7-7.187-3.94-10.282-5.602a270.88 270.88 0 019.644-.055c-.352-3.036-.71-6.073-1.073-9.112M63.466 346.116c1.732 2.812 2.516 4.095 4.458 7.199a86.348 86.348 0 011.874-6.451c.243 3.271.604 7.629.906 10.896 1.908 3.029 2.461 3.911 4.55 7.191a240.531 240.531 0 01-3.8-.493c.42 3.238 1.024 7.545 1.51 10.771-1.757-5.29-1.862-5.603-3.673-11.11a93.02 93.02 0 01-3.196-.635c.224-2.061.541-4.143.952-6.246-1.748-5.431-1.816-5.619-3.58-11.122zm67.764-92.76c2.843 3.063 3.774 4.053 6.554 7.049a398.828 398.828 0 018.576-6.819 1014.704 1014.704 0 00-4.504 11.181l6.625 7.069c-2.78-.046-6.487-.1-9.267-.138-1.258 3.367-2.86 7.867-4.055 11.247-.386-2.782-.838-6.179-1.543-11.305-2.642-.03-6.164-.059-8.806-.084a322.952 322.952 0 017.888-6.911c-.248-1.855-.751-5.715-1.468-11.28m144.443-81.309l7.615 7.842a534.726 534.726 0 0111.699-4.069c-2.096 2.678-4.902 6.267-6.994 8.937l7.615 7.904c-3.585-.697-8.366-1.608-11.951-2.272a2387.064 2387.064 0 00-7.049 9.287l-.361-10.583c-3.593-.589-8.386-1.362-11.984-1.926a541.938 541.938 0 0111.741-4.595l-.348-10.525m248.777 28.628c1.283 3.004 1.824 4.283 3.208 7.571-.089-.289-.198-.677-.311-.957l-5.309-12.217.42.94a50.092 50.092 0 00-2.646-5.168c1.426 2.925 3.334 6.848 4.659 9.831"/><path d="M77.153 407.767a571.285 571.285 0 013.162 7.424l-6.79-15.596 1.07 2.298 2.558 5.874zm-7.799-17.923a49.027 49.027 0 01-1.07-2.294l-6.151-14.126c2.39 5.481 4.835 10.938 7.22 16.42zm-2.449-8.482a8.373 8.373 0 00-1.179-1.441l-.15.23c.222.894.716 2.218 2.935 7.315l9.716 22.323c2.516 5.762 7.208 16.487 9.644 18.041l.298-.075c.055-.798.113-1.629-2.483-7.696l-2.553-5.874c-.8-.872-1.57-1.766-2.31-2.682l2.662 6.125c1.392 3.225 1.417 3.609 1.45 4.052-.57-.246-1.626-1.45-4.775-8.627l-9.93-22.813c-1.392-3.225-1.45-3.563-1.526-3.994.054.03 1.434.798 4.851 8.57l2.021 4.646c.743.91 1.51 1.804 2.31 2.678l-1.94-4.4c-1.095-2.482-4.437-10.027-9.041-16.374m18.283 31.67l-7.15-16.42c.67.594 1.356 1.174 2.055 1.743 1.74 1.479 2.96 3.342 4.663 7.194l2.516 5.737c.658 1.546 1.887 4.42.603 3.873a4.672 4.672 0 01-.8-.539 54.513 54.513 0 01-1.867-1.588m-7.447-20.088a62.759 62.759 0 01-4.801-4.32l19.218 44.208a57.1 57.1 0 002.746 2.577l-7.41-17.021a60.818 60.818 0 001.867 1.588c.935.714 3.426 2.615 2.977-.673-.252-1.809-1.338-4.378-2.055-6.079l-2.256-5.181c-2.168-4.842-5.296-10.934-10.307-15.091m38.562 17.26c-5.191-1.015-6.089 1.743-2.994 9.221l9.716 22.319c7.003 15.338 16.484 15.363 17.792 11.887.889-2.373-.658-6.154-1.401-7.972l-2.558-5.874a126.05 126.05 0 01-4.662-.915l2.662 6.125c2.302 5.523.139 5.548-2.096 4.596-2.898-1.254-4.512-4.805-5.2-6.326l-9.93-22.812c-.667-1.596-2.692-6.451 2.013-4.521 2.994 1.229 4.533 4.621 5.271 6.267l2.025 4.642c1.529.326 3.084.631 4.663.915l-1.92-4.403c-4.256-9.238-9.645-12.242-13.394-13.132m20.665 3.517c-5.904-.418-7.129 2.619-4.03 10.148l9.716 22.307c6.814 14.765 17.796 14.326 19.549 10.265 1.124-2.599-.356-6.267-1.149-8.214l-2.558-5.874c-1.75-.117-3.477-.257-5.183-.418l2.667 6.121c2.881 6.981-2.096 5.343-3.111 4.942-2.914-1.136-4.424-4.437-5.07-5.849l-9.93-22.812c-2.641-6.388 1.258-5.536 3.053-4.876 2.986 1.099 4.487 4.383 5.129 5.787l2.021 4.642c1.705.156 3.431.295 5.179.417l-1.904-4.387c-3.456-7.424-8.286-11.531-14.366-12.199m22.857 1.337c-6.424.188-7.942 3.606-4.923 11.072l9.72 22.323c6.865 14.74 19.73 13.62 21.361 7.88.772-2.708-.574-6.063-1.22-7.675l-2.558-5.875c-1.895.056-3.774.088-5.636.096l2.667 6.125c3.25 7.939-4.055 5.352-4.13 5.327-2.831-1.073-4.231-4.115-4.831-5.431l-9.93-22.779c-3.354-8.155 4.495-5.109 4.579-5.072 2.516 1.162 3.774 3.861 4.382 5.16l2.021 4.646c1.862 0 3.741-.032 5.636-.096l-1.92-4.404c-3.481-7.424-8.605-11.218-15.218-11.28m30.087 21.714l-7.128-16.42a263.66 263.66 0 004.327-.296c3.426-.147 5.267 1.169 7.041 5.013l2.516 5.737c1.581 3.877.88 5.314-2.785 5.694a268.52 268.52 0 01-3.933.263m-5.179-22.143c-3.505.262-6.966.462-10.382.602l19.243 44.203c1.999-.084 4.017-.188 6.055-.313l-7.41-17.017c1.306-.084 2.617-.173 3.934-.268 7.606-.835 9.56-4.403 6.545-11.953l-2.256-5.181c-2.344-4.976-6.248-10.621-15.729-10.073zm65.462-11.231c-7.8 2.219-9.951 6.581-6.973 14.143l9.715 22.323c6.894 14.435 22.598 9.284 24.934 2.352 1.103-3.279-.227-6.664-.864-8.293l-2.558-5.874c-2.22.61-4.434 1.201-6.642 1.775l2.667 6.121c3.296 8.189-5.623 7.462-6.995 6.86-2.167-.948-3.203-3.158-3.698-4.215l-9.942-22.812c-3.275-8.148 5.577-7.437 6.99-6.844 2.159.903 3.199 3.13 3.703 4.199l2.021 4.646a438.606 438.606 0 006.642-1.776l-1.916-4.403c-3.54-7.37-9.289-10.132-17.097-8.202m28.913-8.088c-8.013 2.807-10.265 7.441-7.292 15.041l9.716 22.323c6.932 14.443 23.013 8.08 25.445.764 1.145-3.438-.18-6.835-.813-8.469l-2.558-5.874c-2.262.769-4.517 1.52-6.764 2.252l2.667 6.125c3.287 8.193-5.808 8.043-7.2 7.521-2.21-.836-3.246-3.038-3.745-4.095l-9.929-22.812c-3.179-7.938 5.581-8.356 7.711-7.282 1.845.911 2.713 2.757 3.233 3.86l2.021 4.642c2.237-.73 4.49-1.48 6.76-2.252l-1.916-4.404c-3.54-7.349-9.373-9.814-17.336-7.324m29.395-10.158c-8.122 3.389-10.42 8.29-7.455 15.898l9.716 22.319c6.961 14.443 23.235 6.881 25.721-.802 1.162-3.602-.159-7.007-.796-8.645l-2.558-5.874a521.081 521.081 0 01-6.823 2.728l2.667 6.121c3.242 8.101-5.661 8.962-7.829 7.972-1.878-.857-2.776-2.749-3.254-3.76l-9.929-22.808c-3.175-7.939 5.686-8.92 7.833-7.972 1.861.836 2.729 2.666 3.249 3.76l2.022 4.646a556.873 556.873 0 006.822-2.728l-1.916-4.404c-3.548-7.328-9.423-9.496-17.47-6.447m34.176 12.28l-7.129-16.419c1.678-.73 3.355-1.47 5.032-2.219 3.971-1.65 5.921-.902 7.733 2.958l2.516 5.737c1.572 3.919.679 5.92-3.535 7.938-1.521.68-3.045 1.352-4.571 2.018m-4.478-24.049a573.578 573.578 0 01-12.161 5.26l19.239 44.2a564.447 564.447 0 007.129-3.042l-7.41-17.021a751.711 751.711 0 004.575-2.018c8.672-4.178 11.1-9.225 8.114-16.879l-2.256-5.181c-2.365-4.913-6.466-9.956-17.239-5.319m67.508-36.762c-7.032 4.821-8.931 10.583-5.979 18.132l9.716 22.323c6.789 14.097 20.354 3.422 22.43-3.484 1.333-4.445-.143-8.201-.936-10.219l-2.557-5.875a428.422 428.422 0 01-5.708 3.802l2.667 6.125c3.25 8.064-4.516 10.324-6.466 9.61-1.719-.631-2.604-2.507-3.082-3.522l-9.93-22.812c-3.17-7.914 4.613-10.329 6.513-9.631 1.677.61 2.516 2.444 3.036 3.543l2.021 4.642a483.192 483.192 0 005.707-3.802l-1.916-4.404c-1.3-2.711-5.259-10.967-15.516-4.428zm24.25-16.591c-6.353 5.013-7.925 10.862-4.948 18.429l9.729 22.323c6.617 13.821 18.094 3.593 20.258-2.791 1.677-4.976-.114-9.517-.881-11.456l-2.558-5.874a352.93 352.93 0 01-5.107 3.927l2.662 6.125c3.263 8.059-3.82 10.5-5.64 9.823-1.606-.602-2.491-2.482-2.964-3.493l-9.93-22.812c-3.187-7.913 3.921-10.504 5.686-9.844 1.552.585 2.407 2.419 2.935 3.514l2.021 4.646a473.686 473.686 0 005.112-3.927l-1.95-4.404c-1.291-2.711-5.216-10.955-14.429-4.178m21.65-17.121c-5.611 5.147-6.827 11.063-3.828 18.617l9.716 22.323c6.667 14.018 16.4 2.528 18.031-1.947 1.979-5.456-.038-10.503-.898-12.655l-2.558-5.874a376.723 376.723 0 01-4.482 4.011l2.663 6.121c3.279 8.046-3.078 10.612-4.764 9.96-1.489-.581-2.365-2.461-2.839-3.472l-9.93-22.812c-3.212-7.938 3.175-10.625 4.81-9.981 1.434.564 2.285 2.398 2.793 3.492l2.025 4.646a289.972 289.972 0 004.479-4.01l-1.917-4.404c-1.279-2.703-5.166-10.938-13.293-4.015m25.525 7.85l-7.128-16.419a313.874 313.874 0 003.01-2.975c2.34-2.198 3.724-1.638 5.489 2.206l2.516 5.736c1.623 3.94 1.342 6.146-1.107 8.745-.903.902-1.817 1.805-2.742 2.707m-6.491-24.805a307.4 307.4 0 01-7.422 7.182l19.238 44.2a219.126 219.126 0 004.412-4.207l-7.41-17.022c.926-.902 1.84-1.805 2.743-2.707 5.032-5.377 5.765-10.759 2.6-18.576l-2.256-5.18c-2.42-5.181-5.724-9.673-11.905-3.69zm33.081-42.486c-3.627 6.827-1.472 13.888.465 18.605l9.716 22.323c6.03 13.069 9.867 3.447 10.286 2.306 2.374-6.48-.838-14.205-1.878-16.754l-2.558-5.874a121.924 121.924 0 01-2.068 3.923l2.667 6.125c3.653 8.728-.624 10.157-1.098 10.028-1.162-.364-2.156-2.545-2.634-3.594l-9.929-22.812c-3.355-8.038.473-10.273 1.161-10.052 1.086.355 2.097 2.57 2.571 3.635l2.021 4.642a156.747 156.747 0 002.067-3.919l-1.916-4.404c-1.359-2.97-4.965-10.863-8.873-4.178zm8.294-16.883c-2.382 6.718-.071 13.72 1.87 18.408l9.708 22.315c4.696 10.286 7.175 6.451 8.026 4.328 1.677-4.224.838-10.386-2.478-18.328l-2.558-5.875a100.519 100.519 0 01-1.258 3.761l2.667 6.124c3.648 8.649.381 9.973-.03 9.844-.931-.297-2.059-2.803-2.432-3.627l-9.93-22.812c-3.216-7.654-.742-10.156.088-9.881.831.276 1.959 2.741 2.374 3.665l2.021 4.645a89.009 89.009 0 001.258-3.781l-1.916-4.403c-2.273-5.014-5.171-10.061-7.422-4.408m4.839-16.215c-1.053 6.572 1.409 13.482 3.354 18.107l9.716 22.323c3.644 8.068 5.359 7.684 6.16 5.941.889-1.938 1.606-7.031-3.606-19.306l-2.554-5.875a102.425 102.425 0 01-.419 3.589l2.663 6.125c3.799 8.912 1.3 9.681 1.258 9.672-.785-.121-1.917-2.648-2.399-3.73l-9.93-22.812c-3.564-8.407-1.216-9.714-1.191-9.723.495.305.885.543 2.323 3.781l2.022 4.642c.18-1.203.327-2.402.419-3.589l-1.904-4.408c-2.097-4.65-4.361-9.007-5.548-6.058a7.594 7.594 0 00-.356 1.316m10.936 9.472l-7.128-16.419c0-.836 0-1.701-.059-2.541a2.21 2.21 0 01.067-.915l.143-.067c.356.239.838 1.133 1.958 3.686l2.516 5.736c1.736 4.028 2.365 6.1 2.516 8.205.029.769.046 1.542.046 2.315m-9.62-24.366a59.916 59.916 0 01-.046 6.2l19.252 44.191c.067-1.228.105-2.448.1-3.656l-7.409-17.021c0-.777 0-1.546-.046-2.315-.231-3.421-1.258-7.679-5.389-17.326l-2.251-5.181c-2.99-6.781-3.439-6.898-3.955-7.031-.243.53-.297.656-.247 2.131m8.99 11.782l-.226-.46a633.235 633.235 0 013.988 10.061c-1.497-3.614-3.024-7.27-4.529-10.863-.38-.421-.782-.821-1.204-1.199a49.779 49.779 0 00-1.622-5.507c-2.311-5.432-2.311-5.432-4.613-10.83 1.304 2.954 1.614 3.661 2.893 6.585l5.317 12.217m-33.32 67.683c.99 4.905 1.225 6.075 2.269 11.319a239.095 239.095 0 01-5.9 6.964l7.28.034c1.073 5.511 1.115 5.728 2.193 11.331a956.451 956.451 0 002.142-11.281l6.768.05a1850.68 1850.68 0 00-5.598-7.036c.512-3.38 1.162-7.888 1.623-11.28a196.262 196.262 0 01-5.103 6.927c-2.302-2.854-3.099-3.844-5.674-7.015m-116.129 91.219c.168 3.677.332 7.352.495 11.026a570.914 570.914 0 01-11.28 5.778l-.252.125c3.548.28 8.278.644 11.825.907.147 3.485.34 8.335.445 11.009 2.042-3.142 4.742-7.341 6.751-10.503 3.438.225 8.026.518 11.464.731a12805.51 12805.51 0 00-7.401-7.278c1.929-3.192 4.479-7.458 6.374-10.671a497.936 497.936 0 01-10.986 6.167c-2.265-2.227-5.192-5.089-7.448-7.295M221.08 420.92c.21 3.239.424 6.474.642 9.705a402.628 402.628 0 01-10.693 1.513 1148.1 1148.1 0 0011.104 4.47c.223 3.22.45 6.44.679 9.66 1.879-2.089 4.378-4.901 6.252-7.002 3.393 1.253 7.921 2.899 11.322 4.115l-7.388-8.557c1.937-2.206 4.516-5.151 6.449-7.361a417.39 417.39 0 01-11.016 2.059 4141.25 4141.25 0 01-7.355-8.602m-121.698-7.399c.805 3.3 1.111 4.545 2.029 8.251a87.49 87.49 0 01-6.034-3.204 662.608 662.608 0 007.313 8.289c.742 2.924 1.199 4.692 2.097 8.205.767-.965 1.795-2.243 2.57-3.196a738.571 738.571 0 007.817 7.913c-2.302-3.76-3.502-5.753-6.068-10.002.91-1.078 2.13-2.507 3.053-3.572a109.692 109.692 0 01-6.789-2.632 3127.89 3127.89 0 01-5.997-10.052"/></g><g clip-path="url(#clip1_109_1315)"><path d="M308.154 1.479L145.12 522.771m295.157-193.7l-427.3-133.91m213.66 290.941c123.576 0 223.754-100.278 223.754-223.977 0-123.698-100.178-223.976-223.754-223.976S2.883 138.427 2.883 262.125c0 123.699 100.178 223.977 223.754 223.977z" stroke="#D73B3B" stroke-width="2" stroke-miterlimit="10"/><path d="M440.763 328.345c14.078-45.024-70.113-111.476-188.047-148.426-117.934-36.95-224.952-30.405-239.03 14.619-14.078 45.024 70.113 111.477 188.047 148.427 117.935 36.95 224.951 30.404 239.03-14.62z" stroke="#D73B3B" stroke-width="2" stroke-miterlimit="10"/><path d="M440.763 328.345c25.604-81.884-49.244-178.217-167.178-215.166-117.934-36.95-234.295-.524-259.899 81.359-25.604 81.884 49.245 178.218 167.179 215.167 117.934 36.95 234.294.524 259.898-81.36z" stroke="#D73B3B" stroke-width="2" stroke-miterlimit="10"/><path d="M226.637 486.102c123.576 0 223.754-100.278 223.754-223.977 0-123.698-100.178-223.976-223.754-223.976S2.883 138.427 2.883 262.125c0 123.699 100.178 223.977 223.754 223.977z" stroke="#D73B3B" stroke-width="2" stroke-miterlimit="10"/><path d="M308.666 286.958c36.913-118.051 30.375-225.174-14.604-239.267-44.979-14.092-111.367 70.183-148.28 188.234S115.409 461.1 160.388 475.192c44.979 14.093 111.365-70.183 148.278-188.234z" stroke="#D73B3B" stroke-width="2" stroke-miterlimit="10"/><path d="M375.34 307.847c36.913-118.051.524-234.527-81.278-260.157-81.803-25.629-178.041 49.294-214.954 167.345-36.913 118.051-.523 234.527 81.28 260.156 81.802 25.63 178.039-49.293 214.952-167.344z" stroke="#D73B3B" stroke-width="2" stroke-miterlimit="10"/><g clip-path="url(#clip2_109_1315)" fill="#E7E3CC"><path d="M382.416 121.906l-3.194-7.456-1.307-6.825.097-.396-4.518-3.069-.981-5.35-5.207-2.135-3.71-.068-5.161-7.135 1.394-7.554.24-5.49 4.232-3.607-4.272-12.005-.309-9.693.413-.573.722-2.702-.493-.384-9.485 2.867-2.706 1.721-.992-4.227.722-4.353-4.496-2.392 1.984-3.51 5.483-4.635 1.72-.946 2.603-3.596-6.055-2.41.573-.71-1.204-3.167-.803.167-2.97 3.676 1.221 2.679-2.385 1.566-3.573.08-1.542.51-13.046 9.872-2.104 3.682-.763 1.967-2.214 2.478.402 2.5 2.804.999.826 2.013-5.803 4.273-2.243 3.177-1.072 4.388.092 1.56-1.525 1.514-3.275.15-3.934-.941h-1.886l-4.129 6.802-.097.574-1.646 1.36h-3.584l-1.445.447-4.748-.631-5.78 3.934-1.623.064-3.796 3.05.218 3.19 1.376.958.04 2.982-3.687 2.547-1.422 1.497-2.254 1.772-1.566 2.088.046 3.286-1.468.958-9.748-4.313-1.434-2.374 1.056-3.304-4.674 1.072-1.904 2.553.574 1.422-.637 1.721-2.999.849-6.835-.631-2.713 1.422h-3.096l-2.454.97-1.606 1.892-5.046 3.247-2.294.355.103-1.99 7.759-12.555-1.503-4.72-.625-.316-3.263-.895-3.836 1.113-2.133-1.405-2.001-3.178-3.097 1.87.958 4.239-1.571.625-1.6.355-4.117 4.015-2.122-.986-1.371.292-7.122 3.178-3.687 7.651-2.185 2.174h-5.734l-1.187 1.377 3.699 9.383-.31 5.569-.889 1.314-2.867-.264.573-3.441v-1.148l-1.066-3.94-1.004-.941-2.15-3.441-.866-.39-.573.769.04 1.411-1.004 2.495.212 1.835-1.72 1.319-3.022-2.294v-3.31l-1.468 3.356-2.248 9.033 1.95.574 3.188 1.606.826 1.778.419 5.455.745.648.614 1.91-1.251.86-3.842-1.916-1.72-6.005h-.969l.247 2.868-1.721 2.696-7.454 5.546h-1.646l-3.441-3-.149-2.684 4.966.258 4.691-4.353.51-2.398-1.043-3.757 5.16-17.327-1.146-.768-1.554-.19-2.208.866-3.705 3.946-2.081 4.405.04 1.148-1.348 1.921-.573 1.681 2.059 4.284-.425 2.036-1.565.906-2.105-.47-2.162-3.068-2.597-5.644-4.909-2.1-.183 2.117-.574 1.371-2.672 2.351-2.643-.16v-2.507l.573-1.537-2.156.574h-1.485l-4.347-.62-3.246-1.537-2.913-2.26-4.318-.361-4.191 1.222-4.777-1.148 1.319-4.233 2.867-.619-1.044-3.533-1.147 1.944-2.351 1.474-2.529 4.99-2.769-.292-5.316-2.518-1.445.476-2.919 3.252-1.96.224-3.854-4.474-.075.791-3.52 3.029-.282-.04-1.238-.964.418-1.635.19-1.915-.27-2.742.734-2.128.82-1.388 3.567-8.471 1.995-1.027.832 2.116.734 3.442 3.228 5.403 4.903 1.646 2.431-2.392.574-3.734-4.089-15.486-6.05-2.667-2.718 3.717-.344 1.795-4.014 1.887-2.46 3.573-3.681 2.868-5.345 6.355-2.345 4.267-4.553 5.163.573 2.168-1.479 4.502-4.828.384-1.514-4.588 1.474-4.153-2.254 1.056-.23 2.988-.882 1.801-4.709-2.816-4.352 1.216-.31.464-2.867 2.662-4.42 5.873-.46 1.56 2.868 5.334-.092 1.95-2.19 1.48-2.02 2.908-.739 6.739-1.29.218-2.718-1.021-2.443 1.721 1.571 1.64.872.367 2.248 3.212-.54 2.868-1.886 1.147-.487 5.61.063 1.193 2.58 2.736 5.023 8.695-1.485 3.172-.785.493-2.564 3.309-4.065.282-2.867-.482-1.216 2.311h-2.764l-2.466 2.512-4.518 1.056v.355l1.553 10.118.987 1.336 4.1 4.308 4.094 5.89 1.566 3.654 3.922 3.493.258 1.789-.075 2.105 1.807 5.369 1.87 1.113 1.072-1.084.326-4.13 1.72-4.508.717-3.355 2.007-4.514 2.868-1.532h4.427l1.783-.969 1.302-2.008.395-4.101-1.147-4.364.419-2.977 1.497-1.434 5.986-4.193 1.25.912 1.28 2.57 1.542-1.721 4.977-1.451 4.215-.293 5.16 2.805 6.452 8.735 2.076.912 2.471.356 3.831 1.199 1.015.722 1.428 3.602 5.814.889.121-2.03-1.623-2.438 1.273-3.149.797-.498 1.72-.723 2.024-.029.689-4.824 2.293-.573 2.701.929 4.152.063 2.024.683 15.483-.35 1.646.642 3.217 3.442.068 1.416.855 1.434 4.209 2.484 1.669 2.868 4.535-1.721 1.629-.258 2.265.573 1.044.574-.339 1.095-.504.637 2.729 3.028 3.584 11.432 1.915.825 2.765.362 1.485 2.151 4.14-.362 3.601 2.61 3.441 3.969 3.148.757.74-.487 1.817 2.466 1.388.413 3.441-.849 1.829-1.004 1.537-2.156 7.93-3.545 5.792.964 3.292 1.761.791.636 9.175-1.285.338-1.961-.241-4.95 1.468-4.302 2.351.442 5.654 1.807 1.721-.115 2.586 1.417 1.284 2.5 4.364 1.257 4.135-1.664 7.139.167 4.123 2.024.774.126 8.659-1.468.981-.505 6.267-6.687 3.475-1.824 7.833.046 4.381-4.096-.573-6.791.711-4.674-1.365.137-1.818-2.237 4.015-5.517 4.788-2.828 5.734-1.342 15.391 11.328 5.362-.522 6.588.574 1.939 1.6 1.456.384 3.24-3.441 1.795-2.73 4.587-.408 1.279 2.403.298 3.103.987 2.163 1.181 7.101-2.431 3.022-1.033.998.27 2.197 3.544 4.887 5.763-1.147 2.362-2.1 1.348-3.04v-10.169l.688-4.766v-1.956l-1.904-9.252.08-3.86-.992-3.212-5.401-7.645-2.833-6.177-.172-.677-4.014-4.589-3.315-1.342-4.53.62.304 2.867-2.466 2.036-3.027 1.509-1.721-1.853-4.507.253-1.393-2.432 2.746-13.553v-5.082l-.751-3.052-.074-4.863 1.645-4.078 8.894-9.671.23-2.34 2.97-3.281 2.793-1.841 1.273.184 1.405.619v-1.48l.934-2.649 1.147-.907-3.681-3.441-2.718-10.055.814-2.248 2.678-4.537.619-.797.935.419 1.571 2.007 1.462 1.147-2.396-7.422-1.721-1.79.883-4.588 3.636 1.01 6.044 9.102 4.255 18.119-.081 2.294.603 1.681 5.682 8.121 2.294 1.721 15.574 7.651 1.205.402-2.753-7.388zm-298.908-1.72l-1.72 2.805-4.496 2.036-.666-2.49 2.46-6.687 1.767-.522 1.57-1.147 2.438 2.053-1.365 3.946.012.006zm174.473 88.713l-4.398 5.449-.574.407-3.526 4.239-2.632 1.548-2.644-.183-2.38-2.667.333-.998 5.356-2.656 2.379-2.116 3.877-5.426.952-3.344-.258-.075-.327-6.98 1.29-2.002 2.558 1.658.934 6.693-.969 6.453h.029z"/><path d="M181.915 228.382l-.178-.378-1.72-2.163-2.965-.097-4.49-2.151-1.445-.425-4.14-2.173-.287-1.526-1.961-5.311-3.183-6.051-1.571-2.105-.946-.631-2.391.682-3.177 1.509-1.147-.258-1.915-3.987-4.88-1.451-1.365-.613.969-4.629-2.179-1.531-2.076-.689-2.144-.109-2.867.826-5.161-.103-1.961.545-2.329-.138-2.603-1.548h-6.411l-1.296.573.356 1.629-.385 3.407-3.372.04-1.479 1.635 1.267 2.69-2.127 4.267h-1.566l-4.696-1.56-1.204-.642-.975-2.599-2.105-1.336-1.462-.333-2.242-.866-2.999-.051-1.646-1.549-1.038-2.174-5.16-6.355-.264-.097-1.755-1.211-2.66-.447-8.069 2.707-.809.769-3.681-4.015-2.97 2.294-.935 1.858-.986 3.442v1.279l1.364 5.019-2.144 3.86 8.756 1.147 3.67 3.372 1.026.643-1.284 5.844-1.004 1.807-.573 2.541-6.422-4.313v2.076L66.241 221l-1.371-.378-2.764-1.434.367 4.956-.327 2.185 1.72 3.797-.24 1.778-.574.74 4.622 1.973 1.055.883 1.491 5.925 1.491-1.422 6.084-11.747 2.237-2.466 5.946 1.055 9.703-1.411.682-.201 5.029.247 2.5 1.032-1.003 2.186-1.617 1.055-1.302 2.243.682 2.139-1.806 3.441-1.434.901 1.245 3.315 3.182 1.606 5.31 1.824 1.64.912 2.902 5.323-.573 3.802.051 3.143 2.42 2.742 2.689 1.606.958 1.612 1.749-1.526 4.588-2.621 5.958-2.151 2.219.184 4.954 2.953 1.766-2.013 3.045-1.147 2.598 1.52 4.163 1.549 8.424 1.302 3.871 2.133 1.273 1.016 2.792-2.868-.573-3.063.051-3.791 1.147-2.713 1.893-.574 5.499.212.315.081-.143-3.143 3.32-5.69.986-.625 3.338 1.084 3.085.304 1.766-2.811v-1.852l2.294-3.218.894-.924.694-1.21.574-1.457-3.9-.688-4.054-4.21.092-.023zm-18.149 14.701l-.711 3.154-1.21.78-7.564-.137-6.015-2.014-3.877 5.335-2.477.315-1.451-2.73-.573-1.922 2.294-3.888.498-.258 5.947-1.148 10.11 2.105 2.735-.745 1.72-.075.574 1.256v-.028zM32.564 177.88l3.056.78 4.049.494 3.452-.941 3.715-3.373-7.506-11.471-.16-6.447-.407-2.002 2.299-1.411.705-1.474-1.255-1.829-5.81-3.252-4.822 1.766-.43-3.636-1.709-2.828-.459-.327-3.303-6.28-2.787-3.992-4.977.487-2.626 1.371-9.238.878-1.468 3.883 4.432 5.454 5.265 2.828 2.46 2.587 1.777 4.772.27 1.56-3.102 1.864-1.342 3.98-3.269 1.429-2.884-1.016 1.582 2.002 4.421-.109 3.831 4.021.596 1.715 1.841 3.332-.504 1.732-2.271-.263-1.044-.574-1.904 4.915 5.924 1.836.35-4.187 2.035-1.319 3.091 1.267 7.237 1.365.889.413z"/><path d="M102.265 275.667l-9.52-13.129-1.376-4.314-.08-2.403-1.582-2.036-2.856-2.615-.608-.924-.023-5.053-1.48-1.709-3.635-1.239-2.569.78-3.183 1.83-2.236.441-3.09-2.15-1.67-2.708-.613-1.48-.55.201.286 1.268-1.611 3.131-.711.087-3.825-2.037-2.013-.441-.005 1.732 1.347 1.904-2.053 7.56-2.942 3.888.625 1.268 1.423-.459 4.214-.401 4.284 1.256 3.022 2.541.39.539 3.675 3.298 6.044 12.503-.085 2.983 1.18 1.428 2.1 1.17 1.92.413 5.649-1.617 6.44-3.883 4.639 1.577 1.433.04-.355-3.24z"/><path d="M109.41 279.504l1.445-5.793-1.904-1.818.011-1.227 5.018-.723 2.242-2.805 3.487-1.055 5.648-.206.39-.281-.791-.672-.304-3.309-1.732.27-4.966 4.089-2.586-1.061-5.603-5.478-.252-4.416-.963-4.686-1.256-3.2-.528-.396-18.075-7.835-.584-.379-2.673-.877-.843-1.423.987-3.911 2.414-3.631-.54-.264-2.711-.097-2.632-.528-2.93 1.227-6.612 12.389 1.135 2.392 2.362-2.036 5.81-1.199 3.796 1.463 1.17 1.204 1.232 4.939 2.489 3.848 1.06.568 1.28 4.485.418 3.023 11.876 16.668.505 4.043 2.431-.24 1.279-1.062zM21.244 129.512l9.743 14.19.12 2.162 4.702-.51 1.87-.964 1.301-1.508 2.61-.339 1.284.688 1.41-6.532 1.354-1.773 2.22-1.675-1.44-3.441-2.678-3.413-.505-.258-4.507-.745-5.339.177-3.6-.43-1.71-1.784-5.957 3.017-1.801 1.773.923 1.365z"/><path d="M156.879 264.087l-9.25-1.314-7.202-2.856-1.87 1.744-3.004.837-3.837-2.369-2.523.729-2.833 2.713.666.923 1.548.126 2.856 1.159 2.477 3.395-.235 1.635-7.145 2.134-2.999-1.371-4.467-.746.665 1.641 4.604 1.284 1.423.018 3.842 2.403 2.196.797 2.07-.229 1.709-1.796 4.335-2.237 14.095-.9 7.999-3.963-5.12-3.757z"/><path d="M136.046 283.243l-3.246-3.321-.963-1.296-3.94-1.124-.682-.447-8.774-3.711-.802-1.945 1.525-2.546-.442-.316-2.924 2.042-2.959.648-1.462-.413-.276.505 1.658 1.445.189 2.707-2.913 5.616-1.164 1.33.281.304.762-.137 3.917.028 3.102-.814 2.053-1.153 1.95-1.629 2.454 1.772.746 1.067.332 1.612-.55 3.539.539.688 4.925-.952 2.432-.092 5.075 1.876.177-1.744.339-1.371-1.359-2.168zm-89.479-52.86l-4.668-4.8.023-1.572-1.588-1.382-.132.585-.654 1.847-1.955-.878-1.967.631-1.531 3.734-.057.264.7 4.502 3.486.023 2.012 1.44-1.1 2.719-1.044.958.814 1.296 3.04-2.323 5.946-2.541-.918-2.271-.407-2.232zm-14.72-12.869l6.428 4.858 1.468-3.797-2.035-4.216-1.113-1.044-1.571-3.47-.23-.763-6.554-8.741-.464.224 1.015 5.736-2.162 3.384-.9.665.762.499 2.294 2.185 1.393 3.04 1.669 1.44zm331.755-47.893l1.56-1.578-9.852-6.441-5.161-5.127-2.127-1.446-.734 2.455.395 1.405 17.719 17.247-1.989-4.112.189-2.403zM30.54 123.569l9.169-.275.464-5.191-3.99-6.418-2.002-1.107-2.793 7.91-1.072 2.087.224 2.994zm7.374-11.844l3.355 4.927 1.078 2.197.023 3.716 3.847 1.847 2.793-4.875-1.222-3.137-.498-2.564-2.845.315-3.022-1.067.08-3.24-.86-1.807-2.959.247-.619 1.864.849 1.577zm112.491-15.779l3.819-3.132 6.067-2.977 11.686-3.01.809-1.286-.637-.527-2.873.722-7.804.327-2.713.602-3.87 1.744-4.416 3.63-1.089 2.071 1.021 1.836zm-101.04 18.756l.03.981 1.599 2.088 5.625-3.35.637-1.646-2.351-3.131-4.697-1.308-1.52 3.906.912 2.357-.235.103zm91.87-12.664l.465 2.466-.149 2.673 2.018 1.428.453-.327.023-4.416 1.755-3.533 3.366-3.413-1.6-.62-3.899.671-3.32 2.054.888 3.017zM10.836 161.74l1.434-4.909.854-1.165.723-2.512-.482-4.227-.677-.677-.768.533-1.502 5.507-2.254 3.068-3.022 1.365-.396.912.631.723 1.56-.012 3.9 1.394zm255.551-84.084l4.502-8.208-3.395-.017-4.639 4.645.757 1.503 2.775 2.077zM33.894 220.914l-3.056-1.376-1.715 1.778 1.996 5.959 1.984-2.753.298-.608.493-3zm90.259 47.777l.768 1.291 1.875 1.285 4.714-1.268-5.545-3.521-1.812 2.213zm246.244-85.236l1.015-2.404 2.517-.51-7.489-2.61 3.957 5.524zM205.512 69.43l2.368-2.839-.069-.831-1.164-1.33-1.313.556-.809 3.515.987.93zm12.489 7.692l-3.831-1.967v4.88l3.785-2.397.046-.516zm-11.165-4.227l.316 1.285 3.136 1.778v-3.109l-2.116-.59-1.336.636zM30.241 116.652l-.642-2.506-3.073-2.375 2.86 4.72.855.161z"/><path d="M120.471 267.826l-1.147 1.325 1.979.075 1.02-.843-.401-1.004-1.451.447zm156.187-188.8l-.155-.338h-2.168l.104 1.652 2.219-1.314z"/></g></g><defs><clipPath id="clip0_109_1315"><path fill="#fff" transform="translate(57.256 134.166)" d="M0 0h480.377v326.153H0z"/></clipPath><clipPath id="clip1_109_1315"><path fill="#fff" transform="translate(.925 .908)" d="M0 0h451.405v522.434H0z"/></clipPath><clipPath id="clip2_109_1315"><path fill="#fff" transform="translate(2.883 22.175)" d="M0 0h382.246v266.357H0z"/></clipPath></defs></svg>