<svg width="114" height="137" viewBox="0 0 114 137" fill="none" xmlns="http://www.w3.org/2000/svg"><path d="M16.459 66.638h22.66v-7.7H8.759l-2.09 42.789h8.03v-1.76c.77-5.61 3.96-8.25 8.69-8.25 6.16 0 9.02 4.18 9.02 11.11v14.96c0 6.93-2.86 11.11-9.02 11.11s-9.02-4.18-9.02-11.11v-5.72h-8.03v5.17c0 11.77 5.5 19.471 17.27 19.471s17.38-7.701 17.38-19.471v-15.07c0-11-4.4-18.26-14.3-18.26-5.17 0-9.02 2.2-11.44 6.38l1.21-23.65zm37.149 16.72v10.67h8.25v-10.67h-8.25zm0 41.909v10.671h8.25v-10.671h-8.25zm58.88-4.84v-7.81h-6.16v-53.68h-9.35l-23.87 53.68v7.81h24.86v15.511h8.36v-15.511h6.16zm-14.52-45.43v37.62h-16.94l16.94-37.62zM40.29 9.313C35.416 1.697 28.773.937 28.773.937s1.118 1.025 1.62 1.529c.307.3.614.626.921.943 2.597 2.751 4.302 5.307 5.368 8.04.993 2.541 1.251 4.88.79 7.152a9.564 9.564 0 01-1.02 2.791l-9.8-9.973 4.64-4.52h-7.247c-.35.029-.676.18-.922.425a842.367 842.367 0 00-3.995 3.51c-.633.561-1.266 1.128-1.877 1.674l-1.312 1.172 4.222 4.234.587-.542c.101-.09.206-.187.307-.284l.673-.66c.642-.626 1.306-1.271 1.951-1.922 1.973 2.21 3.95 4.42 5.93 6.63l2.425 2.713 1.036 1.169.018.02-.037.025a9.516 9.516 0 01-4.778 1.594c-1.936.088-3.49-.373-4.747-1.404-.615-.5-1.196-1.064-1.764-1.61-.29-.277-.578-.554-.873-.828a5.644 5.644 0 01-.307-.302c-.615-.602-.94-.602-1.657-.21-.104.057-.227.123-.384.201a1.84 1.84 0 01-1.109.278 1.207 1.207 0 00-1.045.256 1.18 1.18 0 00-.34 1.027c0 .112 0 .184-.274.438a6.881 6.881 0 01-2.25 1.425 6.46 6.46 0 00-3.03 2.369c-.614.859-.654 1.808-.116 2.525.304.383.73.655 1.21.774.479.119.985.078 1.438-.116 1.024-.422 2.305-1.082 3.162-2.472.523-.8 1.102-1.564 1.734-2.284a.487.487 0 01.365-.17.932.932 0 01.66.242c.22.205.437.41.652.618a20.08 20.08 0 002.698 2.272c2.293 1.501 4.649 2.252 7.068 2.252a13.435 13.435 0 006.044-1.534c.507-.254.987-.555 1.454-.844l.187-.118 1.76 1.953 3.962-3.565-.449-.464-.513-.537a60.09 60.09 0 00-1.128-1.16 13.635 13.635 0 002.182-5.63c.5-3.665-.363-7.272-2.572-10.726zm62.324 16.48L112 18.68l-3.268-.67 1.614-6.152-5.524 1.213-.381-3.01-4.544 4.35 1.318-9.917-3.697 1.591L95.001.938l-2.519 5.147-3.694-1.59 1.315 9.916-4.541-4.35-.384 3.01-5.521-1.213 1.615 6.151-3.272.67 9.386 7.114-1.699 3.598 8.943-2.73-.335 4.276h1.41l-.332-4.276 8.94 2.73-1.699-3.598z" fill="#D73B3B"/></svg>