<svg width="116" height="129" viewBox="0 0 116 129" fill="none" xmlns="http://www.w3.org/2000/svg"><path d="M106.29 105.437c-4.874-7.615-11.517-8.375-11.517-8.375s1.118 1.025 1.62 1.528c.307.301.614.627.921.943 2.597 2.752 4.302 5.308 5.368 8.041.993 2.541 1.251 4.879.79 7.152a9.575 9.575 0 01-1.02 2.791l-9.8-9.973 4.64-4.521h-7.247a1.48 1.48 0 00-.922.425c-1.438 1.254-2.824 2.478-3.995 3.511-.633.561-1.266 1.127-1.877 1.673l-1.312 1.172 4.222 4.235.587-.543c.101-.09.206-.187.307-.283l.673-.66c.642-.627 1.306-1.272 1.951-1.923 1.973 2.21 3.95 4.42 5.93 6.631l2.425 2.712 1.036 1.169.018.021-.037.025a9.516 9.516 0 01-4.778 1.594c-1.936.087-3.49-.374-4.748-1.405-.614-.5-1.195-1.063-1.763-1.609-.29-.277-.578-.554-.873-.829a5.555 5.555 0 01-.307-.301c-.615-.603-.94-.603-1.657-.211-.104.057-.227.123-.384.202-.33.208-.718.305-1.109.277a1.206 1.206 0 00-1.045.256 1.161 1.161 0 00-.341 1.028c0 .111 0 .184-.273.437a6.873 6.873 0 01-2.25 1.425 6.467 6.467 0 00-3.03 2.369c-.614.859-.654 1.809-.116 2.526.304.382.73.654 1.21.773.479.119.985.078 1.439-.116 1.023-.422 2.304-1.082 3.161-2.471a20.246 20.246 0 011.734-2.285.486.486 0 01.365-.169.931.931 0 01.66.242c.22.204.437.409.652.617a20.15 20.15 0 002.698 2.273c2.293 1.501 4.649 2.251 7.068 2.251a13.431 13.431 0 006.044-1.534c.507-.253.987-.555 1.454-.844l.187-.117 1.761 1.953 3.961-3.566-.449-.464-.513-.536c-.384-.404-.75-.784-1.128-1.161a13.64 13.64 0 002.182-5.63c.501-3.664-.363-7.272-2.572-10.726zm-71.676 16.48L44 114.804l-3.269-.67 1.615-6.151-5.524 1.213-.38-3.011-4.545 4.351 1.318-9.917-3.697 1.591-2.517-5.148-2.519 5.148-3.694-1.591 1.315 9.917-4.542-4.351-.383 3.011-5.521-1.213 1.614 6.151-3.271.67 9.386 7.113-1.699 3.598 8.943-2.73-.335 4.277h1.41l-.332-4.277 8.94 2.73-1.699-3.598zm11.203-60.365v-7.81h-6.16V.062h-9.35l-23.87 53.68v7.81h24.86v15.51h8.36v-15.51h6.16zm-14.52-45.43v37.62h-16.94l16.94-37.62zm25.563 8.36v10.67h8.25v-10.67h-8.25zm0 41.91v10.67h8.25v-10.67h-8.25zm58.88-4.84v-7.81h-6.16V.062h-9.35l-23.87 53.68v7.81h24.86v15.51h8.36v-15.51h6.16zm-14.52-45.43v37.62H84.28l16.94-37.62z" fill="#4363A0"/></svg>