<svg width="538" height="524" viewBox="0 0 538 524" fill="none" xmlns="http://www.w3.org/2000/svg">
<g clip-path="url(#clip0_109_1315)">
<path d="M496.992 155.144C499.202 157.016 502.334 160.496 506.942 170.882L516.658 193.206C518.507 197.542 520.13 201.879 518.126 201.165C518.067 201.144 512.255 198.754 506.037 184.845L503.479 178.971C504.552 179.659 505.598 180.368 506.615 181.098L509.282 187.223C512.058 193.464 514.092 194.906 515.056 195.211C515.375 194.852 515.585 194.618 514.008 190.933L504.078 168.121C501.91 163.232 499.998 160.517 498.384 160.053L498.162 160.182C498.057 160.709 497.969 161.164 499.352 164.41L501.374 169.056C500.359 168.327 499.313 167.618 498.237 166.93L496.321 162.526C492.685 153.894 494.471 153.732 495.859 154.404C496.26 154.613 496.639 154.861 496.992 155.144Z" fill="#D73B3B"/>
<path d="M482.806 146.37C485.666 147.916 489.515 150.995 494.102 161.156L503.818 183.479C505.814 188.217 507.542 193.443 503.16 191.756C500.485 190.724 495.293 187.44 490.58 177.028L488.022 171.15C489.328 171.668 490.605 172.202 491.855 172.754L494.522 178.879C498.069 186.788 501.294 186.399 501.52 185.881C501.843 185.117 500.77 182.576 500.418 181.741L490.488 158.929C486.848 150.798 483.812 151.246 483.527 151.86C483.154 152.662 484.236 155.223 484.592 156.067L486.613 160.713C485.361 160.156 484.083 159.621 482.781 159.108L480.864 154.705C476.985 145.375 479.954 145.275 482.072 146.044C482.302 146.127 482.604 146.261 482.827 146.37" fill="#D73B3B"/>
<path d="M465.655 139.839C468.808 140.917 473.538 143.528 478.159 153.681L487.875 176.004C489.079 178.908 492.748 187.736 484.336 184.59C479.485 182.773 475.417 178.352 472.247 171.442L469.689 165.567C471.194 165.91 472.683 166.274 474.142 166.658L476.809 172.779C480.474 180.876 484.403 179.731 484.693 179.079C485.137 178.081 484.21 175.871 483.766 174.805L473.836 151.993C470.125 143.783 466.33 144.89 465.978 145.63C465.496 146.654 466.431 148.893 466.879 149.967L468.901 154.613C467.439 154.228 465.953 153.865 464.443 153.522L462.527 149.119C458.237 138.674 463.286 139.154 465.655 139.839Z" fill="#D73B3B"/>
<path d="M459.122 158.39L451.993 141.97C450.825 141.767 449.646 141.575 448.458 141.394C445.72 141.08 445.322 142.351 446.944 146.249L449.46 151.985C451.201 155.808 452.836 157.291 455.943 157.864C457.021 158.031 458.094 158.206 459.155 158.39M446.123 135.983C448.999 136.423 451.809 136.923 454.551 137.483L473.79 181.683C472.183 181.351 470.551 181.043 468.896 180.759L461.487 163.738C460.427 163.554 459.357 163.379 458.275 163.212C451.662 161.958 447.569 158.457 444.152 151.074L441.9 145.894C440.784 143.161 437.388 134.839 446.123 135.983Z" fill="#D73B3B"/>
<path d="M389.152 134.178C396.252 133.907 401.216 137.307 404.777 144.878L414.492 167.201C420.69 182.66 403.628 179.033 401.493 178.131C396.042 175.837 393.769 170.999 392.792 168.939L390.234 163.065C392.264 162.835 394.281 162.647 396.281 162.438L398.948 168.563C402.621 176.502 408.63 173.798 409.255 172.152C409.792 170.744 409.008 168.81 408.588 167.79L398.663 144.97C395.002 137.065 388.985 139.702 388.351 141.331C387.802 142.751 388.595 144.698 389.022 145.743L391.043 150.385C389.039 150.577 387.023 150.786 384.997 151.011L383.08 146.608C379.273 137.044 384.284 134.571 389.152 134.178Z" fill="#D73B3B"/>
<path d="M362.705 137.299C370.215 136.443 375.377 139.555 378.95 147.097L388.674 169.42C394.679 184.532 377.654 183.174 373.578 181.344C368.752 179.18 366.672 174.818 365.787 172.954L363.229 167.08C365.351 166.691 367.464 166.316 369.569 165.965L372.232 172.09C375.914 179.99 382.296 176.727 383.001 174.976C383.6 173.468 382.825 171.546 382.405 170.514L372.475 147.702C368.798 139.81 362.411 143.023 361.703 144.778C361.091 146.299 361.879 148.246 362.302 149.294L364.324 153.936C362.224 154.293 360.112 154.664 357.988 155.052L356.067 150.648C352.293 141.063 357.593 138.114 362.713 137.316" fill="#D73B3B"/>
<path d="M335 142.551C342.833 141.11 348.15 143.942 351.731 151.455L361.439 173.799C367.443 189.015 349.769 188.819 345.559 187.218C340.606 185.334 338.522 180.981 337.629 179.121L335.071 173.247C337.274 172.69 339.468 172.155 341.655 171.643L344.317 177.764C347.999 185.635 354.683 181.812 355.438 179.961C356.088 178.357 355.316 176.431 354.897 175.399L344.967 152.587C341.269 144.69 334.585 148.492 333.83 150.343C333.176 151.952 333.935 153.832 334.388 154.939L336.409 159.581C334.223 160.099 332.03 160.634 329.829 161.185L327.913 156.782C324.139 147.172 329.678 143.742 334.991 142.555" fill="#D73B3B"/>
<path d="M321.04 170.757L313.891 154.337C312.255 154.794 310.617 155.259 308.976 155.733C305.202 156.944 304.447 158.766 306.041 162.697L308.557 168.434C310.331 172.228 312.36 173.13 316.587 172.023C318.08 171.591 319.571 171.173 321.061 170.769M306.64 150.335C310.61 149.187 314.562 148.095 318.495 147.059L337.734 191.262C335.428 191.864 333.116 192.49 330.798 193.139L323.389 176.117C321.901 176.529 320.41 176.947 318.914 177.371C310.033 179.668 304.98 177.617 301.466 170.268L299.21 165.087C297.331 160.303 296.057 153.568 306.64 150.309" fill="#D73B3B"/>
<path d="M235.392 176.172C243.661 172.775 249.188 174.659 252.786 182.096L262.502 204.419C268.435 219.686 249.863 225.029 243.393 222.117C239.912 220.555 238.323 217.275 237.56 215.7L235.002 209.826C237.272 208.731 239.543 207.654 241.816 206.596L244.483 212.717C248.165 220.517 255.21 214.806 256.036 212.6C256.748 210.686 255.977 208.748 255.562 207.707L245.632 184.895C241.904 177.02 234.864 182.752 234.046 184.971C233.346 186.884 234.1 188.777 234.553 189.909L236.574 194.551C234.302 195.609 232.03 196.686 229.76 197.78L227.844 193.377C224.07 183.675 229.874 178.666 235.392 176.172Z" fill="#D73B3B"/>
<path d="M206.064 190.511C214.077 186.646 219.696 188.326 223.256 195.641L232.972 217.965C238.843 233.147 220.745 239.69 214.522 236.962C211.167 235.508 209.599 232.228 208.84 230.653L206.265 224.771C208.393 223.578 210.538 222.399 212.702 221.232L215.365 227.353C219.013 235.082 225.802 228.965 226.586 226.697C227.269 224.699 226.498 222.761 226.083 221.716L216.153 198.904C212.488 191.171 205.611 197.296 204.877 199.535C204.223 201.512 204.982 203.408 205.435 204.549L207.456 209.191C205.292 210.361 203.148 211.54 201.024 212.73L199.137 208.309C195.363 198.587 200.814 193.268 206.085 190.49" fill="#D73B3B"/>
<path d="M178.589 206.011C185.982 201.888 191.287 203.433 194.813 210.741L204.529 233.064C210.471 248.297 193.71 255.362 187.815 252.772C184.661 251.389 183.089 248.109 182.33 246.538L179.776 240.647C181.716 239.394 183.681 238.147 185.672 236.908L188.335 243.033C192.075 250.971 198.034 244.035 198.621 242.615C199.535 240.388 198.621 238.136 198.201 237.054L188.272 214.242C184.498 206.266 178.472 213.243 177.914 214.66C177.042 216.857 177.96 219.147 178.401 220.246L180.422 224.887C178.437 226.127 176.472 227.373 174.526 228.627L172.61 224.223C168.794 214.488 173.754 208.953 178.585 206.02" fill="#D73B3B"/>
<path d="M167.334 241.758L160.206 225.339C158.83 226.274 157.466 227.216 156.113 228.163C153.06 230.44 152.549 232.65 154.163 236.611L156.679 242.347C158.457 246.158 160.147 246.638 163.649 244.328C164.877 243.467 166.123 242.611 167.372 241.758M153.777 222.752C157.048 220.468 160.386 218.201 163.791 215.951L183.034 260.154C181.035 261.472 179.06 262.796 177.109 264.128L169.699 247.106C168.441 247.942 167.204 248.815 165.976 249.676C158.721 254.434 154.532 253.436 151.035 246.066L148.783 240.885C146.687 235.637 145.382 228.836 153.777 222.752Z" fill="#D73B3B"/>
<path d="M103.705 263.847C108.657 259.251 112.738 260.559 116.18 267.858L125.896 290.181C131.67 304.591 121.317 312.918 116.763 311.414C113.895 310.466 112.218 306.885 111.312 304.963L108.754 299.089C109.99 297.738 111.248 296.387 112.528 295.036L115.195 301.161C118.91 309.225 122.323 301.391 122.323 301.303C123.301 298.634 122.143 295.801 121.648 294.593L111.719 271.781C108.02 263.793 104.51 271.551 104.481 271.643C103.563 274.246 104.699 277.016 105.248 278.349L107.269 282.995C105.981 284.346 104.723 285.695 103.495 287.044L101.579 282.64C98.409 274.789 99.1177 268.468 103.676 263.839" fill="#D73B3B"/>
<path d="M87.9048 281.382C92.0436 276.761 95.7169 278.064 99.1345 285.376L108.85 307.699C114.721 322.168 106.011 330.457 101.915 328.924C99.3651 327.971 97.7003 324.386 96.8072 322.46L94.2492 316.586C95.2472 315.249 96.2718 313.908 97.3229 312.562L99.9857 318.687C103.495 326.358 106.011 319.627 106.116 319.335C107.139 316.515 105.873 313.444 105.332 312.132L95.4024 289.32C91.8423 281.574 89.2005 288.601 89.1753 288.677C88.2151 291.417 89.4605 294.43 90.0559 295.875L92.0813 300.521C91.0302 301.861 90.0056 303.202 89.0076 304.545L87.0913 300.141C83.8834 292.278 84.1559 285.965 87.9048 281.382Z" fill="#D73B3B"/>
<path d="M75.1948 298.784C78.4656 294.188 81.707 295.534 85.1036 302.862L94.8195 325.185C100.619 339.39 93.7083 347.792 90.2069 346.242C87.9886 345.269 86.3407 341.676 85.4559 339.745L82.8979 333.871C83.6444 332.559 84.4201 331.242 85.2252 329.919L87.8922 336.044C90.6598 342.131 92.2952 339.386 93.029 337.23C94.0144 334.306 92.639 330.984 92.0561 329.568L82.1222 306.756C79.5223 301.057 77.8282 303.292 77.0483 305.135C75.7903 308.059 77.2621 311.556 77.9624 313.232L79.9836 317.873C79.1785 319.199 78.4027 320.517 77.6563 321.826L75.74 317.422C72.486 309.538 72.3056 303.267 75.199 298.784" fill="#D73B3B"/>
<path d="M76.8218 335.192L69.6932 318.772C69.218 319.728 68.7609 320.681 68.322 321.634C67.3743 323.894 67.6301 326.109 69.3116 330.086L71.8276 335.823C73.5343 339.612 74.4526 340.093 75.6016 337.799C76.0041 336.93 76.4235 336.061 76.8596 335.192M65.9821 316.224C67.0472 313.92 68.2088 311.604 69.4668 309.275L88.7099 353.475C87.9718 354.84 87.273 356.202 86.6132 357.561L79.2036 340.54C78.7703 341.409 78.351 342.278 77.9456 343.147C75.5596 347.843 73.4336 346.848 70.0916 339.483L67.8398 334.302C65.6173 328.992 63.4032 322.14 65.9947 316.224" fill="#D73B3B"/>
<path d="M57.2642 354.193C57.2139 352.401 57.3691 352.342 57.889 352.142C59.0548 352.681 60.4386 355.371 62.162 359.244L71.8821 381.568C77.8492 395.589 76.7883 401.096 76.7715 401.142L76.4906 401.267C75.8658 400.686 75.3709 400.227 72.6579 394.06L70.1 388.185C69.9043 387.071 69.7435 385.957 69.6177 384.843L72.2847 390.968C73.7146 394.219 73.962 394.486 74.3184 394.828C74.4862 394.578 75.1571 392.94 71.9366 385.42L62.0153 362.603C60.6105 359.42 60.2834 359.131 59.9186 358.793C59.8515 358.839 59.7551 358.897 59.6838 358.939C59.5035 360.61 60.2834 363.28 62.3801 368.152L64.4012 372.798C64.527 373.912 64.6878 375.026 64.8835 376.14L62.9671 371.736C60.6566 366.372 57.5578 358.718 57.2894 354.189" fill="#D73B3B"/>
<path d="M68.3052 387.55C68.1962 387.299 68.0914 387.053 67.9865 386.802L65.9653 382.156C63.6423 376.812 62.5143 374.197 62.2794 373.157C62.6988 373.675 62.6988 373.675 74.0878 399.867C76.4696 405.39 77.3544 407.913 77.6689 408.925C77.4383 408.507 77.4383 408.507 73.2282 398.843L73.5469 399.591L80.3358 415.187C76.4528 403.932 76.4528 403.932 63.4032 373.954C61.3066 369.196 60.514 367.629 59.7844 366.668C59.8094 367.269 59.9238 367.863 60.1241 368.431C60.8243 370.295 60.9166 370.52 62.1536 373.424L68.3052 387.55Z" fill="#D73B3B"/>
<path d="M423.542 143.809C426.406 147.653 427.316 148.872 430.414 153.059C433.515 153.167 436.558 153.335 439.543 153.56L434.654 158.799C437.774 163.044 438.227 163.663 441.485 168.116C438.508 166.307 434.524 163.938 431.526 162.15L426.292 167.753C425.951 164.689 425.608 161.625 425.261 158.561C422.187 156.861 418.074 154.621 414.979 152.959C418.241 152.883 421.456 152.865 424.623 152.904C424.271 149.868 423.913 146.831 423.55 143.792" fill="#D73B3B"/>
<path d="M63.4661 346.116C65.198 348.928 65.9821 350.211 67.9236 353.315C68.452 351.184 69.0768 349.034 69.798 346.864C70.0412 350.135 70.4019 354.493 70.7038 357.76C72.6118 360.789 73.1653 361.671 75.2535 364.951C74.113 364.813 72.5908 364.616 71.4544 364.458C71.8737 367.696 72.4776 372.003 72.964 375.229C71.207 369.939 71.1022 369.626 69.2906 364.119C68.3304 363.94 67.0514 363.701 66.0953 363.484C66.319 361.423 66.6363 359.341 67.0472 357.238C65.2986 351.807 65.2315 351.619 63.4661 346.116Z" fill="#D73B3B"/>
<path d="M131.23 253.356C134.073 256.419 135.004 257.409 137.784 260.405C140.58 258.118 143.438 255.845 146.36 253.586C144.988 256.929 143.185 261.403 141.856 264.767L148.481 271.836C145.701 271.79 141.994 271.736 139.214 271.698C137.956 275.065 136.354 279.565 135.159 282.945C134.773 280.163 134.321 276.766 133.616 271.64C130.974 271.61 127.452 271.581 124.81 271.556C127.362 269.244 129.992 266.941 132.698 264.645C132.45 262.79 131.947 258.93 131.23 253.365" fill="#D73B3B"/>
<path d="M275.673 172.056L283.288 179.898C287.202 178.486 291.101 177.13 294.987 175.829C292.891 178.507 290.085 182.096 287.993 184.766L295.608 192.67C292.023 191.973 287.242 191.062 283.657 190.398C281.535 193.18 278.713 196.894 276.608 199.685C276.488 196.159 276.368 192.631 276.247 189.102C272.654 188.513 267.861 187.74 264.263 187.176C268.177 185.592 272.09 184.06 276.004 182.581C275.887 179.071 275.771 175.563 275.656 172.056" fill="#D73B3B"/>
<path d="M524.433 200.684C525.716 203.688 526.257 204.967 527.641 208.255C527.552 207.966 527.443 207.578 527.33 207.298L522.021 195.081L522.441 196.021C521.66 194.249 520.776 192.523 519.795 190.853C521.221 193.778 523.129 197.701 524.454 200.684" fill="#D73B3B"/>
<path d="M77.1531 407.767C78.8304 411.661 79.1324 412.363 80.3149 415.191L73.5259 399.595L74.5952 401.893L77.1531 407.767Z" fill="#D73B3B"/>
<path d="M69.3536 389.844C68.9762 389.086 68.6197 388.321 68.2843 387.55L62.1327 373.424C64.5229 378.905 66.9676 384.362 69.3536 389.844Z" fill="#D73B3B"/>
<path d="M66.9047 381.362C66.5669 380.84 66.1717 380.356 65.7263 379.921L65.5754 380.151C65.7976 381.045 66.2924 382.369 68.5107 387.466L78.2266 409.789C80.7426 415.551 85.4349 426.276 87.8712 427.83L88.1689 427.755C88.2235 426.957 88.2822 426.126 85.6865 420.059L83.1328 414.185C82.3332 413.313 81.5631 412.419 80.8223 411.503L83.485 417.628C84.8772 420.853 84.9024 421.237 84.9359 421.68C84.3656 421.434 83.3089 420.23 80.1597 413.053L70.23 390.24C68.8378 387.015 68.7791 386.677 68.7036 386.246C68.7581 386.276 70.1377 387.044 73.5552 394.816L75.5764 399.462C76.3186 400.372 77.086 401.266 77.8869 402.14L75.9454 397.74C74.851 395.258 71.5089 387.713 66.9047 381.366" fill="#D73B3B"/>
<path d="M85.1875 413.036L78.0379 396.616C78.7088 397.21 79.3937 397.79 80.0926 398.359C81.8328 399.838 83.0531 401.701 84.7556 405.553L87.2716 411.29C87.9299 412.836 89.1586 415.71 87.8754 415.163C87.5903 415.011 87.3219 414.831 87.0745 414.624C86.4371 414.106 85.8151 413.576 85.2085 413.036M77.7611 392.948C76.0871 391.591 74.4846 390.149 72.9598 388.628L92.1777 432.836C93.0583 433.719 93.9739 434.578 94.9244 435.413L87.5148 418.392C88.1214 418.93 88.7434 419.459 89.3808 419.98C90.3159 420.694 92.8067 422.595 92.3581 419.307C92.1065 417.498 91.0204 414.929 90.3033 413.228L88.0473 408.047C85.8794 403.205 82.7512 397.113 77.7402 392.956" fill="#D73B3B"/>
<path d="M116.302 410.216C111.111 409.201 110.213 411.959 113.308 419.437L123.024 441.756C130.027 457.094 139.508 457.119 140.816 453.643C141.705 451.27 140.158 447.489 139.415 445.671L136.857 439.797C135.281 439.518 133.726 439.213 132.195 438.882L134.857 445.007C137.159 450.53 134.996 450.555 132.761 449.603C129.863 448.349 128.249 444.798 127.561 443.277L117.631 420.465C116.964 418.869 114.939 414.014 119.644 415.944C122.638 417.173 124.177 420.565 124.915 422.211L126.94 426.853C128.469 427.179 130.024 427.484 131.603 427.768L129.683 423.365C125.427 414.127 120.038 411.123 116.289 410.233" fill="#D73B3B"/>
<path d="M136.954 413.75C131.05 413.332 129.825 416.369 132.924 423.898L142.64 446.205C149.454 460.97 160.436 460.531 162.189 456.47C163.313 453.871 161.833 450.203 161.04 448.256L158.482 442.382C156.732 442.265 155.005 442.125 153.299 441.964L155.966 448.085C158.847 455.066 153.87 453.428 152.855 453.027C149.941 451.891 148.431 448.59 147.785 447.178L137.855 424.366C135.214 417.978 139.113 418.83 140.908 419.49C143.894 420.589 145.395 423.873 146.037 425.277L148.058 429.919C149.763 430.075 151.489 430.214 153.237 430.336L151.333 425.949C147.877 418.525 143.047 414.418 136.967 413.75" fill="#D73B3B"/>
<path d="M159.824 415.087C153.4 415.275 151.882 418.693 154.901 426.159L164.621 448.482C171.486 463.222 184.351 462.102 185.982 456.362C186.754 453.654 185.408 450.299 184.762 448.687L182.204 442.812C180.309 442.868 178.43 442.9 176.568 442.908L179.235 449.033C182.485 456.972 175.18 454.385 175.105 454.36C172.274 453.287 170.874 450.245 170.274 448.929L160.344 426.15C156.99 417.995 164.839 421.041 164.923 421.078C167.439 422.24 168.697 424.939 169.305 426.238L171.326 430.884C173.188 430.884 175.067 430.852 176.962 430.788L175.042 426.384C171.561 418.96 166.437 415.166 159.824 415.104" fill="#D73B3B"/>
<path d="M189.911 436.818L182.783 420.398C184.217 420.312 185.659 420.213 187.11 420.102C190.536 419.955 192.377 421.271 194.151 425.115L196.667 430.852C198.248 434.729 197.547 436.166 193.882 436.546C192.566 436.644 191.255 436.731 189.949 436.809M184.77 414.666C181.265 414.928 177.804 415.128 174.388 415.268L193.631 459.471C195.63 459.387 197.648 459.283 199.686 459.158L192.276 442.141C193.582 442.057 194.893 441.968 196.21 441.873C203.816 441.038 205.77 437.47 202.755 429.92L200.499 424.739C198.155 419.763 194.251 414.118 184.77 414.666Z" fill="#D73B3B"/>
<path d="M250.232 403.435C242.432 405.654 240.281 410.016 243.259 417.578L252.974 439.901C259.868 454.336 275.572 449.185 277.908 442.253C279.011 438.974 277.681 435.589 277.044 433.96L274.486 428.086C272.266 428.696 270.052 429.287 267.844 429.861L270.511 435.982C273.807 444.171 264.888 443.444 263.516 442.842C261.349 441.894 260.313 439.684 259.818 438.627L249.876 415.815C246.601 407.667 255.453 408.378 256.866 408.971C259.025 409.874 260.065 412.101 260.569 413.17L262.59 417.816C264.795 417.245 267.009 416.653 269.232 416.04L267.316 411.637C263.776 404.267 258.027 401.505 250.219 403.435" fill="#D73B3B"/>
<path d="M279.132 395.347C271.119 398.154 268.867 402.788 271.84 410.388L281.556 432.711C288.488 447.154 304.569 440.791 307.001 433.475C308.146 430.037 306.821 426.64 306.188 425.006L303.63 419.132C301.368 419.901 299.113 420.652 296.866 421.384L299.533 427.509C302.82 435.702 293.725 435.552 292.333 435.03C290.123 434.194 289.087 431.992 288.588 430.935L278.659 408.123C275.48 400.185 284.24 399.767 286.37 400.841C288.215 401.752 289.083 403.598 289.603 404.701L291.624 409.343C293.861 408.613 296.114 407.863 298.384 407.091L296.468 402.687C292.928 395.338 287.095 392.873 279.132 395.363" fill="#D73B3B"/>
<path d="M308.527 385.205C300.405 388.594 298.107 393.495 301.072 401.103L310.788 423.422C317.749 437.865 334.023 430.303 336.509 422.62C337.671 419.018 336.35 415.613 335.713 413.975L333.155 408.101C330.882 409.028 328.608 409.938 326.332 410.829L328.999 416.95C332.241 425.051 323.338 425.912 321.17 424.922C319.292 424.065 318.394 422.173 317.916 421.162L307.987 398.354C304.812 390.415 313.673 389.434 315.82 390.382C317.681 391.218 318.549 393.048 319.069 394.142L321.091 398.788C323.363 397.897 325.638 396.987 327.913 396.06L325.997 391.656C322.449 384.328 316.574 382.16 308.527 385.209" fill="#D73B3B"/>
<path d="M342.703 397.489L335.574 381.07C337.252 380.34 338.929 379.6 340.606 378.851C344.577 377.201 346.527 377.949 348.339 381.809L350.855 387.546C352.427 391.465 351.534 393.466 347.32 395.484C345.799 396.164 344.275 396.836 342.749 397.502M338.271 373.453C334.22 375.261 330.166 377.014 326.11 378.713L345.349 422.913C347.725 421.918 350.101 420.905 352.478 419.871L345.068 402.85C346.592 402.184 348.117 401.511 349.643 400.832C358.315 396.654 360.743 391.607 357.757 383.953L355.501 378.772C353.136 373.859 349.035 368.816 338.262 373.453" fill="#D73B3B"/>
<path d="M405.77 336.691C398.738 341.512 396.839 347.274 399.791 354.823L409.507 377.146C416.296 391.243 429.861 380.568 431.937 373.662C433.27 369.217 431.794 365.461 431.001 363.443L428.444 357.568C426.565 358.841 424.663 360.109 422.736 361.37L425.403 367.495C428.653 375.559 420.887 377.819 418.937 377.105C417.218 376.474 416.333 374.598 415.855 373.583L405.925 350.771C402.755 342.857 410.538 340.442 412.438 341.14C414.115 341.75 414.954 343.584 415.474 344.683L417.495 349.325C419.418 348.063 421.321 346.796 423.202 345.523L421.286 341.119C419.986 338.408 416.027 330.152 405.77 336.691Z" fill="#D73B3B"/>
<path d="M430.02 320.1C423.667 325.113 422.095 330.962 425.072 338.529L434.801 360.852C441.418 374.673 452.895 364.445 455.059 358.061C456.736 353.085 454.945 348.544 454.178 346.605L451.62 340.731C449.943 342.045 448.24 343.355 446.513 344.658L449.175 350.783C452.438 358.842 445.355 361.283 443.535 360.606C441.929 360.004 441.044 358.124 440.571 357.113L430.641 334.301C427.454 326.388 434.562 323.797 436.327 324.457C437.879 325.042 438.734 326.876 439.262 327.971L441.283 332.617C443.011 331.308 444.715 329.999 446.395 328.69L444.445 324.286C443.154 321.575 439.229 313.331 430.016 320.108" fill="#D73B3B"/>
<path d="M451.666 302.987C446.055 308.134 444.839 314.05 447.838 321.604L457.554 343.927C464.221 357.945 473.954 346.455 475.585 341.98C477.564 336.524 475.547 331.477 474.687 329.325L472.129 323.451C470.659 324.788 469.165 326.125 467.647 327.462L470.31 333.583C473.589 341.629 467.232 344.195 465.546 343.543C464.057 342.962 463.181 341.082 462.707 340.071L452.777 317.259C449.565 309.321 455.952 306.634 457.587 307.278C459.021 307.842 459.872 309.676 460.38 310.77L462.405 315.416C463.923 314.085 465.416 312.748 466.884 311.406L464.967 307.002C463.688 304.299 459.801 296.064 451.674 302.987" fill="#D73B3B"/>
<path d="M477.199 310.837L470.071 294.418C471.085 293.429 472.089 292.437 473.081 291.443C475.421 289.245 476.805 289.805 478.57 293.649L481.086 299.385C482.709 303.325 482.428 305.531 479.979 308.13C479.076 309.032 478.162 309.935 477.237 310.837M470.746 286.032C468.35 288.431 465.876 290.825 463.324 293.214L482.562 337.414C484.064 336.021 485.534 334.619 486.974 333.207L479.564 316.185C480.49 315.283 481.404 314.38 482.307 313.478C487.339 308.101 488.072 302.719 484.907 294.902L482.651 289.722C480.231 284.541 476.927 280.049 470.746 286.032Z" fill="#D73B3B"/>
<path d="M503.827 243.546C500.2 250.373 502.355 257.434 504.292 262.151L514.008 284.474C520.038 297.543 523.875 287.921 524.294 286.78C526.668 280.3 523.456 272.575 522.416 270.026L519.858 264.152C519.201 265.456 518.512 266.763 517.79 268.075L520.457 274.2C524.11 282.928 519.833 284.357 519.359 284.228C518.197 283.864 517.203 281.683 516.725 280.634L506.796 257.822C503.441 249.784 507.269 247.549 507.957 247.77C509.043 248.125 510.054 250.34 510.528 251.405L512.549 256.047C513.264 254.735 513.954 253.429 514.616 252.128L512.7 247.724C511.341 244.754 507.735 236.861 503.827 243.546Z" fill="#D73B3B"/>
<path d="M512.121 226.663C509.739 233.381 512.05 240.383 513.991 245.071L523.699 267.386C528.395 277.672 530.874 273.837 531.725 271.714C533.402 267.49 532.563 261.328 529.247 253.386L526.689 247.511C526.297 248.765 525.878 250.018 525.431 251.272L528.098 257.396C531.746 266.045 528.479 267.369 528.068 267.24C527.137 266.943 526.009 264.437 525.636 263.613L515.706 240.801C512.49 233.147 514.964 230.645 515.794 230.92C516.625 231.196 517.753 233.661 518.168 234.585L520.189 239.23C520.642 237.963 521.061 236.703 521.447 235.449L519.531 231.046C517.258 226.032 514.36 220.985 512.109 226.638" fill="#D73B3B"/>
<path d="M516.948 210.423C515.895 216.995 518.357 223.905 520.302 228.53L530.018 250.853C533.662 258.921 535.377 258.537 536.178 256.794C537.067 254.856 537.784 249.763 532.572 237.488L530.018 231.613C529.901 232.8 529.761 233.996 529.599 235.202L532.262 241.327C536.061 250.239 533.562 251.008 533.52 250.999C532.735 250.878 531.603 248.351 531.121 247.269L521.191 224.457C517.627 216.05 519.975 214.743 520 214.734C520.495 215.039 520.885 215.277 522.323 218.515L524.345 223.157C524.525 221.954 524.672 220.755 524.764 219.568L522.86 215.16C520.763 210.51 518.499 206.153 517.312 209.102C517.154 209.529 517.035 209.97 516.956 210.418" fill="#D73B3B"/>
<path d="M527.892 219.89L520.764 203.471C520.764 202.635 520.764 201.77 520.705 200.93C520.663 200.624 520.686 200.312 520.772 200.015L520.915 199.948C521.271 200.187 521.753 201.081 522.873 203.634L525.389 209.37C527.125 213.398 527.754 215.47 527.905 217.575C527.934 218.344 527.951 219.117 527.951 219.89M518.331 195.524C518.423 197.59 518.407 199.66 518.285 201.724L537.537 245.915C537.604 244.687 537.642 243.467 537.637 242.259L530.228 225.238C530.228 224.461 530.228 223.692 530.182 222.923C529.951 219.502 528.924 215.244 524.793 205.597L522.542 200.416C519.552 193.635 519.103 193.518 518.587 193.385C518.344 193.915 518.29 194.041 518.34 195.516" fill="#D73B3B"/>
<path d="M527.33 207.298L527.104 206.838C528.328 209.846 529.926 213.87 531.092 216.899C529.595 213.285 528.068 209.629 526.563 206.036C526.183 205.615 525.781 205.215 525.359 204.837C524.925 202.972 524.383 201.133 523.737 199.33C521.426 193.898 521.426 193.898 519.124 188.5C520.428 191.454 520.738 192.161 522.017 195.085L527.334 207.302" fill="#D73B3B"/>
<path d="M494.014 274.985C495.004 279.89 495.239 281.06 496.283 286.304C494.396 288.621 492.429 290.943 490.383 293.268L497.663 293.302C498.736 298.813 498.778 299.03 499.856 304.633C500.522 301.244 501.382 296.724 501.998 293.352L508.766 293.402C506.531 290.582 505.638 289.458 503.168 286.366C503.68 282.986 504.33 278.478 504.791 275.086C503.173 277.389 501.471 279.698 499.688 282.013C497.386 279.159 496.589 278.169 494.014 274.998" fill="#D73B3B"/>
<path d="M377.885 366.217C378.053 369.894 378.217 373.569 378.38 377.243C374.676 379.193 370.916 381.119 367.1 383.021L366.848 383.146C370.396 383.426 375.126 383.79 378.673 384.053C378.82 387.538 379.013 392.388 379.118 395.062C381.16 391.92 383.86 387.721 385.869 384.559C389.307 384.784 393.895 385.077 397.333 385.29C394.868 382.864 392.401 380.438 389.932 378.012C391.861 374.82 394.411 370.554 396.306 367.341C392.708 369.422 389.046 371.477 385.32 373.508C383.055 371.281 380.128 368.419 377.872 366.213" fill="#D73B3B"/>
<path d="M221.08 420.92C221.29 424.159 221.504 427.394 221.722 430.625C218.124 431.183 214.56 431.687 211.029 432.138C214.35 433.496 218.795 435.288 222.133 436.608C222.356 439.828 222.583 443.048 222.812 446.268C224.691 444.179 227.19 441.367 229.064 439.266C232.457 440.519 236.985 442.165 240.386 443.381L232.998 434.824C234.935 432.618 237.514 429.673 239.447 427.463C235.743 428.206 232.071 428.893 228.431 429.522C225.974 426.656 223.522 423.789 221.076 420.92" fill="#D73B3B"/>
<path d="M99.3777 413.521C100.183 416.821 100.489 418.066 101.407 421.772C99.3134 420.761 97.302 419.693 95.373 418.568C97.5452 421.074 100.468 424.392 102.686 426.857C103.428 429.781 103.885 431.549 104.783 435.062C105.55 434.097 106.578 432.819 107.353 431.866C109.681 434.26 112.805 437.427 115.17 439.779C112.868 436.019 111.668 434.026 109.102 429.777C110.012 428.699 111.232 427.27 112.155 426.205C109.82 425.386 107.557 424.509 105.366 423.573C103.055 419.712 101.927 417.824 99.3693 413.521" fill="#D73B3B"/>
</g>
<g clip-path="url(#clip1_109_1315)">
<path d="M308.154 1.479L145.12 522.771" stroke="#D73B3B" stroke-width="2" stroke-miterlimit="10"/>
<path d="M440.277 329.071L12.9774 195.161" stroke="#D73B3B" stroke-width="2" stroke-miterlimit="10"/>
<path d="M226.637 486.102C350.213 486.102 450.391 385.824 450.391 262.125C450.391 138.427 350.213 38.1489 226.637 38.1489C103.061 38.1489 2.88277 138.427 2.88277 262.125C2.88277 385.824 103.061 486.102 226.637 486.102Z" stroke="#D73B3B" stroke-width="2" stroke-miterlimit="10"/>
<path d="M440.763 328.345C454.841 283.321 370.65 216.869 252.716 179.919C134.782 142.969 27.7644 149.514 13.686 194.538C-0.392448 239.562 83.7994 306.015 201.733 342.965C319.668 379.915 426.684 373.369 440.763 328.345Z" stroke="#D73B3B" stroke-width="2" stroke-miterlimit="10"/>
<path d="M440.763 328.345C466.367 246.461 391.519 150.128 273.585 113.179C155.651 76.2288 39.2899 112.655 13.686 194.538C-11.918 276.422 62.9306 372.756 180.865 409.705C298.799 446.655 415.159 410.229 440.763 328.345Z" stroke="#D73B3B" stroke-width="2" stroke-miterlimit="10"/>
<path d="M226.637 486.102C350.213 486.102 450.391 385.824 450.391 262.125C450.391 138.427 350.213 38.1489 226.637 38.1489C103.061 38.1489 2.88277 138.427 2.88277 262.125C2.88277 385.824 103.061 486.102 226.637 486.102Z" stroke="#D73B3B" stroke-width="2" stroke-miterlimit="10"/>
<path d="M308.666 286.958C345.579 168.907 339.041 61.7838 294.062 47.6914C249.083 33.599 182.695 117.874 145.782 235.925C108.869 353.976 115.409 461.1 160.388 475.192C205.367 489.285 271.753 405.009 308.666 286.958Z" stroke="#D73B3B" stroke-width="2" stroke-miterlimit="10"/>
<path d="M375.34 307.847C412.253 189.796 375.864 73.3197 294.062 47.6903C212.259 22.061 116.021 96.9835 79.1083 215.035C42.1952 333.086 78.5854 449.562 160.388 475.191C242.19 500.821 338.427 425.898 375.34 307.847Z" stroke="#D73B3B" stroke-width="2" stroke-miterlimit="10"/>
<g clip-path="url(#clip2_109_1315)">
<path d="M382.416 121.906L379.222 114.45L377.915 107.625L378.012 107.229L373.494 104.16L372.513 98.8091L367.306 96.6754L363.596 96.6066L358.435 89.4715L359.829 81.9177L360.069 76.4286L364.301 72.8209L360.029 60.8162L359.72 51.123L360.133 50.5495L360.855 47.848L360.362 47.4637L350.877 50.3315L348.171 52.0522L347.179 47.825L347.901 43.4717L343.405 41.0799L345.389 37.5697L350.872 32.9353L352.592 31.9889L355.195 28.3927L349.14 25.9837L349.713 25.2725L348.509 22.1064L347.706 22.2728L344.736 25.9493L345.957 28.6279L343.572 30.1937L339.999 30.274L338.457 30.7845L325.411 40.6555L323.307 44.3378L322.544 46.3051L320.33 48.7829L320.732 51.2836L323.536 52.2816L324.362 54.2948L318.559 58.5679L316.316 61.7454L315.244 66.1332L315.336 67.6933L313.811 69.2075L310.536 69.3566L306.602 68.4159H304.716L300.587 75.2184L300.49 75.792L298.844 77.1513H295.26L293.815 77.5987L289.067 76.9678L283.287 80.9024L281.664 80.9655L277.868 84.0169L278.086 87.2059L279.462 88.1637L279.502 91.1463L275.815 93.6929L274.393 95.1899L272.139 96.9622L270.573 99.05L270.619 102.336L269.151 103.294L259.403 98.9812L257.969 96.6066L259.025 93.3029L254.351 94.3754L252.447 96.9278L253.021 98.3502L252.384 100.071L249.385 100.92L242.55 100.289L239.837 101.711H236.741L234.287 102.681L232.681 104.573L227.635 107.82L225.341 108.175L225.444 106.185L233.203 93.6298L231.7 88.9094L231.075 88.5939L227.812 87.6992L223.976 88.8119L221.843 87.4066L219.842 84.2291L216.745 86.0989L217.703 90.3376L216.132 90.9627L214.532 91.3183L210.415 95.3333L208.293 94.3468L206.922 94.6393L199.8 97.8168L196.113 105.468L193.928 107.642H188.194L187.007 109.019L190.706 118.402L190.396 123.971L189.507 125.285L186.64 125.021L187.213 121.58V120.432L186.147 116.492L185.143 115.551L182.993 112.11L182.127 111.72L181.554 112.489L181.594 113.9L180.59 116.395L180.802 118.23L179.082 119.549L176.06 117.255V113.945L174.592 117.301L172.344 126.334L174.294 126.908L177.482 128.514L178.308 130.292L178.727 135.747L179.472 136.395L180.086 138.305L178.835 139.165L174.993 137.249L173.273 131.244H172.304L172.551 134.112L170.83 136.808L163.376 142.354H161.73L158.289 139.354L158.14 136.67L163.106 136.928L167.797 132.575L168.307 130.177L167.264 126.42L172.424 109.093L171.278 108.325L169.724 108.135L167.516 109.001L163.811 112.947L161.73 117.352L161.77 118.5L160.422 120.421L159.849 122.102L161.908 126.386L161.483 128.422L159.918 129.328L157.813 128.858L155.651 125.79L153.054 120.146L148.145 118.046L147.962 120.163L147.388 121.534L144.716 123.885L142.073 123.725V121.218L142.646 119.681L140.49 120.255H139.005L134.658 119.635L131.412 118.098L128.499 115.838L124.181 115.477L119.99 116.699L115.213 115.551L116.532 111.318L119.399 110.699L118.355 107.166L117.208 109.11L114.857 110.584L112.328 115.574L109.559 115.282L104.243 112.764L102.798 113.24L99.8792 116.492L97.9181 116.716L94.0646 112.242L93.9901 113.033L90.4692 116.062L90.1882 116.022L88.9496 115.058L89.3682 113.423L89.5574 111.508L89.2879 108.766L90.0219 106.638L90.8419 105.25L94.4086 96.7787L96.4043 95.752L97.2357 97.8684L97.9697 101.31L101.198 106.713L106.101 108.359L108.532 105.967L109.106 102.233L105.017 86.747L98.9675 84.08L96.2494 87.7967L95.9054 89.5919L91.8913 91.4789L89.4313 95.0522L85.7498 97.9201L80.4054 104.275L78.06 108.542L73.507 113.705L74.0804 115.873L72.601 120.375L67.7726 120.759L66.2588 116.171L67.7325 112.018L65.4789 113.074L65.2495 116.062L64.3665 117.863L59.6585 115.047L55.3062 116.263L54.9965 116.727L52.1293 119.389L47.7082 125.262L47.2494 126.822L50.1166 132.156L50.0249 134.106L47.8343 135.586L45.8158 138.494L45.0761 145.233L43.7859 145.451L41.0678 144.43L38.625 146.151L40.1962 147.791L41.0678 148.158L43.3156 151.37L42.7766 154.238L40.89 155.385L40.4026 160.995L40.4657 162.188L43.0461 164.924L48.0694 173.619L46.5843 176.791L45.7986 177.284L43.2353 180.593L39.1697 180.875L36.3025 180.393L35.0869 182.704H32.3229L29.8571 185.216L25.3385 186.272V186.627L26.8925 196.745L27.8788 198.081L31.9788 202.389L36.0732 208.279L37.6386 211.933L41.561 215.426L41.819 217.215L41.7444 219.32L43.5508 224.689L45.4202 225.802L46.4925 224.718L46.8193 220.588L48.5396 216.08L49.2564 212.725L51.2634 208.211L54.1306 206.679H58.5576L60.3409 205.71L61.6427 203.702L62.0383 199.601L60.8914 195.237L61.31 192.26L62.8067 190.826L68.7934 186.633L70.0434 187.545L71.3222 190.115L72.8647 188.394L77.8422 186.943L82.0569 186.65L87.2178 189.455L93.669 198.19L95.7448 199.102L98.2163 199.458L102.047 200.657L103.062 201.379L104.49 204.981L110.304 205.87L110.425 203.84L108.802 201.402L110.075 198.253L110.872 197.755L112.592 197.032L114.616 197.003L115.305 192.179L117.598 191.606L120.299 192.535L124.451 192.598L126.475 193.281L141.958 192.931L143.604 193.573L146.821 197.015L146.889 198.431L147.744 199.865L151.953 202.349L153.622 205.217L158.157 203.496L159.786 203.238L162.051 203.811L163.095 204.385L162.756 205.48L162.252 206.117L164.981 209.145L168.565 220.577L170.48 221.402L173.245 221.764L174.73 223.915L178.87 223.553L182.471 226.163L185.912 230.132L189.06 230.889L189.8 230.402L191.617 232.868L193.005 233.281L196.446 232.432L198.275 231.428L199.812 229.272L207.742 225.727L213.534 226.691L216.826 228.452L217.617 229.088L226.792 227.803L227.13 225.842L226.889 220.892L228.357 216.59L230.708 217.032L236.362 218.839L238.083 218.724L240.669 220.141L241.953 222.641L246.317 223.898L250.452 222.234L257.591 222.401L261.714 224.425L262.488 224.551L271.147 223.083L272.128 222.578L278.395 215.891L281.87 214.067L289.703 214.113L294.084 210.017L293.511 203.226L294.222 198.552L292.857 198.689L291.039 196.452L295.054 190.935L299.842 188.107L305.576 186.765L320.967 198.093L326.329 197.571L332.917 198.145L334.856 199.745L336.312 200.129L339.552 196.688L341.347 193.958L345.934 193.55L347.213 195.953L347.511 199.056L348.498 201.219L349.679 208.32L347.248 211.342L346.215 212.34L346.485 214.537L350.029 219.424L355.792 218.277L358.154 216.177L359.502 213.137V202.968L360.19 198.202V196.246L358.286 186.994L358.366 183.134L357.374 179.922L351.973 172.277L349.14 166.1L348.968 165.423L344.954 160.834L341.639 159.492L337.109 160.112L337.413 162.979L334.947 165.015L331.92 166.524L330.199 164.671L325.692 164.924L324.299 162.492L327.045 148.939V143.857L326.294 140.805L326.22 135.942L327.865 131.864L336.759 122.193L336.989 119.853L339.959 116.572L342.752 114.731L344.025 114.915L345.43 115.534V114.054L346.364 111.405L347.511 110.498L343.83 107.057L341.112 97.0024L341.926 94.754L344.604 90.2171L345.223 89.4198L346.158 89.8386L347.729 91.846L349.191 92.9932L346.795 85.5713L345.074 83.7817L345.957 79.1932L349.593 80.2027L355.637 89.3051L359.892 107.424L359.811 109.718L360.414 111.399L366.096 119.52L368.39 121.241L383.964 128.892L385.169 129.294L382.416 121.906ZM83.5076 120.186L81.7873 122.991L77.2916 125.027L76.6264 122.537L79.0865 115.85L80.8527 115.328L82.4239 114.181L84.861 116.234L83.4962 120.18L83.5076 120.186ZM257.981 208.899L253.583 214.348L253.009 214.755L249.483 218.994L246.851 220.542L244.207 220.359L241.827 217.692L242.16 216.694L247.516 214.038L249.895 211.922L253.772 206.496L254.724 203.152L254.466 203.077L254.139 196.097L255.429 194.095L257.987 195.753L258.921 202.446L257.952 208.899H257.981Z" fill="#E7E3CC"/>
<path d="M181.915 228.382L181.737 228.004L180.017 225.841L177.052 225.744L172.562 223.593L171.117 223.168L166.977 220.995L166.69 219.469L164.729 214.158L161.546 208.107L159.975 206.002L159.029 205.371L156.638 206.053L153.461 207.562L152.314 207.304L150.399 203.317L145.519 201.866L144.154 201.253L145.123 196.624L142.944 195.093L140.868 194.404L138.724 194.295L135.857 195.121L130.696 195.018L128.735 195.563L126.406 195.425L123.803 193.877H117.392L116.096 194.45L116.452 196.079L116.067 199.486L112.695 199.526L111.216 201.161L112.483 203.851L110.356 208.118H108.79L104.094 206.558L102.89 205.916L101.915 203.317L99.8104 201.981L98.3481 201.648L96.1061 200.782L93.107 200.731L91.4613 199.182L90.4233 197.008L85.2624 190.653L84.9986 190.556L83.2439 189.345L80.5832 188.898L72.515 191.605L71.7064 192.374L68.0249 188.359L65.0546 190.653L64.1199 192.511L63.1336 195.953V197.232L64.4984 202.251L62.3537 206.111L71.11 207.258L74.78 210.63L75.8065 211.273L74.522 217.117L73.5185 218.924L72.945 221.465L66.5225 217.152V219.228L66.2415 221L64.871 220.622L62.1071 219.188L62.4741 224.144L62.1472 226.329L63.8675 230.126L63.6267 231.904L63.0533 232.644L67.6751 234.617L68.7303 235.5L70.2212 241.425L71.7121 240.003L77.7963 228.256L80.0327 225.79L85.9792 226.845L95.6817 225.434L96.3641 225.233L101.393 225.48L103.893 226.512L102.89 228.698L101.273 229.753L99.971 231.996L100.653 234.135L98.847 237.576L97.4134 238.477L98.6578 241.792L101.84 243.398L107.15 245.222L108.79 246.134L111.692 251.457L111.119 255.259L111.17 258.402L113.59 261.144L116.279 262.75L117.237 264.362L118.986 262.836L123.574 260.215L129.532 258.064L131.751 258.248L136.705 261.201L138.471 259.188L141.516 258.041L144.114 259.561L148.277 261.11L156.701 262.412L160.572 264.545L161.845 265.561L164.637 262.693L164.064 259.63L164.115 255.839L165.262 253.126L167.155 252.552L172.654 252.764L172.969 252.845L172.826 249.702L176.146 244.012L177.132 243.387L180.47 244.471L183.555 244.775L185.321 241.964V240.112L187.615 236.894L188.509 235.97L189.203 234.76L189.777 233.303L185.877 232.615L181.823 228.405L181.915 228.382ZM163.766 243.083L163.055 246.237L161.845 247.017L154.281 246.88L148.266 244.866L144.389 250.201L141.912 250.516L140.461 247.786L139.888 245.864L142.182 241.976L142.68 241.718L148.627 240.57L158.737 242.675L161.472 241.93L163.192 241.855L163.766 243.111V243.083Z" fill="#E7E3CC"/>
<path d="M32.5637 177.88L35.6202 178.66L39.6686 179.154L43.1207 178.213L46.8365 174.84L39.3303 163.369L39.1697 156.922L38.7626 154.92L41.062 153.509L41.7674 152.035L40.5116 150.206L34.7027 146.954L29.8801 148.72L29.45 145.084L27.7412 142.256L27.2824 141.929L23.9794 135.649L21.1925 131.657L16.2151 132.144L13.5888 133.515L4.35076 134.393L2.88277 138.276L7.31542 143.73L12.5796 146.558L15.0396 149.145L16.8172 153.917L17.0867 155.477L13.9845 157.341L12.6426 161.321L9.37405 162.75L6.48967 161.734L8.07235 163.736L12.4935 163.627L16.3241 167.648L16.9205 169.363L18.7612 172.695L18.2566 174.427L15.9858 174.164L14.9421 173.59L13.0383 178.505L18.9619 180.341L19.3117 176.154L21.3474 174.835L24.4382 176.102L31.6749 177.467L32.5637 177.88Z" fill="#E7E3CC"/>
<path d="M102.265 275.667L92.7457 262.538L91.3695 258.224L91.2892 255.821L89.7065 253.785L86.8508 251.17L86.243 250.246L86.22 245.193L84.7406 243.484L81.105 242.245L78.536 243.025L75.3534 244.855L73.117 245.296L70.0262 243.146L68.3575 240.438L67.744 238.958L67.1935 239.159L67.4802 240.427L65.8688 243.558L65.1578 243.645L61.333 241.608L59.3202 241.167L59.3145 242.899L60.662 244.803L58.6091 252.363L55.6674 256.251L56.2925 257.519L57.7146 257.06L61.9293 256.659L66.2129 257.915L69.2349 260.456L69.6248 260.995L73.3005 264.293L79.3445 276.796L79.2585 279.779L80.4398 281.207L82.5386 282.377L84.4596 282.79L90.1079 281.173L96.5476 277.29L101.187 278.867L102.62 278.907L102.265 275.667Z" fill="#E7E3CC"/>
<path d="M109.41 279.504L110.855 273.711L108.951 271.893L108.962 270.666L113.98 269.943L116.222 267.138L119.709 266.083L125.357 265.877L125.747 265.596L124.956 264.924L124.652 261.615L122.92 261.885L117.954 265.974L115.368 264.913L109.765 259.435L109.513 255.019L108.55 250.333L107.294 247.133L106.766 246.737L88.6915 238.902L88.1066 238.523L85.4344 237.646L84.5915 236.223L85.5778 232.312L87.9919 228.681L87.4529 228.417L84.7406 228.32L82.1085 227.792L79.1782 229.019L72.5665 241.408L73.7019 243.8L76.0645 241.764L81.8734 240.565L85.6695 242.028L86.8393 243.232L88.0722 248.171L90.5609 252.019L91.6218 252.587L92.9005 257.072L93.3192 260.095L105.195 276.763L105.7 280.806L108.131 280.566L109.41 279.504Z" fill="#E7E3CC"/>
<path d="M21.2441 129.512L30.9868 143.702L31.1072 145.864L35.8094 145.354L37.6788 144.39L38.9805 142.882L41.5896 142.543L42.8741 143.231L44.2848 136.699L45.6381 134.926L47.8573 133.251L46.4179 129.81L43.74 126.397L43.2354 126.139L38.7282 125.394L33.3895 125.571L29.7883 125.141L28.0795 123.357L22.1215 126.374L20.3209 128.147L21.2441 129.512Z" fill="#E7E3CC"/>
<path d="M156.879 264.087L147.629 262.773L140.427 259.917L138.557 261.661L135.553 262.498L131.716 260.129L129.193 260.858L126.36 263.571L127.026 264.494L128.574 264.62L131.43 265.779L133.907 269.174L133.672 270.809L126.527 272.943L123.528 271.572L119.061 270.826L119.726 272.467L124.33 273.751L125.753 273.769L129.595 276.172L131.791 276.969L133.861 276.74L135.57 274.944L139.905 272.707L154 271.807L161.999 267.844L156.879 264.087Z" fill="#E7E3CC"/>
<path d="M136.046 283.243L132.8 279.922L131.837 278.626L127.897 277.502L127.215 277.055L118.441 273.344L117.639 271.399L119.164 268.853L118.722 268.537L115.798 270.579L112.839 271.227L111.377 270.814L111.101 271.319L112.759 272.764L112.948 275.471L110.035 281.087L108.871 282.417L109.152 282.721L109.914 282.584L113.831 282.612L116.933 281.798L118.986 280.645L120.936 279.016L123.39 280.788L124.136 281.855L124.468 283.467L123.918 287.006L124.457 287.694L129.382 286.742L131.814 286.65L136.889 288.526L137.066 286.782L137.405 285.411L136.046 283.243Z" fill="#E7E3CC"/>
<path d="M46.567 230.383L41.8993 225.583L41.9222 224.011L40.3338 222.629L40.2019 223.214L39.5482 225.061L37.5928 224.183L35.6259 224.814L34.0948 228.548L34.0375 228.812L34.7371 233.314L38.2235 233.337L40.2363 234.777L39.1353 237.496L38.0917 238.454L38.9059 239.75L41.9451 237.427L47.8917 234.886L46.9742 232.615L46.567 230.383Z" fill="#E7E3CC"/>
<path d="M31.847 217.514L38.2752 222.372L39.7431 218.575L37.7075 214.359L36.595 213.315L35.0238 209.845L34.7944 209.082L28.24 200.341L27.7756 200.565L28.7905 206.301L26.6287 209.685L25.7284 210.35L26.4911 210.849L28.7848 213.034L30.1783 216.074L31.847 217.514Z" fill="#E7E3CC"/>
<path d="M363.602 169.621L365.162 168.043L355.31 161.602L350.149 156.475L348.022 155.029L347.288 157.484L347.683 158.889L365.402 176.136L363.413 172.024L363.602 169.621Z" fill="#E7E3CC"/>
<path d="M30.5395 123.569L39.7087 123.294L40.1732 118.103L36.1821 111.685L34.1808 110.578L31.3882 118.488L30.3159 120.575L30.5395 123.569Z" fill="#E7E3CC"/>
<path d="M37.9139 111.725L41.2685 116.652L42.3465 118.849L42.3695 122.565L46.2172 124.412L49.0099 119.537L47.7884 116.4L47.2896 113.836L44.4453 114.151L41.4233 113.084L41.5036 109.844L40.6434 108.037L37.6845 108.284L37.0652 110.148L37.9139 111.725Z" fill="#E7E3CC"/>
<path d="M150.405 95.9458L154.224 92.8141L160.291 89.8373L171.977 86.8261L172.786 85.5414L172.149 85.0137L169.276 85.7364L161.472 86.0633L158.759 86.6655L154.889 88.4092L150.473 92.0398L149.384 94.1104L150.405 95.9458Z" fill="#E7E3CC"/>
<path d="M49.3654 114.702L49.3941 115.683L50.9939 117.771L56.6193 114.421L57.2558 112.775L54.9048 109.644L50.2083 108.336L48.6887 112.242L49.6005 114.599L49.3654 114.702Z" fill="#E7E3CC"/>
<path d="M141.235 102.038L141.7 104.504L141.551 107.177L143.569 108.605L144.022 108.278L144.045 103.862L145.8 100.329L149.166 96.9158L147.566 96.2964L143.667 96.9675L140.347 99.0208L141.235 102.038Z" fill="#E7E3CC"/>
<path d="M10.8363 161.74L12.2699 156.831L13.1243 155.666L13.8468 153.154L13.3652 148.927L12.6885 148.25L11.9201 148.783L10.4177 154.29L8.1641 157.358L5.1421 158.723L4.74643 159.635L5.37721 160.358L6.93695 160.346L10.8363 161.74Z" fill="#E7E3CC"/>
<path d="M266.387 77.6556L270.889 69.4479L267.494 69.4307L262.855 74.0765L263.612 75.5793L266.387 77.6556Z" fill="#E7E3CC"/>
<path d="M33.8941 220.914L30.8377 219.538L29.1231 221.316L31.1187 227.275L33.1028 224.522L33.401 223.914L33.8941 220.914Z" fill="#E7E3CC"/>
<path d="M124.153 268.691L124.921 269.982L126.796 271.267L131.51 269.999L125.965 266.478L124.153 268.691Z" fill="#E7E3CC"/>
<path d="M370.397 183.455L371.412 181.051L373.929 180.541L366.44 177.931L370.397 183.455Z" fill="#E7E3CC"/>
<path d="M205.512 69.4307L207.88 66.5915L207.811 65.7599L206.647 64.4292L205.334 64.9856L204.525 68.5015L205.512 69.4307Z" fill="#E7E3CC"/>
<path d="M218.001 77.1221L214.17 75.1548V80.0358L217.955 77.6383L218.001 77.1221Z" fill="#E7E3CC"/>
<path d="M206.836 72.895L207.152 74.1797L210.288 75.9578V72.8491L208.172 72.2583L206.836 72.895Z" fill="#E7E3CC"/>
<path d="M30.2413 116.652L29.5991 114.146L26.5255 111.771L29.3869 116.491L30.2413 116.652Z" fill="#E7E3CC"/>
<path d="M120.471 267.826L119.324 269.151L121.303 269.226L122.323 268.383L121.922 267.379L120.471 267.826Z" fill="#E7E3CC"/>
<path d="M276.658 79.0264L276.503 78.688H274.335L274.439 80.3399L276.658 79.0264Z" fill="#E7E3CC"/>
</g>
</g>
<defs>
<clipPath id="clip0_109_1315">
<rect width="480.377" height="326.153" fill="white" transform="translate(57.2558 134.166)"/>
</clipPath>
<clipPath id="clip1_109_1315">
<rect width="451.405" height="522.434" fill="white" transform="translate(0.924683 0.908203)"/>
</clipPath>
<clipPath id="clip2_109_1315">
<rect width="382.246" height="266.357" fill="white" transform="translate(2.88277 22.1748)"/>
</clipPath>
</defs>
</svg>
