<svg width="114" height="137" viewBox="0 0 114 137" fill="none" xmlns="http://www.w3.org/2000/svg">
<path d="M23.4989 57.7124C11.7289 57.7124 6.22894 65.3024 6.22894 77.0724V80.5924H14.2589V76.6324C14.2589 69.7024 17.1189 65.4124 23.2789 65.4124C29.5489 65.4124 32.2989 69.4824 32.2989 77.4024V80.9224C32.2989 87.6324 28.7789 91.2624 23.0589 91.4824H17.9989V99.1824H22.6189C29.1089 99.4024 32.2989 103.032 32.2989 110.622V116.562C32.2989 124.372 29.5489 128.442 23.2789 128.442C17.1189 128.442 14.2589 124.262 14.2589 117.332V111.502H6.22894V116.782C6.22894 128.552 11.7289 136.252 23.4989 136.252C35.3789 136.252 40.8789 128.552 40.8789 116.782V110.842C40.8789 103.142 38.0189 97.3124 31.5289 94.8924C37.6889 92.5824 40.8789 86.9724 40.8789 79.0524V77.0724C40.8789 65.3024 35.3789 57.7124 23.4989 57.7124ZM53.608 82.9024V93.5724H61.858V82.9024H53.608ZM53.608 124.812V135.482H61.858V124.812H53.608ZM112.488 119.972V112.162H106.328V58.4824H96.9781L73.1081 112.162V119.972H97.9681V135.482H106.328V119.972H112.488ZM97.9681 74.5424V112.162H81.0281L97.9681 74.5424Z" fill="#EDEDED"/>
<path d="M40.29 8.85781C35.4164 1.24191 28.7729 0.482422 28.7729 0.482422C28.7729 0.482422 29.8914 1.50714 30.3923 2.01044C30.6996 2.31182 31.0069 2.63728 31.3142 2.95373C33.9107 5.70534 35.6162 8.26103 36.6825 10.9946C37.675 13.5352 37.9331 15.8739 37.4722 18.1463C37.2802 19.1224 36.9361 20.0637 36.452 20.9371L26.6527 10.9645L31.2927 6.44375H28.5271C27.0583 6.44375 25.5372 6.44375 24.0438 6.44375C23.6946 6.47275 23.3676 6.62348 23.1219 6.86867C21.6839 8.12241 20.298 9.34606 19.1272 10.3798C18.4942 10.9404 17.8612 11.5069 17.2497 12.0524L15.9376 13.2248L20.1597 17.4592L20.7466 16.9167C20.848 16.8263 20.9525 16.7299 21.0539 16.6335L21.7269 15.9734C22.3691 15.3465 23.0328 14.7016 23.6781 14.0506C25.6509 16.2607 27.6278 18.4709 29.6087 20.681L32.0332 23.3934L33.0688 24.5627L33.0872 24.5838L33.0503 24.608C31.6357 25.557 29.9833 26.1083 28.2721 26.2023C26.3361 26.2897 24.7813 25.8285 23.5245 24.7978C22.9099 24.2975 22.3291 23.734 21.7607 23.1885C21.4718 22.9112 21.183 22.6339 20.888 22.3597C20.7528 22.2361 20.6483 22.1306 20.5807 22.0583C19.9661 21.4555 19.6404 21.4555 18.9244 21.8473C18.8199 21.9045 18.697 21.9709 18.5403 22.0493C18.2109 22.257 17.8216 22.3542 17.431 22.3265C17.2486 22.2853 17.0589 22.2871 16.8773 22.3316C16.6957 22.3761 16.5274 22.4622 16.3862 22.5827C16.2503 22.7152 16.1485 22.8774 16.0892 23.0561C16.0299 23.2348 16.0148 23.4248 16.0451 23.6104C16.0451 23.7219 16.0452 23.7942 15.7717 24.0474C15.1246 24.6628 14.3603 25.1472 13.5223 25.4729C12.2897 25.941 11.2325 26.7676 10.4925 27.8418C9.87793 28.7007 9.83798 29.65 10.3757 30.3673C10.6802 30.7497 11.1058 31.0219 11.5854 31.1409C12.065 31.2598 12.5713 31.2189 13.0245 31.0244C14.0478 30.6025 15.3292 29.9424 16.1865 28.553C16.7087 27.7525 17.2879 26.9892 17.9196 26.2686C17.9647 26.2165 18.0207 26.1745 18.0838 26.1453C18.1469 26.1162 18.2156 26.1007 18.2853 26.0998C18.5294 26.0912 18.767 26.1779 18.9459 26.3409C19.1641 26.5459 19.3823 26.7507 19.5974 26.9587C20.4266 27.7927 21.3295 28.5531 22.2953 29.2311C24.5877 30.732 26.9436 31.4824 29.3629 31.4824C31.4736 31.4513 33.5461 30.9253 35.4072 29.9484C35.9142 29.6953 36.3936 29.3939 36.8607 29.1046L37.0481 28.9871L38.8089 30.94L42.7698 27.3746L42.3212 26.9105L41.808 26.374C41.4239 25.9702 41.0582 25.5905 40.6802 25.2138C41.8214 23.5177 42.5664 21.5952 42.862 19.5839C43.3629 15.9191 42.4994 12.3116 40.29 8.85781Z" fill="#EDEDED"/>
<path d="M102.614 25.3378L112 18.2245L108.732 17.5544L110.346 11.4033L104.822 12.6164L104.441 9.6058L99.8967 13.9565L101.215 4.0391L97.518 5.63L95.0015 0.482422L92.482 5.63L88.7881 4.0391L90.1033 13.9565L85.5615 9.6058L85.1781 12.6164L79.6567 11.4033L81.2715 17.5544L78 18.2245L87.386 25.3378L85.6874 28.9358L94.63 26.2056L94.2945 30.4824H95.0015H95.7055L95.373 26.2056L104.313 28.9358L102.614 25.3378Z" fill="#EDEDED"/>
</svg>
