<svg width="37" height="37" viewBox="0 0 37 37">
<path d="M10.0251 13.1729C10.6863 12.5117 11.4199 11.9664 12.2001 11.5356C16.5488 9.13926 22.1251 10.4135 24.9207 14.652L21.5376 18.0334C20.5676 15.8208 18.159 14.5616 15.7625 15.0978C14.8602 15.2996 14.0032 15.75 13.3027 16.4504L6.81969 22.9361C4.85097 24.9047 4.85097 28.1069 6.81969 30.0755C8.7884 32.0441 11.9908 32.0441 13.9595 30.0755L15.9583 28.0768C17.7764 28.7983 19.7256 29.086 21.6506 28.9429L17.2387 33.3545C13.4564 37.1366 7.32429 37.1366 3.54201 33.3545C-0.24028 29.5725 -0.24028 23.4407 3.54201 19.6586L10.0251 13.1729ZM20.322 2.87645L15.9101 7.28813C17.8337 7.14353 19.7843 7.43272 21.6024 8.15269L23.5997 6.15546C25.5684 4.18685 28.7708 4.18685 30.7395 6.15546C32.7082 8.12407 32.7082 11.3263 30.7395 13.2949L24.255 19.7791C22.2802 21.7537 19.0733 21.7372 17.1152 19.7791C16.6588 19.3227 16.2656 18.7549 16.0201 18.1961L12.637 21.5775C12.9924 22.1167 13.3615 22.5822 13.836 23.0566C15.0591 24.2796 16.6166 25.1909 18.4091 25.6232C20.7318 26.182 23.2201 25.8732 25.3576 24.6939C26.1378 24.2631 26.8714 23.7178 27.5326 23.0566L34.0157 16.5724C37.7995 12.7903 37.7995 6.65853 34.0172 2.87645C30.2349 -0.904129 24.1043 -0.904129 20.322 2.87645Z"/>
</svg>