<svg width="22" height="39" viewBox="0 0 22 39">
<path d="M10.8073 19.298C13.3108 19.2783 15.7044 18.2612 17.463 16.4697C19.2217 14.6783 20.2019 12.2588 20.1887 9.74177C20.1997 7.22543 19.2188 4.8072 17.4606 3.01624C15.7024 1.22528 13.3101 0.207461 10.8073 0.185547C8.30452 0.207461 5.91226 1.22528 4.15408 3.01624C2.39589 4.8072 1.41497 7.22543 1.42597 9.74177C1.4106 12.2594 2.39012 14.6802 4.14924 16.4721C5.90836 18.2641 8.30315 19.2805 10.8073 19.298ZM10.8073 5.7849C11.8432 5.79584 12.8329 6.21782 13.5608 6.95893C14.2886 7.70004 14.6958 8.70026 14.6936 9.74177C14.6968 10.2581 14.5989 10.7701 14.4054 11.2484C14.2118 11.7267 13.9265 12.162 13.5656 12.5294C13.2047 12.8969 12.7754 13.1892 12.3021 13.3898C11.8289 13.5905 11.3209 13.6954 10.8073 13.6987C9.77076 13.6899 8.77988 13.2686 8.05153 12.527C7.32319 11.7854 6.91675 10.7839 6.92115 9.74177C6.91892 8.70026 7.32608 7.70004 8.05395 6.95893C8.78183 6.21782 9.77144 5.79584 10.8073 5.7849Z"/>
<path d="M14.6028 27.9501C16.5348 27.4972 18.3762 26.7174 20.0484 25.644C20.6619 25.2386 21.0923 24.6069 21.2467 23.8853C21.4011 23.1636 21.267 22.4099 20.8735 21.7867C20.6875 21.4791 20.4428 21.2115 20.1534 20.9994C19.8641 20.7873 19.5359 20.6348 19.1877 20.5508C18.8395 20.4667 18.4782 20.4528 18.1246 20.5097C17.7711 20.5666 17.4322 20.6934 17.1276 20.8825C15.2411 22.0893 13.0515 22.7303 10.8155 22.7303C8.57958 22.7303 6.39001 22.0893 4.50357 20.8825C3.89468 20.4929 3.15712 20.3614 2.45211 20.5169C1.7471 20.6723 1.13192 21.102 0.741078 21.7121V21.7618C0.347536 22.385 0.213495 23.1387 0.36786 23.8604C0.522225 24.582 0.952618 25.2137 1.56618 25.6192C3.23758 26.6939 5.0793 27.4738 7.01185 27.9253L1.76424 33.2675C1.24774 33.7951 0.95823 34.5056 0.95823 35.2459C0.95823 35.9862 1.24774 36.6968 1.76424 37.2243C2.01766 37.4858 2.32041 37.6939 2.65476 37.8363C2.98911 37.9787 3.34834 38.0527 3.71146 38.0539C4.0732 38.0516 4.43088 37.9771 4.76373 37.8347C5.09659 37.6923 5.39797 37.4848 5.65042 37.2243L10.8073 31.9734L15.9641 37.2243C16.4745 37.736 17.1659 38.0233 17.8866 38.0233C18.6074 38.0233 19.2987 37.736 19.8091 37.2243C20.3256 36.6968 20.6151 35.9862 20.6151 35.2459C20.6151 34.5056 20.3256 33.7951 19.8091 33.2675L14.6028 27.9501Z"/>
</svg>