<svg width="40" height="32" viewBox="0 0 40 32">
<path d="M19.1937 8.77733L19.2788 10.1384L17.8747 9.97135C12.7998 9.34536 8.0846 7.0702 4.48085 3.50859L2.62575 1.69667L2.14927 3.03264C1.62852 4.42777 1.51188 5.9372 1.8123 7.39342C2.11272 8.84964 2.81844 10.1957 3.85116 11.2823C4.97441 12.4513 4.7021 12.6182 2.77896 11.9168C2.36426 11.731 1.91569 11.6288 1.45996 11.6163C1.54391 12.911 1.88811 14.1766 2.47264 15.3403C3.36731 16.8808 4.7093 18.1249 6.32744 18.914L7.70597 19.5486H6.07212C4.49787 19.5486 4.44684 19.5486 4.60852 20.1581C5.10336 21.2428 5.82847 22.2113 6.73536 22.999C7.64225 23.7866 8.70998 24.3753 9.8673 24.7255L11.5692 25.31L10.0546 26.2034C7.75635 27.4977 5.16431 28.2068 2.51512 28.2658C1.73991 28.2336 0.963922 28.3067 0.209091 28.4829C1.89271 29.5466 3.72024 30.3729 5.63813 30.9378C8.69792 31.829 11.9094 32.1058 15.0807 31.7514C18.252 31.3971 21.318 30.4189 24.0952 28.8754C28.2456 26.2689 31.5057 22.5029 33.4556 18.0623C34.5184 15.3895 35.1639 12.5745 35.3702 9.71251C35.3702 8.42663 35.4553 8.25963 37.0721 6.73161C37.7846 6.06889 38.4419 5.3513 39.0377 4.5857C39.3271 4.05131 39.293 4.05133 37.8634 4.52727C35.4723 5.36225 35.1319 5.25369 36.3147 3.99287C37.1671 3.1483 37.8206 2.13084 38.2294 1.01198C38.2294 0.928478 37.8038 1.07045 37.3188 1.32094C36.5219 1.70551 35.6937 2.02391 34.8426 2.27281L33.3279 2.7404L31.9494 1.82191C31.2035 1.32319 30.401 0.911283 29.5582 0.594485C27.9364 0.211172 26.2406 0.251488 24.6397 0.711394C22.9564 1.28414 21.5115 2.38385 20.5275 3.84125C19.5435 5.29866 19.0749 7.03298 19.1937 8.77733Z"/>
</svg>
