<svg width="37" height="36" viewBox="0 0 37 36">
<path d="M33.5856 2.75058C31.1025 0.267578 27.0219 0.267578 18.9185 0.267578H17.4949C9.39159 0.267578 5.3441 0.267578 2.82786 2.75058C0.311609 5.23359 0.344718 9.31399 0.344718 17.4086V18.8322C0.344718 26.9268 0.344718 30.9741 2.82786 33.4902C5.31099 36.0063 9.39159 35.9732 17.4949 35.9732H18.9185C27.0219 35.9732 31.0693 35.9732 33.5856 33.4902C36.1018 31.0072 36.0687 26.9268 36.0687 18.8322V17.4003C36.1018 9.31398 36.1018 5.2667 33.5856 2.75058ZM25.9872 26.0163C25.5991 24.6184 24.8054 23.3669 23.7064 22.4197C22.6074 21.4725 21.2524 20.8722 19.8124 20.6944V26.0081H19.3573C11.196 26.0081 6.54429 20.4213 6.35392 11.11H10.4428C10.5752 17.9383 13.5881 20.8269 15.9719 21.4311V11.11H19.8124V17.003C22.1714 16.7465 24.6464 14.0648 25.4824 11.11H29.3311C29.0182 12.6457 28.3913 14.1 27.4897 15.3819C26.5881 16.6637 25.4312 17.7454 24.0918 18.5591C25.5821 19.2973 26.8992 20.3428 27.9563 21.6267C29.0134 22.9106 29.7867 24.4038 30.2251 26.0081L25.9872 26.0163Z"/>
</svg>
