<svg viewBox="0 0 23 23" width="23" height="23">
    <path d="M11.3 0C5.3 0 0.399998 4.9 0.399998 10.9C0.399998 12.9 0.999998 14.8 1.9 16.5L0 22.2L6.2 20.6C7.7 21.4 9.4 21.9 11.3 21.9C17.3 21.9 22.2 17 22.2 11C22.2 5 17.3 0 11.3 0ZM17.4 14.4C17.2 15.2 16.9 16.3 16.7 16.8C16.4 16.8 16.1 16.7 15.8 16.7C10.7 15.9 6.6 11.9 5.5 6.8C5.4 6.3 5.3 5.8 5.3 5.4C5.9 5.2 7 4.9 7.7 4.6C8.2 4.4 8.7 4.3 8.7 4.3L10.5 7.3L8.9 9C9.8 10.8 11.3 12.3 13.1 13.3L14.8 11.6L17.8 13.3C17.8 13.3 17.6 13.8 17.4 14.4Z"></path>
</svg>