<svg width="1002" height="544" viewBox="0 0 1002 544" fill="none" xmlns="http://www.w3.org/2000/svg">
<mask id="path-1-outside-1_85_331" maskUnits="userSpaceOnUse" x="167" y="396.801" width="835" height="147" fill="black">
<rect fill="white" x="167" y="396.801" width="835" height="147"/>
<path d="M261.137 507.851H231.944V464.025H198.193V507.851H169V400.346H198.193V440.201H231.944V400.346H261.137V507.851Z"/>
<path d="M354.924 507.851L349.63 487.703H314.702L309.26 507.851H277.347L312.422 399.904H351.174L386.691 507.851H354.924ZM343.6 463.878L338.968 446.23C337.889 442.309 336.566 437.235 334.997 431.009C333.477 424.783 332.472 420.322 331.982 417.626C331.541 420.126 330.658 424.244 329.335 429.979C328.06 435.715 325.192 447.015 320.731 463.878H343.6Z"/>
<path d="M402.9 400.346H440.402C455.011 400.346 465.845 402.527 472.904 406.89C480.012 411.204 483.566 417.945 483.566 427.112C483.566 433.141 482.022 438.289 478.934 442.554C475.845 446.819 471.777 449.564 466.727 450.789V451.525C473.394 453.29 478.223 456.231 481.213 460.349C484.204 464.467 485.699 469.81 485.699 476.379C485.699 486.134 482.022 493.831 474.669 499.468C467.365 505.057 457.389 507.851 444.741 507.851H402.9V400.346ZM431.946 441.598H440.697C444.863 441.598 448.074 440.74 450.329 439.024C452.633 437.308 453.785 434.759 453.785 431.377C453.785 425.347 449.226 422.332 440.108 422.332H431.946V441.598ZM431.946 462.849V485.424H442.167C451.236 485.424 455.771 481.6 455.771 473.952C455.771 470.374 454.545 467.629 452.094 465.717C449.692 463.805 446.187 462.849 441.579 462.849H431.946Z"/>
<path d="M556.764 422.626C549.852 422.626 544.46 425.469 540.587 431.156C536.714 436.794 534.778 444.588 534.778 454.54C534.778 475.227 542.646 485.571 558.382 485.571C563.137 485.571 567.745 484.909 572.206 483.585C576.667 482.262 581.153 480.668 585.663 478.806V503.366C576.692 507.336 566.544 509.322 555.22 509.322C538.994 509.322 526.542 504.616 517.865 495.203C509.237 485.791 504.923 472.188 504.923 454.393C504.923 443.264 507.007 433.485 511.174 425.053C515.39 416.621 521.419 410.15 529.263 405.64C537.155 401.081 546.421 398.801 557.058 398.801C568.677 398.801 579.78 401.326 590.369 406.375L581.471 429.244C577.501 427.381 573.53 425.813 569.559 424.538C565.588 423.263 561.323 422.626 556.764 422.626Z"/>
<path d="M675.038 507.851H611.211V400.346H675.038V423.656H640.257V440.568H672.465V463.878H640.257V484.173H675.038V507.851Z"/>
<path d="M770.075 400.346V423.803H727.573V507.851H698.381V400.346H770.075Z"/>
<path d="M882.203 541.309H853.892V507.851H791.242V541.309H762.932V484.026H771.829C778.251 473.143 783.546 460.569 787.713 446.304C791.879 431.989 794.576 416.67 795.801 400.346H867.496V484.026H882.203V541.309ZM838.23 484.026V424.097H819.111C817.101 445.078 811.586 465.055 802.566 484.026H838.23Z"/>
<path d="M967.092 507.851L961.798 487.703H926.87L921.428 507.851H889.515L924.59 399.904H963.342L998.859 507.851H967.092ZM955.768 463.878L951.136 446.23C950.057 442.309 948.734 437.235 947.165 431.009C945.645 424.783 944.64 420.322 944.15 417.626C943.709 420.126 942.826 424.244 941.503 429.979C940.228 435.715 937.36 447.015 932.899 463.878H955.768Z"/>
</mask>
<path d="M261.137 507.851H231.944V464.025H198.193V507.851H169V400.346H198.193V440.201H231.944V400.346H261.137V507.851Z" stroke="#EDEDED" stroke-width="4" mask="url(#path-1-outside-1_85_331)"/>
<path d="M354.924 507.851L349.63 487.703H314.702L309.26 507.851H277.347L312.422 399.904H351.174L386.691 507.851H354.924ZM343.6 463.878L338.968 446.23C337.889 442.309 336.566 437.235 334.997 431.009C333.477 424.783 332.472 420.322 331.982 417.626C331.541 420.126 330.658 424.244 329.335 429.979C328.06 435.715 325.192 447.015 320.731 463.878H343.6Z" stroke="#EDEDED" stroke-width="4" mask="url(#path-1-outside-1_85_331)"/>
<path d="M402.9 400.346H440.402C455.011 400.346 465.845 402.527 472.904 406.89C480.012 411.204 483.566 417.945 483.566 427.112C483.566 433.141 482.022 438.289 478.934 442.554C475.845 446.819 471.777 449.564 466.727 450.789V451.525C473.394 453.29 478.223 456.231 481.213 460.349C484.204 464.467 485.699 469.81 485.699 476.379C485.699 486.134 482.022 493.831 474.669 499.468C467.365 505.057 457.389 507.851 444.741 507.851H402.9V400.346ZM431.946 441.598H440.697C444.863 441.598 448.074 440.74 450.329 439.024C452.633 437.308 453.785 434.759 453.785 431.377C453.785 425.347 449.226 422.332 440.108 422.332H431.946V441.598ZM431.946 462.849V485.424H442.167C451.236 485.424 455.771 481.6 455.771 473.952C455.771 470.374 454.545 467.629 452.094 465.717C449.692 463.805 446.187 462.849 441.579 462.849H431.946Z" stroke="#EDEDED" stroke-width="4" mask="url(#path-1-outside-1_85_331)"/>
<path d="M556.764 422.626C549.852 422.626 544.46 425.469 540.587 431.156C536.714 436.794 534.778 444.588 534.778 454.54C534.778 475.227 542.646 485.571 558.382 485.571C563.137 485.571 567.745 484.909 572.206 483.585C576.667 482.262 581.153 480.668 585.663 478.806V503.366C576.692 507.336 566.544 509.322 555.22 509.322C538.994 509.322 526.542 504.616 517.865 495.203C509.237 485.791 504.923 472.188 504.923 454.393C504.923 443.264 507.007 433.485 511.174 425.053C515.39 416.621 521.419 410.15 529.263 405.64C537.155 401.081 546.421 398.801 557.058 398.801C568.677 398.801 579.78 401.326 590.369 406.375L581.471 429.244C577.501 427.381 573.53 425.813 569.559 424.538C565.588 423.263 561.323 422.626 556.764 422.626Z" stroke="#EDEDED" stroke-width="4" mask="url(#path-1-outside-1_85_331)"/>
<path d="M675.038 507.851H611.211V400.346H675.038V423.656H640.257V440.568H672.465V463.878H640.257V484.173H675.038V507.851Z" stroke="#EDEDED" stroke-width="4" mask="url(#path-1-outside-1_85_331)"/>
<path d="M770.075 400.346V423.803H727.573V507.851H698.381V400.346H770.075Z" stroke="#EDEDED" stroke-width="4" mask="url(#path-1-outside-1_85_331)"/>
<path d="M882.203 541.309H853.892V507.851H791.242V541.309H762.932V484.026H771.829C778.251 473.143 783.546 460.569 787.713 446.304C791.879 431.989 794.576 416.67 795.801 400.346H867.496V484.026H882.203V541.309ZM838.23 484.026V424.097H819.111C817.101 445.078 811.586 465.055 802.566 484.026H838.23Z" stroke="#EDEDED" stroke-width="4" mask="url(#path-1-outside-1_85_331)"/>
<path d="M967.092 507.851L961.798 487.703H926.87L921.428 507.851H889.515L924.59 399.904H963.342L998.859 507.851H967.092ZM955.768 463.878L951.136 446.23C950.057 442.309 948.734 437.235 947.165 431.009C945.645 424.783 944.64 420.322 944.15 417.626C943.709 420.126 942.826 424.244 941.503 429.979C940.228 435.715 937.36 447.015 932.899 463.878H955.768Z" stroke="#EDEDED" stroke-width="4" mask="url(#path-1-outside-1_85_331)"/>
<path d="M81.8112 368.997L70.6345 329.635H70.2981C70.8214 336.339 71.0831 341.547 71.0831 345.26V368.997H58V314.347H77.662L89.0629 353.147H89.362L100.539 314.347H120.238V368.997H106.669V345.036C106.669 343.79 106.681 342.407 106.706 340.887C106.756 339.367 106.931 335.641 107.23 329.71H106.893L95.8661 368.997H81.8112Z" fill="#EDEDED"/>
<path d="M134.309 314.347H147.467V337.822C147.467 340.314 147.268 345.298 146.869 352.774H147.168L168.961 314.347H187.202V368.997H174.119V346.12C174.119 342.656 174.344 337.473 174.792 330.57H174.493L152.514 368.997H134.309V314.347Z" fill="#EDEDED"/>
<path d="M241.009 331.729C241.009 337.834 239.202 342.556 235.589 345.896C232 349.21 226.892 350.867 220.263 350.867H216.114V368.997H201.349V314.347H220.263C227.166 314.347 232.349 315.854 235.813 318.87C239.277 321.885 241.009 326.171 241.009 331.729ZM216.114 338.831H218.805C221.023 338.831 222.78 338.208 224.076 336.962C225.396 335.716 226.057 333.996 226.057 331.803C226.057 328.115 224.013 326.271 219.926 326.271H216.114V338.831Z" fill="#EDEDED"/>
<path d="M303.151 341.597C303.151 350.792 300.896 357.783 296.385 362.567C291.875 367.352 285.271 369.744 276.574 369.744C268.001 369.744 261.422 367.339 256.837 362.53C252.277 357.72 249.997 350.718 249.997 341.522C249.997 332.426 252.264 325.486 256.8 320.701C261.36 315.892 267.976 313.487 276.649 313.487C285.346 313.487 291.937 315.867 296.423 320.627C300.908 325.386 303.151 332.376 303.151 341.597ZM265.547 341.597C265.547 352.163 269.222 357.446 276.574 357.446C280.312 357.446 283.078 356.163 284.872 353.596C286.691 351.029 287.601 347.03 287.601 341.597C287.601 336.139 286.679 332.115 284.835 329.523C283.016 326.907 280.287 325.598 276.649 325.598C269.247 325.598 265.547 330.931 265.547 341.597Z" fill="#EDEDED"/>
<path d="M315.316 314.347H334.38C341.806 314.347 347.314 315.456 350.902 317.674C354.516 319.867 356.322 323.293 356.322 327.953C356.322 331.018 355.537 333.635 353.967 335.803C352.397 337.971 350.329 339.367 347.762 339.99V340.363C351.151 341.261 353.606 342.756 355.126 344.849C356.646 346.942 357.406 349.659 357.406 352.998C357.406 357.957 355.537 361.869 351.799 364.735C348.086 367.576 343.015 368.997 336.586 368.997H315.316V314.347ZM330.081 335.317H334.53C336.648 335.317 338.28 334.881 339.426 334.009C340.598 333.137 341.183 331.841 341.183 330.121C341.183 327.056 338.866 325.523 334.231 325.523H330.081V335.317ZM330.081 346.12V357.596H335.277C339.887 357.596 342.193 355.652 342.193 351.764C342.193 349.945 341.57 348.55 340.324 347.578C339.102 346.606 337.321 346.12 334.978 346.12H330.081Z" fill="#EDEDED"/>
<path d="M420.334 341.597C420.334 350.792 418.078 357.783 413.568 362.567C409.057 367.352 402.453 369.744 393.756 369.744C385.184 369.744 378.605 367.339 374.02 362.53C369.459 357.72 367.179 350.718 367.179 341.522C367.179 332.426 369.447 325.486 373.982 320.701C378.543 315.892 385.159 313.487 393.831 313.487C402.528 313.487 409.12 315.867 413.605 320.627C418.091 325.386 420.334 332.376 420.334 341.597ZM382.729 341.597C382.729 352.163 386.405 357.446 393.756 357.446C397.494 357.446 400.26 356.163 402.055 353.596C403.874 351.029 404.783 347.03 404.783 341.597C404.783 336.139 403.861 332.115 402.017 329.523C400.198 326.907 397.469 325.598 393.831 325.598C386.43 325.598 382.729 330.931 382.729 341.597Z" fill="#EDEDED"/>
<path d="M432.499 314.347H445.656V337.822C445.656 340.314 445.457 345.298 445.058 352.774H445.357L467.15 314.347H485.392V368.997H472.308V346.12C472.308 342.656 472.533 337.473 472.981 330.57H472.682L450.703 368.997H432.499V314.347ZM458.814 309.973C452.858 309.973 448.398 308.815 445.432 306.497C442.492 304.179 440.847 300.591 440.498 295.731H452.684C452.808 298.174 453.344 299.943 454.291 301.039C455.238 302.136 456.746 302.684 458.814 302.684C462.552 302.684 464.596 300.367 464.945 295.731H477.317C476.296 305.226 470.128 309.973 458.814 309.973Z" fill="#EDEDED"/>
<path d="M570.95 368.997H553.868L543.214 351.914L532.673 368.997H515.964L534.093 341.036L517.048 314.347H533.421L543.289 331.243L552.784 314.347H569.642L552.335 342.195L570.95 368.997Z" fill="#EDEDED"/>
<path d="M630.551 341.597C630.551 350.792 628.295 357.783 623.785 362.567C619.274 367.352 612.671 369.744 603.973 369.744C595.401 369.744 588.822 367.339 584.237 362.53C579.676 357.72 577.396 350.718 577.396 341.522C577.396 332.426 579.664 325.486 584.199 320.701C588.76 315.892 595.376 313.487 604.048 313.487C612.745 313.487 619.337 315.867 623.822 320.627C628.308 325.386 630.551 332.376 630.551 341.597ZM592.946 341.597C592.946 352.163 596.622 357.446 603.973 357.446C607.711 357.446 610.478 356.163 612.272 353.596C614.091 351.029 615.001 347.03 615.001 341.597C615.001 336.139 614.079 332.115 612.234 329.523C610.415 326.907 607.687 325.598 604.048 325.598C596.647 325.598 592.946 330.931 592.946 341.597Z" fill="#EDEDED"/>
<path d="M690.488 368.997H673.779L657.556 341.298V368.997H642.716V314.347H657.556V340.812L673.181 314.347H689.404L672.545 340.438L690.488 368.997Z" fill="#EDEDED"/>
<path d="M746.163 368.997H729.454L713.231 341.298V368.997H698.391V314.347H713.231V340.812L728.856 314.347H745.079L728.221 340.438L746.163 368.997Z" fill="#EDEDED"/>
<path d="M786.513 368.997H754.067V314.347H786.513V326.196H768.832V334.794H785.204V346.643H768.832V356.96H786.513V368.997Z" fill="#EDEDED"/>
<path d="M798.379 314.347H811.537V337.822C811.537 340.314 811.337 345.298 810.939 352.774H811.238L833.03 314.347H851.272V368.997H838.189V346.12C838.189 342.656 838.413 337.473 838.862 330.57H838.562L816.583 368.997H798.379V314.347ZM824.694 309.973C818.739 309.973 814.278 308.815 811.312 306.497C808.372 304.179 806.727 300.591 806.378 295.731H818.564C818.689 298.174 819.224 299.943 820.171 301.039C821.118 302.136 822.626 302.684 824.694 302.684C828.432 302.684 830.476 300.367 830.825 295.731H843.198C842.176 305.226 836.008 309.973 824.694 309.973Z" fill="#EDEDED"/>
<path d="M322 224.25H335.158V247.724C335.158 250.216 334.958 255.2 334.56 262.677H334.859L356.651 224.25H374.893V278.9H361.81V256.023C361.81 252.559 362.034 247.376 362.483 240.473H362.184L340.204 278.9H322V224.25Z" fill="#EDEDED"/>
<path d="M428.438 237.034C428.438 244.236 424.152 248.572 415.579 250.042V250.341C420.513 250.765 424.239 252.085 426.756 254.303C429.273 256.521 430.531 259.512 430.531 263.275C430.531 266.564 429.609 269.455 427.765 271.947C425.946 274.414 423.304 276.32 419.84 277.666C416.376 278.987 412.277 279.647 407.542 279.647C398.845 279.647 391.905 278.663 386.722 276.694V263.985C388.84 265.056 391.531 265.929 394.796 266.601C398.085 267.249 401.063 267.573 403.73 267.573C407.941 267.573 410.931 267.137 412.701 266.265C414.47 265.393 415.355 263.935 415.355 261.892C415.355 258.228 411.168 256.397 402.795 256.397H396.366V244.435H402.122C405.013 244.435 407.268 244.298 408.888 244.024C410.533 243.725 411.729 243.251 412.476 242.603C413.224 241.955 413.598 240.984 413.598 239.688C413.598 236.947 410.969 235.576 405.711 235.576C400.752 235.576 396.391 236.847 392.628 239.389L386.423 229.221C389.687 227.128 393.001 225.645 396.366 224.773C399.73 223.901 403.792 223.465 408.552 223.465C414.557 223.465 419.367 224.711 422.98 227.203C426.619 229.695 428.438 232.972 428.438 237.034Z" fill="#EDEDED"/>
<path d="M466.134 278.9L454.957 239.538H454.62C455.144 246.242 455.405 251.45 455.405 255.163V278.9H442.322V224.25H461.984L473.385 263.05H473.684L484.861 224.25H504.56V278.9H490.991V254.939C490.991 253.693 491.004 252.31 491.029 250.79C491.079 249.27 491.253 245.544 491.552 239.613H491.216L480.188 278.9H466.134Z" fill="#EDEDED"/>
<path d="M551.078 278.9H518.632V224.25H551.078V236.099H533.397V244.697H549.769V256.546H533.397V266.863H551.078V278.9Z" fill="#EDEDED"/>
<path d="M609.781 278.9H594.941V256.621H577.784V278.9H562.944V224.25H577.784V244.51H594.941V224.25H609.781V278.9Z" fill="#EDEDED"/>
<path d="M623.927 224.25H637.085V247.724C637.085 250.216 636.886 255.2 636.487 262.677H636.786L658.579 224.25H676.82V278.9H663.737V256.023C663.737 252.559 663.961 247.376 664.41 240.473H664.111L642.131 278.9H623.927V224.25Z" fill="#EDEDED"/>
<path d="M690.966 224.25H710.03C717.456 224.25 722.964 225.359 726.552 227.577C730.166 229.77 731.972 233.196 731.972 237.856C731.972 240.921 731.187 243.538 729.617 245.706C728.047 247.874 725.979 249.27 723.412 249.893V250.266C726.801 251.163 729.256 252.659 730.776 254.752C732.296 256.845 733.056 259.562 733.056 262.901C733.056 267.86 731.187 271.772 727.449 274.638C723.736 277.479 718.665 278.9 712.236 278.9H690.966V224.25ZM705.731 245.22H710.18C712.298 245.22 713.93 244.784 715.077 243.912C716.248 243.039 716.833 241.744 716.833 240.024C716.833 236.959 714.516 235.426 709.881 235.426H705.731V245.22ZM705.731 256.023V267.499H710.927C715.538 267.499 717.843 265.555 717.843 261.667C717.843 259.848 717.22 258.453 715.974 257.481C714.753 256.509 712.971 256.023 710.628 256.023H705.731Z" fill="#EDEDED"/>
<path d="M816.356 278.9H744.848V224.25H759.688V266.788H773.331V224.25H787.872V266.788H801.479V224.25H816.356V278.9Z" fill="#EDEDED"/>
<path d="M830.427 224.25H843.585V247.724C843.585 250.216 843.386 255.2 842.987 262.677H843.286L865.079 224.25H883.32V278.9H870.237V256.023C870.237 252.559 870.462 247.376 870.91 240.473H870.611L848.631 278.9H830.427V224.25Z" fill="#EDEDED"/>
<path d="M929.912 278.9H897.466V224.25H929.912V236.099H912.232V244.697H928.604V256.546H912.232V266.863H929.912V278.9Z" fill="#EDEDED"/>
<path d="M2.96063 1.33179H1.96063V2.33179V195.294V196.294H2.96063H67.2373H67.8174L68.1054 195.79L144.759 61.7772C143.27 85.0465 142.525 102.631 142.525 114.519V195.294V196.294H143.525H189.719H190.719V195.294V2.33179V1.33179H189.719H125.311H124.728L124.441 1.83848L48.4221 135.882C49.7525 110.699 50.4193 93.8027 50.4193 85.2184V2.33179V1.33179H49.4193H2.96063ZM369.353 2.33179V1.33179H368.353H239.668H238.668V2.33179V195.294V196.294H239.668H292.066H293.066V195.294V45.435H368.353H369.353V44.435V2.33179ZM456.181 196.294H457.181V195.294V132.281H470.832C494.397 132.281 512.711 126.388 525.624 114.462L524.945 113.727L525.624 114.462C538.635 102.438 545.083 85.4692 545.083 63.7048C545.083 43.8601 538.888 28.424 526.394 17.5477C513.909 6.67938 495.329 1.33179 470.832 1.33179H404.047H403.047V2.33179V195.294V196.294H404.047H456.181ZM483.608 81.4553L483.601 81.4619C479.253 85.6425 473.321 87.782 465.684 87.782H457.181V45.435H469.644C476.729 45.435 481.856 47.0356 485.208 50.0608C488.541 53.0684 490.289 57.6397 490.289 63.9688C490.289 71.4982 488.03 77.2833 483.608 81.4553ZM700.238 179.582L700.238 179.581C714.595 168.275 721.737 152.126 721.737 131.281C721.737 111.127 714.54 95.7986 700.073 85.4632C685.753 75.0825 665.009 69.964 637.983 69.964H636.343V2.33179V1.33179H635.343H582.945H581.945V2.33179V195.294V196.294H582.945H639.962C665.87 196.294 686.007 190.769 700.238 179.582ZM790.821 196.294H791.821V195.294V2.33179V1.33179H790.821H738.291H737.291V2.33179V195.294V196.294H738.291H790.821ZM637.455 154.038H636.343V111.427H637.191C647.398 111.427 654.874 113.243 659.775 116.72C664.614 120.153 667.075 125.299 667.075 132.337C667.075 139.656 664.623 145.002 659.825 148.56C654.97 152.159 647.567 154.038 637.455 154.038Z" stroke="#EDEDED" stroke-width="2"/>
</svg>
