<svg width="553" height="524" viewBox="0 0 553 524" fill="none" xmlns="http://www.w3.org/2000/svg">
<g clip-path="url(#clip0_101_960)">
<path d="M244.619 244.776L240.255 245.766L235.973 244.957L234.529 244.268L232.044 240.567L231.044 237.638L226.219 237.426L226.111 237.353L225.37 236.446L231.065 232.632L230.345 229.791L227.27 229.734L217.123 238.266L213.142 246.75L209.43 249.342L216.947 232.347L218.723 230.833L222.036 224.613L240.612 217.414L243.817 213.268L243.982 212.376L250.454 202.617L251.132 200.948L250.775 199.025L248.704 195.915L242.284 193.484L241.766 192.831L238.215 193.406L239.551 190.763L239.431 190.343L231.484 190.649L229.46 189.965L227.731 188.928L222.621 183.31L222.041 182.273L207.618 170.072L208.171 174.856L206.432 179.827L203.414 184.294L200.934 182.289L199.557 181.734L196.176 179.324L193.717 172.881L182.943 166.957L175.022 167.916L172.583 167.719L170.709 169.175L172.609 174.25L172.247 176.276L174.892 182.952L173.339 186.425L173.194 188.835L176.44 191.1L179.821 198.356L180.054 204.348L174.613 211.143L174.328 212.957L178.863 224.007L178.977 224.842L175.467 231.932L175.12 232.388L171.957 230.201L165.056 222.944L164.486 221.421L163.451 213.304L163.565 211.749L162.814 210.671L154.075 209.982L137.285 200.745L134.862 200.595L131.802 201.932L130.7 194.676L127.107 191.618L126.03 191.255L125.248 188.301L130.13 173.747L131.264 172.746L133.78 168.942L136.441 167.973L137.166 166.936L138.466 162.593L144.28 158.835L146.438 152.139L145.983 148.127L154.013 147.723L156.871 144.556L156.021 140.772L154.556 139.393L155.84 132.982L154.479 132.464L151.781 130.204L149.358 129.898L148.483 130.904L149.146 137.574L147.21 142.669L145.61 144.281L144.704 144.183L141.406 134.2L140.164 136.429L139.366 137.139L135.012 131.158L134.826 129.183L135.344 125.767L131.347 118.682L129.669 120.024L127.557 125.197L127.614 126.384L130.86 130.593L131.274 133.008L130.684 137.46L126.734 142.576L124.482 138.668V137.776L123.446 136.62L122.338 137.185L121.634 139.088L118.461 141.021L107.278 131.5L102.795 131.909L101.759 136.755L92.9578 133.438H92.699L91.0319 132.842L87.7237 130.681L87.4079 129.359L90.3071 128.094L81.6094 115.738L77.8508 114.484L75.697 114.23L75.1793 112.556L72.7409 110.695L73.3725 105.294L71.5449 106.191H68.8632L68.8321 103.926L60.5485 102.645L57.5147 103.112L54.3618 101.137L52.1201 91.6885L15.0719 127.006L15.5224 130.515L16.6458 131.349L16.7856 132.474L15.6622 139.585L17.2153 141.399L18.5303 140.881L22.0767 141.27L22.6358 142.42L19.8609 162.24L20.3527 164.899L22.2424 169.201L22.144 169.823L16.4491 178.028L15.0719 179.189L14.0365 179.298L14.7406 199.735L21.0879 212.428L23.1587 213.625L24.7119 213.75L23.8318 215.714L25.0122 218.943L117.953 244.003L120.35 242.759L121.256 241.583L122.194 243.801L126.568 246.553L139.91 250.114L141.417 249.337L142.452 247.875L145.305 245.683L147.293 244.916L150.958 245.75L157.688 249.757L158.651 250.824L158.45 251.555L160.779 256.686L162.571 258.506L173.531 259.692L176.238 261.154L180.033 265.523L179.086 266.85L176.782 268.001L174.618 267.794L174.012 266.923L172.832 273.511L171.056 276.662L170.352 279.326L169.12 281.555L168.141 281.917L180.789 276.216L183.378 275.651L183.455 275.273L179.743 274.754L189.782 268.872L189.694 267.731L192.252 266.97L196.808 262.533L198.92 261.294L209.621 258.988L213.763 255.064L215.047 244.18L217.149 243.423L221.555 243.086L223.108 245.159L224.05 248.497L226.758 252.783L227.576 252.965L233.825 249.223L235.538 247.103L236.227 248.824L238.261 248.305L238.463 248.627L234.094 255.064L236.46 260.029L238.748 255.624L248.336 246.211L249.077 244.066L244.598 244.822L244.619 244.776ZM64.0794 135.822L64.7162 134.786L68.0089 133.697V131.966L63.5461 130.499L63.4529 129.188L65.7051 127.675L72.834 129.717L76.1423 129.675L78.6066 131.349L78.441 131.899L75.1845 132.578L78.4151 133.977L79.3832 133.677L80.6258 134.096L80.4497 135.408L77.1467 139.222L75.1276 138.461L74.7341 137.813L74.0196 137.377L73.6158 138.191L72.2128 139.699L68.7958 140.259L64.0794 135.807V135.822ZM75.4693 167.071L70.6752 166.402L64.9233 160.183L65.9587 159.074L67.4291 159.219L68.1745 160.079L71.9747 162.297L73.9523 161.406L75.3761 160.369L73.7297 153.414L76.7169 154.15L77.5142 158.161L78.6429 156.529L79.0778 156.674V159.924L80.3255 161.613L89.282 159.898L90.2243 160.312L91.5756 162.121L89.7118 163.013L86.8436 162.982L75.4848 167.092L75.4693 167.071ZM93.5015 182.693L86.1861 182.05L80.1909 182.983L78.8086 181.9L79.4557 180.583L84.8556 177.266L87.8065 176.929L89.2095 177.665L87.6046 178.531L89.1112 179.935L89.7428 180.039L93.5222 182.299V182.693H93.5015ZM118.005 233.051L116.276 236.514L115.158 236.934L114.588 235.944L115.272 230.963L113.517 228.314L111.855 228.029L111.109 227.324L108.655 220.7L108.474 218.508L108.847 217.839L112 216.575L111.275 214.667L111.233 213.713L114.283 214.403L118.005 233.062V233.051Z" fill="#E7E3CC"/>
<path d="M159.62 112.146L154.727 116.116L152.382 107.118L148.276 119.309L145.315 116.94L146.977 107.88L143.493 108.86L140.749 113.758L141.784 121.066L144.471 125.275L148.437 127.415L156.819 127.462L161.043 125.954L161.137 125.71L162.757 125.441L165.258 127.576L167.862 130.919L168.152 131.059L170.43 131.199L175.027 134.278L177.341 138.004L177.357 139.466L175.099 144.794L175.441 146.297L176.627 147.287L176.953 148.288L173.976 151.097L169.166 151.724L167.851 153.693L167.427 155.813L169.104 157.135L173.779 154.994L180.473 155.673L185.288 159.286L200.142 161.655L198.749 160.105L192.857 157.202L190.383 155.186L190.181 154.279L190.947 154.02L201.897 154.808L201.607 153.792L199.671 151.04L193.888 146.391L188.98 139.901L189.528 139.02L198.537 143.032L200.028 136.377L199.955 135.351L197.651 132.427L190.476 130.028L184.372 130.116L182.291 127.892L183.212 124.756L178.32 119.283L172.64 116.609L168.612 115.8L166.319 114.193L165.604 112.405L164.6 112.042L159.62 112.146Z" fill="#E7E3CC"/>
<path d="M114.366 122.714L112.994 118.552L113.537 114.525L115.489 108.762L115.95 108.15L116.017 105.869L113.486 106.17L111.378 108.777L108.997 108.782L105.337 106.787L103.493 106.284L101.909 106.533L101.847 104.812L101.977 104.314L100.563 103.05L97.3119 103.641L94.7803 104.631L93.1546 105.942L92.0208 109.088L92.2641 113.452L95.5206 115.214L98.8185 118.775L93.9778 118.972L91.9638 118.117L90.6488 118.791L94.4075 126.327L94.2522 127.498L98.2904 128.312L107.599 127.405L109.742 128.131L111.554 130.603L116.219 130.287L116.245 129.473L117.503 127.732L118.766 126.814L117.922 125.441L114.366 122.714Z" fill="#E7E3CC"/>
<path d="M143.12 68.8882L150.896 66.5247L148.478 69.7745L146.754 70.8474L143.912 71.5108L143.482 73.5633L145.046 75.9683L145.543 78.0881L144.916 80.2236L143.389 82.7788L144.73 84.0539L145.331 84.313L145.191 84.8365L142.571 85.7591L143.027 87.5317L142.799 89.2836L140.935 92.6785L150.736 91.4294L151.766 92.7666L152.755 92.015L153.226 83.8154L155.504 79.954L155.131 77.9327L156.581 72.1743L157.378 70.6504L159.904 56.2882L159.521 55.3345L150.565 55.4433L149.239 55.8009L146.076 57.5165L142.69 62.3575L140.236 64.1353L140.102 66.9445L143.12 68.8882Z" fill="#E7E3CC"/>
<path d="M269.092 217.995L266.617 216.098L266.291 215.574L265.752 212.024L264.593 211.252L261.44 213.631L260.56 214.989L259.39 213.926L256.718 213.029L256.936 211.754L255.144 214.958L253.56 211.801L253.312 206.748L252.421 203.954L251.598 205.504L251.515 209.842L252.23 212.418L251.846 215.16L252.519 219.876L252.09 222.789L252.411 225.023L251.593 227.184L251.536 228.532L252.923 228.221L257.826 225.759L263.003 221.576L263.914 223.478L267.559 221.841L269.092 217.995Z" fill="#E7E3CC"/>
<path d="M83.8253 106.103L87.2785 106.72L87.7755 106.647L95.8985 101.599L99.9678 100.785L98.9531 96.5711L94.6508 92.5542L91.2183 92.0825L89.981 92.9688L88.5107 95.8817L84.1514 99.4632L83.4111 101.049L83.8253 106.103Z" fill="#E7E3CC"/>
<path d="M145.993 103.33L147.764 102.423L150.078 101.852L152.092 101.92L153.391 98.5872L152.444 97.3277L148.68 96.8923L143.757 98.1518L139.506 96.2911L139.056 95.213L136.912 92.3053L132.465 90.0403L134.624 93.0154L135.991 93.4715L137.347 98.4991L137.187 101.298L137.943 102.262L145.993 103.33Z" fill="#E7E3CC"/>
<path d="M162.353 161.536L150.632 150.936L149.198 153.295L148.39 162.847L150.777 165.993L152.687 164.366L154.049 162.178L158.186 161.074L161.468 162.93L162.353 161.536Z" fill="#E7E3CC"/>
<path d="M106.589 86.7698L102.463 90.5327L103.763 91.9736L106.822 93.0257L105.306 95.8764L105.808 96.6798L114.205 96.799L115.562 97.0893L116.525 96.4621L117.56 94.1038L117.462 93.1968L114.93 88.1277L113.739 89.3924L113.408 93.4663L112.745 94.1401L109.975 91.4138L108.417 87.2777L106.589 86.7698Z" fill="#E7E3CC"/>
<path d="M121.272 114.214L122.038 115.183L123.918 119.2L126.32 118.008L128.427 115.541L126.791 111.021L126.568 109.544L127.205 108.736L127.542 106.398L124.803 106.118L122.784 106.445L122.546 108.44L119.579 111.208L121.272 114.214Z" fill="#E7E3CC"/>
<path d="M136.581 77.6891L136.503 80.7678L138.957 82.9862L141.308 80.8922L142.939 77.4403L142.618 75.4345L140.195 71.1792L138.253 69.5102L137.363 66.9653L136.151 69.759L135.98 74.1128L136.581 77.6891Z" fill="#E7E3CC"/>
<path d="M17.8417 210.873L17.2878 206.96L16.9772 206.41L13.3013 202.502L11.6032 203.109L13.0735 204.83L14.9891 209.588L13.9537 209.862L17.236 215.419L17.2878 217.212L19.3846 219.928L19.1153 214.506L17.8417 210.873Z" fill="#E7E3CC"/>
<path d="M122.742 95.7883L124.585 96.9856L124.803 98.1051L126.387 99.0433L127.65 98.4213L128.484 93.5129L126.32 91.0251L124.43 92.6059L124.197 93.3367L123.534 94.109L122.825 93.3471L121.546 90.4912L121.122 90.6208L121.572 95.1301L122.742 95.7883Z" fill="#E7E3CC"/>
<path d="M136.188 111.446L137.787 107.704L137.016 107.212L134.153 106.414L131.953 106.46L132.274 108.59L130.938 108.673L130.477 113.317L134.251 112.773L136.188 111.446Z" fill="#E7E3CC"/>
<path d="M102.308 83.9088L102.81 83.5045L104.218 83.7325L105.3 84.4374L106.859 83.1106L108.49 80.5035L104.001 80.0007L97.2912 82.0429L97.6174 83.4008L102.308 83.9088Z" fill="#E7E3CC"/>
<path d="M124.42 78.6841L124.849 80.804L128.013 82.1775L128.178 79.6015L126.641 76.7508L125.155 75.8334L123.648 75.3669L124.192 76.87L124.42 78.6841Z" fill="#E7E3CC"/>
<path d="M155.773 106.73L155.115 109.689L157.378 110.679L160.696 109.487L155.773 106.73Z" fill="#E7E3CC"/>
<path d="M121.893 133.324L125.455 135.724L127.045 134.138L124.404 129.297L121.893 133.324Z" fill="#E7E3CC"/>
<path d="M169.456 139.767L170.331 137.719L168.99 135.765L167.37 135.848L166.837 139.352L169.456 139.767Z" fill="#E7E3CC"/>
<path d="M250.594 239.546L249.563 240.225L248.942 236.016L248.502 236.006L247.969 241.013L249.977 242.345L251.608 240.411L251.489 239.572L250.594 239.546Z" fill="#E7E3CC"/>
<path d="M133.428 101.816L133.185 98.722L131.958 98.4888L132.165 101.21L133.428 101.816Z" fill="#E7E3CC"/>
<path d="M132.626 82.867L131.43 80.0215L130.286 83.3853L130.539 83.7274L132.626 82.867Z" fill="#E7E3CC"/>
<path d="M113.972 82.4574L116.033 80.6174L113.879 80.7418L112.781 81.4104L113.972 82.4574Z" fill="#E7E3CC"/>
<path d="M136.12 86.5831L135.991 85.9456L132.853 86.1581L135.333 87.0858L136.12 86.5831Z" fill="#E7E3CC"/>
<path d="M131.59 116.536L131.963 114.074L131.59 116.536Z" fill="#E7E3CC"/>
<path d="M117.803 78.3162L116.002 77.3677L115.8 77.772L117.803 78.3162Z" fill="#E7E3CC"/>
<path d="M70.7839 137.46L70.4629 136.869L68.3558 138.046L68.6198 138.523L70.7839 137.46Z" fill="#E7E3CC"/>
</g>
<g clip-path="url(#clip1_101_960)">
<path d="M307.8 1.15259L144.463 523.413" stroke="#4363A0" stroke-width="2" stroke-miterlimit="10"/>
<path d="M440.168 329.352L12.0751 195.194" stroke="#4363A0" stroke-width="2" stroke-miterlimit="10"/>
<path d="M226.131 486.675C349.937 486.675 450.301 386.211 450.301 262.283C450.301 138.354 349.937 37.8904 226.131 37.8904C102.326 37.8904 1.96173 138.354 1.96173 262.283C1.96173 386.211 102.326 486.675 226.131 486.675Z" stroke="#4363A0" stroke-width="2" stroke-miterlimit="10"/>
<path d="M440.655 328.625C454.759 283.518 370.412 216.942 252.259 179.923C134.106 142.905 26.8895 149.462 12.785 194.57C-1.31959 239.677 83.0287 306.254 201.182 343.272C319.335 380.291 426.55 373.733 440.655 328.625Z" stroke="#4363A0" stroke-width="2" stroke-miterlimit="10"/>
<path d="M440.655 328.625C466.306 246.59 391.319 150.078 273.166 113.059C155.013 76.0409 38.4364 112.534 12.785 194.57C-12.8665 276.606 62.1211 373.118 180.274 410.137C298.427 447.155 415.003 410.661 440.655 328.625Z" stroke="#4363A0" stroke-width="2" stroke-miterlimit="10"/>
<path d="M226.131 486.675C349.937 486.675 450.301 386.211 450.301 262.283C450.301 138.354 349.937 37.8904 226.131 37.8904C102.326 37.8904 1.96173 138.354 1.96173 262.283C1.96173 386.211 102.326 486.675 226.131 486.675Z" stroke="#4363A0" stroke-width="2" stroke-miterlimit="10"/>
<path d="M308.313 287.161C345.295 168.891 338.744 61.5689 293.681 47.4503C248.619 33.3317 182.108 117.763 145.127 236.034C108.145 354.304 114.696 461.627 159.759 475.745C204.822 489.864 271.331 405.432 308.313 287.161Z" stroke="#4363A0" stroke-width="2" stroke-miterlimit="10"/>
<path d="M375.111 308.09C412.093 189.82 375.636 73.1274 293.681 47.4504C211.727 21.7735 115.31 96.8351 78.3288 215.106C41.3472 333.376 77.805 450.068 159.759 475.745C241.713 501.422 338.129 426.36 375.111 308.09Z" stroke="#4363A0" stroke-width="2" stroke-miterlimit="10"/>
</g>
<g clip-path="url(#clip2_101_960)">
<path d="M504.885 154.876C505.963 155.574 507.013 156.295 508.038 157.037C511.294 162.579 515.341 169.481 521.476 180.477L513.164 161.132C514.049 161.916 514.905 162.719 515.734 163.542L534.732 207.708C533.898 206.885 533.041 206.082 532.162 205.298L525.77 190.442C525.07 189.21 524.142 187.566 523.438 186.338C524.783 191.783 525.506 194.84 526.89 201.093C525.866 200.354 524.811 199.634 523.725 198.933C522.342 192.316 521.227 187.206 519.283 179.169C515.12 171.991 511.444 165.644 504.893 154.876" fill="#4363A0"/>
<path d="M511.792 181.6C507.186 172.605 504.652 167.675 500.013 158.671C502.086 165.006 503.966 170.637 506.736 179.116C508.469 179.902 510.154 180.73 511.792 181.6ZM493.732 148.817C495.353 149.556 496.929 150.327 498.461 151.129C502.16 158.355 510.822 175.273 522.267 198.029C521.259 197.409 520.232 196.809 519.185 196.229C516.713 191.375 516.713 191.375 514.487 187.007C512.538 185.955 510.51 184.96 508.404 184.022C509.113 186.18 509.984 188.844 511.096 192.25C509.865 191.719 508.611 191.204 507.335 190.703C505.087 183.674 500.401 169.048 493.748 148.809" fill="#4363A0"/>
<path d="M470.755 141.239C472.221 141.575 473.669 141.929 475.099 142.302L483.448 161.717C485.792 162.332 488.076 162.996 490.3 163.708L481.942 144.293C483.296 144.729 484.628 145.184 485.938 145.656L504.936 189.822C503.629 189.349 502.297 188.895 500.94 188.459L492.59 169.047C490.361 168.332 488.077 167.668 485.739 167.056L494.097 186.488C492.673 186.116 491.225 185.762 489.753 185.426L470.755 141.26" fill="#4363A0"/>
<path d="M474.865 169.788C469.745 160.778 467.372 156.628 462.21 147.568C464.281 154.995 466.028 161.333 468.07 168.755C470.373 169.041 472.638 169.38 474.865 169.771M455.073 138.44C457.226 138.725 459.342 139.04 461.422 139.383C465.397 146.38 474.71 162.764 487.056 184.798C485.646 184.501 484.22 184.218 482.778 183.949L477.729 175.028C475.064 174.568 472.34 174.161 469.557 173.807C470.344 176.648 471.127 179.486 471.905 182.323C470.279 182.129 468.633 181.954 466.965 181.799C463.968 170.728 460.204 156.917 455.073 138.427" fill="#4363A0"/>
<path d="M454.142 175.814C452.745 174.354 451.828 172.932 450.394 169.944C447.216 163.238 440.575 149.239 437.231 142.215C435.139 142.142 433.001 142.09 430.851 142.071L445.257 175.559C448.269 175.59 451.236 175.673 454.159 175.81M423.051 136.67C428.775 136.611 434.337 136.735 439.739 137.04C457.356 174.204 457.356 174.204 459.384 176.11C460.275 176.171 461.162 176.24 462.04 176.31L466.857 187.507C465.226 187.372 463.579 187.255 461.917 187.158L459.373 181.241C454.496 180.948 449.484 180.808 444.338 180.822L446.881 186.743C445.113 186.738 443.329 186.758 441.53 186.803L436.713 175.606C437.738 175.583 438.763 175.569 439.78 175.56L423.051 136.67Z" fill="#4363A0"/>
<path d="M422.264 167.448C416.85 158.765 414.351 154.76 408.9 146.035C411.148 155.609 413.083 163.927 414.033 168.028C416.803 167.801 419.547 167.608 422.264 167.448ZM401.049 137.704C403.638 137.491 406.204 137.309 408.745 137.157C416.058 148.897 424.413 162.315 435.903 180.952C434.157 181.009 432.398 181.08 430.626 181.167C428.849 178.299 427.068 175.431 425.283 172.563C422.019 172.741 418.717 172.974 415.378 173.263C416.072 176.209 416.761 179.154 417.445 182.097C415.492 182.272 413.527 182.466 411.552 182.678C408.754 170.591 405.539 156.774 401.037 137.704" fill="#4363A0"/>
<path d="M314.558 154.769C316.811 154.089 319.06 153.429 321.304 152.791C326.121 156.606 332.116 161.352 341.441 168.921L333.128 149.577C335.275 149.025 337.417 148.489 339.555 147.967L358.554 192.133C356.418 192.652 354.276 193.188 352.127 193.743L345.747 178.887L342.144 176.139C341.244 185.01 340.422 193.048 339.993 197.061C337.734 197.707 335.473 198.372 333.209 199.055C334.072 189.916 334.776 182.099 335.744 171.395C329.77 166.649 324.056 162.125 314.571 154.781" fill="#4363A0"/>
<path d="M315.297 188.962C309.881 181.137 306.86 176.8 301.31 168.832C302.819 176.604 304.331 184.38 305.845 192.158C309.009 191.051 312.164 189.98 315.31 188.946M292.874 161.814C295.828 160.781 298.775 159.78 301.715 158.809C306.519 165.716 316.519 180.092 330.232 199.938C328.18 200.568 326.122 201.216 324.059 201.883L318.455 193.801C314.664 195.049 310.867 196.34 307.064 197.674L308.92 207.026C306.706 207.817 304.489 208.625 302.269 209.447C299.419 194.961 294.677 170.943 292.87 161.822" fill="#4363A0"/>
<path d="M255.027 176.702C257.238 175.735 259.452 174.784 261.666 173.85L270.016 193.266C273.646 191.73 277.277 190.244 280.907 188.806L272.557 169.394C274.774 168.519 276.988 167.659 279.2 166.814L298.198 210.98C295.987 211.811 293.772 212.671 291.555 213.56L283.205 194.145C279.575 195.585 275.945 197.072 272.314 198.605L280.664 218.02C278.45 218.951 276.237 219.901 274.025 220.868L255.027 176.702Z" fill="#4363A0"/>
<path d="M254.982 212.945C252.79 209.9 243.222 196.634 240.959 193.501C243.299 206.244 243.299 206.244 245.492 217.514C248.657 215.954 251.826 214.429 254.998 212.937M232.517 187.148C235.472 185.697 238.43 184.276 241.391 182.883C245.845 189.061 256.285 203.531 270.008 222.64C267.927 223.571 265.845 224.517 263.761 225.477L258.14 217.663C254.327 219.443 250.522 221.271 246.723 223.147C247.601 227.732 247.877 229.173 248.574 232.779C246.37 233.889 244.187 234.999 242.025 236.109C237.901 215.144 235.766 204.008 232.517 187.156" fill="#4363A0"/>
<path d="M226.561 237.873C225.011 236.977 224.036 235.773 222.546 232.906C221.398 230.617 210.257 208.285 209.151 206.055C206.673 207.443 204.224 208.846 201.804 210.265L216.21 243.753C219.605 241.77 223.055 239.81 226.561 237.873ZM193.425 208.458C199.631 204.715 206.031 201.045 212.627 197.451C230.611 233.401 230.611 233.402 232.955 234.396C234.073 233.805 235.19 233.215 236.307 232.627L241.125 243.824C239.055 244.909 237.001 246.006 234.965 247.113L232.417 241.196C226.436 244.438 220.611 247.749 214.942 251.129L217.486 257.046C215.53 258.204 213.599 259.37 211.694 260.545L206.877 249.352C207.971 248.681 209.064 248.01 210.171 247.348L193.442 208.458" fill="#4363A0"/>
<path d="M192.15 247.761C187.2 240.669 183.729 235.679 178.875 228.696C181.084 238.852 182.505 245.323 184.206 253.067C186.808 251.286 189.456 249.517 192.15 247.761ZM171.219 222.705C173.655 221.038 176.127 219.386 178.634 217.75C183.134 224.188 192.497 237.583 205.906 256.628C204.087 257.761 202.288 258.901 200.508 260.049C197.67 255.981 197.67 255.981 195.157 252.403C191.913 254.512 188.729 256.639 185.604 258.784C186.74 263.839 186.74 263.839 187.802 268.534C185.997 269.785 184.212 271.035 182.449 272.286C180.56 264.035 176.63 246.863 171.219 222.693" fill="#4363A0"/>
<path d="M108.529 276.478C109.741 275.117 110.98 273.757 112.248 272.399C115.796 275.264 120.208 278.826 127.517 284.581L119.205 265.237C120.52 263.924 121.859 262.612 123.224 261.301L142.223 305.467C140.861 306.777 139.521 308.089 138.203 309.402L131.815 294.547C130.98 293.95 129.886 293.156 129.064 292.555C129.762 301.618 130.17 306.638 131.086 316.782C129.816 318.152 128.572 319.518 127.355 320.882C126.227 310.193 125.438 302.347 124.262 289.134C119.691 285.513 115.358 282.064 108.55 276.499" fill="#4363A0"/>
<path d="M115.245 314.188C111.164 307.543 107.704 301.895 103.677 295.295C106.411 304.783 108.002 310.283 110.778 319.822C112.214 317.948 113.703 316.07 115.245 314.188ZM97.7439 289.444C99.0877 287.69 100.478 285.934 101.913 284.177C105.836 290.559 113.991 303.834 125.731 322.639C124.651 323.875 123.596 325.11 122.566 326.343C121.008 323.827 119.452 321.305 117.897 318.775C116.028 321.038 114.238 323.297 112.527 325.553C113.488 328.82 114.455 332.088 115.428 335.355C114.445 336.667 113.49 337.975 112.563 339.281C110.077 330.97 104.867 313.669 97.7481 289.431" fill="#4363A0"/>
<path d="M83.2716 311.586C83.9614 310.31 84.6791 309.031 85.4247 307.749L93.7746 327.165C95.0023 325.059 96.3025 322.943 97.6753 320.818L89.3254 301.403C90.1658 300.11 91.0286 298.815 91.9137 297.517L110.912 341.688C110.021 342.983 109.159 344.277 108.324 345.573L99.9737 326.157C98.601 328.279 97.3007 330.395 96.073 332.504L104.423 351.919C103.68 353.198 102.962 354.475 102.27 355.751L83.2716 311.586Z" fill="#4363A0"/>
<path d="M92.5605 349.416C88.756 342.566 85.8091 337.238 82.0505 330.417C85.473 340.652 86.7756 344.527 90.2482 354.809C90.9589 353.025 91.7297 351.227 92.5605 349.416ZM77.2227 324.451C77.8843 322.779 78.6045 321.107 79.3707 319.435C84.8069 329.215 91.6293 341.457 101.046 358.104C100.429 359.3 99.8353 360.491 99.2657 361.678C99.0575 361.305 95.2072 354.404 95.0241 354.069C94.0137 356.243 93.0885 358.4 92.2484 360.54L95.5677 370.294C95.1011 371.537 94.6597 372.775 94.2433 374.007C83.8691 344.084 77.231 324.472 77.231 324.468" fill="#4363A0"/>
<path d="M89.8063 376.246C89.0724 375.381 88.419 374.182 87.105 371.316L75.0066 344.494C74.6971 345.933 74.4336 347.355 74.212 348.773L88.6176 382.261C88.9245 380.278 89.3207 378.273 89.8063 376.246ZM71.4225 346.924C71.828 343.153 72.5156 339.418 73.4794 335.75C89.7274 371.625 89.7274 371.625 90.7749 372.569C90.9566 371.934 91.1466 371.315 91.3451 370.658L96.1622 381.856C95.7949 383.039 95.4526 384.214 95.1439 385.385L92.5919 379.468C91.6975 382.804 91.0281 386.195 90.5881 389.621L93.1318 395.538C92.9904 396.684 92.8742 397.818 92.7873 398.948L87.966 387.751C88.0181 387.106 88.0743 386.462 88.1431 385.809L71.4141 346.924" fill="#4363A0"/>
<path d="M84.1394 385.735C80.679 378.513 78.3542 373.639 74.9356 366.426C78.3168 374.995 81.0792 381.968 84.4898 390.503C84.3102 388.935 84.1961 387.345 84.1477 385.735M71.4433 360.146C71.276 358.681 71.1672 357.194 71.1129 355.696C74.2447 362.226 80.7537 375.814 90.1378 394.944C90.0901 396.018 90.0689 397.085 90.0743 398.145L86.3309 390.425C86.3691 392.341 86.5033 394.254 86.7329 396.156L90.5964 405.773C90.7481 406.862 90.9375 407.942 91.1562 409.014C79.3233 380.041 71.414 360.163 71.4098 360.146" fill="#4363A0"/>
<path d="M90.4547 409.979L90.3924 409.837L89.9185 408.734L90.4547 409.979Z" fill="#4363A0"/>
<path d="M89.133 406.907C88.0609 404.351 86.6398 400.936 85.6095 398.363L85.8666 399.18L83.5601 393.732L84.8355 396.912L83.8878 394.717L84.3824 395.873L89.133 406.916" fill="#4363A0"/>
<path d="M147.818 257.877L151.124 260.59L152.949 257.443C153.268 258.541 155.178 264.984 155.435 265.855C155.859 264.136 156.451 261.84 156.899 260.121L158.148 262.272L161.381 258.514C161.677 260.189 162.076 262.45 162.373 264.138L164.769 262.985C163.622 266.092 162.109 270.231 160.974 273.346L163.274 275.274L156.648 277.766C157.139 278.714 157.801 279.98 158.292 280.931L157.851 281.294L157.407 281.661C157.042 280.605 156.548 279.202 156.162 278.15L151.574 284.922L151.404 281.234L143.407 280.579L145.112 278.357L142.09 274.402L145.789 272.462L145.01 269.91L149.245 270.948C146.86 266.869 146.86 266.869 145.107 263.896L147.92 263.218C147.875 261.623 147.814 259.496 147.772 257.902" fill="#4363A0"/>
<path d="M372.343 155.607L376.14 159.251L378.655 157.5L380.913 165.413C381.586 164.214 382.49 162.614 383.167 161.41L384.491 163.712L388.579 162.091C388.809 163.59 389.109 165.588 389.334 167.082L392.208 167.22C390.629 169.229 388.53 171.915 386.959 173.927L389.546 176.505L381.29 175.606C381.801 176.591 382.488 177.908 383 178.897L382.418 179L381.832 179.103L380.662 175.701L374.133 179.232L374.355 176.152C371.28 174.958 367.171 173.377 364.083 172.205L366.596 171.111L363.174 166.593L368.195 166.587L367.503 164.174C369.082 164.974 371.188 166.039 372.763 166.843C371.297 164.327 369.515 161.308 368.337 159.296L371.937 159.963C372.046 158.645 372.193 156.892 372.306 155.578" fill="#4363A0"/>
<path d="M539.265 208.725L540.095 210.875L540.987 212.23L542.363 215.439L542.492 215.716L542.62 215.997L541.124 212.527L541.989 214.484L534.636 197.399L534.611 197.34C533.959 195.836 533.086 193.828 532.429 192.311C532.807 193.216 533.306 194.406 533.676 195.328L532.403 192.646L535.999 200.893C535.275 199.347 534.315 197.281 533.578 195.738L534.505 197.938L532.84 194.899C533.576 196.521 534.557 198.671 535.289 200.305L534.726 199.596C536.112 202.321 538.055 205.914 539.269 208.713" fill="#4363A0"/>
<path d="M95.6412 398.76C94.6001 398.034 93.5884 397.289 92.606 396.524C93.3612 400.16 94.298 404.683 96.0103 411.627L87.6979 392.283C86.8634 391.473 86.029 390.646 85.2407 389.798L104.239 433.964C105.027 434.803 105.849 435.643 106.696 436.449L100.304 421.597C100.134 420.843 99.8904 419.842 99.7461 419.084C104.158 427.212 106.634 431.715 111.755 440.795C112.745 441.563 113.765 442.309 114.815 443.035C109.428 433.707 105.285 426.429 98.8465 414.708C98.2229 411.855 97.0583 406.541 95.8926 400.091C95.8185 399.673 95.8704 399.099 95.6496 398.756" fill="#4363A0"/>
<path d="M114.614 432.822C111.734 424.442 110.502 420.81 107.673 412.456C112.029 420.923 115.129 426.93 119.523 435.41C117.835 434.585 116.198 433.722 114.614 432.822ZM106.443 405.073C104.869 404.304 103.337 403.499 101.847 402.658C104.225 409.6 109.171 424.025 116.189 443.985C117.163 444.624 118.158 445.247 119.175 445.856C118.623 444.264 116.938 439.379 116.366 437.711C118.262 438.808 120.232 439.847 122.277 440.83C124.773 445.667 124.773 445.667 127.029 449.997C128.232 450.558 129.46 451.099 130.714 451.619C126.944 444.447 118.11 427.642 106.846 405.849C106.746 405.571 106.606 405.31 106.43 405.073" fill="#4363A0"/>
<path d="M128.895 413.073C127.457 412.712 126.039 412.332 124.639 411.935L132.994 431.351C130.694 430.697 128.465 429.993 126.305 429.239L117.951 409.827C116.631 409.369 115.332 408.891 114.056 408.393L133.054 452.559C134.328 453.056 135.626 453.534 136.95 453.993L128.6 434.578C130.773 435.335 133.003 436.038 135.288 436.69L143.638 456.101C145.031 456.498 146.45 456.878 147.894 457.239L128.895 413.073Z" fill="#4363A0"/>
<path d="M150.718 445.314C148.349 437.095 146.99 432.362 144.67 424.222C148.467 430.867 153.587 439.793 157.409 446.442C155.14 446.104 152.909 445.729 150.718 445.318M144.317 416.114C142.201 415.798 140.114 415.449 138.069 415.071C139.975 421.693 144.441 437.201 150.553 457.883C151.933 458.202 153.326 458.503 154.734 458.786C153.905 455.976 153.089 453.166 152.285 450.354C154.903 450.86 157.581 451.31 160.319 451.703C162.937 456.265 162.937 456.265 165.423 460.583C167.023 460.802 168.645 461.002 170.287 461.183C163.288 449.125 155.299 435.319 144.3 416.114" fill="#4363A0"/>
<path d="M178.441 456.811C178.604 455.439 178.303 454.044 177.202 451.073C175.167 445.831 168.389 428.283 166.533 423.46C168.613 423.561 170.713 423.639 172.833 423.696L187.239 457.184C184.26 457.114 181.332 456.99 178.454 456.811M175.928 418.368C170.271 418.352 164.778 418.152 159.449 417.769C173.74 454.717 173.74 454.717 173.3 456.432C172.422 456.357 171.55 456.278 170.686 456.195L175.503 467.392C177.106 467.547 178.727 467.691 180.364 467.824L177.82 461.907C182.63 462.264 187.579 462.474 192.667 462.536L195.21 468.453C196.962 468.475 198.729 468.48 200.511 468.468L195.698 457.271C194.677 457.268 193.663 457.265 192.657 457.262L175.928 418.372" fill="#4363A0"/>
<path d="M202.623 448.379C200.555 440.002 199.314 434.868 197.301 426.499C201.882 433.766 206.143 440.567 210.778 447.905C208.03 448.098 205.312 448.256 202.623 448.379ZM197.69 417.589C195.126 417.769 192.586 417.918 190.07 418.036C192.836 429.399 196.302 443.565 201.005 462.468C202.726 462.436 204.461 462.388 206.21 462.323L204.076 453.57C207.301 453.436 210.569 453.246 213.881 452.999C215.672 455.856 217.464 458.71 219.258 461.561C221.191 461.408 223.144 461.236 225.117 461.046C221.226 454.912 210.897 438.617 197.707 417.589" fill="#4363A0"/>
<path d="M283.647 401.532C281.397 402.186 279.154 402.822 276.918 403.438C275.319 413.755 274.16 421.327 273.469 425.862L265.157 406.518C263.016 407.051 260.883 407.565 258.759 408.061L277.758 452.227C279.884 451.731 282.017 451.218 284.155 450.688L277.775 435.832L278.514 431.967C285.1 437.791 288.772 441.012 296.255 447.504C298.505 446.882 300.759 446.243 303.018 445.585C294.045 437.745 288.411 432.782 279.902 425.161C281.546 414.739 283.08 405.159 283.663 401.523" fill="#4363A0"/>
<path d="M308.967 428.111C307.407 420.383 305.851 412.655 304.297 404.926C307.539 409.54 314.406 419.312 318.41 424.999C315.258 426.07 312.11 427.107 308.967 428.111ZM305.297 394.7C302.348 395.704 299.407 396.673 296.473 397.605C300.244 416.362 302.046 425.308 305.961 444.702C308.008 444.091 310.057 443.467 312.109 442.828C311.086 437.66 311.086 437.66 310.248 433.547C314.023 432.353 317.807 431.108 321.601 429.813C324.547 434.007 324.547 434.007 327.214 437.853C329.425 437.089 331.639 436.305 333.856 435.502C329.427 429.211 319.047 414.424 305.276 394.696" fill="#4363A0"/>
<path d="M343.114 380.225C340.902 381.17 338.689 382.097 336.475 383.006L344.812 402.418C341.182 403.914 337.552 405.363 333.922 406.765L325.568 387.332C323.356 388.183 321.146 389.014 318.937 389.825L337.936 433.991C340.142 433.16 342.352 432.329 344.566 431.498L336.216 412.087C339.846 410.682 343.476 409.233 347.106 407.74L355.473 427.18C357.685 426.272 359.898 425.345 362.112 424.399L343.114 380.225Z" fill="#4363A0"/>
<path d="M369.251 404.756C366.869 392.381 366.869 392.381 364.634 380.885C369.357 387.353 374.069 393.815 378.77 400.271C375.603 401.799 372.43 403.289 369.251 404.739M365.661 369.989C362.703 371.412 359.741 372.799 356.775 374.149C359.894 390.309 363.018 406.468 366.146 422.628C368.227 421.718 370.31 420.794 372.396 419.854C371.272 413.66 371.272 413.66 370.549 410.314C374.362 408.575 378.171 406.786 381.978 404.947C382.145 405.182 387.463 412.497 387.608 412.715L390.721 411.179C391.889 410.599 393.054 410.017 394.216 409.431C384.7 396.289 375.182 383.138 365.661 369.976" fill="#4363A0"/>
<path d="M405.279 397.208C405.624 395.262 405.394 393.646 404.323 390.558C400.853 381.061 397.382 371.564 393.911 362.067C396.426 360.679 398.907 359.291 401.354 357.903L415.759 391.39C412.32 393.356 408.828 395.3 405.283 397.22M405.17 348.94C398.881 352.655 392.399 356.292 385.726 359.85C399.599 398.008 399.599 398.008 398.814 400.663C397.696 401.249 396.57 401.832 395.436 402.412L400.254 413.609C402.349 412.53 404.425 411.445 406.484 410.354L403.941 404.437C409.991 401.223 415.89 397.941 421.637 394.592L424.181 400.51C426.161 399.36 428.117 398.201 430.048 397.031L425.231 385.834C424.113 386.501 422.996 387.165 421.878 387.829L405.149 348.94" fill="#4363A0"/>
<path d="M432.731 370.335C430.715 361.1 429.476 355.43 427.415 346.069C431.877 352.399 436.335 358.73 440.791 365.063C438.145 366.836 435.458 368.593 432.731 370.335ZM427.694 334.781C425.221 336.432 422.706 338.074 420.149 339.707C421.801 347.292 425.654 365.058 430.765 389.127C432.606 388.002 434.423 386.872 436.214 385.735C435.689 383.285 434.632 378.377 434.12 376.006C437.409 373.915 440.64 371.803 443.811 369.672L449.111 377.305C450.945 376.063 452.761 374.812 454.561 373.553C447.978 364.021 439.924 352.379 427.678 334.785" fill="#4363A0"/>
<path d="M491.668 281.163C490.42 282.521 489.145 283.879 487.845 285.237C488.158 291.19 488.587 299.345 489.024 311.764L480.712 292.42C479.366 293.731 477.994 295.039 476.596 296.347L495.607 340.521C497.005 339.216 498.377 337.907 499.722 336.594L493.33 321.738C493.309 320.344 493.285 318.486 493.26 317.092C498.485 321.644 501.352 324.159 507.032 329.219C508.335 327.856 509.614 326.489 510.867 325.12C505.142 319.817 500.623 315.665 493.141 308.922C492.787 301.014 492.436 293.467 491.672 281.171" fill="#4363A0"/>
<path d="M511.229 304.093C508.818 295.639 506.672 288.099 504.224 279.633C508.805 287.051 511.303 291.097 515.843 298.451C514.356 300.33 512.817 302.211 511.224 304.093M502.767 268.169C501.367 269.923 499.931 271.68 498.459 273.439C500.824 281.754 505.741 299.05 512.496 323.308C513.598 322.078 514.683 320.845 515.749 319.609L512.978 309.798C514.906 307.535 516.755 305.275 518.524 303.017C520.944 307 520.944 307 523.134 310.589C524.15 309.272 525.14 307.961 526.103 306.655C520.249 296.928 512.895 284.752 502.784 268.169" fill="#4363A0"/>
<path d="M517.888 245.991C517.159 247.27 516.402 248.554 515.618 249.844L523.967 269.259C522.681 271.373 521.322 273.496 519.891 275.627L511.537 256.211C510.667 257.51 509.768 258.805 508.84 260.108L527.838 304.274C528.765 302.977 529.664 301.677 530.535 300.377L522.185 280.965C523.617 278.835 524.977 276.713 526.266 274.598L534.616 294.014C535.403 292.721 536.16 291.436 536.886 290.157L517.888 245.991Z" fill="#4363A0"/>
<path d="M534.905 268.772C531.682 258.989 530.102 254.209 526.85 244.418C530.675 251.268 533.626 256.575 537.381 263.358C536.614 265.153 535.789 266.964 534.905 268.792M524.322 233.076C523.606 234.749 522.838 236.433 522.019 238.13C524.74 246.417 530.406 263.657 538.194 287.825C538.847 286.622 539.474 285.424 540.074 284.231C539.013 280.974 537.948 277.719 536.881 274.465C537.958 272.281 538.95 270.109 539.857 267.949L544.019 275.574C544.531 274.32 545.012 273.072 545.465 271.832C541.977 265.385 534.727 251.97 524.322 233.076Z" fill="#4363A0"/>
<path d="M545.627 258.949C545.059 256.656 544.301 254.414 543.362 252.246L531.674 223.701C532.03 222.256 532.344 220.82 532.616 219.392L547.021 252.88C546.644 254.88 546.18 256.899 545.627 258.937M530.884 210.414C530.342 214.222 529.526 217.987 528.442 221.678C544.031 259.903 544.031 259.903 544.537 262.646C544.335 263.285 544.124 263.926 543.904 264.57L548.705 275.797C549.11 274.603 549.487 273.419 549.836 272.242L547.28 266.308C548.283 262.95 549.069 259.532 549.631 256.073L552.187 261.994C552.375 260.839 552.53 259.692 552.653 258.551L547.84 247.332C547.767 247.985 547.686 248.638 547.592 249.299L530.867 210.409" fill="#4363A0"/>
<path d="M544.549 232.176C541.293 223.753 538.494 216.559 535.196 208.107C538.706 215.417 540.939 220.094 544.387 227.353C544.508 228.944 544.562 230.552 544.549 232.176ZM531.349 197.059C531.459 198.544 531.512 200.044 531.507 201.559C534.415 209.101 541.247 226.758 550.295 250.692C550.382 249.608 550.443 248.529 550.476 247.461L546.763 237.795C546.789 235.84 546.728 233.91 546.566 232.006C548.487 236.075 548.487 236.075 550.217 239.751C550.103 238.65 549.96 237.553 549.783 236.468C546.752 229.909 540.44 216.259 531.349 197.071" fill="#4363A0"/>
<path d="M541.989 214.484L543.539 218.256L542.072 214.761C541.772 214.245 541.347 213.57 541.005 213.084L540.354 211.207C539.801 209.949 539.061 208.315 538.504 207.074L538.139 205.747L537.071 203.232C537.296 203.697 537.6 204.318 537.812 204.787L534.703 197.583L534.636 197.399C537.089 203.094 539.583 208.768 541.989 214.484Z" fill="#4363A0"/>
<path d="M463.084 326.394C463.117 327.989 463.157 330.111 463.186 331.706L460.256 332.363C462.662 336.422 462.662 336.422 464.419 339.428L459.975 338.356L460.733 340.903L456.628 342.783L459.784 346.76L457.794 348.943L466.469 349.692L466.547 353.367L471.457 346.643L472.673 350.158L473.13 349.787L473.583 349.424C473.088 348.476 472.426 347.206 471.918 346.259L478.44 343.766L476.182 341.851C477.199 338.727 478.537 334.554 479.521 331.422L477.329 332.604C477.004 330.929 476.571 328.655 476.241 326.963L473.301 330.772L472.052 328.626C471.629 330.349 471.108 332.649 470.693 334.373L468.181 325.961L466.394 329.108L463.055 326.394" fill="#4363A0"/>
<path d="M237.611 426.807L237.264 431.154L233.714 430.391L238.11 437.962C236.561 437.121 234.497 435.985 232.956 435.127L233.652 437.523L228.787 437.207L232.15 441.821L229.746 442.693C232.729 444.05 236.716 445.844 239.712 447.175L239.544 450.18L245.93 446.904C246.278 447.918 246.739 449.271 247.083 450.289L247.673 450.191L248.243 450.096C247.731 449.107 247.053 447.786 246.541 446.801L254.848 447.616L252.227 445.097C253.861 442.98 256.044 440.157 257.686 438.035L254.724 438.06C254.511 436.544 254.228 434.518 254.011 432.998L249.822 434.827L248.493 432.538L246.181 436.625L243.944 428.691L241.429 430.471L237.636 426.815" fill="#4363A0"/>
<path d="M92.5696 413.652L94.1747 417.097L91.2829 411.534C91.7359 412.574 92.3386 413.961 92.7875 415.004L92.646 414.728L92.5046 414.455C92.0889 413.491 91.5445 412.209 91.1372 411.249L90.4547 409.992L89.9185 408.735L89.5031 407.716L89.1539 406.912L84.3824 395.852L86.1532 399.905C84.9645 397.153 83.7757 394.401 82.587 391.649L83.8094 394.348C83.4396 393.439 82.9493 392.253 82.5628 391.323C83.2363 392.819 84.1344 394.818 84.8121 396.314L85.0835 396.495C86.0975 398.906 87.1086 401.315 88.117 403.723C87.993 403.225 87.8149 402.563 87.7034 402.048L88.8051 404.542L89.7767 405.666C90.271 406.923 90.9314 408.599 91.4383 409.856L92.5086 411.584C92.4464 412.262 92.4641 412.945 92.5613 413.618" fill="#4363A0"/>
</g>
<defs>
<clipPath id="clip0_101_960">
<rect width="257.488" height="226.578" fill="white" transform="translate(11.6032 55.3345)"/>
</clipPath>
<clipPath id="clip1_101_960">
<rect width="452.243" height="523.404" fill="white" transform="translate(0 0.580566)"/>
</clipPath>
<clipPath id="clip2_101_960">
<rect width="481.269" height="332.423" fill="white" transform="translate(71.7326 135.651) rotate(0.163519)"/>
</clipPath>
</defs>
</svg>
