<svg width="122" height="126" viewBox="0 0 122 126" fill="none" xmlns="http://www.w3.org/2000/svg">
<path d="M113.749 103.375C108.533 95.7595 101.424 95 101.424 95C101.424 95 102.621 96.0247 103.157 96.528C103.486 96.8294 103.814 97.1549 104.143 97.4713C106.922 100.223 108.747 102.779 109.888 105.512C110.95 108.053 111.227 110.391 110.733 112.664C110.528 113.64 110.16 114.581 109.642 115.455L99.1546 105.482L104.12 100.961H101.161C99.5887 100.961 97.9609 100.961 96.3627 100.961C95.989 100.99 95.639 101.141 95.3761 101.386C93.8371 102.64 92.354 103.864 91.1011 104.897C90.4237 105.458 89.7462 106.024 89.0918 106.57L87.6876 107.742L92.206 111.977L92.8341 111.434C92.9426 111.344 93.0544 111.247 93.163 111.151L93.8831 110.491C94.5704 109.864 95.2808 109.219 95.9713 108.568C98.0826 110.778 100.198 112.988 102.318 115.199L104.913 117.911L106.021 119.08L106.041 119.101L106.001 119.126C104.487 120.075 102.719 120.626 100.888 120.72C98.8159 120.807 97.1519 120.346 95.8069 119.315C95.1492 118.815 94.5277 118.252 93.9193 117.706C93.6102 117.429 93.3011 117.152 92.9854 116.877C92.8407 116.754 92.7289 116.648 92.6565 116.576C91.9988 115.973 91.6503 115.973 90.884 116.365C90.7722 116.422 90.6407 116.488 90.473 116.567C90.1204 116.775 89.7039 116.872 89.2858 116.844C89.0906 116.803 88.8876 116.805 88.6932 116.849C88.4989 116.894 88.3188 116.98 88.1677 117.1C88.0223 117.233 87.9133 117.395 87.8499 117.574C87.7864 117.752 87.7702 117.942 87.8027 118.128C87.8027 118.239 87.8027 118.312 87.51 118.565C86.8175 119.18 85.9996 119.665 85.1029 119.99C83.7837 120.459 82.6523 121.285 81.8604 122.359C81.2027 123.218 81.16 124.168 81.7354 124.885C82.0613 125.267 82.5167 125.539 83.03 125.658C83.5432 125.777 84.0851 125.736 84.5701 125.542C85.6652 125.12 87.0365 124.46 87.954 123.071C88.5129 122.27 89.1326 121.507 89.8087 120.786C89.857 120.734 89.9169 120.692 89.9844 120.663C90.0519 120.634 90.1254 120.618 90.2 120.617C90.4613 120.609 90.7155 120.695 90.9071 120.858C91.1405 121.063 91.374 121.268 91.6042 121.476C92.4917 122.31 93.4579 123.071 94.4915 123.749C96.9447 125.25 99.4659 126 102.055 126C104.314 125.969 106.532 125.443 108.524 124.466C109.066 124.213 109.579 123.911 110.079 123.622L110.28 123.505L112.164 125.458L116.403 121.892L115.923 121.428L115.373 120.892C114.962 120.488 114.571 120.108 114.167 119.731C115.388 118.035 116.185 116.113 116.501 114.101C117.037 110.437 116.113 106.829 113.749 103.375Z" fill="#EDEDED"/>
<path d="M37.043 119.855L47.0877 112.742L43.5899 112.072L45.3179 105.921L39.4059 107.134L38.9987 104.123L34.1351 108.474L35.5458 98.5567L31.5894 100.148L28.8963 95L26.2 100.148L22.2469 98.5567L23.6544 108.474L18.7939 104.123L18.3835 107.134L12.4747 105.921L14.2028 112.072L10.7018 112.742L20.7465 119.855L18.9286 123.453L28.4988 120.723L28.1397 125H28.8963H29.6498L29.2939 120.723L38.8609 123.453L37.043 119.855Z" fill="#EDEDED"/>
<path d="M31.2215 67.03H8.12152V56.03L30.1215 3.99999H43.3215V56.03H49.0415V67.03H43.3215V81H31.2215V67.03ZM31.2215 56.03V26H31.0015L19.1215 56.03H31.2215ZM59.4245 27.43H71.0845V39.09H59.4245V27.43ZM59.4245 69.34H71.0845V81H59.4245V69.34ZM101.497 22.26H88.8469V13.68C92.2936 13.68 95.0436 13.3867 97.0969 12.8C99.2236 12.2133 100.91 11.26 102.157 9.94C103.404 8.54666 104.504 6.56666 105.457 3.99999H113.597V81H101.497V22.26Z" fill="#EDEDED"/>
</svg>
