<svg width="37" height="37" viewBox="0 0 37 37"><path d="M10.025 13.173a9.71 9.71 0 012.175-1.637c4.349-2.397 9.925-1.122 12.72 3.116l-3.382 3.381a5.098 5.098 0 00-5.776-2.935 5.016 5.016 0 00-2.46 1.352L6.82 22.936a5.053 5.053 0 000 7.14 5.054 5.054 0 007.14 0l1.998-2a12.853 12.853 0 005.693.867l-4.412 4.412c-3.783 3.782-9.915 3.782-13.697 0s-3.782-9.914 0-13.696l6.483-6.486zM20.322 2.876L15.91 7.288a12.855 12.855 0 015.692.865L23.6 6.155a5.054 5.054 0 017.14 0 5.053 5.053 0 010 7.14l-6.485 6.484a5.058 5.058 0 01-7.14 0 5.373 5.373 0 01-1.095-1.583l-3.383 3.381c.355.54.724 1.005 1.199 1.48a9.647 9.647 0 004.573 2.566 9.703 9.703 0 006.949-.93 9.71 9.71 0 002.175-1.636l6.483-6.485a9.683 9.683 0 00.001-13.696c-3.782-3.78-9.913-3.78-13.695 0z"/></svg>