<svg width="22" height="39" viewBox="0 0 22 39"><path d="M10.807 19.298a9.43 9.43 0 006.656-2.828 9.533 9.533 0 002.726-6.728 9.541 9.541 0 00-2.728-6.726 9.44 9.44 0 00-6.654-2.83 9.439 9.439 0 00-6.653 2.83 9.541 9.541 0 00-2.728 6.726 9.525 9.525 0 002.723 6.73 9.422 9.422 0 006.658 2.826zm0-13.513a3.917 3.917 0 012.754 1.174 3.96 3.96 0 011.133 2.783 3.953 3.953 0 01-1.128 2.787 3.909 3.909 0 01-2.759 1.17 3.909 3.909 0 01-2.755-1.172 3.951 3.951 0 01-1.13-2.785 3.96 3.96 0 011.132-2.783 3.917 3.917 0 012.753-1.174zm3.796 22.165a17.456 17.456 0 005.445-2.306 2.825 2.825 0 00.825-3.857 2.722 2.722 0 00-1.685-1.236 2.7 2.7 0 00-2.06.332 11.712 11.712 0 01-12.624 0 2.719 2.719 0 00-3.763.83v.049a2.825 2.825 0 00.825 3.857 17.38 17.38 0 005.446 2.306l-5.248 5.342a2.828 2.828 0 000 3.957 2.73 2.73 0 001.947.83 2.719 2.719 0 001.94-.83l5.156-5.25 5.157 5.25a2.715 2.715 0 003.845 0 2.828 2.828 0 000-3.956l-5.206-5.318z"/></svg>