<?xml version="1.0" encoding="utf-8"?><svg viewBox="0 0 40 39" xmlns="http://www.w3.org/2000/svg" xmlns:xlink="http://www.w3.org/1999/xlink"><style>:root>svg{display:none}:root>svg:target{display:block}</style><svg viewBox="0 0 37 37" id="copy"><path d="M10.025 13.173a9.71 9.71 0 012.175-1.637c4.349-2.397 9.925-1.122 12.72 3.116l-3.382 3.381a5.098 5.098 0 00-5.776-2.935 5.016 5.016 0 00-2.46 1.352L6.82 22.936a5.053 5.053 0 000 7.14 5.054 5.054 0 007.14 0l1.998-2a12.853 12.853 0 005.693.867l-4.412 4.412c-3.783 3.782-9.915 3.782-13.697 0s-3.782-9.914 0-13.696l6.483-6.486zM20.322 2.876L15.91 7.288a12.855 12.855 0 015.692.865L23.6 6.155a5.054 5.054 0 017.14 0 5.053 5.053 0 010 7.14l-6.485 6.484a5.058 5.058 0 01-7.14 0 5.373 5.373 0 01-1.095-1.583l-3.383 3.381c.355.54.724 1.005 1.199 1.48a9.647 9.647 0 004.573 2.566 9.703 9.703 0 006.949-.93 9.71 9.71 0 002.175-1.636l6.483-6.485a9.683 9.683 0 00.001-13.696c-3.782-3.78-9.913-3.78-13.695 0z"/></svg><svg viewBox="0 0 22 39" id="ok"><path d="M10.807 19.298a9.43 9.43 0 006.656-2.828 9.533 9.533 0 002.726-6.728 9.541 9.541 0 00-2.728-6.726 9.44 9.44 0 00-6.654-2.83 9.439 9.439 0 00-6.653 2.83 9.541 9.541 0 00-2.728 6.726 9.525 9.525 0 002.723 6.73 9.422 9.422 0 006.658 2.826zm0-13.513a3.917 3.917 0 012.754 1.174 3.96 3.96 0 011.133 2.783 3.953 3.953 0 01-1.128 2.787 3.909 3.909 0 01-2.759 1.17 3.909 3.909 0 01-2.755-1.172 3.951 3.951 0 01-1.13-2.785 3.96 3.96 0 011.132-2.783 3.917 3.917 0 012.753-1.174zM14.603 27.95a17.456 17.456 0 005.445-2.306 2.825 2.825 0 00.825-3.857 2.722 2.722 0 00-1.685-1.236 2.7 2.7 0 00-2.06.332 11.712 11.712 0 01-12.624 0 2.719 2.719 0 00-3.763.83v.049a2.825 2.825 0 00.825 3.857 17.38 17.38 0 005.446 2.306l-5.248 5.342a2.828 2.828 0 000 3.957 2.73 2.73 0 001.947.83 2.719 2.719 0 001.94-.83l5.156-5.25 5.157 5.25a2.715 2.715 0 003.845 0 2.828 2.828 0 000-3.956l-5.206-5.318z"/></svg><svg viewBox="0 0 39 34" id="tg"><path d="M34.62 1.08L1.971 13.929c-2.297.944-2.28 2.255-.416 2.84l8.624 2.766L29.96 6.694c.649-.552 1.473.1 1.065.56l-15.95 14.712v11.462a2.132 2.132 0 001.715-.752l5.37-5.339 6.942 5.256c1.599.91 2.756.434 3.164-1.53l5.719-27.678C38.616 1.013 36.16.37 34.62 1.08z"/></svg><svg viewBox="0 0 40 32" id="tw"><path d="M19.194 8.777l.085 1.361-1.404-.167A23.07 23.07 0 014.48 3.51L2.626 1.697l-.477 1.336a7.898 7.898 0 00-.337 4.36 7.99 7.99 0 002.04 3.89c1.122 1.168.85 1.335-1.073.634a3.459 3.459 0 00-1.319-.3 9.692 9.692 0 001.013 3.723 9.027 9.027 0 003.854 3.574l1.379.635H6.072c-1.574 0-1.625 0-1.463.61a8.362 8.362 0 002.126 2.84 8.554 8.554 0 003.132 1.727l1.702.584-1.514.893a16.1 16.1 0 01-7.54 2.063 8.58 8.58 0 00-2.306.217 21.58 21.58 0 005.43 2.455 24.177 24.177 0 009.442.813 24.058 24.058 0 009.014-2.876 24.342 24.342 0 009.36-10.813 28.053 28.053 0 001.915-8.35c0-1.285.085-1.452 1.702-2.98.713-.663 1.37-1.38 1.966-2.146.29-.535.255-.535-1.175-.059-2.39.835-2.731.727-1.548-.534a8.121 8.121 0 001.914-2.981c0-.084-.425.058-.91.309-.797.385-1.625.703-2.476.952l-1.515.467-1.379-.918A11.723 11.723 0 0029.56.594a9.724 9.724 0 00-4.92.117 8.107 8.107 0 00-4.111 3.13 7.862 7.862 0 00-1.334 4.936z"/></svg><svg viewBox="0 0 37 36" id="vk"><path d="M33.586 2.75C31.103.269 27.022.269 18.919.269h-1.424c-8.103 0-12.15 0-14.667 2.483C.312 5.234.345 9.314.345 17.409v1.423c0 8.095 0 12.142 2.483 14.658s6.564 2.483 14.667 2.483h1.424c8.103 0 12.15 0 14.667-2.483 2.516-2.483 2.483-6.563 2.483-14.658V17.4c.033-8.086.033-12.133-2.483-14.65zm-7.599 23.266a7.34 7.34 0 00-6.175-5.322v5.314h-.455c-8.161 0-12.813-5.587-13.003-14.898h4.089c.132 6.828 3.145 9.717 5.529 10.321V11.11h3.84v5.893c2.36-.256 4.834-2.938 5.67-5.893h3.85a11.372 11.372 0 01-5.24 7.45 11.777 11.777 0 016.133 7.448l-4.238.008z"/></svg><svg viewBox="0 0 23 23" id="wa"><path d="M11.3 0C5.3 0 .4 4.9.4 10.9c0 2 .6 3.9 1.5 5.6L0 22.2l6.2-1.6c1.5.8 3.2 1.3 5.1 1.3 6 0 10.9-4.9 10.9-10.9S17.3 0 11.3 0zm6.1 14.4c-.2.8-.5 1.9-.7 2.4-.3 0-.6-.1-.9-.1-5.1-.8-9.2-4.8-10.3-9.9-.1-.5-.2-1-.2-1.4.6-.2 1.7-.5 2.4-.8.5-.2 1-.3 1-.3l1.8 3L8.9 9c.9 1.8 2.4 3.3 4.2 4.3l1.7-1.7 3 1.7s-.2.5-.4 1.1z"/></svg></svg>