<svg width="40" height="32" viewBox="0 0 40 32"><path d="M19.194 8.777l.085 1.361-1.404-.167A23.07 23.07 0 014.48 3.51L2.626 1.697l-.477 1.336a7.898 7.898 0 00-.337 4.36 7.99 7.99 0 002.04 3.89c1.122 1.168.85 1.335-1.073.634a3.459 3.459 0 00-1.319-.3 9.692 9.692 0 001.013 3.723 9.027 9.027 0 003.854 3.574l1.379.635H6.072c-1.574 0-1.625 0-1.463.61a8.362 8.362 0 002.126 2.84 8.554 8.554 0 003.132 1.727l1.702.584-1.514.893a16.1 16.1 0 01-7.54 2.063 8.58 8.58 0 00-2.306.217 21.58 21.58 0 005.43 2.455 24.177 24.177 0 009.442.813 24.058 24.058 0 009.014-2.876 24.342 24.342 0 009.36-10.813 28.053 28.053 0 001.915-8.35c0-1.285.085-1.452 1.702-2.98.713-.663 1.37-1.38 1.966-2.146.29-.535.255-.535-1.175-.059-2.39.835-2.731.727-1.548-.534a8.121 8.121 0 001.914-2.981c0-.084-.425.058-.91.309-.797.385-1.625.703-2.476.952l-1.515.467-1.379-.918A11.723 11.723 0 0029.56.594a9.724 9.724 0 00-4.92.117 8.107 8.107 0 00-4.111 3.13 7.862 7.862 0 00-1.334 4.936z"/></svg>