<svg width="37" height="36" viewBox="0 0 37 36"><path d="M33.586 2.75C31.103.269 27.022.269 18.919.269h-1.424c-8.103 0-12.15 0-14.667 2.483C.312 5.234.345 9.314.345 17.409v1.423c0 8.095 0 12.142 2.483 14.658s6.564 2.483 14.667 2.483h1.424c8.103 0 12.15 0 14.667-2.483 2.516-2.483 2.483-6.563 2.483-14.658V17.4c.033-8.086.033-12.133-2.483-14.65zm-7.599 23.266a7.34 7.34 0 00-6.175-5.322v5.314h-.455c-8.161 0-12.813-5.587-13.003-14.898h4.089c.132 6.828 3.145 9.717 5.529 10.321V11.11h3.84v5.893c2.36-.256 4.834-2.938 5.67-5.893h3.85a11.372 11.372 0 01-5.24 7.45 11.777 11.777 0 016.133 7.448l-4.238.008z"/></svg>