<svg width="114" height="129" viewBox="0 0 114 129" fill="none" xmlns="http://www.w3.org/2000/svg"><path d="M106.29 106.244c-4.874-7.616-11.517-8.376-11.517-8.376s1.118 1.025 1.62 1.528c.307.302.614.627.921.943 2.597 2.752 4.302 5.308 5.368 8.041.993 2.541 1.251 4.88.79 7.152a9.575 9.575 0 01-1.02 2.791l-9.8-9.973 4.64-4.521h-7.247a1.48 1.48 0 00-.922.425c-1.438 1.254-2.824 2.478-3.995 3.512-.633.56-1.266 1.127-1.877 1.672l-1.312 1.173 4.222 4.234.587-.543c.101-.09.206-.186.307-.283l.673-.66c.642-.627 1.306-1.272 1.951-1.923 1.973 2.21 3.95 4.421 5.93 6.631l2.425 2.712 1.036 1.169.018.022-.037.024a9.516 9.516 0 01-4.778 1.594c-1.936.087-3.49-.374-4.748-1.404-.614-.501-1.195-1.064-1.763-1.61-.29-.277-.578-.554-.873-.829a5.555 5.555 0 01-.307-.301c-.615-.603-.94-.603-1.657-.211-.104.057-.227.124-.384.202-.33.208-.718.305-1.109.277a1.206 1.206 0 00-1.045.256 1.163 1.163 0 00-.341 1.028c0 .112 0 .184-.273.437a6.876 6.876 0 01-2.25 1.426 6.455 6.455 0 00-3.03 2.369c-.614.858-.654 1.808-.116 2.525.304.382.73.655 1.21.774.479.119.985.078 1.439-.117 1.023-.422 2.304-1.082 3.161-2.471a20.246 20.246 0 011.734-2.285.486.486 0 01.365-.168.93.93 0 01.66.241c.22.205.437.409.652.617a20.15 20.15 0 002.698 2.273c2.293 1.501 4.649 2.251 7.068 2.251a13.431 13.431 0 006.044-1.534c.507-.253.987-.554 1.454-.844l.187-.117 1.761 1.953 3.961-3.566-.449-.464-.513-.536c-.384-.404-.75-.784-1.128-1.16a13.651 13.651 0 002.182-5.63c.501-3.665-.363-7.273-2.572-10.726zm-71.676 16.48L44 115.61l-3.269-.67 1.615-6.151-5.524 1.213-.38-3.01-4.545 4.35 1.318-9.917-3.697 1.591-2.517-5.148-2.519 5.148-3.694-1.591 1.315 9.917-4.542-4.35-.383 3.01-5.521-1.213 1.614 6.151-3.271.67 9.386 7.114-1.699 3.598 8.943-2.731-.335 4.277h1.41l-.332-4.277 8.94 2.731-1.699-3.598zM26.75.098c-11.77 0-17.27 7.59-17.27 19.36v3.52h8.03v-3.96c0-6.93 2.86-11.22 9.02-11.22 6.27 0 9.02 4.07 9.02 11.99v3.52c0 6.71-3.52 10.34-9.24 10.56h-5.06v7.7h4.62c6.49.22 9.68 3.85 9.68 11.44v5.94c0 7.81-2.75 11.88-9.02 11.88-6.16 0-9.02-4.18-9.02-11.11v-5.83H9.48v5.28c0 11.77 5.5 19.47 17.27 19.47 11.88 0 17.38-7.7 17.38-19.47v-5.94c0-7.7-2.86-13.53-9.35-15.95 6.16-2.31 9.35-7.92 9.35-15.84v-1.98c0-11.77-5.5-19.36-17.38-19.36zm30.11 25.19v10.67h8.25v-10.67h-8.25zm0 41.91v10.67h8.25v-10.67h-8.25zm31.27-58.63h22.66v-7.7H80.43l-2.09 42.79h8.03v-1.76c.77-5.61 3.96-8.25 8.69-8.25 6.16 0 9.02 4.18 9.02 11.11v14.96c0 6.93-2.86 11.11-9.02 11.11s-9.02-4.18-9.02-11.11v-5.72h-8.03v5.17c0 11.77 5.5 19.47 17.27 19.47s17.38-7.7 17.38-19.47v-15.07c0-11-4.4-18.26-14.3-18.26-5.17 0-9.02 2.2-11.44 6.38l1.21-23.65z" fill="#4363A0"/></svg>