<svg width="114" height="137" viewBox="0 0 114 137" fill="none" xmlns="http://www.w3.org/2000/svg"><path d="M23.499 57.712c-11.77 0-17.27 7.59-17.27 19.36v3.52h8.03v-3.96c0-6.93 2.86-11.22 9.02-11.22 6.27 0 9.02 4.07 9.02 11.99v3.52c0 6.71-3.52 10.34-9.24 10.56h-5.06v7.7h4.62c6.49.22 9.68 3.85 9.68 11.44v5.94c0 7.81-2.75 11.88-9.02 11.88-6.16 0-9.02-4.18-9.02-11.11v-5.83h-8.03v5.28c0 11.77 5.5 19.47 17.27 19.47 11.88 0 17.38-7.7 17.38-19.47v-5.94c0-7.7-2.86-13.53-9.35-15.95 6.16-2.31 9.35-7.92 9.35-15.84v-1.98c0-11.77-5.5-19.36-17.38-19.36zm30.109 25.19v10.67h8.25v-10.67h-8.25zm0 41.91v10.67h8.25v-10.67h-8.25zm58.88-4.84v-7.81h-6.16v-53.68h-9.35l-23.87 53.68v7.81h24.86v15.51h8.36v-15.51h6.16zm-14.52-45.43v37.62h-16.94l16.94-37.62zM40.29 8.858C35.416 1.242 28.773.482 28.773.482s1.118 1.025 1.62 1.528c.307.302.614.627.921.944 2.597 2.751 4.302 5.307 5.368 8.04.993 2.541 1.251 4.88.79 7.152a9.564 9.564 0 01-1.02 2.791l-9.8-9.973 4.64-4.52h-7.247c-.35.029-.676.18-.922.425a843.039 843.039 0 00-3.995 3.51c-.633.561-1.266 1.128-1.877 1.673l-1.312 1.173 4.222 4.234.587-.542c.101-.09.206-.187.307-.284l.673-.66c.642-.627 1.306-1.271 1.951-1.922 1.973 2.21 3.95 4.42 5.93 6.63l2.425 2.712 1.036 1.17.018.02-.037.025a9.516 9.516 0 01-4.778 1.594c-1.936.088-3.49-.374-4.747-1.404-.615-.5-1.196-1.064-1.764-1.61-.29-.277-.578-.554-.873-.828a5.644 5.644 0 01-.307-.302c-.615-.602-.94-.602-1.657-.21a11.24 11.24 0 01-.384.201c-.33.208-.718.305-1.109.277a1.209 1.209 0 00-1.045.257 1.18 1.18 0 00-.34 1.027c0 .112 0 .184-.274.437a6.88 6.88 0 01-2.25 1.426 6.46 6.46 0 00-3.03 2.369c-.614.859-.654 1.808-.116 2.525.304.383.73.655 1.21.774.479.119.985.078 1.438-.117 1.024-.422 2.305-1.082 3.162-2.471.523-.8 1.102-1.564 1.734-2.284a.488.488 0 01.365-.17.932.932 0 01.66.242c.22.205.437.41.652.618a20.08 20.08 0 002.698 2.272c2.293 1.501 4.649 2.251 7.068 2.251a13.435 13.435 0 006.044-1.534c.507-.253.987-.554 1.454-.843l.187-.118 1.76 1.953 3.962-3.565-.449-.465-.513-.536c-.384-.404-.75-.784-1.128-1.16a13.636 13.636 0 002.182-5.63c.5-3.665-.363-7.272-2.572-10.726zm62.324 16.48L112 18.224l-3.268-.67 1.614-6.15-5.524 1.212-.381-3.01-4.544 4.35 1.318-9.917-3.697 1.591L95.001.482 92.482 5.63l-3.694-1.59 1.315 9.917-4.541-4.351-.384 3.01-5.521-1.213 1.615 6.151-3.272.67 9.386 7.114-1.699 3.598 8.943-2.73-.335 4.276h1.41l-.332-4.276 8.94 2.73-1.699-3.598z" fill="#EDEDED"/></svg>