<svg width="114" height="137" viewBox="0 0 114 137" fill="none" xmlns="http://www.w3.org/2000/svg">
<path d="M24.6909 57.5796C12.8109 57.5796 7.4209 65.3896 7.4209 77.1596V83.4296H15.4509V76.6096C15.4509 69.7896 18.2009 65.2796 24.4709 65.2796C30.8509 65.2796 33.4909 69.4596 33.4909 77.3796C33.4909 99.0496 7.4209 103.89 7.4209 128.75V135.35H41.1909V127.54H15.8909V126.33C16.0009 108.62 42.0709 100.26 42.0709 77.0496C42.0709 65.2796 36.6809 57.5796 24.6909 57.5796ZM54.36 82.7696V93.4396H62.61V82.7696H54.36ZM54.36 124.68V135.35H62.61V124.68H54.36ZM92.67 57.5796C80.9 57.5796 75.4 65.1696 75.4 76.9396V80.4596H83.43V76.4996C83.43 69.5696 86.29 65.2796 92.45 65.2796C98.72 65.2796 101.47 69.3496 101.47 77.2696V80.7896C101.47 87.4996 97.95 91.1296 92.23 91.3496H87.17V99.0496H91.79C98.28 99.2696 101.47 102.9 101.47 110.49V116.43C101.47 124.24 98.72 128.31 92.45 128.31C86.29 128.31 83.43 124.13 83.43 117.2V111.37H75.4V116.65C75.4 128.42 80.9 136.12 92.67 136.12C104.55 136.12 110.05 128.42 110.05 116.65V110.71C110.05 103.01 107.19 97.1796 100.7 94.7596C106.86 92.4496 110.05 86.8396 110.05 78.9196V76.9396C110.05 65.1696 104.55 57.5796 92.67 57.5796Z" fill="#D73B3B"/>
<path d="M40.29 8.725C35.4164 1.1091 28.7729 0.349609 28.7729 0.349609C28.7729 0.349609 29.8914 1.37433 30.3923 1.87763C30.6996 2.17901 31.0069 2.50447 31.3142 2.82092C33.9107 5.57253 35.6162 8.12822 36.6825 10.8617C37.675 13.4024 37.9331 15.7411 37.4722 18.0135C37.2802 18.9896 36.9361 19.9309 36.452 20.8043L26.6527 10.8316L31.2927 6.31093H28.5271C27.0583 6.31093 25.5372 6.31093 24.0438 6.31093C23.6946 6.33994 23.3676 6.49067 23.1219 6.73585C21.6839 7.9896 20.298 9.21325 19.1272 10.247C18.4942 10.8076 17.8612 11.3741 17.2497 11.9196L15.9376 13.092L20.1597 17.3264L20.7466 16.7839C20.848 16.6935 20.9525 16.5971 21.0539 16.5006L21.7269 15.8406C22.3691 15.2137 23.0328 14.5688 23.6781 13.9178C25.6509 16.1279 27.6278 18.338 29.6087 20.5482L32.0332 23.2606L33.0688 24.4299L33.0872 24.451L33.0503 24.4752C31.6357 25.4242 29.9833 25.9755 28.2721 26.0695C26.3361 26.1569 24.7813 25.6957 23.5245 24.665C22.9099 24.1647 22.3291 23.6012 21.7607 23.0557C21.4718 22.7784 21.183 22.5011 20.888 22.2269C20.7528 22.1033 20.6483 21.9978 20.5807 21.9255C19.9661 21.3227 19.6404 21.3227 18.9244 21.7145C18.8199 21.7717 18.697 21.8381 18.5403 21.9164C18.2109 22.1241 17.8216 22.2214 17.431 22.1937C17.2486 22.1525 17.0589 22.1542 16.8773 22.1988C16.6957 22.2433 16.5274 22.3294 16.3862 22.4499C16.2503 22.5824 16.1485 22.7446 16.0892 22.9233C16.0299 23.102 16.0148 23.292 16.0451 23.4776C16.0451 23.5891 16.0452 23.6614 15.7717 23.9146C15.1246 24.53 14.3603 25.0144 13.5223 25.3401C12.2897 25.8082 11.2325 26.6348 10.4925 27.709C9.87793 28.5679 9.83798 29.5172 10.3757 30.2345C10.6802 30.6169 11.1058 30.8891 11.5854 31.0081C12.065 31.127 12.5713 31.086 13.0245 30.8916C14.0478 30.4696 15.3292 29.8096 16.1865 28.4202C16.7087 27.6197 17.2879 26.8564 17.9196 26.1358C17.9647 26.0837 18.0207 26.0416 18.0838 26.0125C18.1469 25.9834 18.2156 25.9679 18.2853 25.967C18.5294 25.9583 18.767 26.0451 18.9459 26.2081C19.1641 26.413 19.3823 26.6179 19.5974 26.8259C20.4266 27.6599 21.3295 28.4203 22.2953 29.0983C24.5877 30.5992 26.9436 31.3496 29.3629 31.3496C31.4736 31.3185 33.5461 30.7925 35.4072 29.8156C35.9142 29.5625 36.3936 29.2611 36.8607 28.9717L37.0481 28.8542L38.8089 30.8072L42.7698 27.2418L42.3212 26.7777L41.808 26.2412C41.4239 25.8374 41.0582 25.4577 40.6802 25.0809C41.8214 23.3849 42.5664 21.4624 42.862 19.4511C43.3629 15.7863 42.4994 12.1788 40.29 8.725Z" fill="#D73B3B"/>
<path d="M102.614 25.205L112 18.0916L108.732 17.4216L110.346 11.2705L104.822 12.4836L104.441 9.47299L99.8967 13.8236L101.215 3.90628L97.518 5.49719L95.0015 0.349609L92.482 5.49719L88.7881 3.90628L90.1033 13.8236L85.5615 9.47299L85.1781 12.4836L79.6567 11.2705L81.2715 17.4216L78 18.0916L87.386 25.205L85.6874 28.803L94.63 26.0728L94.2945 30.3496H95.0015H95.7055L95.373 26.0728L104.313 28.803L102.614 25.205Z" fill="#D73B3B"/>
</svg>
