<svg width="114" height="137" viewBox="0 0 114 137" fill="none" xmlns="http://www.w3.org/2000/svg">
<path d="M16.6035 65.9852H39.2635V58.2852H8.90348L6.81348 101.075H14.8435V99.3152C15.6135 93.7052 18.8035 91.0652 23.5335 91.0652C29.6935 91.0652 32.5535 95.2452 32.5535 102.175V117.135C32.5535 124.065 29.6935 128.245 23.5335 128.245C17.3735 128.245 14.5135 124.065 14.5135 117.135V111.415H6.48348V116.585C6.48348 128.355 11.9835 136.055 23.7535 136.055C35.5235 136.055 41.1335 128.355 41.1335 116.585V101.515C41.1335 90.5152 36.7335 83.2552 26.8335 83.2552C21.6635 83.2552 17.8135 85.4552 15.3935 89.6352L16.6035 65.9852ZM53.7525 82.7052V93.3752H62.0025V82.7052H53.7525ZM53.7525 124.615V135.285H62.0025V124.615H53.7525ZM92.3926 57.5152C80.1826 57.5152 74.6826 65.1052 74.6826 77.3152V116.585C74.6826 128.355 80.5126 136.055 92.3926 136.055C104.163 136.055 109.993 128.355 109.993 116.585V104.925C109.993 93.8152 105.593 86.6652 95.6926 86.6652C89.5326 86.6652 85.3526 89.6352 83.2626 94.9152V77.6452C83.2626 69.3952 86.1226 65.2152 92.6126 65.2152C98.8826 65.2152 101.743 69.2852 101.743 76.2152V78.1952H109.773V76.7652C109.773 64.9951 104.273 57.5152 92.3926 57.5152ZM92.3926 94.4752C98.5526 94.4752 101.523 98.6552 101.523 105.585V117.135C101.523 124.065 98.5526 128.245 92.3926 128.245C86.1226 128.245 83.2626 124.065 83.2626 117.135V105.585C83.2626 98.6552 86.1226 94.4752 92.3926 94.4752Z" fill="#D73B3B"/>
<path d="M40.29 8.66054C35.4164 1.04465 28.7729 0.285156 28.7729 0.285156C28.7729 0.285156 29.8914 1.30987 30.3923 1.81318C30.6996 2.11456 31.0069 2.44002 31.3142 2.75647C33.9107 5.50807 35.6162 8.06376 36.6825 10.7973C37.675 13.3379 37.9331 15.6766 37.4722 17.9491C37.2802 18.9252 36.9361 19.8665 36.452 20.7398L26.6527 10.7672L31.2927 6.24648H28.5271C27.0583 6.24648 25.5372 6.24648 24.0438 6.24648C23.6946 6.27549 23.3676 6.42622 23.1219 6.6714C21.6839 7.92515 20.298 9.1488 19.1272 10.1825C18.4942 10.7431 17.8612 11.3096 17.2497 11.8551L15.9376 13.0276L20.1597 17.262L20.7466 16.7195C20.848 16.6291 20.9525 16.5326 21.0539 16.4362L21.7269 15.7761C22.3691 15.1492 23.0328 14.5043 23.6781 13.8533C25.6509 16.0635 27.6278 18.2736 29.6087 20.4837L32.0332 23.1961L33.0688 24.3655L33.0872 24.3866L33.0503 24.4107C31.6357 25.3597 29.9833 25.9111 28.2721 26.005C26.3361 26.0924 24.7813 25.6313 23.5245 24.6005C22.9099 24.1003 22.3291 23.5367 21.7607 22.9912C21.4718 22.714 21.183 22.4367 20.888 22.1624C20.7528 22.0389 20.6483 21.9334 20.5807 21.861C19.9661 21.2583 19.6404 21.2582 18.9244 21.65C18.8199 21.7073 18.697 21.7736 18.5403 21.852C18.2109 22.0597 17.8216 22.157 17.431 22.1292C17.2486 22.0881 17.0589 22.0898 16.8773 22.1343C16.6957 22.1788 16.5274 22.2649 16.3862 22.3854C16.2503 22.5179 16.1485 22.6802 16.0892 22.8589C16.0299 23.0376 16.0148 23.2276 16.0451 23.4131C16.0451 23.5246 16.0452 23.597 15.7717 23.8501C15.1246 24.4655 14.3603 24.9499 13.5223 25.2756C12.2897 25.7437 11.2325 26.5703 10.4925 27.6445C9.87793 28.5035 9.83798 29.4528 10.3757 30.1701C10.6802 30.5525 11.1058 30.8246 11.5854 30.9436C12.065 31.0626 12.5713 31.0216 13.0245 30.8271C14.0478 30.4052 15.3292 29.7451 16.1865 28.3557C16.7087 27.5552 17.2879 26.7919 17.9196 26.0713C17.9647 26.0192 18.0207 25.9772 18.0838 25.9481C18.1469 25.919 18.2156 25.9035 18.2853 25.9025C18.5294 25.8939 18.767 25.9806 18.9459 26.1437C19.1641 26.3486 19.3823 26.5535 19.5974 26.7614C20.4266 27.5954 21.3295 28.3559 22.2953 29.0339C24.5877 30.5347 26.9436 31.2852 29.3629 31.2852C31.4736 31.254 33.5461 30.7281 35.4072 29.7512C35.9142 29.498 36.3936 29.1966 36.8607 28.9073L37.0481 28.7898L38.8089 30.7427L42.7698 27.1774L42.3212 26.7132L41.808 26.1768C41.4239 25.7729 41.0582 25.3932 40.6802 25.0165C41.8214 23.3204 42.5664 21.3979 42.862 19.3866C43.3629 15.7219 42.4994 12.1144 40.29 8.66054Z" fill="#D73B3B"/>
<path d="M102.614 25.1405L112 18.0272L108.732 17.3572L110.346 11.2061L104.822 12.4192L104.441 9.40853L99.8967 13.7592L101.215 3.84183L97.518 5.43274L95.0015 0.285156L92.482 5.43274L88.7881 3.84183L90.1033 13.7592L85.5615 9.40853L85.1781 12.4192L79.6567 11.2061L81.2715 17.3572L78 18.0272L87.386 25.1405L85.6874 28.7385L94.63 26.0083L94.2945 30.2852H95.0015H95.7055L95.373 26.0083L104.313 28.7385L102.614 25.1405Z" fill="#D73B3B"/>
</svg>
