<svg width="116" height="129" viewBox="0 0 116 129" fill="none" xmlns="http://www.w3.org/2000/svg">
<path d="M106.29 105.437C101.416 97.8215 94.7729 97.062 94.7729 97.062C94.7729 97.062 95.8914 98.0867 96.3923 98.59C96.6996 98.8914 97.0069 99.2169 97.3142 99.5333C99.9107 102.285 101.616 104.841 102.682 107.574C103.675 110.115 103.933 112.453 103.472 114.726C103.28 115.702 102.936 116.643 102.452 117.517L92.6527 107.544L97.2927 103.023H94.5271C93.0583 103.023 91.5372 103.023 90.0438 103.023C89.6946 103.052 89.3676 103.203 89.1219 103.448C87.6839 104.702 86.298 105.926 85.1272 106.959C84.4942 107.52 83.8612 108.086 83.2497 108.632L81.9376 109.804L86.1597 114.039L86.7466 113.496C86.848 113.406 86.9525 113.309 87.0539 113.213L87.7269 112.553C88.3691 111.926 89.0328 111.281 89.6781 110.63C91.6509 112.84 93.6278 115.05 95.6087 117.261L98.0332 119.973L99.0688 121.142L99.0872 121.163L99.0503 121.188C97.6357 122.137 95.9833 122.688 94.2721 122.782C92.3361 122.869 90.7813 122.408 89.5245 121.377C88.9099 120.877 88.3291 120.314 87.7607 119.768C87.4718 119.491 87.183 119.214 86.888 118.939C86.7528 118.816 86.6483 118.71 86.5807 118.638C85.9661 118.035 85.6404 118.035 84.9244 118.427C84.8199 118.484 84.697 118.55 84.5403 118.629C84.2109 118.837 83.8216 118.934 83.431 118.906C83.2486 118.865 83.0589 118.867 82.8773 118.911C82.6957 118.956 82.5274 119.042 82.3862 119.162C82.2503 119.295 82.1485 119.457 82.0892 119.636C82.0299 119.814 82.0148 120.004 82.0451 120.19C82.0451 120.301 82.0452 120.374 81.7717 120.627C81.1246 121.242 80.3603 121.727 79.5223 122.052C78.2897 122.521 77.2325 123.347 76.4925 124.421C75.8779 125.28 75.838 126.23 76.3757 126.947C76.6802 127.329 77.1058 127.601 77.5854 127.72C78.065 127.839 78.5713 127.798 79.0245 127.604C80.0478 127.182 81.3292 126.522 82.1865 125.133C82.7087 124.332 83.2879 123.569 83.9196 122.848C83.9647 122.796 84.0207 122.754 84.0838 122.725C84.1469 122.696 84.2156 122.68 84.2853 122.679C84.5294 122.671 84.767 122.757 84.9459 122.921C85.1641 123.125 85.3823 123.33 85.5974 123.538C86.4266 124.372 87.3295 125.133 88.2953 125.811C90.5877 127.312 92.9436 128.062 95.3629 128.062C97.4736 128.031 99.5461 127.505 101.407 126.528C101.914 126.275 102.394 125.973 102.861 125.684L103.048 125.567L104.809 127.52L108.77 123.954L108.321 123.49L107.808 122.954C107.424 122.55 107.058 122.17 106.68 121.793C107.821 120.097 108.566 118.175 108.862 116.163C109.363 112.499 108.499 108.891 106.29 105.437Z" fill="#4363A0"/>
<path d="M34.614 121.917L44 114.804L40.7315 114.134L42.3463 107.983L36.8219 109.196L36.4415 106.185L31.8967 110.536L33.2149 100.619L29.518 102.21L27.0015 97.062L24.482 102.21L20.7881 100.619L22.1033 110.536L17.5615 106.185L17.1781 109.196L11.6567 107.983L13.2715 114.134L10 114.804L19.386 121.917L17.6874 125.515L26.63 122.785L26.2945 127.062H27.0015H27.7055L27.373 122.785L36.3126 125.515L34.614 121.917Z" fill="#4363A0"/>
<path d="M45.817 61.552V53.742H39.657V0.0620065H30.307L6.43699 53.742V61.552H31.297V77.062H39.657V61.552H45.817ZM31.297 16.122V53.742H14.357L31.297 16.122ZM56.86 24.482V35.152H65.11V24.482H56.86ZM56.86 66.392V77.062H65.11V66.392H56.86ZM115.74 61.552V53.742H109.58V0.0620065H100.23L76.36 53.742V61.552H101.22V77.062H109.58V61.552H115.74ZM101.22 16.122V53.742H84.28L101.22 16.122Z" fill="#4363A0"/>
</svg>
