<svg width="63" height="65" viewBox="0 0 63 65" fill="none" xmlns="http://www.w3.org/2000/svg">
<path d="M51.8877 27.5343L52.0266 26.176C55.3683 25.4516 58.5596 24.1471 61.4578 22.3207C61.4578 22.3207 63.541 19.1174 61.723 15.4942C59.0442 18.8074 55.663 21.4737 51.8277 23.2972L51.8025 23.1795C51.7413 22.7042 51.6539 22.2327 51.5405 21.7672C51.8246 21.5954 57.3103 18.2426 59.5072 14.1328C59.5072 14.1328 60.2615 9.84481 56.9821 7.31274C55.7827 11.9793 52.9766 15.9269 50.3537 18.7929C50.0812 18.3197 49.7537 17.8808 49.3784 17.4855C48.9018 19.445 47.6076 21.6208 45.3508 23.4022L45.3067 23.3863C43.0735 22.6466 40.7852 22.0882 38.4637 21.7163C38.7197 21.1021 39.0761 20.5355 39.5179 20.0399C39.5179 20.0399 42.2955 19.6741 42.3586 20.8033C42.4928 20.6748 42.5896 20.5117 42.6385 20.3317C42.6875 20.1518 42.6867 19.9618 42.6364 19.7822C43.7979 20.482 45.7107 20.7365 46.2188 18.8756C45.3761 20.4025 43.0625 18.2744 41.0613 18.1313L41.2381 17.9627L41.4527 17.7591H44.0504L44.6628 18.4653L47.03 16.3595L45.7328 14.858H43.2645L44.527 13.6175H36.8571C35.6829 13.6175 33.1262 13.5888 33.3219 12.1797C32.4602 13.8847 33.5302 15.0235 35.2789 15.208C34.8149 15.8187 33.0694 16.5471 32.6843 15.7137C32.6054 16.8812 33.7922 17.0275 33.7922 17.0275C32.8757 18.1142 32.063 19.2858 31.365 20.5266C30.6682 19.285 29.8554 18.1133 28.9377 17.0275C28.9377 17.0275 30.1277 16.8812 30.0488 15.7137C29.6511 16.5471 27.9151 15.8187 27.4511 15.208C29.2029 15.0235 30.2729 13.8847 29.4112 12.1797C29.6037 13.5888 27.0471 13.6175 25.8729 13.6175H18.1934L19.456 14.858H16.9719L15.6778 16.3595L18.0419 18.4653L18.6543 17.7591H21.252L21.4697 17.9627L21.6433 18.1313C19.6327 18.2744 17.3286 20.4025 16.489 18.8756C16.9972 20.7333 18.9068 20.4661 20.0715 19.7822C20.02 19.9614 20.0184 20.1515 20.0668 20.3315C20.1152 20.5116 20.2118 20.6748 20.3461 20.8033C20.4218 19.6741 23.1868 20.0399 23.1868 20.0399C23.6293 20.5361 23.9857 21.1039 24.241 21.7194C21.9292 22.0858 19.6503 22.6389 17.4264 23.3736L17.3854 23.3895C15.1254 21.624 13.8313 19.4323 13.3547 17.4728C12.9793 17.8681 12.6519 18.307 12.3794 18.7802C9.76908 15.9173 6.96622 11.9665 5.75102 7.3C2.45893 9.8448 3.22593 14.12 3.22593 14.12C5.43538 18.2362 10.9085 21.589 11.1926 21.7544C11.0792 22.2199 10.9918 22.6914 10.9306 23.1668L10.9054 23.2845C7.07075 21.4599 3.68976 18.7938 1.01015 15.4815C-0.804767 19.1047 1.27845 22.3079 1.27845 22.3079C4.17533 24.1347 7.36564 25.4393 10.7065 26.1633L10.8485 27.5216C4.27698 26.8186 0.0348388 24.3406 0.0348388 24.3406C-0.0794303 25.4043 0.08856 26.4796 0.521664 27.4566C0.954769 28.4335 1.63746 29.277 2.49996 29.901C2.49996 29.901 7.16507 30.8044 11.4893 29.9996L11.9564 31.1065C8.76209 31.9235 5.46071 32.2326 2.17169 32.0227C2.88187 35.7858 6.14557 36.158 6.14557 36.158C8.60982 35.4317 10.9954 34.4577 13.2663 33.2505L13.9229 34.0649C11.5853 35.6537 9.0886 36.9907 6.47382 38.0538C7.78372 40.4778 10.7917 40.201 10.7917 40.201C12.5073 38.8288 14.0924 37.2985 15.5263 35.6299L16.2933 36.177C14.859 38.1898 13.2606 40.0785 11.5146 41.8233C13.4936 43.1943 15.9871 42.5358 15.9871 42.5358C16.8465 40.8473 17.5972 39.1048 18.2345 37.319C18.781 37.5893 19.3477 37.8158 19.9294 37.9966V42.2527C17.963 42.5708 17.054 43.4583 16.7447 44.5685L16.7194 44.6766L16.6878 44.8103C16.6721 44.8993 16.6563 44.9948 16.6437 45.0902V45.1697C16.4606 46.9447 17.2149 49.5627 16.1733 49.7026C16.4252 49.8429 16.72 49.8832 16.9998 49.8155C17.2796 49.7478 17.5241 49.577 17.6853 49.3368C17.9526 49.8568 18.2487 50.3613 18.5722 50.8478C17.6952 51.253 16.7489 51.4841 15.7851 51.5285C14.5226 51.5285 13.4368 51.1532 12.3131 49.7631C11.6061 48.8978 10.8296 48.5956 10.1037 49.744L7.16191 46.8047C7.1719 46.6045 7.10396 46.4082 6.97254 46.2576C8.69591 44.419 6.93465 41.8424 5.42907 41.7756C4.89248 41.7501 5.97511 43.5728 5.00926 43.8687C4.55159 44.0086 4.16021 43.1466 4.83883 42.7394C4.5397 42.6929 4.23363 42.743 3.96451 42.8826C4.00004 42.7689 3.9993 42.6469 3.96239 42.5337C3.92547 42.4205 3.85424 42.3218 3.75874 42.2515C3.66323 42.1813 3.54828 42.143 3.43004 42.1421C3.3118 42.1411 3.19624 42.1776 3.09966 42.2464L3.07127 42.2146C3.00565 42.1388 2.92546 42.0771 2.83556 42.0334C2.74566 41.9897 2.6479 41.9649 2.54818 41.9603C2.44847 41.9557 2.34888 41.9716 2.25541 42.0069C2.16195 42.0422 2.07655 42.0962 2.00439 42.1657C1.93223 42.2352 1.87479 42.3187 1.83555 42.4112C1.79631 42.5037 1.77608 42.6033 1.77608 42.7039C1.77608 42.8045 1.79631 42.904 1.83555 42.9965C1.8748 43.089 1.93225 43.1725 2.00441 43.242L2.02965 43.2643C1.94054 43.3556 1.88419 43.4742 1.8695 43.6014C1.8548 43.7287 1.88261 43.8572 1.94852 43.9667C2.01444 44.0762 2.11468 44.1604 2.23341 44.206C2.35215 44.2516 2.48259 44.2561 2.60411 44.2186C2.42152 44.511 2.34981 44.86 2.40212 45.2015C2.80613 44.5144 3.66466 44.912 3.51631 45.3796C3.21961 46.3498 1.41416 45.2461 1.43941 45.7868C1.49622 47.3042 4.04657 49.0919 5.88042 47.3773C6.03035 47.5095 6.2242 47.5799 6.42333 47.5745L9.15358 50.4533C8.71169 50.7428 8.42446 51.608 9.23565 52.2538C8.82532 53.6629 9.93006 55.0244 13.623 55.1357C15.0876 56.6785 16.2175 57.8682 16.2996 57.9509C16.6784 58.3263 16.9751 58.4249 17.1392 58.3963C17.2845 58.3702 17.418 58.299 17.5211 58.1927C17.6322 58.0882 17.7084 57.9515 17.7389 57.8014C17.7336 57.6359 17.6924 57.4735 17.6183 57.3257C17.5441 57.1779 17.4388 57.0482 17.3097 56.9457L14.895 54.5345C15.4789 54.0192 18.0514 51.8625 20.2293 51.6717C19.9137 50.2498 19.9515 49.1428 20.1977 48.3666C20.2324 48.5034 20.2829 48.6179 20.3271 48.7451C21.0215 50.8414 22.6944 51.4363 24.9575 51.484L19.4118 57.0316C19.327 57.9192 19.3567 58.8142 19.5002 59.6941C20.3511 59.895 21.2244 59.9827 22.0979 59.9549L26.8798 52.3206C26.8798 52.3206 27.8267 52.4096 27.5458 52.8709L23.4677 60.8774C23.6887 61.9558 24.6261 63.2155 24.6261 63.2155C25.5002 63.0211 26.3534 62.7409 27.1733 62.3789L29.9667 53.0872L30.6737 53.5707L28.7199 63.0373C29.4499 63.884 30.3592 64.5548 31.3808 65C32.4029 64.5558 33.3124 63.8849 34.0416 63.0373L32.0846 53.5707L32.7948 53.0872L35.5882 62.3789C36.4091 62.7411 37.2633 63.0213 38.1385 63.2155C38.1385 63.2155 39.0854 61.9431 39.2938 60.8774L35.2126 52.8709C34.9443 52.4096 35.8817 52.3206 35.8817 52.3206L40.6636 59.9549C41.5361 59.9826 42.4084 59.8949 43.2582 59.6941C43.4034 58.8144 43.4342 57.9193 43.3497 57.0316L37.804 51.4681C40.2312 51.4172 41.9956 50.7651 42.589 48.2871C42.8541 49.0664 42.9047 50.1957 42.589 51.6557C43.7672 51.7964 44.898 52.2058 45.8956 52.8529C46.8932 53.5 47.7313 54.3678 48.3463 55.3902C49.331 57.0507 51.7393 58.1641 52.6515 56.4241C53.6363 56.8948 55.8616 55.8197 55.4134 54.1687C55.6662 53.6868 55.8174 53.1574 55.8573 52.6137C55.8973 52.07 55.8252 51.5239 55.6455 51.0097C55.4658 50.4955 55.1825 50.0243 54.8134 49.6259C54.4443 49.2274 53.9973 48.9102 53.5006 48.6942L52.8883 49.8235L51.9098 51.6239L50.9313 49.8235L50.3158 48.6942C49.6544 48.9875 49.0855 49.4583 48.6714 50.0552C48.2573 50.652 48.0138 51.352 47.9675 52.0788C46.7672 51.5858 45.5381 51.1672 44.2871 50.8255C44.5919 50.3534 44.8691 49.8637 45.1173 49.3591C45.279 49.5995 45.5241 49.7704 45.8044 49.8381C46.0847 49.9058 46.38 49.8654 46.6323 49.7249C45.5907 49.5849 46.3419 46.967 46.1589 45.192V45.1125C46.1589 45.017 46.1336 44.9216 46.1179 44.8325L46.0831 44.6989L46.061 44.5908C45.7454 43.4742 44.8332 42.5677 42.8415 42.2687V38.0061C43.4225 37.8261 43.9882 37.5995 44.5334 37.3286C45.1718 39.1133 45.9214 40.8557 46.7775 42.5454C46.7775 42.5454 49.2774 43.2039 51.2564 41.8329C49.5021 40.0909 47.8952 38.2044 46.4524 36.1929L47.2226 35.6458C48.6562 37.3147 50.2412 38.845 51.9571 40.2169C51.9571 40.2169 54.9652 40.4937 56.2719 38.0697C53.658 37.007 51.1623 35.67 48.826 34.0808L49.4825 33.2664C51.7541 34.4745 54.1409 35.4486 56.6065 36.1739C56.6065 36.1739 59.867 35.7953 60.5803 32.0386C57.2913 32.2483 53.99 31.9392 50.7956 31.1224L51.2627 30.0155C55.5901 30.8203 60.2552 29.9169 60.2552 29.9169C61.1177 29.2929 61.8004 28.4494 62.2335 27.4725C62.6666 26.4955 62.8346 25.4203 62.7204 24.3565C62.7204 24.3565 58.4593 26.8313 51.8877 27.5343ZM42.4186 15.033L41.6453 15.7933L39.1202 15.033H42.4186ZM21.0752 15.7933L20.3019 15.033H23.6003L21.0752 15.7933ZM2.9892 43.8082C3.01112 43.7312 3.01683 43.6503 3.00596 43.5709C2.99509 43.4915 2.96788 43.4152 2.92607 43.347L3.02391 43.2706L3.07127 43.2134C3.1884 43.2916 3.32968 43.3244 3.46895 43.3056C3.4077 43.3984 3.38107 43.51 3.39378 43.6207C3.4065 43.7313 3.45775 43.8339 3.5384 43.91C3.47115 43.8339 3.38061 43.7825 3.28114 43.7641C3.18166 43.7457 3.07893 43.7612 2.9892 43.8082ZM41.8126 47.6763C41.7261 48.2689 41.5105 48.8349 41.1813 49.3336L41.0045 49.5627C40.9193 49.6549 40.8278 49.744 40.7362 49.8267C39.9471 50.4915 38.7982 50.6792 37.34 50.6792H35.3388C34.8736 50.6787 34.4095 50.7245 33.9532 50.816C33.0627 50.9715 32.2433 51.4055 31.6112 52.0565L31.2955 52.3746L30.9799 52.0565C30.2704 51.3315 29.3357 50.8735 28.3317 50.7587C27.9754 50.7054 27.6156 50.6788 27.2554 50.6792H25.2479C23.1615 50.6792 21.7033 50.2879 21.0436 48.6561C21.0058 48.5606 20.9774 48.4493 20.9426 48.338V29.4174C21.8454 29.1916 22.6818 29.0071 23.4867 28.8576C24.9924 28.5803 26.5117 28.3838 28.0382 28.2691C29.1271 28.1864 30.2476 28.145 31.3271 28.145C34.8375 28.1415 38.3352 28.5688 41.7431 29.4174H41.7873L41.8126 47.6763ZM46.5787 30.1332C45.3097 30.1885 44.0451 30.318 42.791 30.5212V28.9117L42.7153 28.8926C42.5385 28.8449 42.3586 28.8067 42.1819 28.759L42.0083 28.7176H41.9451C38.4774 27.8529 34.9183 27.4161 31.346 27.4166C30.2287 27.4166 29.1145 27.4611 28.0003 27.5438C26.4484 27.6603 24.9038 27.8599 23.373 28.1419C22.4609 28.3105 21.5581 28.514 20.6586 28.7399L20.324 28.8258L19.9862 28.9085H19.9452H19.9137V30.429V30.5181C18.6596 30.315 17.3949 30.1854 16.126 30.13C16.7161 28.3471 16.7161 26.4193 16.126 24.6364V24.6078C16.6279 24.4169 17.136 24.2452 17.6442 24.0766C21.3074 22.8629 25.1151 22.1483 28.9661 21.9517C29.1934 21.9517 29.4207 21.9199 29.6448 21.9103H29.7678C30.3013 21.8912 30.8347 21.8785 31.365 21.8785H31.5512C32.0625 21.8785 32.5739 21.8785 33.0852 21.9071C33.2651 21.9071 33.4482 21.9326 33.6312 21.9389C34.0195 21.9612 34.4109 21.9771 34.8022 22.0089H34.8906C35.4304 22.0503 35.9733 22.1043 36.513 22.168C37.0527 22.2316 37.6493 22.3111 38.2174 22.4034C40.546 22.7679 42.841 23.3244 45.0794 24.067C45.4108 24.1783 45.7391 24.2961 46.0673 24.4137C46.2441 24.4742 46.4208 24.5314 46.5945 24.5982C46.5945 24.611 45.3193 26.8726 46.5945 30.1332H46.5787Z" fill="#E7E3CC"/>
<path d="M43.3031 12.8C45.279 12.8 45.6925 10.8214 45.4937 9.8671C45.4194 9.56454 45.3729 9.25576 45.3548 8.94462C45.3412 8.88236 45.3446 8.81754 45.3646 8.75705C45.3846 8.69657 45.4205 8.64266 45.4684 8.60107C45.7841 8.39113 46.6016 8.46746 47.4096 9.13229C47.902 9.53628 48.2934 10.1216 48.0724 10.5351C47.8863 10.8159 47.6418 11.0525 47.3559 11.2286C47.0042 11.4423 46.7129 11.7435 46.51 12.1033C46.2228 12.7205 46.8604 14.7308 48.5143 15.3066C48.8015 15.402 48.5585 14.6958 48.83 14.2982C49.1456 13.8338 49.9473 13.662 49.5843 13.5571C49.3476 13.4934 48.6374 13.1372 48.5743 12.7046C48.5112 12.2719 49.1551 11.7502 49.6096 11.4003L49.7958 11.2508C50.3355 10.815 50.4271 10.4365 50.3955 10.1979C50.364 9.95936 50.2377 9.66353 49.7295 9.40587L49.6127 9.35496L49.1582 9.14821C48.4525 8.76686 47.8283 8.24909 47.3212 7.6245C47.2234 7.52271 47.135 7.42093 47.0498 7.33504C46.6394 6.90243 46.2196 7.05511 45.7872 7.21098C45.4728 7.34013 45.1407 7.42056 44.8024 7.44955L44.2974 7.50044C44.1418 7.52589 43.997 7.59666 43.8808 7.70403C43.7862 7.81153 43.7169 7.93917 43.6781 8.07742C43.6393 8.21567 43.632 8.36096 43.6566 8.50246C43.7394 8.97474 43.8727 9.43657 44.0544 9.87983C44.4079 10.8946 44.4678 12.5582 43.3031 12.8Z" fill="#E7E3CC"/>
<path d="M12.9242 11.2507L13.1104 11.4002C13.5649 11.7596 14.2088 12.2972 14.1457 12.7044C14.0826 13.1115 13.3724 13.4933 13.1325 13.5569C12.7695 13.6555 13.5649 13.8336 13.89 14.298C14.1646 14.6957 13.9248 15.4019 14.2057 15.3064C15.8596 14.7307 16.5004 12.7203 16.2131 12.1032C16.0084 11.7447 15.7175 11.4439 15.3672 11.2284C15.0797 11.0533 14.8341 10.8165 14.6476 10.5349C14.4298 10.1214 14.818 9.5361 15.3104 9.13211C16.1184 8.46728 16.9296 8.39095 17.2516 8.60089C17.2981 8.6437 17.3331 8.6976 17.3535 8.75763C17.3739 8.81766 17.379 8.8819 17.3684 8.94444C17.349 9.25565 17.3014 9.56441 17.2263 9.86692C17.0275 10.8212 17.441 12.7998 19.4169 12.7998C18.2522 12.5612 18.3121 10.8912 18.672 9.88284C18.8541 9.44002 18.9865 8.97801 19.0665 8.50546C19.0927 8.36373 19.0858 8.2178 19.0463 8.07922C19.0069 7.94064 18.936 7.81321 18.8392 7.70703C18.7254 7.59795 18.5811 7.52685 18.4257 7.50344L17.9239 7.45256C17.5846 7.42354 17.2515 7.34311 16.9359 7.21398C16.4941 7.05811 16.0774 6.89589 15.6734 7.33805L15.4051 7.62751C14.8964 8.25292 14.2699 8.77075 13.5618 9.1512L13.1136 9.35797L12.9873 9.40886C12.8182 9.47117 12.6683 9.57713 12.5525 9.71612C12.4368 9.85511 12.3592 10.0223 12.3276 10.2009C12.2992 10.4363 12.3813 10.8149 12.9242 11.2507Z" fill="#E7E3CC"/>
<path d="M30.522 9.23071H28.7008C28.5114 10.8212 27.8928 11.8328 26.8796 12.469C28.6313 12.3799 30.0328 10.888 30.522 9.23071Z" fill="#E7E3CC"/>
<path d="M34.016 9.23071H32.1979C32.6872 10.888 34.0918 12.3799 35.8372 12.469C34.8303 11.8328 34.2117 10.818 34.016 9.23071Z" fill="#E7E3CC"/>
<path d="M31.3337 8.14292H34.0481C34.3638 7.72939 35.3359 6.36792 35.3359 5.02236C35.3353 4.73928 35.2669 4.46053 35.1367 4.2097C35.0065 3.95887 34.8183 3.74336 34.5879 3.58139C34.0285 3.1788 33.3769 2.92595 32.6941 2.84656L31.3526 5.11144L30.008 2.84656C29.3254 2.92676 28.6739 3.17954 28.1142 3.58139C27.8851 3.74447 27.6981 3.96029 27.5685 4.21092C27.4389 4.46156 27.3706 4.73976 27.3693 5.02236C27.3693 6.36792 28.3383 7.72939 28.6571 8.14292H31.3337Z" fill="#E7E3CC"/>
<path d="M32.6204 0.721839C32.4898 0.501747 32.3049 0.319548 32.0836 0.193026C31.8623 0.0665045 31.6122 0 31.3578 0C31.1034 0 30.8533 0.0665045 30.632 0.193026C30.4107 0.319548 30.2258 0.501747 30.0953 0.721839L31.3578 3.04079L32.6204 0.721839Z" fill="#E7E3CC"/>
<path d="M39.5274 12.4692H41.7621C42.0272 12.1289 42.8226 11.0123 42.8226 9.90535C42.8214 9.67244 42.7648 9.44322 42.6578 9.23681C42.5507 9.0304 42.3962 8.85281 42.2071 8.71885C41.75 8.38998 41.2181 8.18217 40.6605 8.11447L39.5558 9.97853L38.451 8.11447C37.893 8.18465 37.3608 8.39221 36.9013 8.71885C36.7139 8.85405 36.5611 9.03208 36.4552 9.23832C36.3493 9.44456 36.2934 9.67314 36.2921 9.90535C36.2921 11.0123 37.0906 12.132 37.3495 12.4692H39.5274Z" fill="#E7E3CC"/>
<path d="M40.4723 6.67344C40.3771 6.51403 40.2427 6.38215 40.082 6.29059C39.9214 6.19902 39.7399 6.15089 39.5553 6.15089C39.3708 6.15089 39.1893 6.19902 39.0287 6.29059C38.868 6.38215 38.7336 6.51403 38.6384 6.67344L39.5569 8.36254L40.4723 6.67344Z" fill="#E7E3CC"/>
<path d="M24.0894 6.67354C23.9947 6.51409 23.8605 6.3821 23.7001 6.29046C23.5397 6.19882 23.3584 6.15065 23.174 6.15065C22.9896 6.15065 22.8084 6.19882 22.648 6.29046C22.4875 6.3821 22.3534 6.51409 22.2587 6.67354L23.174 8.36265L24.0894 6.67354Z" fill="#E7E3CC"/>
<path d="M23.1495 12.4692H25.381C25.6461 12.1288 26.4447 11.0123 26.4447 9.90533C26.4417 9.67058 26.3827 9.44 26.2729 9.23298C26.163 9.02595 26.0055 8.84853 25.8134 8.71564C25.3544 8.38752 24.822 8.17882 24.2636 8.10808L23.1589 9.97532L22.0542 8.10808C21.4958 8.17882 20.9634 8.38752 20.5044 8.71564C20.3157 8.85044 20.1617 9.02874 20.0552 9.23568C19.9486 9.44261 19.8927 9.6722 19.8921 9.90533C19.8921 11.0123 20.6875 12.132 20.9526 12.4692H23.1495Z" fill="#E7E3CC"/>
<path d="M53.2314 46.7731C53.0922 46.5413 52.8961 46.3496 52.6619 46.2166C52.4278 46.0836 52.1635 46.0137 51.8947 46.0137C51.6259 46.0137 51.3616 46.0836 51.1274 46.2166C50.8933 46.3496 50.6971 46.5413 50.558 46.7731L51.8931 49.2352L53.2314 46.7731Z" fill="#E7E3CC"/>
<path d="M19.2126 26.4497L19.8439 25.0278V24.9451L19.765 24.9228L19.4115 25.0278L19.3641 25.0723L18.9664 26.0457L18.5908 25.3554L18.4993 25.3204L18.1521 25.4381L18.1016 25.4826V25.5495L18.7329 26.5674C18.5119 27.0859 18.291 27.6012 18.0669 28.1197V28.2024L18.1268 28.2278H18.1521L18.4993 28.1101L18.5435 28.0688C18.6918 27.7062 18.837 27.3467 18.9854 26.9872C19.1306 27.2417 19.2726 27.4994 19.4146 27.7539L19.503 27.7889L19.8534 27.6871L19.9039 27.6425V27.5726C19.6608 27.1908 19.4367 26.8187 19.2126 26.4497Z" fill="#E7E3CC"/>
<path d="M21.76 24.8366L21.6369 24.6712C21.5661 24.6133 21.4829 24.573 21.3938 24.5535L21.3528 24.5376C21.2475 24.5228 21.1404 24.5282 21.0372 24.5535H20.9646C20.8622 24.5772 20.7642 24.6169 20.6742 24.6712L20.5637 24.7349L20.4627 24.8239L20.3396 24.9607L20.3049 25.0084C20.2367 25.1045 20.1864 25.2123 20.1565 25.3265C20.1258 25.4297 20.1109 25.5369 20.1123 25.6446V26.6943C20.1107 26.802 20.1257 26.9093 20.1565 27.0124C20.1856 27.1118 20.24 27.2017 20.3144 27.2733L20.3396 27.2892C20.4165 27.3493 20.5062 27.3907 20.6016 27.4101H20.6742H20.7184C20.8135 27.4078 20.908 27.3929 20.9993 27.3655C21.1211 27.3359 21.2373 27.2865 21.3433 27.2192C21.4462 27.1553 21.538 27.0747 21.6148 26.9806C21.6924 26.8863 21.7523 26.7785 21.7915 26.6625C21.8332 26.5451 21.8545 26.4214 21.8546 26.2967V25.2183C21.8559 25.1164 21.8388 25.0151 21.8042 24.9193L21.76 24.8366ZM21.3717 25.4315V26.4271L21.3402 26.6053L21.2518 26.7548L21.1224 26.8693L20.9709 26.9393H20.7815L20.6742 26.8884L20.6111 26.7707L20.589 26.5862V25.5492L20.6079 25.4029L20.6742 25.247L20.791 25.1134L20.9961 25.0148H21.1097H21.1792L21.2897 25.0879L21.3496 25.1961L21.3717 25.3138V25.4315Z" fill="#E7E3CC"/>
<path d="M23.752 25.4507L23.6068 25.3298L23.7204 25.1835L23.8278 24.9544L23.8688 24.8367V24.8145L23.9382 24.5536L24.0803 24.0065V23.9365L24.0108 23.9111L23.6952 23.9683L23.6384 24.0256L23.4932 24.5536L23.4174 24.824L23.3322 25.0181H23.3164L23.2312 25.123L23.1207 25.1898L23.0008 25.2216L22.8019 25.2662V24.2196L22.7735 24.1592H22.7104L22.3948 24.2324L22.3316 24.3055V26.9266L22.3601 26.9871L22.4074 27.003H22.4232L22.7388 26.9298L22.7988 26.8535V25.7211L23.0513 25.667H23.187L23.2785 25.6861L23.3701 25.7656L23.4458 25.9342L23.6542 26.6817L23.7425 26.7358L24.0866 26.6754L24.1339 26.6372V26.5767L23.9035 25.7815C23.8729 25.663 23.8216 25.551 23.752 25.4507Z" fill="#E7E3CC"/>
<path d="M26.076 25.4345C26.0439 25.3136 25.9927 25.1987 25.9244 25.0942L25.7761 24.967L25.8834 24.8365C25.9361 24.7496 25.9785 24.6567 26.0097 24.5598L26.0412 24.4739L26.2401 23.7359V23.6755V23.6023L26.1738 23.58L25.8582 23.6182L25.7919 23.6755L25.7761 23.7359L25.5741 24.4612L25.5299 24.5598L25.4952 24.6457L25.391 24.7602L25.2837 24.8206H25.2521L25.1638 24.8429L24.9586 24.8747V23.8218L24.9302 23.7613H24.8671L24.7345 23.7836L24.5356 23.8186L24.4725 23.895V24.8493V26.5256L24.4978 26.5861L24.5483 26.6052L24.8828 26.5511L24.946 26.4747V25.3455L25.1922 25.3073H25.3058H25.3247L25.4289 25.3359L25.5173 25.4186L25.5678 25.5173L25.5962 25.5936L25.8077 26.3539L25.8897 26.4048L26.0191 26.3888L26.2369 26.3602L26.2906 26.3252V26.2616L26.2464 26.1089L26.076 25.4345Z" fill="#E7E3CC"/>
<path d="M28.1962 23.3736C27.7038 23.4118 27.2082 23.4595 26.7221 23.5167L26.6527 23.5899V26.2174L26.6843 26.2746H26.7348C26.9936 26.246 27.2587 26.2238 27.5238 26.2015C27.789 26.1792 27.9752 26.1538 28.2025 26.1347L28.2719 26.0583V25.7402L28.2467 25.683L28.1898 25.6639L27.4765 25.7275L27.1293 25.7593V25.0309L27.3629 25.0118L28.0383 24.9482L28.1078 24.8718V24.5919L28.0857 24.5378L28.0289 24.5187L27.7637 24.5442L27.265 24.5887H27.1293V23.8825L28.2025 23.7871L28.2719 23.7076V23.4149L28.2467 23.3577L28.1962 23.3736Z" fill="#E7E3CC"/>
<path d="M30.4755 23.2495H30.1599L30.0936 23.2908L29.8632 23.7234C29.7212 23.9906 29.5791 24.2578 29.4339 24.525V24.5409L29.2887 24.8272L29.1562 25.0785V23.3735L29.1341 23.3194L29.0773 23.2972L28.7616 23.3163L28.689 23.3958V26.0169L28.7111 26.0742L28.7648 26.0964H28.8121L29.0867 26.0805L29.1499 26.0392L29.5949 25.2026C29.6612 25.0785 29.7243 24.9545 29.7906 24.8336L29.8443 24.7318L29.939 24.5505L30.0999 24.2324V25.9406L30.122 25.9978L30.1757 26.0201H30.5134L30.5892 25.9438V23.3194L30.5639 23.2622L30.4755 23.2495Z" fill="#E7E3CC"/>
<path d="M29.1148 23.1063L29.3105 23.2304C29.389 23.2606 29.4727 23.2746 29.5567 23.2718H29.5977C29.6961 23.2703 29.793 23.2475 29.8818 23.205L30.068 23.065L30.1754 22.8869L30.2164 22.7056L30.1975 22.6483L30.1375 22.6228H29.8723L29.7966 22.6992V22.7501L29.7556 22.8042L29.6893 22.8519L29.5914 22.871H29.522L29.4589 22.8328L29.4178 22.7787V22.7278L29.3421 22.6578H29.0611L28.9665 22.7374L29.0043 22.9219L29.1148 23.1063Z" fill="#E7E3CC"/>
<path d="M33.6407 23.5134C33.4609 23.3545 33.2296 23.2673 32.9905 23.2685L32.1982 23.2462L32.1446 23.2685L32.1193 23.3226V25.9469L32.1951 26.0233H32.5107L32.5644 26.001L32.5864 25.9437V24.9703H32.9842H33.1925L33.385 24.9258L33.5649 24.824L33.6565 24.7445L33.7859 24.5409L33.8143 24.4773V24.42C33.8345 24.3356 33.8451 24.2492 33.8459 24.1624C33.8491 24.0092 33.8189 23.8572 33.7575 23.717L33.6407 23.5134ZM33.385 24.296V24.3278L33.3314 24.4391L33.2114 24.5218L33.0441 24.5473H33.0126H32.6275V23.6916H33.0031H33.0599C33.1569 23.6923 33.2497 23.7311 33.3187 23.7997C33.3854 23.8916 33.4179 24.0043 33.4103 24.1178L33.385 24.296Z" fill="#E7E3CC"/>
<path d="M35.7312 23.73C35.6562 23.6384 35.5639 23.5627 35.4597 23.5073C35.3357 23.4438 35.2006 23.4049 35.062 23.3928C34.9224 23.3776 34.7811 23.3939 34.6485 23.4405C34.5412 23.4759 34.4453 23.5396 34.3708 23.625L34.2855 23.7395L34.213 23.8954C34.1807 23.9896 34.1636 24.0884 34.1625 24.1881V25.2378C34.1636 25.3528 34.1795 25.4672 34.2098 25.5782C34.2407 25.6944 34.2956 25.8028 34.3708 25.8963C34.4456 25.9892 34.5392 26.0651 34.6454 26.1189C34.7713 26.1825 34.9088 26.2193 35.0494 26.2271H35.1567H35.2041L35.4061 26.2016C35.5102 26.1726 35.607 26.1216 35.6901 26.0521C35.7729 25.9828 35.8379 25.8944 35.8795 25.7945C35.9239 25.6832 35.9464 25.5644 35.9458 25.4446V24.328C35.946 24.2197 35.9278 24.1121 35.8921 24.0099C35.8554 23.9077 35.8009 23.8129 35.7312 23.73ZM35.4502 24.5539V25.4159L35.4187 25.575L35.3366 25.6863L35.2451 25.734L35.2198 25.7499H35.062L34.8663 25.6958L34.7369 25.5877L34.6643 25.4318L34.6391 25.2378V24.2008L34.658 24.064L34.7211 23.94L34.8442 23.8477L34.9831 23.8191H35.0431L35.2388 23.8827L35.365 24.0067L35.4313 24.1499L35.4534 24.2771L35.4502 24.5539Z" fill="#E7E3CC"/>
<path d="M36.8313 24.8368V24.4265L36.8597 24.2801L36.9323 24.172L37.0523 24.1052H37.2227C37.3181 24.1176 37.4079 24.1573 37.4815 24.2197L37.6109 24.436L37.7025 24.4933L38.0181 24.4265L38.0686 24.3851V24.3247L37.9929 24.1592C37.9391 24.0489 37.8614 23.9522 37.7656 23.8762L37.5383 23.7394C37.4451 23.696 37.3463 23.666 37.2448 23.6503C37.1217 23.6274 36.9955 23.6274 36.8723 23.6503L36.6956 23.7235L36.5851 23.7966C36.5078 23.8681 36.4474 23.9561 36.4084 24.0543C36.3697 24.1559 36.3494 24.2636 36.3484 24.3724V25.473C36.3438 25.7077 36.4285 25.9354 36.5851 26.1092L36.7019 26.2174L36.8629 26.3223C36.9752 26.3811 37.0971 26.4188 37.2227 26.4337H37.3963C37.5194 26.4362 37.6415 26.41 37.753 26.3573C37.8281 26.3245 37.8952 26.2757 37.9497 26.2142C38.0042 26.1526 38.0448 26.0799 38.0686 26.0011V25.9756L38.0339 25.8834L37.7183 25.7243H37.652L37.633 25.7466L37.6109 25.772L37.4878 25.9374C37.412 25.9769 37.3249 25.9881 37.2416 25.9692L37.0649 25.912L36.9355 25.8038L36.8566 25.6607L36.8282 25.5016V24.8368H36.8313Z" fill="#E7E3CC"/>
<path d="M38.877 24.7509L38.9054 24.6078L38.9433 24.5537L38.9748 24.5028L39.0916 24.4456H39.2589C39.3436 24.4612 39.4229 24.4985 39.4893 24.5537L39.5209 24.5728C39.5851 24.6336 39.6301 24.7122 39.6503 24.7986L39.6787 24.8368H39.7387H39.8491L40.0448 24.805L40.0985 24.77V24.7064L40.0291 24.5537C39.9745 24.433 39.8961 24.3248 39.7987 24.2356C39.65 24.1104 39.4716 24.026 39.281 23.9907C39.1594 23.9637 39.0334 23.9637 38.9117 23.9907C38.8066 24.009 38.7077 24.0539 38.6245 24.1211C38.5458 24.1875 38.485 24.2728 38.4477 24.3692L38.4004 24.5537V24.7V25.8007C38.399 25.921 38.4193 26.0407 38.4604 26.1537C38.4996 26.2633 38.5585 26.3646 38.634 26.4528C38.7096 26.5445 38.8017 26.6211 38.9054 26.6786C39.0161 26.7422 39.1367 26.7863 39.2621 26.809L39.4893 26.8345C39.5975 26.8364 39.705 26.8158 39.805 26.774C39.8816 26.741 39.9497 26.6909 40.0044 26.6276C40.059 26.5642 40.0988 26.4892 40.1206 26.4082L40.0859 26.316L39.7702 26.141H39.704L39.6598 26.1919L39.543 26.3478C39.4663 26.381 39.3808 26.3877 39.2999 26.3669L39.1232 26.3001L38.9969 26.1824L38.9149 26.0361L38.8865 25.8738V24.7573L38.877 24.7509Z" fill="#E7E3CC"/>
<path d="M41.9742 24.6461L41.9016 24.6779L41.8006 24.8465L41.6712 25.0533L41.2577 25.7213L40.9768 26.1953V24.4489L40.92 24.3726L40.6044 24.2994H40.5381L40.5097 24.3598V26.9841L40.5697 27.0605L40.8853 27.1337L40.9705 27.0987L41.646 25.9949L41.8953 25.5845V27.3277L41.9521 27.404H41.99L42.0532 27.4231L42.2267 27.4677L42.2772 27.4836H42.2962H42.3435L42.3751 27.4231V24.7956L42.3183 24.7225L41.9742 24.6461Z" fill="#E7E3CC"/>
<path d="M44.3382 25.3459L44.2498 25.3777C44.0352 25.7117 43.8269 26.0457 43.6186 26.3829L43.344 26.8346V25.085L43.284 25.0087L42.9683 24.9133H42.8989L42.8673 24.9737V27.6012L42.921 27.6744L43.2366 27.7666L43.325 27.7348C43.546 27.3753 43.7701 27.0222 43.991 26.6723L44.2341 26.2747V28.0274L44.2877 28.1006L44.6033 28.2088H44.6254H44.6728L44.7044 28.1451V25.524L44.6539 25.4508L44.3382 25.3459Z" fill="#E7E3CC"/>
<path d="M38.501 46.3499C38.3874 46.0604 37.9992 45.9682 37.5541 45.5324C37.3363 45.3066 37.3931 45.103 37.3174 44.8962C37.0937 44.1619 36.8043 43.4496 36.4525 42.7681C36.3894 42.66 36.32 42.5518 36.2442 42.45C36.0359 42.1542 35.8718 42.0747 35.8497 41.8138C35.7929 41.2158 35.4898 40.8436 35.452 40.6432C35.4141 40.4428 35.6698 40.1947 35.5814 40.0229C35.0969 39.066 34.7068 38.0634 34.4167 37.0296C34.3157 36.6702 33.7191 36.4189 33.7191 36.1008L33.6655 35.9354C33.5424 35.7286 33.2393 35.595 33.2425 35.5632C33.3399 35.1093 33.3399 34.6397 33.2425 34.1858C33.1036 33.5687 32.3556 32.9579 31.2035 32.1373C31.2445 31.8192 31.3992 31.0144 31.3266 30.8044L31.2098 30.6072C31.1782 30.3579 31.0943 30.1183 30.9636 29.9042C30.8437 29.7674 30.7584 29.831 30.5501 29.8342C30.4029 29.8416 30.2562 29.811 30.124 29.7452C29.8557 29.567 29.5117 29.5829 29.1234 30.1205C29.0603 30.2096 28.9593 30.2318 28.9183 30.3336C28.8391 30.5471 28.7851 30.7692 28.7573 30.9953C28.71 31.3802 28.7573 31.4502 28.7289 31.5647C28.2807 31.5456 27.6904 31.5647 27.5168 31.6919C26.3048 32.5858 25.6009 34.2176 25.7872 34.3798C25.9734 34.5421 26.0775 35.5886 26.1501 36.0849C26.1501 36.0849 25.8566 36.1517 25.9166 36.333L26.0365 36.6924L25.9892 36.9374C26.0271 37.1514 26.0996 37.3577 26.2038 37.5481C26.2669 37.6531 26.3679 37.6308 26.3837 37.6849C26.7909 39.1418 27.561 39.1354 27.561 39.1354V39.708C27.2738 40.0834 26.8193 40.7577 26.8161 41.0186L26.8445 41.1045C26.9645 41.2253 27.0497 41.2731 27.0339 41.3653C26.9814 41.4565 26.905 41.5314 26.813 41.5816C26.7896 41.6113 26.7727 41.6456 26.7635 41.6823C26.7542 41.719 26.7528 41.7573 26.7594 41.7946C26.766 41.8319 26.7803 41.8674 26.8015 41.8987C26.8228 41.9299 26.8503 41.9563 26.8824 41.9761C27.0874 42.0351 27.3018 42.0534 27.5137 42.0301L27.2643 47.5174C27.2643 47.5905 27.2233 47.7432 27.0876 47.6223C26.8657 47.3978 26.6679 47.1505 26.4973 46.8843C26.4596 46.8194 26.4078 46.764 26.3458 46.7221C26.2669 46.6871 26.2322 46.7762 26.2164 46.878C26.1796 47.1461 26.1979 47.4189 26.2701 47.6796L26.3269 47.7877C26.5459 48.0692 26.8407 48.2812 27.176 48.3985C27.5295 48.5257 27.5453 48.2999 27.5673 47.6541C27.5673 47.336 27.7157 44.4381 27.8514 41.9729L27.9872 41.9252C28.4548 41.6241 28.8435 41.2138 29.1203 40.7291C29.2497 41.0981 29.2434 41.9124 29.4107 42.1128C29.6411 42.3896 29.7263 42.2942 29.9283 42.8381C29.9757 42.9685 30.4491 43.1371 30.6511 43.4743C31.0993 44.2377 32.6491 45.1443 33.1289 45.3447C33.293 45.4115 33.4856 45.2398 33.5708 45.472C33.6876 45.7901 33.7318 45.771 33.8864 45.8283C34.0411 45.8855 34.0474 46.3404 34.3157 46.5376C34.584 46.7348 34.8838 46.633 35.13 46.7412C35.3762 46.8493 35.654 47.2056 35.695 47.1802C35.736 47.1547 35.5372 46.8303 35.4236 46.544C35.3872 46.4215 35.3872 46.291 35.4236 46.1686C35.5593 45.4242 34.7039 45.0107 34.5871 44.6831C34.3883 44.136 34.2715 44.4413 34.1105 44.1837C33.6307 43.487 33.252 42.7204 32.6712 42.2751C32.5355 42.1733 32.3903 42.1828 32.3556 42.1351C32.2674 41.9047 32.1619 41.6813 32.0399 41.4671C31.9831 41.3812 32.1409 41.0695 32.0147 40.8818C31.9284 40.7546 31.8843 40.6032 31.8884 40.4492C31.8695 39.7621 31.961 40.1883 32.1188 40.5128C32.2995 40.9433 32.5204 41.3555 32.7785 41.7439C32.8637 41.8297 33.0216 41.712 33.0942 41.8234C33.3672 42.2887 33.7274 42.696 34.1547 43.0226C34.262 43.1053 34.322 43.4393 34.6692 43.9387C35.3825 44.963 36.1274 45.4465 36.3294 45.9841C36.3733 46.1093 36.4373 46.2265 36.5188 46.3308C36.664 46.4994 36.7997 46.4963 36.9355 46.6967C37.1312 46.9829 37.3837 47.2565 37.5951 47.2788C37.8066 47.3011 37.8918 47.2088 38.056 47.2342C38.2201 47.2597 38.722 47.6446 38.7567 47.6255C38.7914 47.6064 38.4411 47.0625 38.4411 46.9225C38.4726 46.7348 38.5736 46.5217 38.501 46.3499ZM27.8735 36.6288C27.7946 36.5207 27.8262 36.1548 27.782 36.088L27.6494 35.9036C27.6714 35.5483 27.7199 35.1953 27.7946 34.8475C27.8262 35.4837 28.7415 37.7485 28.7415 37.7485C28.7415 37.7485 27.9493 36.7338 27.8735 36.6288Z" fill="#E7E3CC"/>
</svg>
