<svg width="159" height="53" viewBox="0 0 159 53" fill="none" xmlns="http://www.w3.org/2000/svg">
<g clip-path="url(#clip0_292_716)">
<path d="M0.0401306 2.00586V51.4184H9.7896V11.0379H148.402V51.4184H158.151V2.00586H0.0401306Z" fill="#3D3D3D"/>
<path d="M77.4605 29.0645H72.9132C71.1021 29.0645 69.6377 30.4946 69.6377 32.2633V48.1822C69.6377 50.0638 71.025 51.381 72.9132 51.381H77.4605C79.2716 51.381 80.7359 49.9509 80.7359 48.1822V43.9673H77.2292V47.5048C77.2292 47.8811 76.9209 48.2198 76.4971 48.2198H73.9537C73.5683 48.2198 73.2216 47.9187 73.2216 47.5048V32.8654C73.2216 32.4891 73.5299 32.1503 73.9537 32.1503H76.4971C76.8824 32.1503 77.2292 32.4514 77.2292 32.8654V36.6664H80.7359V32.2633C80.7744 30.4946 79.3102 29.0645 77.4605 29.0645Z" fill="#3D3D3D"/>
<path d="M92.4898 33.5039H82.1623V36.6651H85.5533V51.4174H89.0601V36.6651H92.4898V33.5039Z" fill="#3D3D3D"/>
<path d="M35.5708 43.552H35.2241V33.5039H31.7173V51.4174H34.8002L38.6922 41.8209H39.0391V51.4174H42.5457V33.5039H39.4244L35.5708 43.552Z" fill="#3D3D3D"/>
<path d="M20.3842 29.0645L16.0683 51.4187H19.8062L22.7734 32.7148H23.0817L26.1646 51.4187H29.9025L25.6635 29.0645H20.3842Z" fill="#3D3D3D"/>
<path d="M96.0328 33.5039L92.1793 51.4174H95.7246L96.1484 49.1218H100.85L101.274 51.4174H104.819L101.004 33.5039H96.0328ZM96.7265 46.1488L98.345 36.6275H98.6918L100.31 46.1488H96.7265Z" fill="#3D3D3D"/>
<path d="M56.0332 33.5039L52.1797 51.4174H55.725L56.1489 49.1218H60.8502L61.2741 51.4174H64.8194L61.0044 33.5039H56.0332ZM56.727 46.1488L58.3454 36.6275H58.6923L60.3107 46.1488H56.727Z" fill="#3D3D3D"/>
<path d="M53.144 33.5039H45.1672V51.4174H48.7125V36.6651H53.144V33.5039Z" fill="#3D3D3D"/>
<path d="M126.242 33.5039H122.35C120.539 33.5039 119.075 34.934 119.075 36.7028V48.181C119.075 49.9497 120.539 51.3798 122.35 51.3798H126.242C128.054 51.3798 129.518 49.9497 129.518 48.181V36.7404C129.556 34.934 128.054 33.5039 126.242 33.5039ZM126.011 47.5411C126.011 47.9175 125.703 48.2562 125.279 48.2562H123.276C122.89 48.2562 122.543 47.9551 122.543 47.5411V37.3802C122.543 37.0038 122.852 36.6651 123.276 36.6651H125.279C125.665 36.6651 126.011 37.0038 126.011 37.3802V47.5411Z" fill="#3D3D3D"/>
<path d="M143.277 33.5039H139.461L136.302 41.1059H135.685V33.5039H132.178V51.4174H135.685V44.079H136.417L139.654 51.4174H143.469L139.384 42.4231L143.277 33.5039Z" fill="#3D3D3D"/>
<path d="M114.414 42.6488V42.3101C115.763 42.0467 116.803 40.8424 116.803 39.45V36.7028C116.803 34.934 115.339 33.5039 113.528 33.5039H106.707V51.4174H113.721C115.531 51.4174 116.996 49.9874 116.996 48.2186V45.6595C116.958 44.1918 115.84 42.9499 114.414 42.6488ZM110.175 36.6651H112.526C112.91 36.6651 113.257 36.9662 113.257 37.3802V40.4285C113.257 40.8048 112.95 41.1435 112.526 41.1435H110.175V36.6651ZM113.412 47.5411C113.412 47.9175 113.104 48.2562 112.68 48.2562H110.175V44.079H112.68C113.065 44.079 113.412 44.3799 113.412 44.7939V47.5411Z" fill="#3D3D3D"/>
</g>
<defs>
<clipPath id="clip0_292_716">
<rect width="158.111" height="51.6901" fill="white" transform="translate(0.0401306 0.867188)"/>
</clipPath>
</defs>
</svg>
