<svg width="131" height="134" viewBox="0 0 131 134" fill="none" xmlns="http://www.w3.org/2000/svg">
<path d="M110.384 54.4834V33.8535C109.285 33.3806 108.186 32.927 107.077 32.4927V40.402C106.168 41.8883 105.254 43.3891 104.34 44.8996V31.4552C103.153 31.0257 101.967 30.6155 100.771 30.2246V50.8545C101.918 51.2309 103.066 51.6218 104.204 52.0368C105.166 50.3864 106.124 48.7505 107.082 47.1242V53.1226C108.191 53.5569 109.295 54.0105 110.389 54.4834H110.384Z" fill="#3D3D3D"/>
<path d="M18.366 61.938C18.9932 61.1225 19.6253 60.3166 20.2526 59.5155V46.3896C19.0905 47.21 17.9381 48.0497 16.7905 48.9135V59.1102C15.7742 59.6024 14.7628 60.1091 13.7612 60.6351V35.2278C14.7677 34.7018 15.7742 34.1951 16.7905 33.7029V37.9398C17.9381 37.0808 19.0905 36.2363 20.2526 35.416V30.1029C19.6156 29.8568 18.9786 29.6203 18.3465 29.3887C15.6527 30.6434 12.9978 32.009 10.3866 33.4857V64.4764C10.9993 64.6549 11.6168 64.8335 12.2344 65.0217C14.2523 63.9262 16.2945 62.9032 18.3611 61.9429L18.366 61.938Z" fill="#3D3D3D"/>
<path d="M43.1744 47.6182V26.9883C39.8534 27.6687 36.5517 28.5036 33.289 29.488V50.1179C34.49 49.756 35.7008 49.4133 36.9116 49.09V32.036C37.7771 31.8043 38.6426 31.5872 39.513 31.3797V48.4337C40.7286 48.1393 41.9491 47.8691 43.1744 47.6182Z" fill="#3D3D3D"/>
<path d="M27.8917 43.3709V48.3414C27.0456 48.6454 26.1995 48.959 25.3583 49.2824V46.5703L21.8379 49.07V52.6941C22.4797 52.9451 23.1216 53.2057 23.7634 53.4711C24.2205 53.2925 24.6776 53.1188 25.1395 52.9499C26.5885 52.3805 28.0473 51.8448 29.5109 51.3381C30.1624 50.5853 30.814 49.8421 31.4705 49.1038C31.4656 42.758 31.4559 36.4122 31.451 30.0664C30.2548 30.4525 29.0587 30.853 27.8722 31.2777V39.8047C27.0261 40.1087 26.1801 40.4224 25.3389 40.7457V32.2187C24.1573 32.6723 22.9854 33.15 21.8184 33.6423V44.1671C22.4457 44.4229 23.0778 44.6786 23.7099 44.9441C25.0957 44.3891 26.4913 43.8679 27.8917 43.3709Z" fill="#3D3D3D"/>
<path d="M59.4005 42.1384C61.5303 40.5218 63.6649 38.9631 65.7996 37.4671V26.3342C65.2161 25.7841 64.6326 25.2436 64.0442 24.7031C61.2531 24.7466 58.4621 24.8962 55.6807 25.1471V45.777C56.9207 45.666 58.1606 45.5743 59.4054 45.5019V42.1384H59.4005ZM59.4005 28.4527C60.2758 28.4044 61.151 28.3658 62.0263 28.3321V36.2752C61.151 36.9411 60.2758 37.6215 59.4005 38.3116V28.4527Z" fill="#3D3D3D"/>
<path d="M89.4847 27.1895V47.8193C90.7052 48.0799 91.9257 48.3646 93.1413 48.6687V45.1845C95.2273 44.2483 97.2987 43.37 99.3556 42.5593V31.4264C98.7915 30.7026 98.2275 29.9835 97.6586 29.2693C94.955 28.4731 92.2272 27.783 89.4847 27.1943V27.1895ZM95.699 40.2237C94.8481 40.629 93.9971 41.0441 93.1413 41.4687V31.6098C93.9971 31.8221 94.8481 32.0489 95.699 32.2806V40.2237Z" fill="#3D3D3D"/>
<path d="M53.7649 28.9137V25.3379C50.862 25.6516 47.9688 26.0762 45.0902 26.6119V47.2418C47.9688 46.7013 50.862 46.2766 53.7649 45.9678V42.3919C52.1019 42.5705 50.439 42.7876 48.7808 43.0434V38.0971C50.0111 37.9089 51.2461 37.74 52.4812 37.5952C52.8216 36.3598 53.1668 35.1292 53.5072 33.8987C51.9269 34.0724 50.3514 34.2799 48.7808 34.5212V29.5749C50.439 29.3239 52.1019 29.1068 53.7649 28.9234V28.9137Z" fill="#3D3D3D"/>
<path d="M87.778 30.4112V26.8353C84.9042 26.2659 82.0159 25.8123 79.1179 25.4648V46.0947C82.0159 46.4374 84.9091 46.8958 87.778 47.4652V43.8894C86.1296 43.5612 84.4763 43.2717 82.8231 43.0208V38.0744C84.0533 38.2626 85.2835 38.4701 86.5089 38.6969C86.8492 37.5677 87.1847 36.4385 87.5251 35.3141C85.9643 35.0101 84.3937 34.735 82.8231 34.4986V29.5522C84.4812 29.8032 86.1345 30.0927 87.778 30.4208V30.4112Z" fill="#3D3D3D"/>
<path d="M75.539 45.7361C76.2246 45.2632 76.9103 44.7999 77.5959 44.3414V38.0198C76.3559 38.1983 75.116 38.3962 73.8761 38.6133V42.0299C72.9911 41.9672 72.1013 41.9141 71.2114 41.8707V28.3973C72.1013 28.4407 72.9862 28.4938 73.8761 28.5566V32.1807C75.116 31.9635 76.3608 31.7657 77.5959 31.5871V26.882C76.9103 26.2837 76.2295 25.6949 75.5439 25.111C73.5406 24.9373 71.5324 24.8166 69.5241 24.7539C68.8434 25.2558 68.1627 25.7673 67.4819 26.2788V43.7431C68.1675 44.2835 68.858 44.8288 69.5436 45.3838C71.5469 45.4514 73.5454 45.5672 75.539 45.7409V45.7361Z" fill="#3D3D3D"/>
<path d="M111.779 30.2528V50.7717C112.441 51.5487 113.092 52.3449 113.744 53.1363C113.092 55.8291 112.436 58.5266 111.779 61.2338C112.883 61.7261 113.977 62.2376 115.071 62.7684C115.582 60.7271 116.092 58.6907 116.603 56.6543C117.045 57.2092 117.488 57.7497 117.93 58.3095V64.2065C119.063 64.8 120.191 65.4081 121.305 66.0402V33.4764C118.723 32.0142 116.097 30.663 113.432 29.418C112.883 29.6882 112.334 29.9681 111.779 30.248V30.2528ZM115.275 33.8817C116.165 34.3161 117.05 34.7649 117.93 35.2233V53.6527C117.05 52.5669 116.165 51.4907 115.275 50.4291V33.8817Z" fill="#3D3D3D"/>
<path d="M41.6622 21.1263C41.9685 21.0539 42.27 20.9863 42.5763 20.9188V19.9874C42.27 20.055 41.9685 20.1225 41.6622 20.1949V14.3027C41.4045 14.3606 41.1419 14.4234 40.8842 14.4861C40.4465 14.8915 40.0089 15.2968 39.5713 15.707L39.5567 15.7215V16.426C39.7901 16.3681 40.0284 16.3102 40.2618 16.2523V20.5279C39.9603 20.6003 39.6588 20.6775 39.3622 20.7547V21.6861C39.6637 21.6089 39.9603 21.5365 40.2618 21.4593C40.7286 21.3434 41.1954 21.2324 41.6622 21.1263Z" fill="#3D3D3D"/>
<path d="M44.5942 20.4922C45.6688 20.2751 46.7434 20.0772 47.8229 19.889C48.0466 19.6671 48.2751 19.4499 48.4988 19.2327V13.495C48.2751 13.355 48.0563 13.2103 47.8326 13.0703H47.8229C46.7434 13.2489 45.6688 13.4467 44.5942 13.6639C44.3705 13.8907 44.1469 14.1175 43.9232 14.3443V17.3507C44.142 17.481 44.3657 17.6161 44.5845 17.7512H44.5942C45.4208 17.592 46.2523 17.4328 47.0838 17.2832V19.0831C46.476 19.1893 45.8633 19.3051 45.2555 19.4258V18.3979C44.8082 18.4848 44.3657 18.5764 43.9183 18.6681V20.0821C44.1371 20.2124 44.3608 20.3475 44.5796 20.4826H44.5894L44.5942 20.4922ZM45.3285 16.6896V14.4649C45.912 14.3491 46.4955 14.243 47.0838 14.1368V16.3663C46.5003 16.4724 45.912 16.5786 45.3285 16.6944V16.6896Z" fill="#3D3D3D"/>
<path d="M61.3066 17.5292C60.2369 17.5727 59.172 17.6354 58.1022 17.7126V15.8451C58.9435 15.7872 59.7847 15.7341 60.621 15.6907C60.8495 15.4976 61.0781 15.3046 61.3066 15.1164V12.1775C61.0829 12.0086 60.8593 11.8397 60.6356 11.6757C60.6356 11.6757 60.6259 11.6708 60.6259 11.666C59.5367 11.7191 58.4475 11.7867 57.3583 11.8735C57.1297 12.0714 56.9012 12.2741 56.6775 12.4719V13.8714C57.1297 13.8328 57.582 13.799 58.0293 13.7652V12.7518C58.6468 12.7084 59.2595 12.6649 59.8771 12.6312V14.8172C59.0358 14.8655 58.1946 14.9234 57.3583 14.9861C57.1297 15.184 56.9012 15.3866 56.6775 15.5845V18.7453C58.2189 18.615 59.7652 18.5137 61.3115 18.451V17.5196L61.3066 17.5292Z" fill="#3D3D3D"/>
<path d="M73.5844 16.9813C73.1079 16.9475 72.6314 16.9137 72.1548 16.8848V17.6183C71.5616 17.5845 70.9684 17.5556 70.38 17.5266V15.6591C71.2212 15.6928 72.0624 15.7411 72.9036 15.7942C73.1322 15.6301 73.3607 15.4612 73.5844 15.2971C73.5844 14.3175 73.5844 13.3379 73.5844 12.3583C73.3607 12.1653 73.1371 11.9722 72.9134 11.7792L72.9036 11.7695C71.8145 11.6972 70.7253 11.6441 69.6361 11.6055C69.4075 11.7792 69.179 11.9529 68.9504 12.1266V13.5309C69.4027 13.5454 69.8549 13.5599 70.3071 13.5792V12.5658C70.9246 12.5899 71.5422 12.6237 72.1548 12.6575V14.8435C71.3136 14.7953 70.4724 14.7567 69.6312 14.7229C69.4027 14.8966 69.1741 15.0703 68.9456 15.2441V18.4049C70.4919 18.4483 72.0381 18.5255 73.5795 18.6413C73.5795 18.0864 73.5795 17.5314 73.5795 16.9765L73.5844 16.9813Z" fill="#3D3D3D"/>
<path d="M86.1976 18.6477C85.726 18.556 85.2543 18.4691 84.7827 18.3823V19.1158C84.1992 19.0096 83.6108 18.9083 83.0273 18.8166V16.9491C83.8588 17.0842 84.6903 17.2289 85.5218 17.3834C85.7454 17.2434 85.974 17.1083 86.1976 16.9684V14.0295C85.974 13.8075 85.7552 13.5855 85.5363 13.3684L85.5266 13.3587C84.452 13.156 83.3725 12.9727 82.2882 12.8086C82.0645 12.9534 81.836 13.103 81.6123 13.2477V14.652C82.0597 14.7196 82.507 14.7871 82.9592 14.8595V13.8461C83.5719 13.9426 84.1797 14.0488 84.7875 14.1598V16.3458C83.956 16.1962 83.1246 16.0563 82.2882 15.9308C82.0645 16.0756 81.836 16.2252 81.6123 16.37V19.5308C83.144 19.7576 84.6757 20.0182 86.2025 20.3126V18.6477H86.1976Z" fill="#3D3D3D"/>
<path d="M92.3341 20.018C91.8673 19.8974 91.4005 19.7815 90.9337 19.6706V20.4041C90.3551 20.2641 89.7716 20.129 89.1929 19.9987C89.1929 19.3762 89.1929 18.7537 89.1929 18.1312C90.0195 18.3145 90.8462 18.5076 91.6679 18.7151C91.8916 18.5896 92.1153 18.4641 92.339 18.3387V15.3998C92.1201 15.1682 91.9013 14.9317 91.6825 14.7001L91.6728 14.6904C90.6079 14.425 89.5382 14.1789 88.4684 13.9473C88.2447 14.0824 88.0211 14.2127 87.7974 14.3478V15.7521C88.2447 15.8438 88.6872 15.9403 89.1297 16.0416V15.0282C89.7375 15.1633 90.3405 15.3033 90.9434 15.4481V17.6341C90.1217 17.4362 89.295 17.248 88.4684 17.0695C88.2447 17.2046 88.0211 17.3349 87.7974 17.47V20.6309C89.3194 20.9494 90.8364 21.3016 92.3438 21.6829V20.018H92.3341Z" fill="#3D3D3D"/>
<path d="M51.6351 13.419C52.2429 13.3369 52.8556 13.2597 53.4634 13.1922C52.6173 15.2334 51.7761 17.2892 50.9349 19.3546C50.9251 19.3739 50.9203 19.3932 50.9106 19.4125C51.4017 19.3449 51.8928 19.2774 52.379 19.2147C53.2154 17.2216 54.0517 15.2334 54.8929 13.2597C54.8929 12.8737 54.8929 12.4876 54.8929 12.1016C53.546 12.2415 52.1991 12.4056 50.8522 12.5938C50.6626 12.8109 50.4729 13.0233 50.2833 13.2404V14.6206C50.7306 14.553 51.178 14.4903 51.6302 14.4324V13.419H51.6351Z" fill="#3D3D3D"/>
<path d="M66.7915 14.1503C65.7072 14.1406 64.6228 14.1503 63.5385 14.1696V15.1733C64.6228 15.1492 65.7072 15.1444 66.7915 15.154V14.1503Z" fill="#3D3D3D"/>
<path d="M76.001 18.8489C77.0902 18.9503 78.1746 19.0709 79.2589 19.206C79.4874 19.0516 79.7111 18.902 79.9396 18.7524V13.0147C79.716 12.8072 79.4923 12.5996 79.2686 12.3921L79.2589 12.3825C78.1746 12.2474 77.0902 12.1267 76.001 12.0254C75.7725 12.1846 75.5488 12.3439 75.3203 12.508V18.2457C75.544 18.4436 75.7676 18.6414 75.9913 18.8441C75.9913 18.8441 75.9962 18.8489 76.001 18.8538V18.8489ZM76.745 13.0291C77.3333 13.087 77.9266 13.1546 78.5149 13.2222V18.183C77.9266 18.1154 77.3333 18.0479 76.745 17.99V13.0291Z" fill="#3D3D3D"/>
<path d="M88.3663 67.8027H78.4857V69.8151H88.3663V67.8027Z" fill="#3D3D3D"/>
<path d="M94.4833 107.385H93.8658H72.996H72.3785L71.8971 107.004L68.3669 104.186V105.706L72.996 109.402H93.8658L98.49 105.706V104.186L94.9647 107.004L94.4833 107.385Z" fill="#3D3D3D"/>
<path d="M72.9473 57.7617L68.3669 61.4148V101.951L72.996 105.647H93.8658L98.49 101.951V61.4196L93.8706 57.7617H72.9473ZM90.1168 97.3422H76.7352V66.0619H90.1168V97.3422Z" fill="#3D3D3D"/>
<path d="M59.4589 107.385H58.8365H37.9667H37.3492L36.8726 107.004L33.3376 104.186V105.706L37.9667 109.402H58.8365L63.4607 105.706V104.186L59.9354 107.004L59.4589 107.385Z" fill="#3D3D3D"/>
<path d="M62.7702 67.8027H43.4612V69.8151H62.7702V67.8027Z" fill="#3D3D3D"/>
<path d="M53.3419 87.5428V85.5256H37.9716H37.354L36.8726 85.1444L33.3376 82.3262V83.8511L37.9716 87.5428H53.3419Z" fill="#3D3D3D"/>
<path d="M41.7059 75.4817V66.0668H62.7654V57.7617H37.9229H33.3376V80.0951L37.9716 83.7868H55.0924V97.347H41.7059V90.7116H33.3376V101.951L37.9667 105.647H58.8365L63.4607 101.951V79.183L58.8365 75.4817H41.7059Z" fill="#3D3D3D"/>
<path d="M18.298 71.6222L26.5594 73.7021V104.553L27.8285 105.175V74.0206V71.9117V69.6388L18.298 67.1777V71.6222Z" fill="#3D3D3D"/>
<path d="M103.567 71.9117V74.0206V105.175L104.84 104.553V73.7021L113.102 71.6222V67.1777L103.567 69.6388V71.9117Z" fill="#3D3D3D"/>
<path d="M20.2527 63.1582C17.2136 64.5046 14.2232 65.9957 11.2862 67.6268L13.1729 68.3893C16.1293 66.8402 19.6449 65.1367 22.3095 64.0075L20.2527 63.1582Z" fill="#3D3D3D"/>
<path d="M109.591 64.0306C111.998 65.1067 116.564 67.3362 118.912 68.5909L120.78 67.8333C117.833 66.1877 114.828 64.6773 111.774 63.3164L109.591 64.0306Z" fill="#3D3D3D"/>
<path d="M110.126 56.2507C82.084 44.2878 50.3271 44.2636 22.2706 56.1735L24.4489 57.0566C51.2364 46.3483 81.1796 46.3725 107.952 57.1338L110.131 56.2507H110.126Z" fill="#3D3D3D"/>
<path d="M98.665 15.0121C97.8044 14.766 96.9437 14.5295 96.083 14.3027V22.2845C96.9486 22.5113 97.8092 22.7477 98.665 22.9938V15.0121Z" fill="#3D3D3D"/>
<path d="M105.205 25.0694C106.051 25.3638 106.897 25.6726 107.738 25.9863V17.9998C106.897 17.6861 106.051 17.3772 105.205 17.0829C103.041 16.3252 100.863 15.6352 98.6651 15.0078V22.9944C100.858 23.6217 103.041 24.3118 105.205 25.0694ZM103.221 21.8169C103.25 21.9375 103.328 22.2464 103.328 22.2464C103.328 22.2464 102.249 21.759 102.21 21.7397C102.142 21.7252 102.113 21.7735 102.113 21.7735C102.122 22.2415 102.137 22.7048 102.147 23.1729L101.714 23.0378C101.733 22.5842 101.753 22.1354 101.772 21.6818C101.772 21.6818 101.753 21.5949 101.68 21.5708C101.626 21.5563 100.552 21.3584 100.552 21.3633C100.552 21.3633 100.63 21.122 100.654 21.0399C100.683 20.9531 100.625 20.8566 100.625 20.8566C100.207 20.3692 99.7835 19.8818 99.3604 19.3944C99.3604 19.3944 99.5744 19.3558 99.6473 19.3365C99.7251 19.3172 99.6716 19.1386 99.6716 19.1386C99.6036 18.8587 99.5403 18.5837 99.4723 18.3038C99.4723 18.3038 100.051 18.6126 100.182 18.6705C100.313 18.7333 100.318 18.6126 100.318 18.6126C100.348 18.5161 100.377 18.4148 100.406 18.3182C100.586 18.5885 100.766 18.8539 100.95 19.1241C100.95 19.1241 101.033 19.2834 101.121 19.2737C101.194 19.2689 101.174 19.1048 101.174 19.1048C101.091 18.6174 101.009 18.13 100.931 17.6426C100.931 17.6426 101.111 17.7971 101.276 17.937C101.437 18.077 101.495 17.9515 101.495 17.9515L101.938 17.2083C102.093 17.5606 102.249 17.9129 102.404 18.27C102.404 18.27 102.477 18.3858 102.599 18.3569C102.701 18.3327 102.944 18.2796 102.944 18.2796C102.866 18.7091 102.784 19.1386 102.706 19.5729C102.706 19.5729 102.667 19.6936 102.74 19.7756C102.823 19.848 102.9 19.766 102.9 19.766C103.085 19.6067 103.275 19.4426 103.46 19.2834C103.489 19.404 103.518 19.5247 103.552 19.6405C103.552 19.6405 103.586 19.7853 103.732 19.7804C103.737 19.7804 104.398 19.8625 104.398 19.8625C104.325 20.1086 104.252 20.3547 104.184 20.6008C104.184 20.6008 104.155 20.7118 104.213 20.7649C104.272 20.818 104.505 21.0206 104.505 21.0206C104.101 21.233 103.693 21.4501 103.284 21.6673C103.284 21.6673 103.192 21.6962 103.221 21.8072V21.8169Z" fill="#3D3D3D"/>
<path d="M29.253 18.0534L29.1558 18.4105L29.4281 18.1209L29.7685 18.2416L29.6469 17.8845L29.6955 17.8265C29.7685 17.7445 29.8463 17.6576 29.9192 17.5756C29.8268 17.6046 29.7296 17.6383 29.6372 17.6673L29.574 17.6866L29.5497 17.6239C29.5156 17.537 29.4816 17.4501 29.4475 17.3633L29.3211 17.7686L28.9273 17.9134C29.0148 17.9472 29.0974 17.9858 29.185 18.0244L29.2385 18.0485L29.253 18.0534Z" fill="#3D3D3D"/>
<path d="M35.6327 14.4121C31.699 15.44 27.809 16.6754 23.9725 18.1134V26.1048C27.809 24.6667 31.699 23.4314 35.6327 22.4035V14.4121ZM29.1462 17.5971L29.4428 16.6368L29.5157 16.825C29.5546 16.9311 29.5984 17.0373 29.6373 17.1435C29.6713 17.2303 29.7054 17.3124 29.7345 17.3992C29.9631 17.322 30.1916 17.2496 30.4153 17.1772L30.6536 17.1L30.4834 17.2882C30.3667 17.4185 30.25 17.5488 30.1333 17.6791L29.9145 17.9204C29.9825 18.1231 30.0506 18.3306 30.1187 18.5333L30.1624 18.6684L29.4622 18.4174L29.3942 18.485C29.224 18.6684 29.0489 18.8469 28.8788 19.0303L28.694 19.2282L28.7621 18.9627C28.8301 18.7118 28.8933 18.4657 28.9614 18.2148L28.2612 17.9252L29.1316 17.5971H29.1462ZM31.6163 22.1863C31.5677 22.389 31.451 22.5482 31.2711 22.6544L31.2371 22.6737L31.0863 22.5772C30.9842 22.5145 30.887 22.4517 30.7848 22.389C30.1138 22.9343 29.3261 23.0308 28.4411 22.6689C28.4606 22.7123 28.4654 22.7558 28.4509 22.7992C28.4265 22.8764 28.3487 22.9343 28.2077 22.9826C27.9111 23.6485 27.7847 23.7981 27.7118 23.8464C27.6048 23.9187 27.527 23.9525 27.4638 23.9525C27.4492 23.9525 27.4395 23.9525 27.4249 23.9525C27.2936 23.9236 27.313 23.7354 27.3179 23.663C27.3276 23.5713 27.4054 23.3831 27.95 22.8474C27.9111 22.7123 27.916 22.6158 27.9695 22.5531C28.0132 22.5048 28.0813 22.4807 28.1737 22.4903C28.2175 22.4083 28.2564 22.3311 28.2953 22.2491L28.3196 22.2008L28.3731 22.2153C29.0635 22.389 29.6713 22.307 30.1916 21.974C29.7443 21.6555 29.2969 21.337 28.8496 21.0185L28.7669 20.9606L28.7183 21.0282C28.6016 21.1826 28.4898 21.3322 28.3731 21.4866L28.3342 21.5397L28.2807 21.5011C28.1786 21.4239 28.0764 21.3515 27.9743 21.2743L27.8576 21.1874L27.8965 21.1343C28.1931 20.7241 28.4898 20.3139 28.7864 19.9038L28.801 19.8796H28.8253C28.9322 19.8555 29.0441 19.8314 29.1511 19.8121C29.2629 19.7879 29.3796 19.7686 29.4914 19.7445L29.6567 19.7156L29.5644 19.8507C29.4039 20.0823 29.2434 20.3139 29.083 20.5456C29.6033 20.8641 30.1187 21.1874 30.639 21.5107C30.9064 20.9268 30.9599 20.4298 30.7897 20.0244C30.6049 19.5901 30.1624 19.2475 29.4622 19.011L29.0635 18.8759H29.4866C30.5952 18.8904 31.2565 19.2523 31.5191 19.9858C31.6893 20.6759 31.592 21.3032 31.2225 21.863C31.344 21.945 31.4607 22.0222 31.5774 22.1043L31.6163 22.1284V22.1767V22.1863Z" fill="#3D3D3D"/>
<path d="M129.342 26.0903L127.908 25.2507L127.105 24.7777H127.096C123.818 22.8909 120.371 21.1199 116.812 19.4984V11.8931L114.73 11.0197L114.016 10.7205C98.5773 4.24437 82.3803 0.962891 65.8868 0.962891C49.3932 0.962891 33.1963 4.24437 17.753 10.7205L17.0382 11.0197L14.9571 11.8931V19.4984C11.1012 21.255 7.38135 23.1853 3.86091 25.2507L2.42648 26.0903L0.753784 27.07V74.9168L3.24338 75.6069L14.9522 78.845V108.291L16.834 109.223L64.3502 132.792L65.877 133.549L67.4039 132.787L114.93 108.996L116.802 108.06V79.1007L128.589 75.5297L131 74.801V27.07L129.332 26.0903H129.342ZM62.8331 124.631H61.3112V118.85H59.7065V124.067L59.0452 124.597V124.631H57.64V123.594H58.1846V118.377L58.8896 117.813H58.914L62.8283 117.822V124.631H62.8331ZM68.4153 118.85H65.6825V120.703H68.0457V121.741H65.6825V123.589H68.4153V124.631H64.1654V117.813H64.2287L68.4153 117.822V118.855V118.85ZM74.4788 118.85H72.845V124.626H71.3376V118.85H69.7038V117.813H74.4788V118.85ZM125.564 70.7908L112.241 74.8251L111.074 75.1774V104.542L80.6055 119.796L65.8819 112.499L51.0854 119.83L20.7046 104.759V74.8107L18.3706 74.164L6.21435 70.8053V30.1536L6.64225 29.9026C10.8289 27.4464 15.1419 25.2844 19.5327 23.3879V23.3783C19.9217 23.2094 20.3107 23.0357 20.6997 22.8764V15.6716C49.8697 3.66046 81.9038 3.66046 111.069 15.6716V22.8716C111.458 23.0357 111.847 23.2046 112.236 23.3735V23.3831C116.632 25.2796 120.94 27.4415 125.131 29.8978L125.559 30.1488V70.7908H125.564Z" fill="#3D3D3D"/>
</svg>
