<svg width="126" height="131" viewBox="0 0 126 131" fill="none" xmlns="http://www.w3.org/2000/svg">
<path d="M103.954 56.0077L104.232 53.2902C110.918 51.841 117.303 49.231 123.101 45.5769C123.101 45.5769 127.269 39.1682 123.631 31.9194C118.272 38.548 111.507 43.8824 103.834 47.5307L103.784 47.2952C103.661 46.3442 103.486 45.4008 103.26 44.4695C103.828 44.1259 114.803 37.4181 119.198 29.1956C119.198 29.1956 120.708 20.6167 114.146 15.5509C111.747 24.8871 106.133 32.7849 100.885 38.519C100.34 37.5723 99.6848 36.6942 98.9338 35.9034C97.9802 39.8237 95.3911 44.1768 90.876 47.7407L90.7876 47.7088C86.3198 46.229 81.7416 45.1117 77.097 44.3677C77.6093 43.1389 78.3222 42.0053 79.2061 41.0138C79.2061 41.0138 84.7632 40.2819 84.8895 42.5412C85.158 42.284 85.3516 41.9577 85.4496 41.5977C85.5475 41.2377 85.546 40.8575 85.4452 40.4983C87.7691 41.8984 91.5959 42.4075 92.6126 38.6845C90.9265 41.7393 86.2977 37.4817 82.2941 37.1953L82.6477 36.858L83.0771 36.4507H88.2743L89.4994 37.8635L94.2355 33.6505L91.6401 30.6466H86.7019L89.2278 28.1646H73.8827C71.5335 28.1646 66.4185 28.1073 66.81 25.288C65.086 28.6992 67.2268 30.9775 70.7252 31.3467C69.7969 32.5686 66.3048 34.0259 65.5344 32.3585C65.3765 34.6942 67.7509 34.9869 67.7509 34.9869C65.9172 37.1612 64.2912 39.5051 62.8947 41.9875C61.5008 39.5036 59.8747 37.1594 58.0386 34.9869C58.0386 34.9869 60.4193 34.6942 60.2615 32.3585C59.4658 34.0259 55.9926 32.5686 55.0643 31.3467C58.5691 30.9775 60.7098 28.6992 58.9858 25.288C59.371 28.1073 54.256 28.1646 51.9069 28.1646H36.5428L39.0687 30.6466H34.0989L31.5098 33.6505L36.2397 37.8635L37.4647 36.4507H42.6619L43.0976 36.858L43.4449 37.1953C39.4223 37.4817 34.8125 41.7393 33.1327 38.6845C34.1494 42.4012 37.9699 41.8666 40.3001 40.4983C40.1971 40.8569 40.1939 41.237 40.2908 41.5973C40.3877 41.9576 40.581 42.2841 40.8495 42.5412C41.0011 40.2819 46.5329 41.0138 46.5329 41.0138C47.4183 42.0065 48.1313 43.1425 48.6421 44.374C44.0168 45.107 39.4575 46.2137 35.0082 47.6834L34.9261 47.7152C30.4047 44.1831 27.8156 39.7982 26.862 35.8779C26.111 36.6688 25.456 37.5468 24.9108 38.4936C19.6883 32.7659 14.0807 24.8616 11.6495 15.5254C5.06308 20.6167 6.59759 29.1701 6.59759 29.1701C11.018 37.4053 21.968 44.1131 22.5364 44.444C22.3095 45.3753 22.1345 46.3187 22.0122 47.2697L21.9617 47.5052C14.2899 43.8547 7.52558 38.5207 2.16453 31.894C-1.46652 39.1427 2.70132 45.5514 2.70132 45.5514C8.49704 49.2062 14.8798 51.8163 21.5639 53.2648L21.848 55.9822C8.70043 54.5758 0.213256 49.6181 0.213256 49.6181C-0.0153597 51.7464 0.320735 53.8977 1.18724 55.8522C2.05374 57.8067 3.41958 59.4943 5.14518 60.7426C5.14518 60.7426 14.4786 62.55 23.1299 60.9399L24.0645 63.1546C17.6737 64.7891 11.0687 65.4076 4.48841 64.9875C5.90925 72.5163 12.4389 73.2609 12.4389 73.2609C17.369 71.8079 22.1418 69.8591 26.6852 67.444L27.9987 69.0733C23.3221 72.2521 18.3269 74.927 13.0956 77.0539C15.7163 81.9034 21.7343 81.3497 21.7343 81.3497C25.1667 78.6043 28.3378 75.5427 31.2067 72.2044L32.7412 73.2991C29.8717 77.326 26.6737 81.1046 23.1805 84.5954C27.1399 87.3383 32.1287 86.021 32.1287 86.021C33.8481 82.6428 35.3499 79.1565 36.6249 75.5838C37.7182 76.1245 38.8521 76.5777 40.0159 76.9393V85.4546C36.0818 86.091 34.2631 87.8666 33.6442 90.0877L33.5937 90.304L33.5305 90.5713C33.499 90.7495 33.4674 90.9405 33.4422 91.1314V91.2905C33.0759 94.8417 34.5851 100.079 32.5012 100.359C33.005 100.64 33.5948 100.721 34.1546 100.585C34.7144 100.45 35.2036 100.108 35.5261 99.6275C36.0609 100.668 36.6533 101.677 37.3005 102.65C35.5459 103.461 33.6527 103.924 31.7245 104.012C29.1985 104.012 27.0262 103.261 24.7781 100.48C23.3636 98.7493 21.8101 98.1447 20.3577 100.442L14.4722 94.5616C14.4922 94.1609 14.3563 93.7682 14.0934 93.467C17.5413 89.7885 14.0176 84.6336 11.0054 84.4999C9.93184 84.449 12.0978 88.0957 10.1655 88.6875C9.24982 88.9676 8.46679 87.2429 9.82449 86.4283C9.22604 86.3352 8.61369 86.4354 8.07525 86.7147C8.14635 86.4873 8.14487 86.2431 8.07101 86.0167C7.99716 85.7902 7.85465 85.5927 7.66358 85.4521C7.4725 85.3116 7.24251 85.235 7.00596 85.2331C6.7694 85.2313 6.5382 85.3043 6.34498 85.4418L6.28817 85.3782C6.1569 85.2265 5.99646 85.1032 5.8166 85.0158C5.63673 84.9284 5.44114 84.8786 5.24165 84.8695C5.04216 84.8604 4.8429 84.8921 4.65591 84.9627C4.46892 85.0334 4.29807 85.1414 4.1537 85.2805C4.00932 85.4195 3.89442 85.5866 3.81591 85.7717C3.7374 85.9567 3.69692 86.1559 3.69692 86.3572C3.69693 86.5584 3.7374 86.7576 3.81591 86.9426C3.89442 87.1277 4.00936 87.2948 4.15374 87.4338L4.20423 87.4784C4.02595 87.661 3.91322 87.8984 3.88382 88.1529C3.85442 88.4074 3.91006 88.6645 4.04192 88.8836C4.17379 89.1026 4.37434 89.2711 4.6119 89.3624C4.84945 89.4537 5.11043 89.4626 5.35354 89.3876C4.98825 89.9727 4.84477 90.671 4.94942 91.3541C5.75772 89.9795 7.47535 90.775 7.17855 91.7105C6.58495 93.6516 2.97283 91.4432 3.02335 92.5251C3.13702 95.5608 8.23945 99.1375 11.9084 95.7072C12.2083 95.9717 12.5962 96.1125 12.9946 96.1018L18.4569 101.861C17.5728 102.44 16.9982 104.171 18.6211 105.463C17.8002 108.283 20.0104 111.007 27.3988 111.229C30.3289 114.316 32.5896 116.696 32.7538 116.862C33.5116 117.613 34.1052 117.81 34.4336 117.753C34.7242 117.7 34.9914 117.558 35.1977 117.345C35.42 117.136 35.5723 116.863 35.6334 116.562C35.6228 116.231 35.5405 115.906 35.3921 115.611C35.2437 115.315 35.033 115.055 34.7746 114.851L29.9437 110.027C31.1119 108.996 36.2586 104.681 40.6159 104.299C39.9844 101.454 40.0601 99.2393 40.5527 97.6864C40.6222 97.9601 40.7232 98.1892 40.8116 98.4438C42.2009 102.638 45.5478 103.828 50.0755 103.923L38.9803 115.022C38.8107 116.798 38.8701 118.589 39.1571 120.349C40.8595 120.751 42.6067 120.927 44.3543 120.871L53.9213 105.597C53.9213 105.597 55.8158 105.775 55.2538 106.698L47.0949 122.717C47.537 124.874 49.4125 127.394 49.4125 127.394C51.1613 127.005 52.8682 126.445 54.5086 125.72L60.0973 107.131L61.5118 108.098L57.6029 127.038C59.0633 128.732 60.8826 130.074 62.9264 130.965C64.9713 130.076 66.791 128.734 68.2498 127.038L64.3346 108.098L65.7554 107.131L71.3441 125.72C72.9865 126.445 74.6955 127.006 76.4465 127.394C76.4465 127.394 78.341 124.849 78.7577 122.717L70.5926 106.698C70.0558 105.775 71.9313 105.597 71.9313 105.597L81.4984 120.871C83.2439 120.926 84.989 120.751 86.6893 120.349C86.9798 118.589 87.0413 116.798 86.8724 115.022L75.7771 103.891C80.6333 103.79 84.1633 102.485 85.3505 97.5273C85.8809 99.0866 85.982 101.346 85.3505 104.267C87.7076 104.548 89.97 105.367 91.9659 106.662C93.9617 107.957 95.6386 109.693 96.8689 111.738C98.8391 115.061 103.657 117.288 105.482 113.807C107.453 114.749 111.905 112.598 111.008 109.295C111.514 108.33 111.816 107.271 111.896 106.184C111.976 105.096 111.832 104.003 111.472 102.974C111.113 101.946 110.546 101.003 109.808 100.206C109.069 99.4086 108.175 98.7739 107.181 98.3419L105.956 100.601L103.998 104.203L102.041 100.601L100.809 98.3419C99.486 98.9288 98.3479 99.8706 97.5194 101.065C96.6909 102.259 96.2038 103.659 96.1111 105.113C93.7097 104.127 91.2507 103.29 88.7479 102.606C89.3576 101.661 89.9121 100.682 90.4087 99.6721C90.7323 100.153 91.2226 100.495 91.7835 100.63C92.3443 100.766 92.9351 100.685 93.4398 100.404C91.3559 100.124 92.8589 94.8862 92.4926 91.335V91.1759C92.4926 90.985 92.4421 90.7941 92.4105 90.6159L92.3411 90.3486L92.2968 90.1322C91.6654 87.8984 89.8404 86.0846 85.8557 85.4864V76.9584C87.018 76.5983 88.1499 76.145 89.2405 75.6029C90.5179 79.1736 92.0175 82.6596 93.7303 86.0401C93.7303 86.0401 98.7317 87.3575 102.691 84.6145C99.1814 81.1294 95.9665 77.3551 93.0799 73.3309L94.6208 72.2363C97.4889 75.5751 100.66 78.6368 104.093 81.3815C104.093 81.3815 110.111 81.9352 112.726 77.0857C107.496 74.9595 102.503 72.2845 97.8287 69.1051L99.1422 67.4759C103.687 69.8929 108.462 71.8417 113.395 73.2927C113.395 73.2927 119.918 72.5354 121.345 65.0193C114.765 65.4388 108.16 64.8204 101.769 63.1864L102.704 60.9717C111.362 62.5819 120.695 60.7744 120.695 60.7744C122.42 59.5261 123.786 57.8385 124.653 55.884C125.519 53.9295 125.855 51.7782 125.627 49.6499C125.627 49.6499 117.102 54.6012 103.954 56.0077ZM85.0095 30.9966L83.4623 32.5176L78.4104 30.9966H85.0095ZM42.3082 32.5176L40.7611 30.9966H47.3602L42.3082 32.5176ZM6.12398 88.5666C6.16784 88.4124 6.17926 88.2507 6.15751 88.0918C6.13576 87.9329 6.08132 87.7803 5.99767 87.6438L6.19343 87.4911L6.28817 87.3765C6.52251 87.533 6.80517 87.5986 7.08381 87.5611C6.96127 87.7466 6.90798 87.97 6.93342 88.1914C6.95886 88.4128 7.06139 88.6179 7.22276 88.7703C7.0882 88.618 6.90708 88.5152 6.70806 88.4783C6.50904 88.4414 6.3035 88.4725 6.12398 88.5666ZM83.797 96.3054C83.624 97.4911 83.1927 98.6233 82.5341 99.6211L82.1804 100.079C82.0099 100.264 81.8268 100.442 81.6436 100.608C80.0649 101.938 77.7663 102.313 74.8489 102.313H70.8452C69.9144 102.312 68.9858 102.404 68.073 102.587C66.2913 102.898 64.652 103.766 63.3873 105.069L62.7558 105.705L62.1244 105.069C60.7048 103.618 58.8348 102.702 56.8262 102.472C56.1133 102.366 55.3935 102.312 54.6728 102.313H50.6565C46.4824 102.313 43.5649 101.53 42.2451 98.2656C42.1693 98.0746 42.1125 97.8519 42.043 97.6292V59.7753C43.8491 59.3234 45.5225 58.9543 47.1328 58.6552C50.1453 58.1003 53.185 57.7073 56.2389 57.4778C58.4175 57.3124 60.6593 57.2296 62.819 57.2296C69.8421 57.2226 76.84 58.0774 83.6581 59.7753H83.7465L83.797 96.3054ZM93.3325 61.2072C90.7937 61.3179 88.2635 61.5771 85.7546 61.9836V58.7634L85.6031 58.7252C85.2495 58.6297 84.8895 58.5533 84.5359 58.4579L84.1886 58.3751H84.0622C77.1245 56.6452 70.0038 55.7712 62.8569 55.7722C60.6214 55.7722 58.3923 55.8613 56.1631 56.0268C53.0583 56.2597 49.9681 56.6591 46.9055 57.2232C45.0805 57.5605 43.2744 57.9678 41.4747 58.4197L40.8053 58.5915L40.1296 58.757H40.0475H39.9844V61.7991V61.9773C37.4754 61.571 34.9452 61.3118 32.4065 61.2008C33.5871 57.6338 33.5871 53.777 32.4065 50.2099V50.1527C33.4106 49.7708 34.4273 49.4272 35.444 49.0899C42.7727 46.6618 50.3907 45.232 58.0955 44.8387C58.5501 44.8387 59.0048 44.775 59.4532 44.7559H59.6994C60.7666 44.7177 61.8338 44.6922 62.8947 44.6922H63.2673C64.2904 44.6922 65.3134 44.6923 66.3364 44.7495C66.6963 44.7495 67.0626 44.8004 67.4289 44.8132C68.2056 44.8577 68.9886 44.8896 69.7717 44.9532H69.9485C71.0283 45.0359 72.1145 45.1441 73.1943 45.2714C74.2742 45.3987 75.4677 45.5578 76.6044 45.7423C81.2631 46.4718 85.8547 47.585 90.3329 49.0708C90.996 49.2935 91.6527 49.529 92.3095 49.7645C92.6631 49.8854 93.0167 49.9999 93.3641 50.1336C93.3641 50.159 90.8129 54.684 93.3641 61.2072H93.3325Z" fill="#3D3D3D"/>
<path d="M86.7792 26.5249C90.7323 26.5249 91.5596 22.5663 91.1617 20.6571C91.0133 20.0518 90.9202 19.434 90.8839 18.8115C90.8567 18.6869 90.8634 18.5573 90.9035 18.4363C90.9435 18.3152 91.0153 18.2074 91.1113 18.1242C91.7427 17.7041 93.3783 17.8569 94.9949 19.187C95.98 19.9952 96.7631 21.1662 96.321 21.9936C95.9487 22.5553 95.4595 23.0287 94.8876 23.381C94.1839 23.8085 93.6011 24.4112 93.1952 25.1311C92.6205 26.3657 93.8961 30.3879 97.2051 31.5398C97.7798 31.7307 97.2935 30.3179 97.8366 29.5223C98.4681 28.5932 100.072 28.2495 99.3459 28.0395C98.8723 27.9122 97.4514 27.1995 97.3251 26.3339C97.1988 25.4684 98.4871 24.4247 99.3964 23.7246L99.769 23.4255C100.849 22.5536 101.032 21.7963 100.969 21.319C100.906 20.8417 100.653 20.2498 99.6364 19.7343L99.4027 19.6325L98.4933 19.2188C97.0814 18.4559 95.8326 17.42 94.8181 16.1704C94.6223 15.9667 94.4455 15.7631 94.275 15.5913C93.4541 14.7257 92.6142 15.0312 91.749 15.3431C91.1199 15.6014 90.4557 15.7624 89.7788 15.8204L88.7684 15.9222C88.4571 15.9731 88.1673 16.1147 87.9348 16.3295C87.7456 16.5446 87.607 16.7999 87.5294 17.0765C87.4517 17.3531 87.4371 17.6438 87.4865 17.9269C87.652 18.8718 87.9188 19.7957 88.2822 20.6826C88.9894 22.7127 89.1094 26.0412 86.7792 26.5249Z" fill="#3D3D3D"/>
<path d="M26.0008 23.4265L26.3734 23.7256C27.2827 24.4447 28.5709 25.5203 28.4446 26.3349C28.3183 27.1495 26.8975 27.9132 26.4176 28.0405C25.6914 28.2378 27.2827 28.5942 27.9331 29.5233C28.4825 30.3188 28.0026 31.7317 28.5646 31.5408C31.8736 30.3889 33.1555 26.3667 32.5809 25.1321C32.1714 24.4149 31.5894 23.813 30.8885 23.3819C30.3133 23.0316 29.8218 22.5579 29.4487 21.9946C29.013 21.1672 29.7897 19.9962 30.7748 19.188C32.3914 17.8579 34.0144 17.7051 34.6585 18.1252C34.7515 18.2108 34.8216 18.3186 34.8624 18.4387C34.9033 18.5589 34.9135 18.6874 34.8921 18.8125C34.8533 19.4351 34.7582 20.0529 34.608 20.6581C34.2101 22.5673 35.0374 26.5258 38.9905 26.5258C36.6603 26.0485 36.7803 22.7074 37.5002 20.6899C37.8647 19.804 38.1295 18.8797 38.2896 17.9342C38.342 17.6507 38.3282 17.3587 38.2492 17.0815C38.1703 16.8042 38.0285 16.5493 37.8349 16.3368C37.6072 16.1186 37.3184 15.9764 37.0076 15.9295L36.0036 15.8277C35.3247 15.7697 34.6583 15.6088 34.027 15.3504C33.1429 15.0386 32.3094 14.714 31.5011 15.5986L30.9643 16.1777C29.9464 17.429 28.6931 18.465 27.2764 19.2261L26.3797 19.6398L26.1271 19.7416C25.7887 19.8663 25.4888 20.0783 25.2572 20.3564C25.0256 20.6345 24.8704 20.9689 24.8073 21.3263C24.7504 21.7973 24.9146 22.5546 26.0008 23.4265Z" fill="#3D3D3D"/>
<path d="M61.2082 19.3867H57.5645C57.1856 22.5688 55.9479 24.5926 53.9209 25.8654C57.4256 25.6872 60.2294 22.7024 61.2082 19.3867Z" fill="#3D3D3D"/>
<path d="M68.1987 19.3867H64.5613C65.5401 22.7024 68.3503 25.6872 71.8424 25.8654C69.8279 24.5926 68.5902 22.5624 68.1987 19.3867Z" fill="#3D3D3D"/>
<path d="M62.8322 17.2096H68.263C68.8945 16.3823 70.8395 13.6584 70.8395 10.9664C70.8381 10.4 70.7014 9.84232 70.4408 9.34049C70.1803 8.83867 69.8037 8.4075 69.3428 8.08343C68.2237 7.278 66.92 6.77211 65.5539 6.61328L62.8701 11.1446L60.1799 6.61328C58.8142 6.77374 57.5109 7.27947 56.391 8.08343C55.9328 8.40971 55.5585 8.8415 55.2993 9.34294C55.0401 9.84438 54.9034 10.401 54.9007 10.9664C54.9007 13.6584 56.8394 16.3823 57.4772 17.2096H62.8322Z" fill="#3D3D3D"/>
<path d="M65.4065 2.36214C65.1453 1.9218 64.7753 1.55728 64.3326 1.30415C63.8898 1.05102 63.3895 0.917969 62.8805 0.917969C62.3715 0.917969 61.8712 1.05102 61.4284 1.30415C60.9857 1.55728 60.6157 1.9218 60.3546 2.36214L62.8805 7.00162L65.4065 2.36214Z" fill="#3D3D3D"/>
<path d="M79.225 25.8648H83.6959C84.2264 25.1839 85.8177 22.95 85.8177 20.7353C85.8152 20.2693 85.7022 19.8107 85.4879 19.3978C85.2737 18.9848 84.9646 18.6295 84.5863 18.3615C83.6717 17.7035 82.6077 17.2878 81.492 17.1523L79.2818 20.8817L77.0716 17.1523C75.9552 17.2928 74.8904 17.708 73.971 18.3615C73.5962 18.632 73.2904 18.9882 73.0785 19.4008C72.8667 19.8134 72.7549 20.2707 72.7523 20.7353C72.7523 22.95 74.3499 25.1902 74.8677 25.8648H79.225Z" fill="#3D3D3D"/>
<path d="M81.1156 14.27C80.9253 13.9511 80.6563 13.6873 80.3349 13.5041C80.0134 13.3209 79.6504 13.2246 79.2811 13.2246C78.9119 13.2246 78.5489 13.3209 78.2274 13.5041C77.906 13.6873 77.637 13.9511 77.4467 14.27L79.2843 17.6494L81.1156 14.27Z" fill="#3D3D3D"/>
<path d="M48.3387 14.2707C48.1491 13.9517 47.8808 13.6877 47.5599 13.5043C47.2389 13.321 46.8763 13.2246 46.5074 13.2246C46.1384 13.2246 45.7758 13.321 45.4548 13.5043C45.1339 13.6877 44.8655 13.9517 44.676 14.2707L46.5074 17.6501L48.3387 14.2707Z" fill="#3D3D3D"/>
<path d="M46.4582 25.8639H50.9228C51.4532 25.1829 53.0509 22.9491 53.0509 20.7344C53.0448 20.2647 52.9269 19.8034 52.7071 19.3892C52.4873 18.975 52.1721 18.6201 51.7879 18.3542C50.8695 17.6978 49.8044 17.2802 48.6873 17.1387L46.4771 20.8744L44.2669 17.1387C43.1497 17.2802 42.0847 17.6978 41.1663 18.3542C40.7887 18.6239 40.4806 18.9806 40.2675 19.3946C40.0544 19.8086 39.9425 20.268 39.9412 20.7344C39.9412 22.9491 41.5325 25.1893 42.063 25.8639H46.4582Z" fill="#3D3D3D"/>
<path d="M106.642 94.4959C106.364 94.0322 105.972 93.6487 105.503 93.3826C105.035 93.1164 104.506 92.9766 103.968 92.9766C103.43 92.9766 102.902 93.1164 102.433 93.3826C101.965 93.6487 101.572 94.0322 101.294 94.4959L103.965 99.4217L106.642 94.4959Z" fill="#3D3D3D"/>
<path d="M38.5819 53.836L39.8448 50.9913V50.8258L39.687 50.7812L38.9797 50.9913L38.885 51.0804L38.0893 53.0278L37.3378 51.6468L37.1547 51.5768L36.4601 51.8122L36.359 51.9013V52.035L37.622 54.0715C37.18 55.1089 36.7379 56.1398 36.2896 57.1772V57.3427L36.4095 57.3936H36.4601L37.1547 57.1581L37.2431 57.0754C37.5399 56.3499 37.8304 55.6307 38.1272 54.9116C38.4177 55.4207 38.7018 55.9362 38.986 56.4453L39.1629 56.5153L39.8638 56.3117L39.9648 56.2226V56.0826C39.4786 55.3189 39.0302 54.5743 38.5819 53.836Z" fill="#3D3D3D"/>
<path d="M43.6782 50.6067L43.4319 50.2758C43.2904 50.16 43.1238 50.0793 42.9457 50.0403L42.8636 50.0085C42.653 49.9789 42.4387 49.9897 42.2321 50.0403H42.0868C41.8821 50.0876 41.6861 50.1671 41.5059 50.2758L41.2848 50.4031L41.0828 50.5813L40.8365 50.8549L40.767 50.9504C40.6306 51.1426 40.53 51.3583 40.4702 51.5868C40.4088 51.7932 40.379 52.0078 40.3818 52.2232V54.3234C40.3786 54.5388 40.4085 54.7535 40.4702 54.9598C40.5283 55.1586 40.6372 55.3386 40.786 55.4817L40.8365 55.5135C40.9904 55.6337 41.1697 55.7165 41.3606 55.7553H41.5059H41.5943C41.7847 55.7509 41.9737 55.7209 42.1563 55.6662C42.4 55.607 42.6325 55.5081 42.8446 55.3735C43.0505 55.2457 43.2341 55.0844 43.3877 54.8962C43.543 54.7075 43.6628 54.4918 43.7413 54.2598C43.8246 54.0249 43.8673 53.7773 43.8676 53.5279V51.3704C43.8701 51.1665 43.8359 50.9638 43.7666 50.7722L43.6782 50.6067ZM42.9015 51.7968V53.7888L42.8383 54.1452L42.6615 54.4443L42.4026 54.6734L42.0995 54.8134H41.7206L41.5059 54.7116L41.3796 54.4761L41.3354 54.107V52.0323L41.3733 51.7396L41.5059 51.4277L41.7395 51.1604L42.15 50.9631H42.3773H42.5163L42.7373 51.1095L42.8572 51.3259L42.9015 51.5613V51.7968Z" fill="#3D3D3D"/>
<path d="M47.6637 51.8381L47.3732 51.5962L47.6006 51.3035L47.8152 50.8452L47.8973 50.6098V50.5652L48.0363 50.0434L48.3205 48.9487V48.8087L48.1815 48.7578L47.55 48.8724L47.4364 48.9869L47.1459 50.0434L46.9943 50.5843L46.8238 50.9725H46.7922L46.6218 51.1825L46.4007 51.3162L46.1607 51.3798L45.7629 51.4689V49.3751L45.7061 49.2542H45.5798L44.9483 49.4006L44.822 49.547V54.791L44.8788 54.9119L44.9735 54.9437H45.0051L45.6366 54.7974L45.7566 54.6446V52.379L46.2618 52.2708H46.5333L46.7165 52.309L46.8996 52.4681L47.0512 52.8054L47.4679 54.301L47.6448 54.4092L48.3331 54.2882L48.4278 54.2119V54.091L47.9668 52.4999C47.9056 52.2629 47.8029 52.0388 47.6637 51.8381Z" fill="#3D3D3D"/>
<path d="M52.3132 51.806C52.249 51.5641 52.1467 51.3341 52.0101 51.125L51.7133 50.8705L51.928 50.6095C52.0333 50.4355 52.1181 50.2497 52.1806 50.0558L52.2437 49.884L52.6416 48.4075V48.2866V48.1402L52.509 48.0957L51.8775 48.1721L51.7448 48.2866L51.7133 48.4075L51.3091 49.8585L51.2207 50.0558L51.1512 50.2277L50.9428 50.4568L50.7282 50.5777H50.665L50.4882 50.6222L50.0777 50.6859V48.5793L50.0209 48.4584H49.8946L49.6294 48.503L49.2315 48.573L49.1052 48.7257V50.635V53.9889L49.1558 54.1098L49.2568 54.148L49.9262 54.0398L50.0525 53.8871V51.6278L50.545 51.5514H50.7724H50.8103L51.0186 51.6087L51.1955 51.7742L51.2965 51.9714L51.3533 52.1242L51.7764 53.6452L51.9406 53.7471L52.1995 53.7152L52.6352 53.658L52.7426 53.588V53.4607L52.6542 53.1552L52.3132 51.806Z" fill="#3D3D3D"/>
<path d="M56.555 47.6842C55.5698 47.7605 54.5784 47.856 53.6059 47.9706L53.467 48.1169V53.3737L53.5302 53.4882H53.6312C54.149 53.431 54.6794 53.3864 55.2099 53.3419C55.7403 53.2973 56.1129 53.2464 56.5676 53.2082L56.7065 53.0555V52.4191L56.656 52.3045L56.5423 52.2663L55.1152 52.3936L54.4205 52.4573V50.9999L54.8878 50.9617L56.2392 50.8344L56.3782 50.6817V50.1216L56.334 50.0134L56.2203 49.9752L55.6898 50.0262L54.6921 50.1153H54.4205V48.7024L56.5676 48.5115L56.7065 48.3524V47.7669L56.656 47.6523L56.555 47.6842Z" fill="#3D3D3D"/>
<path d="M61.1154 47.4336H60.4839L60.3512 47.5163L59.8903 48.3818C59.6061 48.9164 59.3219 49.451 59.0314 49.9856V50.0174L58.741 50.5902L58.4757 51.093V47.6818L58.4315 47.5736L58.3178 47.5291L57.6863 47.5673L57.5411 47.7264V52.9704L57.5853 53.085L57.6927 53.1295H57.7874L58.3368 53.0977L58.4631 53.015L59.3535 51.3412C59.4861 51.093 59.6124 50.8448 59.745 50.603L59.8524 50.3993L60.0418 50.0365L60.3639 49.4001V52.8177L60.4081 52.9322L60.5154 52.9768H61.1911L61.3427 52.824V47.5736L61.2922 47.4591L61.1154 47.4336Z" fill="#3D3D3D"/>
<path d="M58.3929 47.147L58.7845 47.3952C58.9416 47.4556 59.109 47.4837 59.277 47.478H59.3591C59.5559 47.4751 59.7498 47.4295 59.9275 47.3443L60.3 47.0643L60.5148 46.7079L60.5969 46.3452L60.559 46.2306L60.439 46.1797H59.9085L59.757 46.3324V46.4342L59.6749 46.5424L59.5423 46.6379L59.3465 46.6761H59.2076L59.0813 46.5997L58.9992 46.4915V46.3897L58.8476 46.2497H58.2856L58.0962 46.4088L58.1719 46.7779L58.3929 47.147Z" fill="#3D3D3D"/>
<path d="M67.4478 47.9604C67.0881 47.6423 66.6254 47.468 66.1469 47.4703L64.5619 47.4258L64.4545 47.4703L64.404 47.5786V52.829L64.5555 52.9817H65.187L65.2944 52.9372L65.3386 52.8226V50.8752H66.1343H66.5511L66.9363 50.7861L67.2962 50.5824L67.4793 50.4233L67.7383 50.016L67.7951 49.8887V49.7742C67.8355 49.6053 67.8567 49.4324 67.8583 49.2587C67.8647 48.9522 67.8044 48.6481 67.6814 48.3677L67.4478 47.9604ZM66.9363 49.526V49.5896L66.8289 49.8123L66.589 49.9778L66.2542 50.0287H66.1911H65.4207V48.3168H66.1722H66.2858C66.4798 48.3182 66.6656 48.3959 66.8036 48.5332C66.9371 48.717 67.002 48.9423 66.9868 49.1696L66.9363 49.526Z" fill="#3D3D3D"/>
<path d="M71.6301 48.3927C71.4801 48.2094 71.2955 48.058 71.087 47.9472C70.8388 47.8201 70.5686 47.7423 70.2913 47.7181C70.0119 47.6877 69.7294 47.7203 69.4641 47.8135C69.2494 47.8843 69.0575 48.0117 68.9083 48.1826L68.7378 48.4118L68.5926 48.7236C68.528 48.912 68.4939 49.1097 68.4916 49.3091V51.4093C68.4939 51.6394 68.5257 51.8683 68.5863 52.0902C68.6482 52.3228 68.7579 52.5396 68.9083 52.7266C69.0581 52.9126 69.2454 53.0645 69.4577 53.1721C69.7096 53.2992 69.9848 53.3729 70.2661 53.3885H70.4807H70.5755L70.9796 53.3376C71.188 53.2795 71.3816 53.1776 71.548 53.0385C71.7136 52.8998 71.8435 52.723 71.9269 52.523C72.0156 52.3005 72.0607 52.0627 72.0595 51.8229V49.5891C72.0598 49.3724 72.0235 49.1572 71.9521 48.9527C71.8786 48.7482 71.7695 48.5586 71.6301 48.3927ZM71.068 50.041V51.7656L71.0049 52.0839L70.8407 52.3066L70.6576 52.4021L70.6071 52.4339H70.2913L69.8998 52.3257L69.6409 52.1093L69.4956 51.7975L69.4451 51.4093V49.3345L69.483 49.0609L69.6093 48.8127L69.8556 48.6281L70.1334 48.5709H70.2534L70.6449 48.6981L70.8976 48.9463L71.0301 49.2327L71.0743 49.4873L71.068 50.041Z" fill="#3D3D3D"/>
<path d="M73.8312 50.6094V49.7884L73.888 49.4956L74.0332 49.2793L74.2732 49.1456H74.6142C74.805 49.1704 74.9848 49.2499 75.132 49.3747L75.391 49.8075L75.5741 49.9221L76.2056 49.7884L76.3066 49.7057V49.5847L76.155 49.2538C76.0475 49.0331 75.8921 48.8395 75.7004 48.6874L75.2457 48.4138C75.0592 48.3269 74.8615 48.2669 74.6584 48.2355C74.4121 48.1897 74.1596 48.1897 73.9133 48.2355L73.5596 48.3819L73.3386 48.5283C73.1839 48.6713 73.0631 48.8475 72.985 49.0438C72.9077 49.247 72.8671 49.4626 72.865 49.6802V51.8822C72.8558 52.3518 73.0253 52.8073 73.3386 53.155L73.5723 53.3714L73.8943 53.5814C74.1189 53.699 74.3628 53.7744 74.6142 53.8042H74.9616C75.2079 53.8092 75.4521 53.7569 75.6751 53.6514C75.8253 53.5858 75.9596 53.4881 76.0686 53.365C76.1777 53.2419 76.2589 53.0965 76.3066 52.9386V52.8877L76.2371 52.7032L75.6057 52.385H75.4731L75.4352 52.4295L75.391 52.4804L75.1447 52.8114C74.993 52.8902 74.8186 52.9128 74.6521 52.875L74.2985 52.7604L74.0396 52.5441L73.8817 52.2577L73.8248 51.9395V50.6094H73.8312Z" fill="#3D3D3D"/>
<path d="M77.924 50.4365L77.9808 50.1502L78.0566 50.042L78.1197 49.9401L78.3534 49.8256H78.688C78.8575 49.8569 79.0162 49.9314 79.1491 50.042L79.2122 50.0802C79.3407 50.2018 79.4307 50.359 79.4711 50.532L79.5279 50.6084H79.6479H79.8689L80.2604 50.5447L80.3678 50.4747V50.3474L80.2289 50.042C80.1197 49.8005 79.9629 49.5839 79.7679 49.4056C79.4704 49.1549 79.1136 48.9861 78.7323 48.9155C78.4889 48.8615 78.2368 48.8615 77.9934 48.9155C77.7831 48.9521 77.5853 49.0419 77.4187 49.1764C77.2613 49.3092 77.1396 49.48 77.0651 49.6728L76.9704 50.042V50.3347V52.5367C76.9676 52.7776 77.0082 53.0169 77.0904 53.2431C77.169 53.4622 77.2867 53.665 77.4377 53.8413C77.5891 54.0249 77.7733 54.1781 77.9808 54.2932C78.2022 54.4204 78.4435 54.5087 78.6944 54.5541L79.1491 54.6051C79.3656 54.6088 79.5805 54.5677 79.7805 54.4841C79.9338 54.418 80.0701 54.3178 80.1795 54.1911C80.2888 54.0644 80.3684 53.9143 80.412 53.7522L80.3425 53.5677L79.7111 53.2177H79.5785L79.4901 53.3195L79.2564 53.6313C79.1029 53.6977 78.932 53.7111 78.7701 53.6695L78.4165 53.5359L78.1639 53.3004L77.9997 53.0076L77.9429 52.6831V50.4493L77.924 50.4365Z" fill="#3D3D3D"/>
<path d="M84.1205 50.225L83.9752 50.2886L83.7732 50.6259L83.5143 51.0396L82.687 52.376L82.125 53.3243V49.8304L82.0113 49.6777L81.3798 49.5312H81.2472L81.1904 49.6522V54.9026L81.3104 55.0554L81.9419 55.2017L82.1124 55.1317L83.4637 52.9234L83.9626 52.1024V55.5899L84.0763 55.7427H84.1521L84.2784 55.7808L84.6257 55.87L84.7267 55.9018H84.7646H84.8593L84.9225 55.7808V50.5241L84.8088 50.3777L84.1205 50.225Z" fill="#3D3D3D"/>
<path d="M88.85 51.6272L88.6732 51.6909C88.2438 52.3591 87.827 53.0273 87.4102 53.7019L86.8608 54.6056V51.1054L86.7409 50.9526L86.1094 50.7617H85.9705L85.9073 50.8826V56.1394L86.0147 56.2858L86.6462 56.4703L86.823 56.4067C87.265 55.6876 87.7133 54.9811 88.1554 54.2811L88.6416 53.4855V56.9922L88.749 57.1386L89.3805 57.355H89.4247H89.5194L89.5826 57.2277V51.9836L89.4815 51.8373L88.85 51.6272Z" fill="#3D3D3D"/>
<path d="M77.1717 93.6508C76.9444 93.0717 76.1676 92.8871 75.2772 92.0152C74.8415 91.5634 74.9552 91.1561 74.8036 90.7424C74.3562 89.2732 73.777 87.8482 73.0733 86.4848C72.947 86.2684 72.8081 86.052 72.6565 85.8484C72.2398 85.2565 71.9114 85.0974 71.8672 84.5755C71.7535 83.3791 71.1473 82.6345 71.0715 82.2335C70.9957 81.8326 71.5073 81.3362 71.3304 80.9926C70.3612 79.078 69.5808 77.0721 69.0002 75.0039C68.7982 74.2847 67.6046 73.782 67.6046 73.1456L67.4973 72.8146C67.251 72.401 66.6448 72.1337 66.6511 72.07C66.846 71.162 66.846 70.2224 66.6511 69.3143C66.3732 68.0797 64.8766 66.8578 62.5717 65.2158C62.6538 64.5794 62.9632 62.9693 62.8179 62.5493L62.5843 62.1547C62.5211 61.6559 62.3532 61.1765 62.0918 60.7482C61.8518 60.4746 61.6813 60.6018 61.2645 60.6082C60.9699 60.623 60.6764 60.5617 60.412 60.43C59.8752 60.0736 59.1869 60.1054 58.4102 61.181C58.2839 61.3592 58.0818 61.4037 57.9997 61.6074C57.8413 62.0344 57.7333 62.4787 57.6777 62.9311C57.5829 63.7012 57.6776 63.8412 57.6208 64.0703C56.7241 64.0321 55.5432 64.0703 55.1959 64.3249C52.771 66.1132 51.3628 69.378 51.7353 69.7025C52.1079 70.0271 52.3163 72.1209 52.4616 73.1138C52.4616 73.1138 51.8743 73.2474 51.9943 73.6101L52.2342 74.3293L52.1395 74.8193C52.2154 75.2476 52.3604 75.6603 52.5689 76.0412C52.6952 76.2513 52.8973 76.2067 52.9289 76.3149C53.7435 79.2297 55.2843 79.2169 55.2843 79.2169V80.3625C54.7096 81.1134 53.8003 82.4626 53.794 82.9845L53.8508 83.1563C54.0908 83.3982 54.2613 83.4937 54.2297 83.6782C54.1247 83.8607 53.9717 84.0105 53.7877 84.111C53.7409 84.1703 53.7071 84.239 53.6886 84.3125C53.6701 84.3859 53.6674 84.4625 53.6805 84.5371C53.6937 84.6118 53.7224 84.6827 53.7648 84.7453C53.8072 84.8079 53.8624 84.8606 53.9266 84.9001C54.3367 85.0182 54.7656 85.055 55.1896 85.0083L54.6907 95.9865C54.6907 96.1329 54.6086 96.4383 54.3371 96.1965C53.8932 95.7474 53.4974 95.2525 53.1562 94.72C53.0807 94.5902 52.9771 94.4793 52.8531 94.3954C52.6952 94.3254 52.6257 94.5036 52.5941 94.7073C52.5205 95.2436 52.5571 95.7895 52.7015 96.311L52.8152 96.5274C53.2534 97.0905 53.8431 97.5147 54.5139 97.7493C55.2212 98.0039 55.2527 97.5521 55.2969 96.2601C55.2969 95.6237 55.5937 89.826 55.8653 84.8937L56.1368 84.7983C57.0725 84.196 57.8501 83.3752 58.4039 82.4054C58.6628 83.1436 58.6501 84.7728 58.9848 85.1738C59.4458 85.7275 59.6163 85.5365 60.0205 86.6248C60.1152 86.8857 61.0624 87.223 61.4666 87.8976C62.3633 89.425 65.4639 91.2388 66.4238 91.6398C66.7521 91.7734 67.1374 91.4297 67.3079 91.8943C67.5415 92.5307 67.6299 92.4926 67.9394 92.6071C68.2488 92.7217 68.2614 93.6317 68.7982 94.0263C69.3349 94.4209 69.9349 94.2172 70.4274 94.4336C70.92 94.65 71.4757 95.3628 71.5578 95.3119C71.6399 95.261 71.242 94.6118 71.0147 94.0391C70.942 93.7941 70.942 93.533 71.0147 93.2881C71.2862 91.7988 69.5749 90.9715 69.3412 90.316C68.9434 89.2214 68.7097 89.8323 68.3877 89.3168C67.4278 87.9231 66.67 86.3893 65.5081 85.4983C65.2366 85.2947 64.9461 85.3138 64.8766 85.2183C64.7002 84.7573 64.4891 84.3105 64.2451 83.8819C64.1315 83.71 64.4472 83.0863 64.1946 82.7109C64.0221 82.4563 63.9337 82.1535 63.942 81.8453C63.9041 80.4707 64.0872 81.3235 64.403 81.9726C64.7645 82.8339 65.2065 83.6585 65.7228 84.4355C65.8933 84.6074 66.2091 84.3719 66.3543 84.5947C66.9005 85.5255 67.6211 86.3404 68.4761 86.9939C68.6908 87.1594 68.8108 87.8277 69.5054 88.8268C70.9326 90.8761 72.4229 91.8434 72.8271 92.919C72.9149 93.1695 73.0429 93.4038 73.2059 93.6126C73.4964 93.9499 73.768 93.9436 74.0395 94.3445C74.431 94.9173 74.9362 95.4646 75.3593 95.5092C75.7824 95.5537 75.9529 95.3691 76.2813 95.4201C76.6097 95.471 77.6137 96.241 77.6832 96.2028C77.7527 96.1647 77.0517 95.0764 77.0517 94.7964C77.1149 94.4209 77.3169 93.9945 77.1717 93.6508ZM55.9095 74.202C55.7516 73.9856 55.8148 73.2537 55.7263 73.1201L55.4611 72.751C55.505 72.0403 55.6021 71.334 55.7516 70.6381C55.8147 71.9109 57.6461 76.4422 57.6461 76.4422C57.6461 76.4422 56.061 74.412 55.9095 74.202Z" fill="#3D3D3D"/>
</svg>
