<svg width="102" height="34" viewBox="0 0 102 34" fill="none" xmlns="http://www.w3.org/2000/svg">
<g clip-path="url(#clip0_292_538)">
<path d="M0 0.732956V32.5363H6.27504V6.5462H95.4899V32.5363H101.765V0.732956H0Z" fill="#E6E3CC"/>
<path d="M49.8299 18.1485H46.9032C45.7375 18.1485 44.795 19.069 44.795 20.2074V30.4532C44.795 31.6643 45.6879 32.5121 46.9032 32.5121H49.8299C50.9956 32.5121 51.9381 31.5916 51.9381 30.4532V27.7404H49.6811V30.0172C49.6811 30.2594 49.4827 30.4775 49.2099 30.4775H47.5729C47.3248 30.4775 47.1016 30.2837 47.1016 30.0172V20.5949C47.1016 20.3527 47.3001 20.1347 47.5729 20.1347H49.2099C49.4579 20.1347 49.6811 20.3285 49.6811 20.5949V23.0414H51.9381V20.2074C51.9629 19.069 51.0204 18.1485 49.8299 18.1485Z" fill="#E6E3CC"/>
<path d="M59.5032 21.0065H52.8562V23.0411H55.0387V32.5361H57.2958V23.0411H59.5032V21.0065Z" fill="#E6E3CC"/>
<path d="M22.8686 27.4738H22.6454V21.0065H20.3883V32.5361H22.3725L24.8776 26.3596H25.1008V32.5361H27.3578V21.0065H25.3488L22.8686 27.4738Z" fill="#E6E3CC"/>
<path d="M13.094 18.1485L10.3162 32.5363H12.722L14.6318 20.498H14.8302L16.8144 32.5363H19.2203L16.492 18.1485H13.094Z" fill="#E6E3CC"/>
<path d="M61.7836 21.0065L59.3034 32.5361H61.5852L61.858 31.0586H64.884L65.1568 32.5361H67.4386L64.9831 21.0065H61.7836ZM62.2301 29.1451L63.2718 23.017H63.495L64.5367 29.1451H62.2301Z" fill="#E6E3CC"/>
<path d="M36.0388 21.0065L33.5585 32.5361H35.8404L36.1132 31.0586H39.1391L39.4119 32.5361H41.6938L39.2383 21.0065H36.0388ZM36.4853 29.1451L37.5269 23.017H37.7502L38.7919 29.1451H36.4853Z" fill="#E6E3CC"/>
<path d="M34.1791 21.0065H29.045V32.5361H31.3269V23.0411H34.1791V21.0065Z" fill="#E6E3CC"/>
<path d="M81.2273 21.0065H78.7221C77.5567 21.0065 76.614 21.927 76.614 23.0654V30.4531C76.614 31.5915 77.5567 32.512 78.7221 32.512H81.2273C82.3934 32.512 83.3354 31.5915 83.3354 30.4531V23.0896C83.3601 21.927 82.3934 21.0065 81.2273 21.0065ZM81.0782 30.0413C81.0782 30.2835 80.8803 30.5015 80.6075 30.5015H79.3178C79.0698 30.5015 78.8464 30.3077 78.8464 30.0413V23.5014C78.8464 23.2592 79.045 23.0411 79.3178 23.0411H80.6075C80.8556 23.0411 81.0782 23.2592 81.0782 23.5014V30.0413Z" fill="#E6E3CC"/>
<path d="M92.191 21.0065H89.7353L87.7021 25.8993H87.3049V21.0065H85.0477V32.5361H87.3049V27.8129H87.7763L89.8596 32.5361H92.3147L89.6858 26.7472L92.191 21.0065Z" fill="#E6E3CC"/>
<path d="M73.614 26.8925V26.6744C74.4826 26.5049 75.1518 25.7298 75.1518 24.8336V23.0654C75.1518 21.927 74.2098 21.0065 73.0437 21.0065H68.6537V32.5361H73.1681C74.3335 32.5361 75.2762 31.6157 75.2762 30.4773V28.8302C75.2515 27.8856 74.532 27.0862 73.614 26.8925ZM70.8862 23.0411H72.3992C72.6466 23.0411 72.8699 23.2349 72.8699 23.5014V25.4634C72.8699 25.7056 72.672 25.9236 72.3992 25.9236H70.8862V23.0411ZM72.9695 30.0413C72.9695 30.2835 72.7709 30.5015 72.4982 30.5015H70.8862V27.8129H72.4982C72.7462 27.8129 72.9695 28.0066 72.9695 28.2731V30.0413Z" fill="#E6E3CC"/>
</g>
<defs>
<clipPath id="clip0_292_538">
<rect width="101.765" height="33.2692" fill="white"/>
</clipPath>
</defs>
</svg>
