<svg width="553" height="524" viewBox="0 0 553 524" fill="none" xmlns="http://www.w3.org/2000/svg"><g clip-path="url(#clip0_101_960)" fill="#E7E3CC"><path d="M244.619 244.776l-4.364.99-4.282-.809-1.444-.689-2.485-3.701-1-2.929-4.825-.212-.108-.073-.741-.907 5.695-3.814-.72-2.841-3.075-.057-10.147 8.532-3.981 8.484-3.712 2.592 7.517-16.995 1.776-1.514 3.313-6.22 18.576-7.199 3.205-4.146.165-.892 6.472-9.759.678-1.669-.357-1.923-2.071-3.11-6.42-2.431-.518-.653-3.551.575 1.336-2.643-.12-.42-7.947.306-2.024-.684-1.729-1.037-5.11-5.618-.58-1.037-14.423-12.201.553 4.784-1.739 4.971-3.018 4.467-2.48-2.005-1.377-.555-3.381-2.41-2.459-6.443-10.774-5.924-7.921.959-2.439-.197-1.874 1.456 1.9 5.075-.362 2.026 2.645 6.676-1.553 3.473-.145 2.41 3.246 2.265 3.381 7.256.233 5.992-5.441 6.795-.285 1.814 4.535 11.05.114.835-3.51 7.09-.347.456-3.163-2.187-6.901-7.257-.57-1.523-1.035-8.117.114-1.555-.751-1.078-8.739-.689-16.79-9.237-2.423-.15-3.06 1.337-1.102-7.256-3.593-3.058-1.077-.363-.782-2.954 4.882-14.554 1.134-1.001 2.516-3.804 2.661-.969.725-1.037 1.3-4.343 5.814-3.758 2.158-6.696-.455-4.012 8.03-.404 2.858-3.167-.85-3.784-1.465-1.379 1.284-6.411-1.361-.518-2.698-2.26-2.423-.306-.875 1.006.663 6.67-1.936 5.095-1.6 1.612-.906-.098-3.298-9.983-1.242 2.229-.798.71-4.354-5.981-.186-1.975.518-3.416-3.997-7.085-1.678 1.342-2.112 5.173.057 1.187 3.246 4.209.414 2.415-.59 4.452-3.95 5.116-2.252-3.908v-.892l-1.036-1.156-1.108.565-.704 1.903-3.173 1.933-11.183-9.521-4.483.409-1.036 4.846-8.801-3.317h-.259l-1.667-.596-3.308-2.161-.316-1.322 2.9-1.265-8.699-12.356-3.758-1.254-2.154-.254-.518-1.674-2.438-1.861.632-5.401-1.828.897h-2.682l-.03-2.265-8.285-1.281-3.033.467-3.153-1.975-2.242-9.448-37.048 35.317.45 3.509 1.124.834.14 1.125-1.124 7.111 1.553 1.814 1.315-.518 3.547.389.559 1.15-2.775 19.82.492 2.659 1.89 4.302-.099.622-5.695 8.205-1.377 1.161-1.035.109.704 20.437 6.347 12.693 2.07 1.197 1.554.125-.88 1.964 1.18 3.229 92.941 25.06 2.397-1.244.906-1.176.938 2.218 4.374 2.752 13.342 3.561 1.507-.777 1.035-1.462 2.853-2.192 1.988-.767 3.665.834 6.73 4.007.963 1.067-.201.731 2.329 5.131 1.792 1.82 10.96 1.186 2.707 1.462 3.795 4.369-.947 1.327-2.304 1.151-2.164-.207-.606-.871-1.18 6.588-1.776 3.151-.704 2.664-1.232 2.229-.979.362 12.648-5.701 2.589-.565.077-.378-3.712-.519 10.039-5.882-.088-1.141 2.558-.761 4.556-4.437 2.112-1.239 10.701-2.306 4.142-3.924 1.284-10.884 2.102-.757 4.406-.337 1.553 2.073.942 3.338 2.708 4.286.818.182 6.249-3.742 1.713-2.12.689 1.721 2.034-.519.202.322-4.369 6.437 2.366 4.965 2.288-4.405 9.588-9.413.741-2.145-4.479.756.021-.046zM64.079 135.822l.637-1.036 3.293-1.089v-1.731l-4.463-1.467-.093-1.311 2.252-1.513 7.129 2.042 3.308-.042 2.465 1.674-.166.55-3.257.679 3.231 1.399.968-.3 1.243.419-.176 1.312-3.303 3.814-2.02-.761-.393-.648-.714-.436-.404.814-1.403 1.508-3.417.56-4.717-4.452v.015zm11.39 31.249l-4.794-.669-5.752-6.219 1.036-1.109 1.47.145.745.86 3.8 2.218 1.978-.891 1.424-1.037-1.646-6.955 2.987.736.797 4.011 1.129-1.632.435.145v3.25l1.248 1.689 8.956-1.715.942.414 1.352 1.809-1.864.892-2.868-.031-11.36 4.11-.015-.021zm18.032 15.622l-7.315-.643-5.995.933-1.382-1.083.647-1.317 5.4-3.317 2.95-.337 1.404.736-1.605.866 1.506 1.404.632.104 3.78 2.26v.394H93.5zm24.504 50.358l-1.729 3.463-1.118.42-.57-.99.684-4.981-1.755-2.649-1.662-.285-.746-.705-2.454-6.624-.181-2.192.373-.669 3.153-1.264-.725-1.908-.042-.954 3.05.69 3.722 18.659v-.011z"/><path d="M159.62 112.146l-4.893 3.97-2.345-8.998-4.106 12.191-2.961-2.369 1.662-9.06-3.484.98-2.744 4.898 1.035 7.308 2.687 4.209 3.966 2.14 8.382.047 4.224-1.508.094-.244 1.62-.269 2.501 2.135 2.604 3.343.29.14 2.278.14 4.597 3.079 2.314 3.726.016 1.462-2.258 5.328.342 1.503 1.186.99.326 1.001-2.977 2.809-4.81.627-1.315 1.969-.424 2.12 1.677 1.322 4.675-2.141 6.694.679 4.815 3.613 14.854 2.369-1.393-1.55-5.892-2.903-2.474-2.016-.202-.907.766-.259 10.95.788-.29-1.016-1.936-2.752-5.783-4.649-4.908-6.49.548-.881 9.009 4.012 1.491-6.655-.073-1.026-2.304-2.924-7.175-2.399-6.104.088-2.081-2.224.921-3.136-4.892-5.473-5.68-2.674-4.028-.809-2.293-1.607-.715-1.788-1.004-.363-4.98.104zm-45.254 10.568l-1.372-4.162.543-4.027 1.952-5.763.461-.612.067-2.281-2.531.301-2.108 2.607-2.381.005-3.66-1.995-1.844-.503-1.584.249-.062-1.721.13-.498-1.414-1.264-3.251.591-2.532.99-1.625 1.311-1.134 3.146.243 4.364 3.257 1.762 3.297 3.561-4.84.197-2.014-.855-1.315.674 3.758 7.536-.155 1.171 4.038.814 9.309-.907 2.143.726 1.812 2.472 4.665-.316.026-.814 1.258-1.741 1.263-.918-.844-1.373-3.556-2.727zm28.754-53.826l7.776-2.363-2.418 3.25-1.724 1.072-2.842.664-.43 2.052 1.564 2.405.497 2.12-.627 2.136-1.527 2.555 1.341 1.275.601.259-.14.523-2.62.923.456 1.773-.228 1.752-1.864 3.394 9.801-1.249 1.03 1.338.989-.752.471-8.2 2.278-3.861-.373-2.021 1.45-5.759.797-1.524 2.526-14.362-.383-.953-8.956.108-1.326.358-3.163 1.715-3.386 4.842-2.454 1.777-.134 2.81 3.018 1.943zm125.972 149.107l-2.475-1.897-.326-.524-.539-3.55-1.159-.772-3.153 2.379-.88 1.358-1.17-1.063-2.672-.897.218-1.275-1.792 3.204-1.584-3.157-.248-5.053-.891-2.794-.823 1.55-.083 4.338.715 2.576-.384 2.742.673 4.716-.429 2.913.321 2.234-.818 2.161-.057 1.348 1.387-.311 4.903-2.462 5.177-4.183.911 1.902 3.645-1.637 1.533-3.846zM83.825 106.103l3.453.617.497-.073 8.123-5.048 4.07-.814-1.015-4.214-4.302-4.017-3.433-.472-1.237.887-1.47 2.913-4.36 3.581-.74 1.586.414 5.054zm62.168-2.773l1.771-.907 2.314-.571 2.014.068 1.299-3.333-.947-1.26-3.764-.435-4.923 1.26-4.251-1.86-.45-1.079-2.144-2.908-4.447-2.265 2.159 2.975 1.367.457 1.356 5.027-.16 2.799.756.964 8.05 1.068zm16.36 58.206l-11.721-10.6-1.434 2.359-.808 9.552 2.387 3.146 1.91-1.627 1.362-2.188 4.137-1.104 3.282 1.856.885-1.394zM106.589 86.77l-4.126 3.763 1.3 1.44 3.059 1.053-1.516 2.85.502.804 8.397.119 1.357.29.963-.627 1.035-2.358-.098-.907-2.532-5.07-1.191 1.265-.331 4.074-.663.674-2.77-2.726-1.558-4.136-1.828-.508zm14.683 27.444l.766.969 1.88 4.017 2.402-1.192 2.107-2.467-1.636-4.52-.223-1.477.637-.808.337-2.338-2.739-.28-2.019.327-.238 1.995-2.967 2.768 1.693 3.006z"/><path d="M136.581 77.69l-.078 3.078 2.454 2.218 2.351-2.094 1.631-3.452-.321-2.005-2.423-4.256-1.942-1.669-.89-2.545-1.212 2.794-.171 4.354.601 3.576zM17.842 210.873l-.554-3.913-.31-.55-3.677-3.908-1.698.607 1.47 1.721 1.916 4.758-1.035.274 3.282 5.557.052 1.793 2.097 2.716-.27-5.422-1.273-3.633zm104.9-115.085l1.843 1.198.218 1.12 1.584.937 1.263-.622.834-4.908-2.164-2.488-1.89 1.58-.233.732-.663.772-.709-.762-1.279-2.856-.424.13.45 4.51 1.17.657zm13.446 15.658l1.599-3.742-.771-.492-2.863-.798-2.2.046.321 2.13-1.336.083-.461 4.644 3.774-.544 1.937-1.327zm-33.88-27.537l.502-.405 1.408.228 1.082.705 1.559-1.326 1.631-2.608-4.489-.502-6.71 2.042.326 1.358 4.691.508zm22.112-5.225l.429 2.12 3.164 1.373.165-2.576-1.537-2.85-1.486-.918-1.507-.466.544 1.503.228 1.814zm31.353 28.046l-.658 2.959 2.263.99 3.318-1.192-4.923-2.757zm-33.88 26.594l3.562 2.4 1.59-1.586-2.641-4.841-2.511 4.027zm47.563 6.443l.875-2.048-1.341-1.954-1.62.083-.533 3.504 2.619.415zm81.138 99.779l-1.031.679-.621-4.209-.44-.01-.533 5.007 2.008 1.332 1.631-1.934-.119-.839-.895-.026zm-117.166-137.73l-.243-3.094-1.227-.233.207 2.721 1.263.606zm-.802-18.949l-1.196-2.846-1.144 3.364.253.342 2.087-.86zm-18.654-.41l2.061-1.84-2.154.125-1.098.668 1.191 1.047zm22.148 4.126l-.129-.637-3.138.212 2.48.928.787-.503zm-4.53 29.953l.373-2.462-.373 2.462zm-13.787-38.22l-1.801-.948-.202.404 2.003.544zM70.784 137.46l-.321-.591-2.107 1.177.264.477 2.164-1.063z"/></g><g clip-path="url(#clip1_101_960)" stroke="#4363A0" stroke-width="2" stroke-miterlimit="10"><path d="M307.8 1.153l-163.337 522.26m295.705-194.061L12.075 195.194m214.056 291.481c123.806 0 224.17-100.464 224.17-224.392 0-123.929-100.364-224.393-224.17-224.393-123.805 0-224.17 100.464-224.17 224.393 0 123.928 100.365 224.392 224.17 224.392z"/><path d="M440.655 328.625c14.104-45.107-70.243-111.683-188.396-148.702-118.153-37.018-225.37-30.461-239.474 14.647-14.105 45.107 70.244 111.684 188.397 148.702 118.153 37.019 225.368 30.461 239.473-14.647z"/><path d="M440.655 328.625c25.651-82.035-49.336-178.547-167.489-215.566-118.153-37.018-234.73-.525-260.381 81.511-25.652 82.036 49.336 178.548 167.489 215.567 118.153 37.018 234.729.524 260.381-81.512z"/><path d="M226.131 486.675c123.806 0 224.17-100.464 224.17-224.392 0-123.929-100.364-224.393-224.17-224.393-123.805 0-224.17 100.464-224.17 224.393 0 123.928 100.365 224.392 224.17 224.392z"/><path d="M308.313 287.161c36.982-118.27 30.431-225.592-14.632-239.71-45.062-14.12-111.573 70.312-148.554 188.583-36.982 118.27-30.431 225.593 14.632 239.711 45.063 14.119 111.572-70.313 148.554-188.584z"/><path d="M375.111 308.09c36.982-118.27.525-234.963-81.43-260.64C211.727 21.773 115.31 96.835 78.329 215.106c-36.982 118.27-.524 234.962 81.43 260.639 81.954 25.677 178.37-49.385 215.352-167.655z"/></g><g clip-path="url(#clip2_101_960)" fill="#4363A0"><path d="M504.885 154.876a73.52 73.52 0 013.153 2.161 1099.084 1099.084 0 0113.438 23.44l-8.312-19.345a61.995 61.995 0 012.57 2.41l18.998 44.166a69.868 69.868 0 00-2.57-2.41l-6.392-14.856c-.7-1.232-1.628-2.876-2.332-4.104a523.151 523.151 0 013.452 14.755 73.79 73.79 0 00-3.165-2.16c-1.383-6.617-2.498-11.727-4.442-19.764-4.163-7.178-7.839-13.525-14.39-24.293m6.899 26.724a8775.274 8775.274 0 00-11.779-22.929c2.073 6.335 3.953 11.966 6.723 20.445a90.209 90.209 0 015.056 2.484zm-18.06-32.783a96.537 96.537 0 014.729 2.312c3.699 7.226 12.361 24.144 23.806 46.9a78.34 78.34 0 00-3.082-1.8l-4.698-9.222a89.259 89.259 0 00-6.083-2.985c.709 2.158 1.58 4.822 2.692 8.228a122.885 122.885 0 00-3.761-1.547 5312.597 5312.597 0 00-13.587-41.894m-22.993-7.57c1.466.336 2.914.69 4.344 1.063l8.349 19.415c2.344.615 4.628 1.279 6.852 1.991l-8.358-19.415c1.354.436 2.686.891 3.996 1.363l18.998 44.166a116.148 116.148 0 00-3.996-1.363l-8.35-19.412a131.21 131.21 0 00-6.851-1.991l8.358 19.432a143.763 143.763 0 00-4.344-1.062l-18.998-44.166m4.11 28.528c-5.12-9.01-7.493-13.16-12.655-22.22a6051.468 6051.468 0 015.86 21.187c2.303.286 4.568.625 6.795 1.016m-19.792-31.331c2.153.285 4.269.6 6.349.943 3.975 6.997 13.288 23.381 25.634 45.415a188.19 188.19 0 00-4.278-.849l-5.049-8.921c-2.665-.46-5.389-.867-8.172-1.221.787 2.841 1.57 5.679 2.348 8.516a190.364 190.364 0 00-4.94-.524 6887.695 6887.695 0 00-11.892-43.372m-.931 37.387c-1.397-1.46-2.314-2.882-3.748-5.87-3.178-6.706-9.819-20.705-13.163-27.729-2.092-.073-4.23-.125-6.38-.144l14.406 33.488c3.012.031 5.979.114 8.902.251m-31.108-39.14c5.724-.059 11.286.065 16.688.37 17.617 37.164 17.617 37.164 19.645 39.07.891.061 1.778.13 2.656.2l4.817 11.197a203.923 203.923 0 00-4.94-.349l-2.544-5.917a239.888 239.888 0 00-15.035-.419l2.543 5.921c-1.768-.005-3.552.015-5.351.06l-4.817-11.197c1.025-.023 2.05-.037 3.067-.046l-16.729-38.89zm-.787 30.778c-5.414-8.683-7.913-12.688-13.364-21.413a8162.067 8162.067 0 015.133 21.993c2.77-.227 5.514-.42 8.231-.58zm-21.215-29.744a345.43 345.43 0 017.696-.547c7.313 11.74 15.668 25.158 27.158 43.795-1.746.057-3.505.128-5.277.215a5031.066 5031.066 0 00-5.343-8.604c-3.264.178-6.566.411-9.905.7.694 2.946 1.383 5.891 2.067 8.834-1.953.175-3.918.369-5.893.581a10093.624 10093.624 0 00-10.515-44.974m-86.479 17.065c2.253-.68 4.502-1.34 6.746-1.978 4.817 3.815 10.812 8.561 20.137 16.13l-8.313-19.344a543.694 543.694 0 016.427-1.61l18.999 44.166a460.705 460.705 0 00-6.427 1.61l-6.38-14.856-3.603-2.748c-.9 8.871-1.722 16.909-2.151 20.922-2.259.646-4.52 1.311-6.784 1.994.863-9.139 1.567-16.956 2.535-27.66a1925.766 1925.766 0 00-21.173-16.614m.726 34.181c-5.416-7.825-8.437-12.162-13.987-20.13 1.509 7.772 3.021 15.548 4.535 23.326a525.728 525.728 0 019.465-3.212m-22.436-27.132a536.286 536.286 0 018.841-3.005c4.804 6.907 14.804 21.283 28.517 41.129-2.052.63-4.11 1.278-6.173 1.945l-5.604-8.082a622.136 622.136 0 00-11.391 3.873l1.856 9.352a616.707 616.707 0 00-6.651 2.421 50293.36 50293.36 0 00-9.399-47.625m-37.843 14.88a552.41 552.41 0 016.639-2.852l8.35 19.416a509.093 509.093 0 0110.891-4.46l-8.35-19.412a647.25 647.25 0 016.643-2.58l18.998 44.166a326.226 326.226 0 00-6.643 2.58l-8.35-19.415c-3.63 1.44-7.26 2.927-10.891 4.46l8.35 19.415a513.568 513.568 0 00-6.639 2.848l-18.998-44.166zm-.045 36.243c-2.192-3.045-11.76-16.311-14.023-19.444 2.34 12.743 2.34 12.743 4.533 24.013a577.018 577.018 0 019.506-4.577m-22.481-25.789a588.853 588.853 0 018.874-4.265c4.454 6.178 14.894 20.648 28.617 39.757a623.555 623.555 0 00-6.247 2.837l-5.621-7.814a577.51 577.51 0 00-11.417 5.484c.878 4.585 1.154 6.026 1.851 9.632a945.169 945.169 0 00-6.549 3.33c-4.124-20.965-6.259-32.101-9.508-48.953m-5.956 50.717c-1.55-.896-2.525-2.1-4.015-4.967a26689.444 26689.444 0 01-13.395-26.851 428.847 428.847 0 00-7.347 4.21l14.406 33.488a498.188 498.188 0 0110.351-5.88zm-33.136-29.415a505.22 505.22 0 0119.202-11.007c17.984 35.95 17.984 35.951 20.328 36.945a2190.04 2190.04 0 013.352-1.769l4.818 11.197a458.897 458.897 0 00-6.16 3.289l-2.548-5.917a491.285 491.285 0 00-17.475 9.933l2.544 5.917a372.99 372.99 0 00-5.792 3.499l-4.817-11.193c1.094-.671 2.187-1.342 3.294-2.004l-16.729-38.89m-1.292 39.303c-4.95-7.092-8.421-12.082-13.275-19.065a10769.98 10769.98 0 005.331 24.371c2.602-1.781 5.25-3.55 7.944-5.306zm-20.931-25.056a406.482 406.482 0 017.415-4.955c4.5 6.438 13.863 19.833 27.272 38.878a405.82 405.82 0 00-5.398 3.421c-2.838-4.068-2.838-4.068-5.351-7.646a458.098 458.098 0 00-9.553 6.381c1.136 5.055 1.136 5.055 2.198 9.75a590.874 590.874 0 00-5.353 3.752c-1.889-8.251-5.819-25.423-11.23-49.593m-62.69 53.785a234.004 234.004 0 013.719-4.079c3.548 2.865 7.96 6.427 15.269 12.182l-8.312-19.344a289.678 289.678 0 014.019-3.936l18.999 44.166a320.398 320.398 0 00-4.02 3.935l-6.388-14.855a353.948 353.948 0 01-2.751-1.992c.698 9.063 1.106 14.083 2.022 24.227a291.33 291.33 0 00-3.731 4.1 1715.981 1715.981 0 01-3.093-31.748 1183.93 1183.93 0 01-15.712-12.635m6.695 37.689a7252.865 7252.865 0 01-11.568-18.893 8307.714 8307.714 0 007.101 24.527 220.67 220.67 0 014.467-5.634zm-17.501-24.744a215.963 215.963 0 014.169-5.267c3.923 6.382 12.078 19.657 23.818 38.462a219.397 219.397 0 00-3.165 3.704 2661.355 2661.355 0 01-4.669-7.568 208.599 208.599 0 00-5.37 6.778c.961 3.267 1.928 6.535 2.901 9.802a188.829 188.829 0 00-2.865 3.926c-2.486-8.311-7.696-25.612-14.815-49.85m-14.476 22.155c.69-1.276 1.407-2.555 2.153-3.837l8.35 19.416a162.756 162.756 0 013.9-6.347l-8.35-19.415a209.59 209.59 0 012.589-3.886l18.998 44.171a154.026 154.026 0 00-2.588 3.885l-8.35-19.416a158.497 158.497 0 00-3.901 6.347l8.35 19.415a149.793 149.793 0 00-2.153 3.832l-18.998-44.165zm9.288 37.83a6014.61 6014.61 0 01-10.51-18.999 6787.966 6787.966 0 008.198 24.392 114.15 114.15 0 012.313-5.393zm-15.337-24.965a103.231 103.231 0 012.148-5.016 5615.582 5615.582 0 0021.675 38.669 138.343 138.343 0 00-1.78 3.574c-.209-.373-4.059-7.274-4.242-7.609a115.496 115.496 0 00-2.776 6.471l3.32 9.754a118.852 118.852 0 00-1.325 3.713c-10.374-29.923-17.012-49.535-17.012-49.539m12.575 51.778c-.734-.865-1.387-2.064-2.701-4.93l-12.098-26.822a76.46 76.46 0 00-.795 4.279l14.406 33.488a75.16 75.16 0 011.188-6.015zm-18.383-29.322a75.9 75.9 0 012.056-11.174c16.248 35.875 16.248 35.875 17.296 36.819.182-.635.372-1.254.57-1.911l4.817 11.198a84.893 84.893 0 00-1.018 3.529l-2.552-5.917a77.154 77.154 0 00-2.004 10.153l2.544 5.917a74.427 74.427 0 00-.345 3.41l-4.821-11.197c.052-.645.108-1.289.177-1.942l-16.729-38.885m12.726 38.811a4504.28 4504.28 0 01-9.204-19.309 5610.107 5610.107 0 009.554 24.077 56.922 56.922 0 01-.342-4.768m-12.705-25.589a57.669 57.669 0 01-.33-4.45c3.132 6.53 9.64 20.118 19.025 39.248a64.707 64.707 0 00-.064 3.201l-3.743-7.72c.038 1.916.172 3.829.402 5.731l3.863 9.617c.152 1.089.341 2.169.56 3.241-11.833-28.973-19.742-48.851-19.746-48.868m19.045 49.833l-.063-.142-.474-1.103.537 1.245zm-1.322-3.072a630.97 630.97 0 01-3.523-8.544l.257.817-2.307-5.448 1.275 3.18-.947-2.195.494 1.156 4.751 11.043m58.685-149.039l3.306 2.713 1.825-3.147c.319 1.098 2.229 7.541 2.486 8.412a502.025 502.025 0 011.464-5.734l1.249 2.151 3.233-3.758.992 5.624 2.396-1.153c-1.147 3.107-2.66 7.246-3.795 10.361l2.3 1.928-6.626 2.492c.491.948 1.153 2.214 1.644 3.165l-.441.363-.444.367a218.928 218.928 0 00-1.245-3.511l-4.588 6.772-.17-3.688-7.997-.655 1.705-2.222-3.022-3.955 3.699-1.94-.779-2.552 4.235 1.038c-2.385-4.079-2.385-4.079-4.138-7.052l2.813-.678c-.045-1.595-.106-3.722-.148-5.316m224.571-102.295l3.797 3.644 2.515-1.751 2.258 7.913c.673-1.199 1.577-2.799 2.254-4.003l1.324 2.302 4.088-1.621c.23 1.499.53 3.497.755 4.991l2.874.138a2967.083 2967.083 0 00-5.249 6.707l2.587 2.578-8.256-.899c.511.985 1.198 2.302 1.71 3.291l-.582.103-.586.103-1.17-3.402-6.529 3.531.222-3.08a1601.826 1601.826 0 00-10.272-3.947l2.513-1.094-3.422-4.518 5.021-.006-.692-2.413c1.579.8 3.685 1.865 5.26 2.669-1.466-2.516-3.248-5.535-4.426-7.547l3.6.667c.109-1.318.256-3.071.369-4.385m166.959 53.147l.83 2.15.892 1.355 1.376 3.209.129.277.128.281-1.496-3.47.865 1.957-7.353-17.085-.025-.059c-.652-1.504-1.525-3.512-2.182-5.029.378.905.877 2.095 1.247 3.017l-1.273-2.682 3.596 8.247c-.724-1.546-1.684-3.612-2.421-5.155l.927 2.2-1.665-3.039c.736 1.622 1.717 3.772 2.449 5.406l-.563-.709c1.386 2.725 3.329 6.318 4.543 9.117"/><path d="M95.641 398.76a71.556 71.556 0 01-3.035-2.236c.755 3.636 1.692 8.159 3.404 15.103l-8.312-19.344a68.351 68.351 0 01-2.457-2.485l18.998 44.166c.788.839 1.61 1.679 2.457 2.485l-6.392-14.852c-.17-.754-.414-1.755-.558-2.513a1283.115 1283.115 0 0012.009 21.711c.99.768 2.01 1.514 3.06 2.24-5.387-9.328-9.53-16.606-15.968-28.327-.624-2.853-1.789-8.167-2.954-14.617-.075-.418-.023-.992-.243-1.335m18.964 34.066c-2.88-8.38-4.112-12.012-6.941-20.366a8000.594 8000.594 0 0011.85 22.954 89.4 89.4 0 01-4.909-2.588zm-8.171-27.749a87.412 87.412 0 01-4.596-2.415 5212.07 5212.07 0 0014.342 41.327 85.783 85.783 0 002.986 1.871c-.552-1.592-2.237-6.477-2.809-8.145a87.425 87.425 0 005.911 3.119c2.496 4.837 2.496 4.837 4.752 9.167a93.054 93.054 0 003.685 1.622c-3.77-7.172-12.604-23.977-23.868-45.77-.1-.278-.24-.539-.416-.776m22.465 8a145.081 145.081 0 01-4.256-1.138l8.355 19.416c-2.3-.654-4.529-1.358-6.689-2.112l-8.354-19.412c-1.32-.458-2.619-.936-3.895-1.434l18.998 44.166c1.274.497 2.572.975 3.896 1.434l-8.35-19.415c2.173.757 4.403 1.46 6.688 2.112l8.35 19.411c1.393.397 2.812.777 4.256 1.138l-18.999-44.166zm21.823 32.241a6336.507 6336.507 0 01-6.048-21.092c3.797 6.645 8.917 15.571 12.739 22.22-2.269-.338-4.5-.713-6.691-1.124m-6.401-29.204a183.617 183.617 0 01-6.248-1.043c1.906 6.622 6.372 22.13 12.484 42.812 1.38.319 2.773.62 4.181.903-.829-2.81-1.645-5.62-2.449-8.432 2.618.506 5.296.956 8.034 1.349a4889.78 4889.78 0 005.104 8.88c1.6.219 3.222.419 4.864.6a8487.161 8487.161 0 01-25.987-45.069m34.141 40.697c.163-1.372-.138-2.767-1.239-5.738-2.035-5.242-8.813-22.79-10.669-27.613 2.08.101 4.18.179 6.3.236l14.406 33.488a227.7 227.7 0 01-8.785-.373m-2.526-38.443a239.381 239.381 0 01-16.479-.599c14.291 36.948 14.291 36.948 13.851 38.663-.878-.075-1.75-.154-2.614-.237l4.817 11.197c1.603.155 3.224.299 4.861.432l-2.544-5.917c4.81.357 9.759.567 14.847.629l2.543 5.917c1.752.022 3.519.027 5.301.015l-4.813-11.197-3.041-.009-16.729-38.89m26.695 30.007a3278.687 3278.687 0 01-5.322-21.88c4.581 7.267 8.842 14.068 13.477 21.406a334.69 334.69 0 01-8.155.474zm-4.933-30.79c-2.564.18-5.104.329-7.62.447a8690.652 8690.652 0 0010.935 44.432 280.61 280.61 0 005.205-.145l-2.134-8.753c3.225-.134 6.493-.324 9.805-.571 1.791 2.857 3.583 5.711 5.377 8.562 1.933-.153 3.886-.325 5.859-.515-3.891-6.134-14.22-22.429-27.41-43.457m85.94-16.057c-2.25.654-4.493 1.29-6.729 1.906a8945.337 8945.337 0 00-3.449 22.424l-8.312-19.344a451.44 451.44 0 01-6.398 1.543l18.999 44.166a477.03 477.03 0 006.397-1.539l-6.38-14.856.739-3.865a2093.446 2093.446 0 0017.741 15.537c2.25-.622 4.504-1.261 6.763-1.919-8.973-7.84-14.607-12.803-23.116-20.424a9857.217 9857.217 0 013.761-23.638m25.304 26.588a30669.69 30669.69 0 01-4.67-23.185 32267.2 32267.2 0 0014.113 20.073 541.828 541.828 0 01-9.443 3.112zm-3.67-33.411a451.624 451.624 0 01-8.824 2.905c3.771 18.757 5.573 27.703 9.488 47.097a543.72 543.72 0 006.148-1.874c-1.023-5.168-1.023-5.168-1.861-9.281a528.98 528.98 0 0011.353-3.734c2.946 4.194 2.946 4.194 5.613 8.04a476.024 476.024 0 006.642-2.351 13729.45 13729.45 0 01-28.58-40.806m37.838-14.471a508.29 508.29 0 01-6.639 2.781l8.337 19.412a524.97 524.97 0 01-10.89 4.347l-8.354-19.433a459.759 459.759 0 01-6.631 2.493l18.999 44.166c2.206-.831 4.416-1.662 6.63-2.493l-8.35-19.411c3.63-1.405 7.26-2.854 10.89-4.347l8.367 19.44a503.852 503.852 0 006.639-2.781l-18.998-44.174zm26.137 24.531c-2.382-12.375-2.382-12.375-4.617-23.871 4.723 6.468 9.435 12.93 14.136 19.386a486.862 486.862 0 01-9.519 4.468m-3.59-34.75a461.685 461.685 0 01-8.886 4.16c3.119 16.16 6.243 32.319 9.371 48.479a613.81 613.81 0 006.25-2.774c-1.124-6.194-1.124-6.194-1.847-9.54a571.026 571.026 0 0011.429-5.367c.167.235 5.485 7.55 5.63 7.768l3.113-1.536a632.31 632.31 0 003.495-1.748c-9.516-13.142-19.034-26.293-28.555-39.455m39.618 27.232c.345-1.946.115-3.562-.956-6.65l-10.412-28.491a730.273 730.273 0 007.443-4.164l14.405 33.487a522.26 522.26 0 01-10.476 5.83m-.113-48.28a510.144 510.144 0 01-19.444 10.91c13.873 38.158 13.873 38.158 13.088 40.813a380.243 380.243 0 01-3.378 1.749l4.818 11.197a603.127 603.127 0 006.23-3.255l-2.543-5.917a515.29 515.29 0 0017.696-9.845l2.544 5.918c1.98-1.15 3.936-2.309 5.867-3.479l-4.817-11.197c-1.118.667-2.235 1.331-3.353 1.995l-16.729-38.889m27.582 21.395a12104.11 12104.11 0 00-5.316-24.266c4.462 6.33 8.92 12.661 13.376 18.994a439.936 439.936 0 01-8.06 5.272zm-5.037-35.554a443.722 443.722 0 01-7.545 4.926 9964.921 9964.921 0 0110.616 49.42 375.09 375.09 0 005.449-3.392c-.525-2.45-1.582-7.358-2.094-9.729a455.72 455.72 0 009.691-6.334l5.3 7.633a438.474 438.474 0 005.45-3.752 12139.367 12139.367 0 00-26.883-38.768m63.99-53.622a274.382 274.382 0 01-3.823 4.074c.313 5.953.742 14.108 1.179 26.527l-8.312-19.344a283.391 283.391 0 01-4.116 3.927l19.011 44.174a254.494 254.494 0 004.115-3.927l-6.392-14.856c-.021-1.394-.045-3.252-.07-4.646 5.225 4.552 8.092 7.067 13.772 12.127a258.63 258.63 0 003.835-4.099 1564.84 1564.84 0 00-17.726-16.198c-.354-7.908-.705-15.455-1.469-27.751m19.557 22.922c-2.411-8.454-4.557-15.994-7.005-24.46l11.619 18.818a221.205 221.205 0 01-4.619 5.642m-8.457-35.924a293.722 293.722 0 01-4.308 5.27 8977.444 8977.444 0 0114.037 49.869 260.95 260.95 0 003.253-3.699l-2.771-9.811a213.328 213.328 0 005.546-6.781c2.42 3.983 2.42 3.983 4.61 7.572a226.948 226.948 0 002.969-3.934 7531.738 7531.738 0 00-23.319-38.486m15.104-22.178a159.465 159.465 0 01-2.27 3.853l8.349 19.415a168.695 168.695 0 01-4.076 6.368l-8.354-19.416a164.852 164.852 0 01-2.697 3.897l18.998 44.166a156.78 156.78 0 002.697-3.897l-8.35-19.412a169.774 169.774 0 004.081-6.367l8.35 19.416a146.833 146.833 0 002.27-3.857l-18.998-44.166zm17.017 22.781a8765.985 8765.985 0 00-8.055-24.354c3.825 6.85 6.776 12.157 10.531 18.94a128.11 128.11 0 01-2.476 5.434m-10.583-35.716a122.741 122.741 0 01-2.303 5.054c2.721 8.287 8.387 25.527 16.175 49.695.653-1.203 1.28-2.401 1.88-3.594a5303.524 5303.524 0 00-3.193-9.766 118.255 118.255 0 002.976-6.516l4.162 7.625c.512-1.254.993-2.502 1.446-3.742-3.488-6.447-10.738-19.862-21.143-38.756zm21.305 25.873a42.697 42.697 0 00-2.265-6.703l-11.688-28.545c.356-1.445.67-2.881.942-4.309l14.405 33.488c-.377 2-.841 4.019-1.394 6.057m-14.743-48.523a79.963 79.963 0 01-2.442 11.264c15.589 38.225 15.589 38.225 16.095 40.968-.202.639-.413 1.28-.633 1.924l4.801 11.227a96.23 96.23 0 001.131-3.555l-2.556-5.934a81.339 81.339 0 002.351-10.235l2.556 5.921c.188-1.155.343-2.302.466-3.443l-4.813-11.219a66.06 66.06 0 01-.248 1.967l-16.725-38.89m13.682 21.767a7759.514 7759.514 0 00-9.353-24.069c3.51 7.31 5.743 11.987 9.191 19.246a57.51 57.51 0 01.162 4.823zm-13.2-35.117c.11 1.485.163 2.985.158 4.5 2.908 7.542 9.74 25.199 18.788 49.133.087-1.084.148-2.163.181-3.231l-3.713-9.666a59.012 59.012 0 00-.197-5.789c1.921 4.069 1.921 4.069 3.651 7.745a56.64 56.64 0 00-.434-3.283 4346.558 4346.558 0 00-18.434-39.397m10.64 17.413l1.55 3.772-1.467-3.495c-.3-.516-.725-1.191-1.067-1.677l-.651-1.877c-.553-1.258-1.293-2.892-1.85-4.133l-.365-1.327-1.068-2.515c.225.465.529 1.086.741 1.555l-3.109-7.204-.067-.184c2.453 5.695 4.947 11.369 7.353 17.085zm-78.905 111.91c.033 1.595.073 3.717.102 5.312l-2.93.657a900.332 900.332 0 014.163 7.065l-4.444-1.072.758 2.547-4.105 1.88 3.156 3.977-1.99 2.183 8.675.749.078 3.675 4.91-6.724 1.216 3.515.457-.371.453-.363c-.495-.948-1.157-2.218-1.665-3.165l6.522-2.493-2.258-1.915c1.017-3.124 2.355-7.297 3.339-10.429l-2.192 1.182c-.325-1.675-.758-3.949-1.088-5.641l-2.94 3.809-1.249-2.146c-.423 1.723-.944 4.023-1.359 5.747l-2.512-8.412-1.787 3.147-3.339-2.714M237.611 426.807l-.347 4.347-3.55-.763 4.396 7.571a615.1 615.1 0 01-5.154-2.835l.696 2.396-4.865-.316 3.363 4.614-2.404.872c2.983 1.357 6.97 3.151 9.966 4.482l-.168 3.005 6.386-3.276a839.73 839.73 0 011.153 3.385l.59-.098.57-.095c-.512-.989-1.19-2.31-1.702-3.295l8.307.815-2.621-2.519a8117.9 8117.9 0 015.459-7.062l-2.962.025c-.213-1.516-.496-3.542-.713-5.062l-4.189 1.829-1.329-2.289-2.312 4.087-2.237-7.934-2.515 1.78-3.793-3.656M92.57 413.652l1.605 3.445-2.892-5.563a962.3 962.3 0 011.504 3.47l-.141-.276-.141-.273a657.66 657.66 0 01-1.368-3.206l-.682-1.257-.537-1.257-.415-1.019-.35-.804-4.77-11.06 1.77 4.053-3.566-8.256 1.222 2.699c-.37-.909-.86-2.095-1.246-3.025.673 1.496 1.571 3.495 2.25 4.991l.27.181c1.014 2.411 2.026 4.82 3.034 7.228-.124-.498-.302-1.16-.414-1.675l1.102 2.494.972 1.124a578.21 578.21 0 001.661 4.19l1.07 1.728a8.683 8.683 0 00.053 2.034"/></g><defs><clipPath id="clip0_101_960"><path fill="#fff" transform="translate(11.603 55.334)" d="M0 0h257.488v226.578H0z"/></clipPath><clipPath id="clip1_101_960"><path fill="#fff" transform="translate(0 .58)" d="M0 0h452.243v523.404H0z"/></clipPath><clipPath id="clip2_101_960"><path fill="#fff" transform="rotate(.164 -47495.152 25202.35)" d="M0 0h481.269v332.423H0z"/></clipPath></defs></svg>