<svg width="115" height="130" viewBox="0 0 115 130" fill="none" xmlns="http://www.w3.org/2000/svg"><path d="M107.093 106.442c-4.874-7.616-11.517-8.376-11.517-8.376s1.118 1.025 1.62 1.528c.306.302.614.627.92.944 2.597 2.751 4.303 5.307 5.369 8.041.993 2.54 1.251 4.879.79 7.151a9.565 9.565 0 01-1.02 2.791l-9.8-9.973 4.64-4.52h-7.248a1.47 1.47 0 00-.922.425 781.596 781.596 0 00-3.995 3.511c-.633.56-1.266 1.127-1.878 1.672l-1.312 1.173 4.222 4.234.587-.542c.102-.091.206-.187.308-.284l.673-.66c.642-.627 1.306-1.271 1.95-1.922 1.974 2.21 3.95 4.42 5.931 6.63l2.425 2.712 1.035 1.17.019.021-.037.024a9.516 9.516 0 01-4.778 1.594c-1.936.088-3.491-.373-4.748-1.404-.614-.5-1.195-1.064-1.764-1.61a74.864 74.864 0 00-.872-.828 5.503 5.503 0 01-.308-.302c-.614-.602-.94-.603-1.656-.211a9.432 9.432 0 01-.384.202c-.33.208-.719.305-1.11.277a1.205 1.205 0 00-1.044.257 1.175 1.175 0 00-.341 1.027c0 .112 0 .184-.274.437a6.877 6.877 0 01-2.249 1.426 6.46 6.46 0 00-3.03 2.369c-.614.859-.654 1.808-.117 2.525.305.383.73.655 1.21.774s.986.078 1.44-.117c1.022-.422 2.304-1.082 3.161-2.471a20.157 20.157 0 011.733-2.284.478.478 0 01.366-.169.931.931 0 01.66.241c.219.205.437.41.652.618a20.08 20.08 0 002.698 2.272c2.292 1.501 4.648 2.251 7.068 2.251a13.433 13.433 0 006.044-1.534c.507-.253.986-.554 1.453-.843l.188-.118 1.761 1.953 3.961-3.565-.449-.465-.513-.536c-.384-.404-.75-.784-1.128-1.16a13.646 13.646 0 002.182-5.63c.501-3.665-.363-7.272-2.572-10.726zm-71.676 16.48l9.386-7.114-3.269-.67 1.615-6.151-5.524 1.213-.38-3.01-4.545 4.35 1.318-9.917-3.697 1.591-2.517-5.148-2.52 5.148-3.693-1.591 1.315 9.917-4.542-4.35-.383 3.01-5.522-1.213 1.615 6.151-3.271.67 9.386 7.114-1.699 3.598 8.943-2.73-.336 4.276h1.411l-.332-4.276 8.94 2.73-1.7-3.598zM27.554.296c-11.77 0-17.27 7.59-17.27 19.36v3.52h8.03v-3.96c0-6.93 2.86-11.22 9.02-11.22 6.27 0 9.02 4.07 9.02 11.99v3.52c0 6.71-3.52 10.34-9.24 10.56h-5.06v7.7h4.62c6.49.22 9.68 3.85 9.68 11.44v5.94c0 7.81-2.75 11.88-9.02 11.88-6.16 0-9.02-4.18-9.02-11.11v-5.83h-8.03v5.28c0 11.77 5.5 19.47 17.27 19.47 11.88 0 17.38-7.7 17.38-19.47v-5.94c0-7.7-2.86-13.53-9.35-15.95 6.16-2.31 9.35-7.92 9.35-15.84v-1.98c0-11.77-5.5-19.36-17.38-19.36zm30.109 25.19v10.67h8.25v-10.67h-8.25zm0 41.91v10.67h8.25v-10.67h-8.25zm27.42 10.67h8.58l19.8-69.52v-7.48h-34.87v7.7h26.18l-19.69 69.3z" fill="#4363A0"/></svg>