<svg width="740" height="262" viewBox="0 0 740 262" fill="none" xmlns="http://www.w3.org/2000/svg"><path d="M128.5 256.692H72.8V111.496l.512-23.688v-.011l.77-23.38c-7.792 7.748-13.31 12.927-16.527 15.5m69.905 175.775V5.54H82.824l-.273.217L2.283 69.665l-.784.624.627.783 25.392 31.698.626.782.78-.628 28.63-23.005m146.85-53.628c15.449-15.795 36.405-23.648 62.747-23.648 18.568 0 34.833 4.357 48.76 13.104 14.046 8.75 24.793 21.467 32.25 38.101 7.456 16.519 11.165 36.206 11.165 59.033 0 49.196-10.359 86.114-31.256 110.57-20.924 24.487-52.545 36.65-94.662 36.65-14.788 0-26.062-.795-33.777-2.407l-.795-.166V213.17l1.242.311c9.46 2.365 19.376 3.549 29.752 3.549 17.521 0 31.853-2.545 43.043-7.579 11.162-5.136 19.691-13.108 25.609-23.938 5.814-10.752 9.244-25.517 10.224-44.365h-.439c-6.591 10.541-14.231 18.033-22.945 22.39-8.812 4.406-19.77 6.581-32.827 6.581-21.932 0-39.32-7.015-52.038-21.121l-.003-.003c-12.708-14.21-19.001-33.847-19.001-58.78 0-26.895 7.617-48.244 22.951-63.924zm0 0l.715.699m89.354 33.494l.005.006c7.003 9.116 10.529 20.31 10.529 33.645 0 8.768-3.657 16.579-11.093 23.462-7.42 6.755-16.323 10.133-26.763 10.133-11.144 0-19.279-3.444-24.607-10.186-5.387-6.815-8.136-16.116-8.136-28.01 0-13.96 3.042-24.492 8.977-31.747 5.92-7.235 14.14-10.88 24.789-10.88 10.686 0 19.431 4.493 26.299 13.577zm103.428 194.792l-.648 1.416h57.428l.262-.599 94.242-215.75.083-.192V5.88h-180.77v46.31h122.316l-92.913 203.086zm339.287 1.416h1v-46.309H629.631v-.953l31.714-29.859.004-.003c21.36-19.543 36.291-34.639 44.751-45.27 8.567-10.624 14.874-20.991 18.895-31.102 4.139-10.235 6.206-21.154 6.206-32.75 0-13.354-3.341-25.247-10.044-35.647-6.699-10.395-16.107-18.467-28.189-24.22-12.085-5.755-25.984-8.618-41.671-8.618-11.88 0-22.641 1.199-32.276 3.607-9.619 2.291-18.504 5.614-26.65 9.974-8.16 4.368-18.391 11.806-30.681 22.275l-.758.646.642.76 28.63 33.914.639.757.763-.632c9.839-8.142 19.259-14.4 28.261-18.788 8.959-4.367 18.183-6.545 27.681-6.545 9.022 0 16.09 2.39 21.316 7.073l.008.007c5.282 4.635 8.01 11.757 8.01 21.573a50.855 50.855 0 01-3.677 19.056c-2.455 6.137-6.489 12.871-12.131 20.207-5.642 7.221-17.702 20.305-36.224 39.281l-.002.002-62.539 63.221-.289.292v38.051h175.168z" stroke="#D73B3B" stroke-width="2"/></svg>