<svg width="122" height="126" viewBox="0 0 122 126" fill="none" xmlns="http://www.w3.org/2000/svg"><path d="M113.749 103.375C108.533 95.76 101.424 95 101.424 95s1.197 1.025 1.733 1.528c.329.301.657.627.986.943 2.779 2.752 4.604 5.308 5.745 8.041 1.062 2.541 1.339 4.879.845 7.152a9.17 9.17 0 01-1.091 2.791l-10.487-9.973 4.965-4.521h-7.757c-.374.029-.724.18-.987.425-1.539 1.254-3.022 2.478-4.275 3.511-.677.561-1.355 1.127-2.01 1.673l-1.403 1.172 4.518 4.235.628-.543c.109-.09.22-.187.329-.283l.72-.66c.687-.627 1.398-1.272 2.088-1.923 2.112 2.21 4.227 4.42 6.347 6.631l2.595 2.712 1.108 1.169.02.021-.04.025a10.67 10.67 0 01-5.113 1.594c-2.072.087-3.736-.374-5.081-1.405-.658-.5-1.28-1.063-1.888-1.609a84.635 84.635 0 00-.934-.829 5.795 5.795 0 01-.329-.301c-.657-.603-1.006-.603-1.772-.211-.112.057-.243.123-.411.202a2.07 2.07 0 01-1.187.277 1.393 1.393 0 00-.593.005 1.326 1.326 0 00-.525.251 1.176 1.176 0 00-.318.474c-.064.178-.08.368-.047.554 0 .111 0 .184-.293.437a7.443 7.443 0 01-2.407 1.425c-1.32.469-2.45 1.295-3.243 2.369-.657.859-.7 1.809-.125 2.526.326.382.782.654 1.295.773a2.59 2.59 0 001.54-.116c1.095-.422 2.467-1.082 3.384-2.471a20.442 20.442 0 011.855-2.285.52.52 0 01.175-.123.567.567 0 01.216-.046c.261-.008.516.078.707.241.234.205.467.41.697.618a21.176 21.176 0 002.888 2.273c2.453 1.501 4.974 2.251 7.563 2.251a15.186 15.186 0 006.469-1.534c.542-.253 1.055-.555 1.555-.844l.201-.117 1.884 1.953 4.239-3.566-.48-.464-.55-.536a63.991 63.991 0 00-1.206-1.161 13.116 13.116 0 002.334-5.63c.536-3.664-.388-7.272-2.752-10.726zm-76.706 16.48l10.045-7.113-3.498-.67 1.728-6.151-5.912 1.213-.407-3.011-4.864 4.351 1.41-9.917-3.956 1.591L28.896 95l-2.696 5.148-3.953-1.591 1.407 9.917-4.86-4.351-.41 3.011-5.91-1.213 1.729 6.151-3.501.67 10.045 7.113-1.818 3.598 9.57-2.73-.36 4.277h1.511l-.356-4.277 9.567 2.73-1.818-3.598zM31.221 67.03h-23.1v-11l22-52.03h13.2v52.03h5.72v11h-5.72V81h-12.1V67.03zm0-11V26h-.22l-11.88 30.03h12.1zm28.204-28.6h11.66v11.66h-11.66V27.43zm0 41.91h11.66V81h-11.66V69.34zm42.072-47.08h-12.65v-8.58c3.447 0 6.197-.293 8.25-.88 2.127-.587 3.813-1.54 5.06-2.86 1.247-1.393 2.347-3.373 3.3-5.94h8.14v77h-12.1V22.26z" fill="#EDEDED"/></svg>