<svg width="114" height="137" viewBox="0 0 114 137" fill="none" xmlns="http://www.w3.org/2000/svg"><path d="M24.69 57.58c-11.88 0-17.27 7.81-17.27 19.58v6.27h8.03v-6.82c0-6.82 2.75-11.33 9.02-11.33 6.38 0 9.02 4.18 9.02 12.1 0 21.67-26.07 26.51-26.07 51.37v6.6h33.77v-7.81h-25.3v-1.21c.11-17.71 26.18-26.07 26.18-49.28 0-11.77-5.39-19.47-17.38-19.47zm29.67 25.19v10.67h8.25V82.77h-8.25zm0 41.91v10.67h8.25v-10.67h-8.25zm38.31-67.1c-11.77 0-17.27 7.59-17.27 19.36v3.52h8.03V76.5c0-6.93 2.86-11.22 9.02-11.22 6.27 0 9.02 4.07 9.02 11.99v3.52c0 6.71-3.52 10.34-9.24 10.56h-5.06v7.7h4.62c6.49.22 9.68 3.85 9.68 11.44v5.94c0 7.81-2.75 11.88-9.02 11.88-6.16 0-9.02-4.18-9.02-11.11v-5.83H75.4v5.28c0 11.77 5.5 19.47 17.27 19.47 11.88 0 17.38-7.7 17.38-19.47v-5.94c0-7.7-2.86-13.53-9.35-15.95 6.16-2.31 9.35-7.92 9.35-15.84v-1.98c0-11.77-5.5-19.36-17.38-19.36zM40.29 8.725C35.416 1.109 28.773.35 28.773.35s1.118 1.024 1.62 1.528c.307.301.614.626.921.943 2.597 2.752 4.302 5.307 5.368 8.04.993 2.541 1.251 4.88.79 7.152a9.564 9.564 0 01-1.02 2.791l-9.8-9.972 4.64-4.521h-7.247c-.35.029-.676.18-.922.425a842.969 842.969 0 00-3.995 3.511c-.633.56-1.266 1.127-1.877 1.673l-1.312 1.172 4.222 4.234.587-.542c.101-.09.206-.187.307-.283l.673-.66c.642-.627 1.306-1.272 1.951-1.923 1.973 2.21 3.95 4.42 5.93 6.63l2.425 2.713 1.036 1.169.018.021-.037.024a9.516 9.516 0 01-4.778 1.595c-1.936.087-3.49-.374-4.747-1.405-.615-.5-1.196-1.064-1.764-1.61-.29-.277-.578-.554-.873-.828a5.644 5.644 0 01-.307-.302c-.615-.602-.94-.602-1.657-.21-.104.057-.227.123-.384.201a1.84 1.84 0 01-1.109.278 1.207 1.207 0 00-1.045.256 1.18 1.18 0 00-.34 1.028c0 .111 0 .183-.274.437a6.88 6.88 0 01-2.25 1.425 6.46 6.46 0 00-3.03 2.369c-.614.859-.654 1.808-.116 2.526.304.382.73.654 1.21.773.479.119.985.078 1.438-.116 1.024-.422 2.305-1.082 3.162-2.472.523-.8 1.102-1.564 1.734-2.284a.487.487 0 01.365-.169.932.932 0 01.66.241c.22.205.437.41.652.618a20.08 20.08 0 002.698 2.272c2.293 1.501 4.649 2.252 7.068 2.252a13.435 13.435 0 006.044-1.534c.507-.253.987-.555 1.454-.844l.187-.118 1.76 1.953 3.962-3.565-.449-.464-.513-.537a60.09 60.09 0 00-1.128-1.16 13.635 13.635 0 002.182-5.63c.5-3.665-.363-7.272-2.572-10.726zm62.324 16.48L112 18.092l-3.268-.67 1.614-6.152-5.524 1.214-.381-3.011-4.544 4.35 1.318-9.917-3.697 1.591L95.001.35l-2.519 5.147-3.694-1.59 1.315 9.917-4.541-4.351-.384 3.01-5.521-1.213 1.615 6.152-3.272.67 9.386 7.113-1.699 3.598 8.943-2.73-.335 4.277h1.41l-.332-4.277 8.94 2.73-1.699-3.598z" fill="#D73B3B"/></svg>